%TF.GenerationSoftware,KiCad,Pcbnew,9.0.1*%
%TF.CreationDate,2025-06-17T15:21:47+02:00*%
%TF.ProjectId,open_g,6f70656e-5f67-42e6-9b69-6361645f7063,rev?*%
%TF.SameCoordinates,Original*%
%TF.FileFunction,Copper,L4,Bot*%
%TF.FilePolarity,Positive*%
%FSLAX46Y46*%
G04 Gerber Fmt 4.6, Leading zero omitted, Abs format (unit mm)*
G04 Created by KiCad (PCBNEW 9.0.1) date 2025-06-17 15:21:47*
%MOMM*%
%LPD*%
G01*
G04 APERTURE LIST*
G04 Aperture macros list*
%AMRotRect*
0 Rectangle, with rotation*
0 The origin of the aperture is its center*
0 $1 length*
0 $2 width*
0 $3 Rotation angle, in degrees counterclockwise*
0 Add horizontal line*
21,1,$1,$2,0,0,$3*%
G04 Aperture macros list end*
%TA.AperFunction,ComponentPad*%
%ADD10C,0.900000*%
%TD*%
%TA.AperFunction,ComponentPad*%
%ADD11C,10.000000*%
%TD*%
%TA.AperFunction,ComponentPad*%
%ADD12C,4.650000*%
%TD*%
%TA.AperFunction,ComponentPad*%
%ADD13C,1.650000*%
%TD*%
%TA.AperFunction,ComponentPad*%
%ADD14R,1.650000X1.650000*%
%TD*%
%TA.AperFunction,SMDPad,CuDef*%
%ADD15C,2.500000*%
%TD*%
%TA.AperFunction,ComponentPad*%
%ADD16R,1.500000X1.500000*%
%TD*%
%TA.AperFunction,ComponentPad*%
%ADD17C,1.500000*%
%TD*%
%TA.AperFunction,ComponentPad*%
%ADD18R,1.600000X1.600000*%
%TD*%
%TA.AperFunction,ComponentPad*%
%ADD19C,1.600000*%
%TD*%
%TA.AperFunction,HeatsinkPad*%
%ADD20C,0.600000*%
%TD*%
%TA.AperFunction,ComponentPad*%
%ADD21RotRect,1.600000X1.600000X315.000000*%
%TD*%
%TA.AperFunction,ComponentPad*%
%ADD22R,1.700000X1.700000*%
%TD*%
%TA.AperFunction,ComponentPad*%
%ADD23C,1.700000*%
%TD*%
%TA.AperFunction,ViaPad*%
%ADD24C,0.600000*%
%TD*%
%TA.AperFunction,Conductor*%
%ADD25C,1.500000*%
%TD*%
%TA.AperFunction,Conductor*%
%ADD26C,0.200000*%
%TD*%
G04 APERTURE END LIST*
D10*
%TO.P,H1,1*%
%TO.N,N/C*%
X162750000Y-144000000D03*
X161651650Y-146651650D03*
X161651650Y-141348350D03*
X159000000Y-147750000D03*
D11*
X159000000Y-144000000D03*
D10*
X159000000Y-140250000D03*
X156348350Y-146651650D03*
X156348350Y-141348350D03*
X155250000Y-144000000D03*
%TD*%
%TO.P,H2,1*%
%TO.N,N/C*%
X109750000Y-56000000D03*
X108651650Y-58651650D03*
X108651650Y-53348350D03*
X106000000Y-59750000D03*
D11*
X106000000Y-56000000D03*
D10*
X106000000Y-52250000D03*
X103348350Y-58651650D03*
X103348350Y-53348350D03*
X102250000Y-56000000D03*
%TD*%
D12*
%TO.P,J1,MH2*%
%TO.N,N/C*%
X109860000Y-140500000D03*
%TO.P,J1,MH1*%
X134850000Y-140500000D03*
D13*
%TO.P,J1,9,9*%
%TO.N,unconnected-(J1-Pad9)*%
X118200000Y-141920000D03*
%TO.P,J1,8,8*%
%TO.N,unconnected-(J1-Pad8)*%
X120970000Y-141920000D03*
%TO.P,J1,7,7*%
%TO.N,unconnected-(J1-Pad7)*%
X123740000Y-141920000D03*
%TO.P,J1,6,6*%
%TO.N,unconnected-(J1-Pad6)*%
X126510000Y-141920000D03*
%TO.P,J1,5,5*%
%TO.N,/UART_1_TX_IO*%
X116815000Y-139080000D03*
%TO.P,J1,4,4*%
%TO.N,/UART_1_RX_IO*%
X119585000Y-139080000D03*
%TO.P,J1,3,3*%
%TO.N,unconnected-(J1-Pad3)*%
X122355000Y-139080000D03*
%TO.P,J1,2,2*%
%TO.N,+12V*%
X125125000Y-139080000D03*
D14*
%TO.P,J1,1,1*%
%TO.N,GND*%
X127895000Y-139080000D03*
%TD*%
D15*
%TO.P,TP7,1,1*%
%TO.N,/ISM_INT_1*%
X156000000Y-68600000D03*
%TD*%
%TO.P,TP6,1,1*%
%TO.N,/ISM_INT_2*%
X160000000Y-68000000D03*
%TD*%
D16*
%TO.P,PS1,1,+VIN*%
%TO.N,+12V*%
X143460000Y-134000000D03*
D17*
%TO.P,PS1,2,GND*%
%TO.N,GND*%
X146000000Y-134000000D03*
%TO.P,PS1,3,+VOUT*%
%TO.N,+3V3*%
X148540000Y-134000000D03*
%TD*%
D18*
%TO.P,C2,1*%
%TO.N,+12V*%
X136000000Y-134000000D03*
D19*
%TO.P,C2,2*%
%TO.N,GND*%
X136000000Y-132000000D03*
%TD*%
D20*
%TO.P,U1,39,GND*%
%TO.N,GND*%
X136200000Y-64630000D03*
X136200000Y-66030000D03*
X136900000Y-63930000D03*
X136900000Y-65330000D03*
X136900000Y-66730000D03*
X137575000Y-64630000D03*
X137575000Y-66030000D03*
X138300000Y-63930000D03*
X138300000Y-65330000D03*
X138300000Y-66730000D03*
X139000000Y-64630000D03*
X139000000Y-66030000D03*
%TD*%
D21*
%TO.P,C3,1*%
%TO.N,+3V3*%
X155385786Y-132385786D03*
D19*
%TO.P,C3,2*%
%TO.N,GND*%
X156800000Y-133800000D03*
%TD*%
D22*
%TO.P,J3,1,Pin_1*%
%TO.N,+3V3*%
X162560000Y-96520000D03*
D23*
%TO.P,J3,2,Pin_2*%
X162560000Y-93980000D03*
%TO.P,J3,3,Pin_3*%
%TO.N,GND*%
X162560000Y-91440001D03*
%TO.P,J3,4,Pin_4*%
%TO.N,Net-(J3-Pin_4)*%
X162560000Y-88900000D03*
%TO.P,J3,5,Pin_5*%
%TO.N,Net-(J3-Pin_5)*%
X162560000Y-86360000D03*
%TO.P,J3,6,Pin_6*%
%TO.N,/SDO_SA0*%
X162560000Y-83820000D03*
%TO.P,J3,7,Pin_7*%
%TO.N,/CS_5V*%
X162560000Y-81280000D03*
%TO.P,J3,8,Pin_8*%
%TO.N,/ISM_INT_1*%
X162560000Y-78739999D03*
%TO.P,J3,9,Pin_9*%
%TO.N,/ISM_INT_2*%
X162560000Y-76200000D03*
%TD*%
D22*
%TO.P,J4,1,Pin_1*%
%TO.N,/ISM_SCX*%
X149860000Y-91440000D03*
D23*
%TO.P,J4,2,Pin_2*%
%TO.N,/ISM_SDX*%
X149860000Y-88900000D03*
%TO.P,J4,3,Pin_3*%
%TO.N,/OCS_AUX*%
X149860000Y-86360000D03*
%TO.P,J4,4,Pin_4*%
%TO.N,/SDO_AUX*%
X149860000Y-83820000D03*
%TO.P,J4,5,Pin_5*%
%TO.N,GND*%
X149860000Y-81280000D03*
%TD*%
D14*
%TO.P,J5,1,1.1*%
%TO.N,GND*%
X111500000Y-121000000D03*
D13*
%TO.P,J5,2,1.2*%
X106500000Y-121000000D03*
%TO.P,J5,3,2.1*%
%TO.N,+3V3*%
X111500000Y-117500000D03*
%TO.P,J5,4,2.2*%
X106500000Y-117500000D03*
%TO.P,J5,5,3.1*%
%TO.N,/UART_2_TX*%
X111500000Y-114000000D03*
%TO.P,J5,6,3.2*%
X106500000Y-114000000D03*
%TO.P,J5,7,4.1*%
%TO.N,/UART_2_RX*%
X111500000Y-110500000D03*
%TO.P,J5,8,4.2*%
X106500000Y-110500000D03*
%TO.P,J5,9,5.1*%
%TO.N,/I2C_3_SCL*%
X111500000Y-107000000D03*
%TO.P,J5,10,5.2*%
X106500000Y-107000000D03*
%TO.P,J5,11,6.1*%
%TO.N,/I2C_3_SDA*%
X111500000Y-103500000D03*
%TO.P,J5,12,6.2*%
X106500000Y-103500000D03*
%TD*%
D24*
%TO.N,+3V3*%
X159300000Y-78800000D03*
%TO.N,GND*%
X148082000Y-93421200D03*
X145288000Y-85598000D03*
X151765000Y-58420000D03*
X162000000Y-113750000D03*
X120650000Y-58166000D03*
X102800000Y-86940000D03*
X122000000Y-119250000D03*
X121412000Y-58928000D03*
X151257000Y-58928000D03*
X160250000Y-74250000D03*
X149750000Y-102250000D03*
X162000000Y-105750000D03*
X133500000Y-78500000D03*
X152273000Y-57912000D03*
X121412000Y-58166000D03*
X151500000Y-106500000D03*
X158369000Y-94488000D03*
X162000000Y-110750000D03*
X151003000Y-58166000D03*
X121412000Y-57404000D03*
X105000000Y-90500000D03*
X116000000Y-62500000D03*
X120650000Y-58928000D03*
X117000000Y-62500000D03*
X149750000Y-115500000D03*
X120650000Y-57404000D03*
X151511000Y-57658000D03*
%TO.N,+3V3*%
X154200000Y-127000000D03*
X153200000Y-128000000D03*
X153700000Y-127500000D03*
X155200000Y-128000000D03*
X151500000Y-108750000D03*
X151200000Y-128000000D03*
X154400000Y-94500000D03*
X114250000Y-59000000D03*
X152200000Y-81600000D03*
X152200000Y-128000000D03*
X152200000Y-127000000D03*
X120650000Y-61468000D03*
X121412000Y-61468000D03*
X127250000Y-82750000D03*
X152700000Y-127500000D03*
X154700000Y-127500000D03*
X102800000Y-84440000D03*
X155200000Y-127000000D03*
X120000000Y-112500000D03*
X127250000Y-93500000D03*
X120650000Y-60706000D03*
X154200000Y-128000000D03*
X151700000Y-127500000D03*
X156200000Y-128000000D03*
X121412000Y-60706000D03*
X133500000Y-119250000D03*
X155700000Y-127500000D03*
X105000000Y-92500000D03*
X153200000Y-127000000D03*
X122174000Y-60706000D03*
X120000000Y-117750000D03*
X122174000Y-61468000D03*
%TO.N,+12V*%
X130200000Y-134000000D03*
%TO.N,/UART_1_TX*%
X134625000Y-82375000D03*
X150750000Y-62500000D03*
%TO.N,/UART_1_RX*%
X151500000Y-64250000D03*
X135250000Y-83000000D03*
%TO.N,/SPI_MISO*%
X137750000Y-87250000D03*
X141000000Y-91250000D03*
%TO.N,/I2C_1_SCL*%
X153700000Y-77500000D03*
X153700000Y-72400000D03*
%TO.N,/I2C_1_SDA*%
X152950003Y-73038138D03*
X153000000Y-75200000D03*
%TO.N,/I2C_2_SDA*%
X131750000Y-90500000D03*
X153125000Y-63625000D03*
%TO.N,/I2C_2_SCL*%
X131750000Y-86000000D03*
X151500000Y-60750000D03*
%TO.N,/UART_2_TX*%
X125000000Y-73750000D03*
X125000000Y-109000000D03*
%TO.N,/UART_2_RX*%
X126125000Y-71625000D03*
X124250000Y-108250000D03*
%TO.N,Net-(U1-IO33)*%
X122750000Y-69000000D03*
X122050003Y-100750000D03*
%TO.N,Net-(U1-IO32)*%
X121250000Y-69250000D03*
X121250000Y-100750000D03*
%TO.N,/CS_5V*%
X156718000Y-90424000D03*
%TO.N,/SDO_SA0*%
X156718000Y-94742000D03*
%TO.N,/ISM_INT_2*%
X154000000Y-65500000D03*
%TO.N,/ISM_INT_1*%
X153900000Y-66500000D03*
%TD*%
D25*
%TO.N,+12V*%
X125125000Y-137475000D02*
X128600000Y-134000000D01*
X128600000Y-134000000D02*
X136000000Y-134000000D01*
X136000000Y-134000000D02*
X143460000Y-134000000D01*
X125125000Y-139080000D02*
X125125000Y-137475000D01*
D26*
%TO.N,/UART_1_TX*%
X135000000Y-82000000D02*
X135250000Y-82000000D01*
X134625000Y-82375000D02*
X135000000Y-82000000D01*
X135250000Y-82000000D02*
X150750000Y-66500000D01*
X150750000Y-66500000D02*
X150750000Y-62500000D01*
%TO.N,/UART_1_RX*%
X151500000Y-66500000D02*
X135750000Y-82250000D01*
X151500000Y-64250000D02*
X151500000Y-66500000D01*
X135750000Y-82250000D02*
X135750000Y-82500000D01*
X135750000Y-82500000D02*
X135250000Y-83000000D01*
%TO.N,/SPI_MISO*%
X141000000Y-91250000D02*
X137750000Y-88000000D01*
X137750000Y-88000000D02*
X137750000Y-87250000D01*
%TO.N,/I2C_1_SCL*%
X153700000Y-77500000D02*
X153700000Y-72400000D01*
%TO.N,/I2C_1_SDA*%
X153000000Y-75200000D02*
X153000000Y-75199994D01*
X152950003Y-75149997D02*
X152950003Y-73038138D01*
X153000000Y-75199994D02*
X152950003Y-75149997D01*
%TO.N,/I2C_2_SDA*%
X153125000Y-63625000D02*
X153125000Y-69250000D01*
X153125000Y-69250000D02*
X131875000Y-90500000D01*
X131875000Y-90500000D02*
X131750000Y-90500000D01*
%TO.N,/I2C_2_SCL*%
X135682900Y-86000000D02*
X152500000Y-69182900D01*
X152500000Y-61750000D02*
X151500000Y-60750000D01*
X131750000Y-86000000D02*
X135682900Y-86000000D01*
X152500000Y-69182900D02*
X152500000Y-61750000D01*
%TO.N,/UART_2_TX*%
X125000000Y-109000000D02*
X125000000Y-73750000D01*
%TO.N,/UART_2_RX*%
X124250000Y-108250000D02*
X124250000Y-73500000D01*
X124250000Y-73500000D02*
X126125000Y-71625000D01*
%TO.N,Net-(U1-IO33)*%
X122050003Y-100750000D02*
X122050003Y-69699997D01*
X122050003Y-69699997D02*
X122750000Y-69000000D01*
%TO.N,Net-(U1-IO32)*%
X121250000Y-100750000D02*
X121250000Y-69250000D01*
%TO.N,/CS_5V*%
X156718000Y-90424000D02*
X158496000Y-88646000D01*
X158496000Y-85344000D02*
X162560000Y-81280000D01*
X158496000Y-88646000D02*
X158496000Y-85344000D01*
%TO.N,/SDO_SA0*%
X160020000Y-86360000D02*
X162560000Y-83820000D01*
X156718000Y-94742000D02*
X160020000Y-91440000D01*
X160020000Y-91440000D02*
X160020000Y-86360000D01*
%TO.N,/ISM_INT_2*%
X154000000Y-65500000D02*
X157500000Y-65500000D01*
X162560000Y-70560000D02*
X162560000Y-76200000D01*
X157500000Y-65500000D02*
X162560000Y-70560000D01*
%TO.N,/ISM_INT_1*%
X162560000Y-78739999D02*
X161400000Y-77579999D01*
X161400000Y-74000000D02*
X153900000Y-66500000D01*
X161400000Y-77579999D02*
X161400000Y-74000000D01*
%TD*%
%TA.AperFunction,Conductor*%
%TO.N,+3V3*%
G36*
X155418828Y-126519685D02*
G01*
X155435578Y-126532592D01*
X156759791Y-127746454D01*
X156795907Y-127806264D01*
X156800000Y-127837860D01*
X156800000Y-131948637D01*
X156780315Y-132015676D01*
X156763681Y-132036318D01*
X156102972Y-132697026D01*
X156088177Y-132709663D01*
X156005777Y-132769530D01*
X155952781Y-132808034D01*
X155952779Y-132808036D01*
X155952778Y-132808036D01*
X155808036Y-132952778D01*
X155808036Y-132952779D01*
X155808034Y-132952781D01*
X155769530Y-133005777D01*
X155709663Y-133088177D01*
X155697026Y-133102972D01*
X153636319Y-135163681D01*
X153574996Y-135197166D01*
X153548638Y-135200000D01*
X148251362Y-135200000D01*
X148184323Y-135180315D01*
X148163681Y-135163681D01*
X147436319Y-134436319D01*
X147402834Y-134374996D01*
X147400000Y-134348638D01*
X147400000Y-131151362D01*
X147419685Y-131084323D01*
X147436319Y-131063681D01*
X151963681Y-126536319D01*
X152025004Y-126502834D01*
X152051362Y-126500000D01*
X155351789Y-126500000D01*
X155418828Y-126519685D01*
G37*
%TD.AperFunction*%
%TD*%
M02*
