%TF.GenerationSoftware,KiCad,Pcbnew,9.0.1*%
%TF.CreationDate,2025-06-18T18:36:31+02:00*%
%TF.ProjectId,open_g,6f70656e-5f67-42e6-9b69-6361645f7063,rev?*%
%TF.SameCoordinates,Original*%
%TF.FileFunction,Soldermask,Bot*%
%TF.FilePolarity,Negative*%
%FSLAX46Y46*%
G04 Gerber Fmt 4.6, Leading zero omitted, Abs format (unit mm)*
G04 Created by KiCad (PCBNEW 9.0.1) date 2025-06-18 18:36:31*
%MOMM*%
%LPD*%
G01*
G04 APERTURE LIST*
G04 Aperture macros list*
%AMRotRect*
0 Rectangle, with rotation*
0 The origin of the aperture is its center*
0 $1 length*
0 $2 width*
0 $3 Rotation angle, in degrees counterclockwise*
0 Add horizontal line*
21,1,$1,$2,0,0,$3*%
G04 Aperture macros list end*
%ADD10R,1.700000X1.700000*%
%ADD11C,1.700000*%
%ADD12C,0.900000*%
%ADD13C,10.000000*%
%ADD14R,1.500000X1.500000*%
%ADD15C,1.500000*%
%ADD16R,1.600000X1.600000*%
%ADD17C,1.600000*%
%ADD18R,1.650000X1.650000*%
%ADD19C,1.650000*%
%ADD20RotRect,1.600000X1.600000X315.000000*%
%ADD21C,4.650000*%
%ADD22C,2.500000*%
G04 APERTURE END LIST*
D10*
%TO.C,J4*%
X149860000Y-91440000D03*
D11*
X149860000Y-88900000D03*
X149860000Y-86360000D03*
X149860000Y-83820000D03*
X149860000Y-81280000D03*
%TD*%
D12*
%TO.C,H2*%
X102250000Y-56000000D03*
X103348350Y-53348350D03*
X103348350Y-58651650D03*
X106000000Y-52250000D03*
D13*
X106000000Y-56000000D03*
D12*
X106000000Y-59750000D03*
X108651650Y-53348350D03*
X108651650Y-58651650D03*
X109750000Y-56000000D03*
%TD*%
D14*
%TO.C,PS1*%
X143460000Y-134000000D03*
D15*
X146000000Y-134000000D03*
X148540000Y-134000000D03*
%TD*%
D16*
%TO.C,C2*%
X136000000Y-134000000D03*
D17*
X136000000Y-132000000D03*
%TD*%
D12*
%TO.C,H1*%
X155250000Y-144000000D03*
X156348350Y-141348350D03*
X156348350Y-146651650D03*
X159000000Y-140250000D03*
D13*
X159000000Y-144000000D03*
D12*
X159000000Y-147750000D03*
X161651650Y-141348350D03*
X161651650Y-146651650D03*
X162750000Y-144000000D03*
%TD*%
D10*
%TO.C,J3*%
X162560000Y-96520000D03*
D11*
X162560000Y-93980000D03*
X162560000Y-91440001D03*
X162560000Y-88900000D03*
X162560000Y-86360000D03*
X162560000Y-83820000D03*
X162560000Y-81280000D03*
X162560000Y-78739999D03*
X162560000Y-76200000D03*
%TD*%
D18*
%TO.C,J5*%
X111500000Y-121000000D03*
D19*
X106500000Y-121000000D03*
X111500000Y-117500000D03*
X106500000Y-117500000D03*
X111500000Y-114000000D03*
X106500000Y-114000000D03*
X111500000Y-110500000D03*
X106500000Y-110500000D03*
X111500000Y-107000000D03*
X106500000Y-107000000D03*
X111500000Y-103500000D03*
X106500000Y-103500000D03*
%TD*%
D20*
%TO.C,C3*%
X155385786Y-132385786D03*
D17*
X156800000Y-133800000D03*
%TD*%
D18*
%TO.C,J1*%
X127895000Y-139080000D03*
D19*
X125125000Y-139080000D03*
X122355000Y-139080000D03*
X119585000Y-139080000D03*
X116815000Y-139080000D03*
X126510000Y-141920000D03*
X123740000Y-141920000D03*
X120970000Y-141920000D03*
X118200000Y-141920000D03*
D21*
X134850000Y-140500000D03*
X109860000Y-140500000D03*
%TD*%
D22*
%TO.C,TP6*%
X160000000Y-68000000D03*
%TD*%
%TO.C,TP7*%
X156000000Y-68600000D03*
%TD*%
M02*
