%TF.GenerationSoftware,KiCad,Pcbnew,9.0.1*%
%TF.CreationDate,2025-06-17T15:21:47+02:00*%
%TF.ProjectId,open_g,6f70656e-5f67-42e6-9b69-6361645f7063,rev?*%
%TF.SameCoordinates,Original*%
%TF.FileFunction,Legend,Bot*%
%TF.FilePolarity,Positive*%
%FSLAX46Y46*%
G04 Gerber Fmt 4.6, Leading zero omitted, Abs format (unit mm)*
G04 Created by KiCad (PCBNEW 9.0.1) date 2025-06-17 15:21:47*
%MOMM*%
%LPD*%
G01*
G04 APERTURE LIST*
%ADD10C,0.150000*%
%ADD11C,0.120000*%
G04 APERTURE END LIST*
D10*
X157261904Y-65554819D02*
X156690476Y-65554819D01*
X156976190Y-66554819D02*
X156976190Y-65554819D01*
X156357142Y-66554819D02*
X156357142Y-65554819D01*
X156357142Y-65554819D02*
X155976190Y-65554819D01*
X155976190Y-65554819D02*
X155880952Y-65602438D01*
X155880952Y-65602438D02*
X155833333Y-65650057D01*
X155833333Y-65650057D02*
X155785714Y-65745295D01*
X155785714Y-65745295D02*
X155785714Y-65888152D01*
X155785714Y-65888152D02*
X155833333Y-65983390D01*
X155833333Y-65983390D02*
X155880952Y-66031009D01*
X155880952Y-66031009D02*
X155976190Y-66078628D01*
X155976190Y-66078628D02*
X156357142Y-66078628D01*
X155452380Y-65554819D02*
X154785714Y-65554819D01*
X154785714Y-65554819D02*
X155214285Y-66554819D01*
X161261904Y-65306819D02*
X160690476Y-65306819D01*
X160976190Y-66306819D02*
X160976190Y-65306819D01*
X160357142Y-66306819D02*
X160357142Y-65306819D01*
X160357142Y-65306819D02*
X159976190Y-65306819D01*
X159976190Y-65306819D02*
X159880952Y-65354438D01*
X159880952Y-65354438D02*
X159833333Y-65402057D01*
X159833333Y-65402057D02*
X159785714Y-65497295D01*
X159785714Y-65497295D02*
X159785714Y-65640152D01*
X159785714Y-65640152D02*
X159833333Y-65735390D01*
X159833333Y-65735390D02*
X159880952Y-65783009D01*
X159880952Y-65783009D02*
X159976190Y-65830628D01*
X159976190Y-65830628D02*
X160357142Y-65830628D01*
X158928571Y-65306819D02*
X159119047Y-65306819D01*
X159119047Y-65306819D02*
X159214285Y-65354438D01*
X159214285Y-65354438D02*
X159261904Y-65402057D01*
X159261904Y-65402057D02*
X159357142Y-65544914D01*
X159357142Y-65544914D02*
X159404761Y-65735390D01*
X159404761Y-65735390D02*
X159404761Y-66116342D01*
X159404761Y-66116342D02*
X159357142Y-66211580D01*
X159357142Y-66211580D02*
X159309523Y-66259200D01*
X159309523Y-66259200D02*
X159214285Y-66306819D01*
X159214285Y-66306819D02*
X159023809Y-66306819D01*
X159023809Y-66306819D02*
X158928571Y-66259200D01*
X158928571Y-66259200D02*
X158880952Y-66211580D01*
X158880952Y-66211580D02*
X158833333Y-66116342D01*
X158833333Y-66116342D02*
X158833333Y-65878247D01*
X158833333Y-65878247D02*
X158880952Y-65783009D01*
X158880952Y-65783009D02*
X158928571Y-65735390D01*
X158928571Y-65735390D02*
X159023809Y-65687771D01*
X159023809Y-65687771D02*
X159214285Y-65687771D01*
X159214285Y-65687771D02*
X159309523Y-65735390D01*
X159309523Y-65735390D02*
X159357142Y-65783009D01*
X159357142Y-65783009D02*
X159404761Y-65878247D01*
D11*
%TO.C,TP7*%
X157450000Y-68600000D02*
G75*
G02*
X154550000Y-68600000I-1450000J0D01*
G01*
X154550000Y-68600000D02*
G75*
G02*
X157450000Y-68600000I1450000J0D01*
G01*
%TO.C,TP6*%
X161450000Y-68000000D02*
G75*
G02*
X158550000Y-68000000I-1450000J0D01*
G01*
X158550000Y-68000000D02*
G75*
G02*
X161450000Y-68000000I1450000J0D01*
G01*
%TD*%
M02*
