%TF.GenerationSoftware,KiCad,Pcbnew,9.0.1*%
%TF.CreationDate,2025-06-18T18:36:31+02:00*%
%TF.ProjectId,open_g,6f70656e-5f67-42e6-9b69-6361645f7063,rev?*%
%TF.SameCoordinates,Original*%
%TF.FileFunction,Soldermask,Top*%
%TF.FilePolarity,Negative*%
%FSLAX46Y46*%
G04 Gerber Fmt 4.6, Leading zero omitted, Abs format (unit mm)*
G04 Created by KiCad (PCBNEW 9.0.1) date 2025-06-18 18:36:31*
%MOMM*%
%LPD*%
G01*
G04 APERTURE LIST*
G04 Aperture macros list*
%AMRoundRect*
0 Rectangle with rounded corners*
0 $1 Rounding radius*
0 $2 $3 $4 $5 $6 $7 $8 $9 X,Y pos of 4 corners*
0 Add a 4 corners polygon primitive as box body*
4,1,4,$2,$3,$4,$5,$6,$7,$8,$9,$2,$3,0*
0 Add four circle primitives for the rounded corners*
1,1,$1+$1,$2,$3*
1,1,$1+$1,$4,$5*
1,1,$1+$1,$6,$7*
1,1,$1+$1,$8,$9*
0 Add four rect primitives between the rounded corners*
20,1,$1+$1,$2,$3,$4,$5,0*
20,1,$1+$1,$4,$5,$6,$7,0*
20,1,$1+$1,$6,$7,$8,$9,0*
20,1,$1+$1,$8,$9,$2,$3,0*%
%AMRotRect*
0 Rectangle, with rotation*
0 The origin of the aperture is its center*
0 $1 length*
0 $2 width*
0 $3 Rotation angle, in degrees counterclockwise*
0 Add horizontal line*
21,1,$1,$2,0,0,$3*%
%AMFreePoly0*
4,1,6,1.000000,0.000000,0.500000,-0.750000,-0.500000,-0.750000,-0.500000,0.750000,0.500000,0.750000,1.000000,0.000000,1.000000,0.000000,$1*%
G04 Aperture macros list end*
%ADD10C,0.000000*%
%ADD11RoundRect,0.250000X-0.350000X-0.450000X0.350000X-0.450000X0.350000X0.450000X-0.350000X0.450000X0*%
%ADD12C,2.500000*%
%ADD13RoundRect,0.250000X0.450000X-0.350000X0.450000X0.350000X-0.450000X0.350000X-0.450000X-0.350000X0*%
%ADD14FreePoly0,180.000000*%
%ADD15FreePoly0,0.000000*%
%ADD16R,1.700000X1.700000*%
%ADD17C,1.700000*%
%ADD18RoundRect,0.250000X-0.450000X0.350000X-0.450000X-0.350000X0.450000X-0.350000X0.450000X0.350000X0*%
%ADD19RoundRect,0.250000X0.337500X0.475000X-0.337500X0.475000X-0.337500X-0.475000X0.337500X-0.475000X0*%
%ADD20C,0.900000*%
%ADD21C,10.000000*%
%ADD22R,1.500000X1.500000*%
%ADD23C,1.500000*%
%ADD24RoundRect,0.250000X0.475000X-0.337500X0.475000X0.337500X-0.475000X0.337500X-0.475000X-0.337500X0*%
%ADD25RoundRect,0.250000X0.070711X-0.565685X0.565685X-0.070711X-0.070711X0.565685X-0.565685X0.070711X0*%
%ADD26R,1.600000X1.600000*%
%ADD27C,1.600000*%
%ADD28RoundRect,0.250000X0.565685X0.070711X0.070711X0.565685X-0.565685X-0.070711X-0.070711X-0.565685X0*%
%ADD29R,1.400000X2.100000*%
%ADD30RoundRect,0.250000X-0.565685X-0.070711X-0.070711X-0.565685X0.565685X0.070711X0.070711X0.565685X0*%
%ADD31R,1.650000X1.650000*%
%ADD32C,1.650000*%
%ADD33RoundRect,0.150000X0.875000X0.150000X-0.875000X0.150000X-0.875000X-0.150000X0.875000X-0.150000X0*%
%ADD34R,1.500000X0.900000*%
%ADD35R,0.900000X1.500000*%
%ADD36C,0.600000*%
%ADD37R,3.800000X3.800000*%
%ADD38RoundRect,0.250000X0.350000X0.450000X-0.350000X0.450000X-0.350000X-0.450000X0.350000X-0.450000X0*%
%ADD39RotRect,1.600000X1.600000X315.000000*%
%ADD40C,4.650000*%
%ADD41R,2.000000X0.700000*%
%ADD42R,2.600000X1.000000*%
%ADD43R,2.600000X1.500000*%
%ADD44R,1.400000X2.700000*%
%ADD45R,1.200000X1.200000*%
%ADD46RoundRect,0.250000X-0.337500X-0.475000X0.337500X-0.475000X0.337500X0.475000X-0.337500X0.475000X0*%
%ADD47RoundRect,0.250000X-0.475000X0.337500X-0.475000X-0.337500X0.475000X-0.337500X0.475000X0.337500X0*%
G04 APERTURE END LIST*
D10*
%TO.C,JP1*%
G36*
X158900000Y-97205000D02*
G01*
X153900000Y-97205000D01*
X153900000Y-95705000D01*
X158900000Y-95705000D01*
X158900000Y-97205000D01*
G37*
%TO.C,JP2*%
G36*
X158900001Y-93350000D02*
G01*
X153900001Y-93350000D01*
X153900001Y-91850000D01*
X158900001Y-91850000D01*
X158900001Y-93350000D01*
G37*
%TD*%
D11*
%TO.C,R2*%
X117500000Y-103500000D03*
X119500000Y-103500000D03*
%TD*%
D12*
%TO.C,TP12*%
X137750000Y-93000000D03*
%TD*%
D13*
%TO.C,R5*%
X140250000Y-101000000D03*
X140250000Y-99000000D03*
%TD*%
D12*
%TO.C,TP1*%
X122000000Y-119250000D03*
%TD*%
D13*
%TO.C,R17*%
X146533001Y-93440000D03*
X146533001Y-91440000D03*
%TD*%
%TO.C,R3*%
X118500000Y-61037500D03*
X118500000Y-59037500D03*
%TD*%
D11*
%TO.C,R1*%
X117500000Y-107000000D03*
X119500000Y-107000000D03*
%TD*%
D12*
%TO.C,TP2*%
X130200000Y-134000000D03*
%TD*%
D14*
%TO.C,JP1*%
X158400001Y-96455000D03*
D15*
X154399999Y-96455000D03*
%TD*%
D13*
%TO.C,R7*%
X135250000Y-101000000D03*
X135250000Y-99000000D03*
%TD*%
D16*
%TO.C,J4*%
X149860000Y-91440000D03*
D17*
X149860000Y-88900000D03*
X149860000Y-86360000D03*
X149860000Y-83820000D03*
X149860000Y-81280000D03*
%TD*%
D18*
%TO.C,R20*%
X127300000Y-89440000D03*
X127300000Y-91440000D03*
%TD*%
D13*
%TO.C,R21*%
X127300000Y-86940000D03*
X127300000Y-84940000D03*
%TD*%
D19*
%TO.C,C1*%
X118537500Y-64500000D03*
X116462500Y-64500000D03*
%TD*%
D20*
%TO.C,H2*%
X102250000Y-56000000D03*
X103348350Y-53348350D03*
X103348350Y-58651650D03*
X106000000Y-52250000D03*
D21*
X106000000Y-56000000D03*
D20*
X106000000Y-59750000D03*
X108651650Y-53348350D03*
X108651650Y-58651650D03*
X109750000Y-56000000D03*
%TD*%
D22*
%TO.C,PS1*%
X143460000Y-134000000D03*
D23*
X146000000Y-134000000D03*
X148540000Y-134000000D03*
%TD*%
D12*
%TO.C,TP16*%
X153200000Y-59900000D03*
%TD*%
D24*
%TO.C,C6*%
X126000000Y-59750000D03*
X126000000Y-57675000D03*
%TD*%
D12*
%TO.C,TP10*%
X140250000Y-96000000D03*
%TD*%
D25*
%TO.C,R8*%
X121896699Y-127660660D03*
X123310913Y-126246446D03*
%TD*%
D26*
%TO.C,C2*%
X136000000Y-134000000D03*
D27*
X136000000Y-132000000D03*
%TD*%
D13*
%TO.C,R12*%
X153416000Y-84836000D03*
X153416000Y-82836000D03*
%TD*%
D18*
%TO.C,R16*%
X146533001Y-86900000D03*
X146533001Y-88900000D03*
%TD*%
D20*
%TO.C,H1*%
X155250000Y-144000000D03*
X156348350Y-141348350D03*
X156348350Y-146651650D03*
X159000000Y-140250000D03*
D21*
X159000000Y-144000000D03*
D20*
X159000000Y-147750000D03*
X161651650Y-141348350D03*
X161651650Y-146651650D03*
X162750000Y-144000000D03*
%TD*%
D16*
%TO.C,J3*%
X162560000Y-96520000D03*
D17*
X162560000Y-93980000D03*
X162560000Y-91440001D03*
X162560000Y-88900000D03*
X162560000Y-86360000D03*
X162560000Y-83820000D03*
X162560000Y-81280000D03*
X162560000Y-78739999D03*
X162560000Y-76200000D03*
%TD*%
D28*
%TO.C,R10*%
X127200000Y-126600000D03*
X125785786Y-125185786D03*
%TD*%
D29*
%TO.C,IC1*%
X118500000Y-68000000D03*
X118500000Y-77100000D03*
X114000000Y-68000000D03*
X114000000Y-77100000D03*
%TD*%
D28*
%TO.C,R11*%
X125609010Y-129958757D03*
X124194796Y-128544543D03*
%TD*%
D24*
%TO.C,C8*%
X106450000Y-92477500D03*
X106450000Y-90402500D03*
%TD*%
D14*
%TO.C,JP2*%
X158400002Y-92600000D03*
D15*
X154400000Y-92600000D03*
%TD*%
D18*
%TO.C,R18*%
X120000000Y-114000000D03*
X120000000Y-116000000D03*
%TD*%
D30*
%TO.C,R15*%
X157843786Y-84945786D03*
X159258000Y-86360000D03*
%TD*%
D31*
%TO.C,J5*%
X111500000Y-121000000D03*
D32*
X106500000Y-121000000D03*
X111500000Y-117500000D03*
X106500000Y-117500000D03*
X111500000Y-114000000D03*
X106500000Y-114000000D03*
X111500000Y-110500000D03*
X106500000Y-110500000D03*
X111500000Y-107000000D03*
X106500000Y-107000000D03*
X111500000Y-103500000D03*
X106500000Y-103500000D03*
%TD*%
D12*
%TO.C,TP8*%
X154300000Y-80200000D03*
%TD*%
D33*
%TO.C,IC3*%
X118950000Y-95250000D03*
X118950000Y-93980000D03*
X118950000Y-92710000D03*
X118950000Y-91440000D03*
X118950000Y-90170000D03*
X118950000Y-88900000D03*
X118950000Y-87630000D03*
X109650000Y-87630000D03*
X109650000Y-88900000D03*
X109650000Y-90170000D03*
X109650000Y-91440000D03*
X109650000Y-92710000D03*
X109650000Y-93980000D03*
X109650000Y-95250000D03*
%TD*%
D12*
%TO.C,TP15*%
X125750000Y-119250000D03*
%TD*%
D34*
%TO.C,U1*%
X130350000Y-57610000D03*
X130350000Y-58880000D03*
X130350000Y-60150000D03*
X130350000Y-61420000D03*
X130350000Y-62690000D03*
X130350000Y-63960000D03*
X130350000Y-65230000D03*
X130350000Y-66500000D03*
X130350000Y-67770000D03*
X130350000Y-69040000D03*
X130350000Y-70310000D03*
X130350000Y-71580000D03*
X130350000Y-72850000D03*
X130350000Y-74120000D03*
D35*
X133390000Y-75370000D03*
X134660000Y-75370000D03*
X135930000Y-75370000D03*
X137200000Y-75370000D03*
X138470000Y-75370000D03*
X139740000Y-75370000D03*
X141010000Y-75370000D03*
X142280000Y-75370000D03*
X143550000Y-75370000D03*
X144820000Y-75370000D03*
D34*
X147850000Y-74120000D03*
X147850000Y-72850000D03*
X147850000Y-71580000D03*
X147850000Y-70310000D03*
X147850000Y-69040000D03*
X147850000Y-67770000D03*
X147850000Y-66500000D03*
X147850000Y-65230000D03*
X147850000Y-63960000D03*
X147850000Y-62690000D03*
X147850000Y-61420000D03*
X147850000Y-60150000D03*
X147850000Y-58880000D03*
X147850000Y-57610000D03*
D36*
X136200000Y-64630000D03*
X136200000Y-66030000D03*
X136900000Y-63930000D03*
X136900000Y-65330000D03*
X136900000Y-66730000D03*
X137575000Y-64630000D03*
X137575000Y-66030000D03*
D37*
X137600000Y-65330000D03*
D36*
X138300000Y-63930000D03*
X138300000Y-65330000D03*
X138300000Y-66730000D03*
X139000000Y-64630000D03*
X139000000Y-66030000D03*
%TD*%
D12*
%TO.C,TP14*%
X129750000Y-119250000D03*
%TD*%
D11*
%TO.C,R24*%
X104300000Y-86940000D03*
X106300000Y-86940000D03*
%TD*%
D38*
%TO.C,R23*%
X124800000Y-86940000D03*
X122800000Y-86940000D03*
%TD*%
D13*
%TO.C,R6*%
X137750000Y-101000000D03*
X137750000Y-99000000D03*
%TD*%
D11*
%TO.C,R22*%
X122800000Y-89440000D03*
X124800000Y-89440000D03*
%TD*%
D39*
%TO.C,C3*%
X155385786Y-132385786D03*
D27*
X156800000Y-133800000D03*
%TD*%
D13*
%TO.C,R4*%
X142750000Y-101000000D03*
X142750000Y-99000000D03*
%TD*%
%TO.C,R14*%
X157734000Y-82296000D03*
X157734000Y-80296000D03*
%TD*%
D18*
%TO.C,R19*%
X117500000Y-110500000D03*
X117500000Y-112500000D03*
%TD*%
D12*
%TO.C,TP9*%
X155600000Y-76900000D03*
%TD*%
D31*
%TO.C,J1*%
X127895000Y-139080000D03*
D32*
X125125000Y-139080000D03*
X122355000Y-139080000D03*
X119585000Y-139080000D03*
X116815000Y-139080000D03*
X126510000Y-141920000D03*
X123740000Y-141920000D03*
X120970000Y-141920000D03*
X118200000Y-141920000D03*
D40*
X134850000Y-140500000D03*
X109860000Y-140500000D03*
%TD*%
D12*
%TO.C,TP5*%
X131750000Y-90500000D03*
%TD*%
D24*
%TO.C,C7*%
X123500000Y-59750000D03*
X123500000Y-57675000D03*
%TD*%
D12*
%TO.C,TP3*%
X133500000Y-119250000D03*
%TD*%
D29*
%TO.C,IC2*%
X156750000Y-68800000D03*
X156750000Y-59700000D03*
X161250000Y-68800000D03*
X161250000Y-59700000D03*
%TD*%
D30*
%TO.C,R9*%
X120128932Y-129428427D03*
X121543146Y-130842641D03*
%TD*%
%TO.C,R13*%
X153271786Y-87485786D03*
X154686000Y-88900000D03*
%TD*%
D38*
%TO.C,R25*%
X106300000Y-84440000D03*
X104300000Y-84440000D03*
%TD*%
D12*
%TO.C,TP13*%
X135250000Y-96000000D03*
%TD*%
D41*
%TO.C,J2*%
X149225000Y-112000000D03*
X149225000Y-110900000D03*
X149225000Y-109800000D03*
X149225000Y-108700000D03*
X149225000Y-107600000D03*
X149225000Y-106500000D03*
X149225000Y-105400000D03*
X149225000Y-104300000D03*
D42*
X149725000Y-102200000D03*
D43*
X149725000Y-115550000D03*
D44*
X161925000Y-105700000D03*
X161925000Y-110600000D03*
D45*
X162025000Y-113650000D03*
%TD*%
D12*
%TO.C,TP4*%
X131750000Y-86000000D03*
%TD*%
D46*
%TO.C,C4*%
X156712500Y-72500000D03*
X158787500Y-72500000D03*
%TD*%
D47*
%TO.C,C5*%
X116000000Y-59000000D03*
X116000000Y-61075000D03*
%TD*%
D12*
%TO.C,TP11*%
X142750000Y-93000000D03*
%TD*%
M02*
