%TF.GenerationSoftware,KiCad,Pcbnew,9.0.1*%
%TF.CreationDate,2025-06-18T18:36:34+02:00*%
%TF.ProjectId,open_g,6f70656e-5f67-42e6-9b69-6361645f7063,rev?*%
%TF.SameCoordinates,Original*%
%TF.FileFunction,Plated,1,4,PTH,Drill*%
%TF.FilePolarity,Positive*%
%FSLAX46Y46*%
G04 Gerber Fmt 4.6, Leading zero omitted, Abs format (unit mm)*
G04 Created by KiCad (PCBNEW 9.0.1) date 2025-06-18 18:36:34*
%MOMM*%
%LPD*%
G01*
G04 APERTURE LIST*
%TA.AperFunction,ViaDrill*%
%ADD10C,0.300000*%
%TD*%
%TA.AperFunction,ComponentDrill*%
%ADD11C,0.300000*%
%TD*%
%TA.AperFunction,ComponentDrill*%
%ADD12C,0.600000*%
%TD*%
%TA.AperFunction,ComponentDrill*%
%ADD13C,0.800000*%
%TD*%
%TA.AperFunction,ComponentDrill*%
%ADD14C,1.000000*%
%TD*%
%TA.AperFunction,ComponentDrill*%
%ADD15C,1.100000*%
%TD*%
%TA.AperFunction,ComponentDrill*%
%ADD16C,3.100000*%
%TD*%
%TA.AperFunction,ComponentDrill*%
%ADD17C,5.000000*%
%TD*%
G04 APERTURE END LIST*
D10*
X102800000Y-84440000D03*
X102800000Y-86940000D03*
X105000000Y-90500000D03*
X105000000Y-92500000D03*
X114250000Y-59000000D03*
X116000000Y-62500000D03*
X117000000Y-62500000D03*
X120000000Y-112500000D03*
X120000000Y-117750000D03*
X120650000Y-57404000D03*
X120650000Y-58166000D03*
X120650000Y-58928000D03*
X120650000Y-60706000D03*
X120650000Y-61468000D03*
X121250000Y-69250000D03*
X121250000Y-100750000D03*
X121412000Y-57404000D03*
X121412000Y-58166000D03*
X121412000Y-58928000D03*
X121412000Y-60706000D03*
X121412000Y-61468000D03*
X122000000Y-119250000D03*
X122050003Y-100750000D03*
X122174000Y-60706000D03*
X122174000Y-61468000D03*
X122750000Y-69000000D03*
X124250000Y-108250000D03*
X125000000Y-73750000D03*
X125000000Y-109000000D03*
X126125000Y-71625000D03*
X127250000Y-82750000D03*
X127250000Y-93500000D03*
X130200000Y-134000000D03*
X131750000Y-86000000D03*
X131750000Y-90500000D03*
X133500000Y-78500000D03*
X133500000Y-119250000D03*
X134625000Y-82375000D03*
X135250000Y-83000000D03*
X137750000Y-87250000D03*
X141000000Y-91250000D03*
X145288000Y-85598000D03*
X148082000Y-93421200D03*
X149750000Y-102250000D03*
X149750000Y-115500000D03*
X150750000Y-62500000D03*
X151003000Y-58166000D03*
X151200000Y-128000000D03*
X151257000Y-58928000D03*
X151500000Y-60750000D03*
X151500000Y-64250000D03*
X151500000Y-106500000D03*
X151500000Y-108750000D03*
X151511000Y-57658000D03*
X151700000Y-127500000D03*
X151765000Y-58420000D03*
X152200000Y-81600000D03*
X152200000Y-127000000D03*
X152200000Y-128000000D03*
X152273000Y-57912000D03*
X152700000Y-127500000D03*
X152950003Y-73038138D03*
X153000000Y-75200000D03*
X153125000Y-63625000D03*
X153200000Y-127000000D03*
X153200000Y-128000000D03*
X153700000Y-72400000D03*
X153700000Y-77500000D03*
X153700000Y-127500000D03*
X153900000Y-66500000D03*
X154000000Y-65500000D03*
X154200000Y-127000000D03*
X154200000Y-128000000D03*
X154400000Y-94500000D03*
X154700000Y-127500000D03*
X155200000Y-127000000D03*
X155200000Y-128000000D03*
X155700000Y-127500000D03*
X156200000Y-128000000D03*
X156718000Y-90424000D03*
X156718000Y-94742000D03*
X158369000Y-94488000D03*
X159300000Y-78800000D03*
X160250000Y-74250000D03*
X162000000Y-105750000D03*
X162000000Y-110750000D03*
X162000000Y-113750000D03*
D11*
%TO.C,U1*%
X136200000Y-64630000D03*
X136200000Y-66030000D03*
X136900000Y-63930000D03*
X136900000Y-65330000D03*
X136900000Y-66730000D03*
X137575000Y-64630000D03*
X137575000Y-66030000D03*
X138300000Y-63930000D03*
X138300000Y-65330000D03*
X138300000Y-66730000D03*
X139000000Y-64630000D03*
X139000000Y-66030000D03*
D12*
%TO.C,H2*%
X102250000Y-56000000D03*
X103348350Y-53348350D03*
X103348350Y-58651650D03*
X106000000Y-52250000D03*
X106000000Y-59750000D03*
X108651650Y-53348350D03*
X108651650Y-58651650D03*
X109750000Y-56000000D03*
%TO.C,H1*%
X155250000Y-144000000D03*
X156348350Y-141348350D03*
X156348350Y-146651650D03*
X159000000Y-140250000D03*
X159000000Y-147750000D03*
X161651650Y-141348350D03*
X161651650Y-146651650D03*
X162750000Y-144000000D03*
D13*
%TO.C,C2*%
X136000000Y-132000000D03*
X136000000Y-134000000D03*
%TO.C,C3*%
X155385786Y-132385786D03*
X156800000Y-133800000D03*
D14*
%TO.C,PS1*%
X143460000Y-134000000D03*
X146000000Y-134000000D03*
X148540000Y-134000000D03*
%TO.C,J4*%
X149860000Y-81280000D03*
X149860000Y-83820000D03*
X149860000Y-86360000D03*
X149860000Y-88900000D03*
X149860000Y-91440000D03*
%TO.C,J3*%
X162560000Y-76200000D03*
X162560000Y-78739999D03*
X162560000Y-81280000D03*
X162560000Y-83820000D03*
X162560000Y-86360000D03*
X162560000Y-88900000D03*
X162560000Y-91440001D03*
X162560000Y-93980000D03*
X162560000Y-96520000D03*
D15*
%TO.C,J5*%
X106500000Y-103500000D03*
X106500000Y-107000000D03*
X106500000Y-110500000D03*
X106500000Y-114000000D03*
X106500000Y-117500000D03*
X106500000Y-121000000D03*
X111500000Y-103500000D03*
X111500000Y-107000000D03*
X111500000Y-110500000D03*
X111500000Y-114000000D03*
X111500000Y-117500000D03*
X111500000Y-121000000D03*
%TO.C,J1*%
X116815000Y-139080000D03*
X118200000Y-141920000D03*
X119585000Y-139080000D03*
X120970000Y-141920000D03*
X122355000Y-139080000D03*
X123740000Y-141920000D03*
X125125000Y-139080000D03*
X126510000Y-141920000D03*
X127895000Y-139080000D03*
D16*
X109860000Y-140500000D03*
X134850000Y-140500000D03*
D17*
%TO.C,H2*%
X106000000Y-56000000D03*
%TO.C,H1*%
X159000000Y-144000000D03*
M02*
