%TF.GenerationSoftware,KiCad,Pcbnew,9.0.1*%
%TF.CreationDate,2025-06-18T18:36:31+02:00*%
%TF.ProjectId,open_g,6f70656e-5f67-42e6-9b69-6361645f7063,rev?*%
%TF.SameCoordinates,Original*%
%TF.FileFunction,Copper,L3,Inr*%
%TF.FilePolarity,Positive*%
%FSLAX46Y46*%
G04 Gerber Fmt 4.6, Leading zero omitted, Abs format (unit mm)*
G04 Created by KiCad (PCBNEW 9.0.1) date 2025-06-18 18:36:31*
%MOMM*%
%LPD*%
G01*
G04 APERTURE LIST*
G04 Aperture macros list*
%AMRotRect*
0 Rectangle, with rotation*
0 The origin of the aperture is its center*
0 $1 length*
0 $2 width*
0 $3 Rotation angle, in degrees counterclockwise*
0 Add horizontal line*
21,1,$1,$2,0,0,$3*%
G04 Aperture macros list end*
%TA.AperFunction,ComponentPad*%
%ADD10R,1.700000X1.700000*%
%TD*%
%TA.AperFunction,ComponentPad*%
%ADD11C,1.700000*%
%TD*%
%TA.AperFunction,ComponentPad*%
%ADD12C,0.900000*%
%TD*%
%TA.AperFunction,ComponentPad*%
%ADD13C,10.000000*%
%TD*%
%TA.AperFunction,ComponentPad*%
%ADD14R,1.500000X1.500000*%
%TD*%
%TA.AperFunction,ComponentPad*%
%ADD15C,1.500000*%
%TD*%
%TA.AperFunction,ComponentPad*%
%ADD16R,1.600000X1.600000*%
%TD*%
%TA.AperFunction,ComponentPad*%
%ADD17C,1.600000*%
%TD*%
%TA.AperFunction,ComponentPad*%
%ADD18R,1.650000X1.650000*%
%TD*%
%TA.AperFunction,ComponentPad*%
%ADD19C,1.650000*%
%TD*%
%TA.AperFunction,HeatsinkPad*%
%ADD20C,0.600000*%
%TD*%
%TA.AperFunction,ComponentPad*%
%ADD21RotRect,1.600000X1.600000X315.000000*%
%TD*%
%TA.AperFunction,ComponentPad*%
%ADD22C,4.650000*%
%TD*%
%TA.AperFunction,ViaPad*%
%ADD23C,0.600000*%
%TD*%
G04 APERTURE END LIST*
D10*
%TO.N,/ISM_SCX*%
%TO.C,J4*%
X149860000Y-91440000D03*
D11*
%TO.N,/ISM_SDX*%
X149860000Y-88900000D03*
%TO.N,/OCS_AUX*%
X149860000Y-86360000D03*
%TO.N,/SDO_AUX*%
X149860000Y-83820000D03*
%TO.N,GND*%
X149860000Y-81280000D03*
%TD*%
D12*
%TO.N,N/C*%
%TO.C,H2*%
X102250000Y-56000000D03*
X103348350Y-53348350D03*
X103348350Y-58651650D03*
X106000000Y-52250000D03*
D13*
X106000000Y-56000000D03*
D12*
X106000000Y-59750000D03*
X108651650Y-53348350D03*
X108651650Y-58651650D03*
X109750000Y-56000000D03*
%TD*%
D14*
%TO.N,+12V*%
%TO.C,PS1*%
X143460000Y-134000000D03*
D15*
%TO.N,GND*%
X146000000Y-134000000D03*
%TO.N,+3V3*%
X148540000Y-134000000D03*
%TD*%
D16*
%TO.N,+12V*%
%TO.C,C2*%
X136000000Y-134000000D03*
D17*
%TO.N,GND*%
X136000000Y-132000000D03*
%TD*%
D12*
%TO.N,N/C*%
%TO.C,H1*%
X155250000Y-144000000D03*
X156348350Y-141348350D03*
X156348350Y-146651650D03*
X159000000Y-140250000D03*
D13*
X159000000Y-144000000D03*
D12*
X159000000Y-147750000D03*
X161651650Y-141348350D03*
X161651650Y-146651650D03*
X162750000Y-144000000D03*
%TD*%
D10*
%TO.N,+3V3*%
%TO.C,J3*%
X162560000Y-96520000D03*
D11*
X162560000Y-93980000D03*
%TO.N,GND*%
X162560000Y-91440001D03*
%TO.N,Net-(J3-Pin_4)*%
X162560000Y-88900000D03*
%TO.N,Net-(J3-Pin_5)*%
X162560000Y-86360000D03*
%TO.N,/SDO_SA0*%
X162560000Y-83820000D03*
%TO.N,/CS_5V*%
X162560000Y-81280000D03*
%TO.N,/ISM_INT_1*%
X162560000Y-78739999D03*
%TO.N,/ISM_INT_2*%
X162560000Y-76200000D03*
%TD*%
D18*
%TO.N,GND*%
%TO.C,J5*%
X111500000Y-121000000D03*
D19*
X106500000Y-121000000D03*
%TO.N,+3V3*%
X111500000Y-117500000D03*
X106500000Y-117500000D03*
%TO.N,/UART_2_TX*%
X111500000Y-114000000D03*
X106500000Y-114000000D03*
%TO.N,/UART_2_RX*%
X111500000Y-110500000D03*
X106500000Y-110500000D03*
%TO.N,/I2C_3_SCL*%
X111500000Y-107000000D03*
X106500000Y-107000000D03*
%TO.N,/I2C_3_SDA*%
X111500000Y-103500000D03*
X106500000Y-103500000D03*
%TD*%
D20*
%TO.N,GND*%
%TO.C,U1*%
X136200000Y-64630000D03*
X136200000Y-66030000D03*
X136900000Y-63930000D03*
X136900000Y-65330000D03*
X136900000Y-66730000D03*
X137575000Y-64630000D03*
X137575000Y-66030000D03*
X138300000Y-63930000D03*
X138300000Y-65330000D03*
X138300000Y-66730000D03*
X139000000Y-64630000D03*
X139000000Y-66030000D03*
%TD*%
D21*
%TO.N,+3V3*%
%TO.C,C3*%
X155385786Y-132385786D03*
D17*
%TO.N,GND*%
X156800000Y-133800000D03*
%TD*%
D18*
%TO.N,GND*%
%TO.C,J1*%
X127895000Y-139080000D03*
D19*
%TO.N,+12V*%
X125125000Y-139080000D03*
%TO.N,unconnected-(J1-Pad3)*%
X122355000Y-139080000D03*
%TO.N,/UART_1_RX_IO*%
X119585000Y-139080000D03*
%TO.N,/UART_1_TX_IO*%
X116815000Y-139080000D03*
%TO.N,unconnected-(J1-Pad6)*%
X126510000Y-141920000D03*
%TO.N,unconnected-(J1-Pad7)*%
X123740000Y-141920000D03*
%TO.N,unconnected-(J1-Pad8)*%
X120970000Y-141920000D03*
%TO.N,unconnected-(J1-Pad9)*%
X118200000Y-141920000D03*
D22*
%TO.N,N/C*%
X134850000Y-140500000D03*
X109860000Y-140500000D03*
%TD*%
D23*
%TO.N,GND*%
X145288000Y-85598000D03*
X151765000Y-58420000D03*
X162000000Y-113750000D03*
X120650000Y-58166000D03*
X102800000Y-86940000D03*
X122000000Y-119250000D03*
X121412000Y-58928000D03*
X151257000Y-58928000D03*
X160250000Y-74250000D03*
X149750000Y-102250000D03*
X162000000Y-105750000D03*
X133500000Y-78500000D03*
X152273000Y-57912000D03*
X121412000Y-58166000D03*
X151500000Y-106500000D03*
X158369000Y-94488000D03*
X162000000Y-110750000D03*
X148082000Y-93421200D03*
X151003000Y-58166000D03*
X121412000Y-57404000D03*
X105000000Y-90500000D03*
X116000000Y-62500000D03*
X120650000Y-58928000D03*
X117000000Y-62500000D03*
X149750000Y-115500000D03*
X120650000Y-57404000D03*
X151511000Y-57658000D03*
%TO.N,+3V3*%
X154200000Y-127000000D03*
X153200000Y-128000000D03*
X153700000Y-127500000D03*
X155200000Y-128000000D03*
X151500000Y-108750000D03*
X151200000Y-128000000D03*
X154400000Y-94500000D03*
X114250000Y-59000000D03*
X152200000Y-81600000D03*
X152200000Y-128000000D03*
X152200000Y-127000000D03*
X120650000Y-61468000D03*
X121412000Y-61468000D03*
X127250000Y-82750000D03*
X152700000Y-127500000D03*
X154700000Y-127500000D03*
X102800000Y-84440000D03*
X155200000Y-127000000D03*
X159300000Y-78800000D03*
X120000000Y-112500000D03*
X127250000Y-93500000D03*
X120650000Y-60706000D03*
X154200000Y-128000000D03*
X151700000Y-127500000D03*
X156200000Y-128000000D03*
X121412000Y-60706000D03*
X133500000Y-119250000D03*
X155700000Y-127500000D03*
X105000000Y-92500000D03*
X153200000Y-127000000D03*
X122174000Y-60706000D03*
X120000000Y-117750000D03*
X122174000Y-61468000D03*
%TO.N,+12V*%
X130200000Y-134000000D03*
%TO.N,/UART_1_TX*%
X134625000Y-82375000D03*
X150750000Y-62500000D03*
%TO.N,/UART_1_RX*%
X151500000Y-64250000D03*
X135250000Y-83000000D03*
%TO.N,/SPI_MISO*%
X137750000Y-87250000D03*
X141000000Y-91250000D03*
%TO.N,/I2C_1_SCL*%
X153700000Y-77500000D03*
X153700000Y-72400000D03*
%TO.N,/I2C_1_SDA*%
X152950003Y-73038138D03*
X153000000Y-75200000D03*
%TO.N,/I2C_2_SDA*%
X131750000Y-90500000D03*
X153125000Y-63625000D03*
%TO.N,/I2C_2_SCL*%
X131750000Y-86000000D03*
X151500000Y-60750000D03*
%TO.N,/UART_2_TX*%
X125000000Y-73750000D03*
X125000000Y-109000000D03*
%TO.N,/UART_2_RX*%
X126125000Y-71625000D03*
X124250000Y-108250000D03*
%TO.N,Net-(U1-IO33)*%
X122750000Y-69000000D03*
X122050003Y-100750000D03*
%TO.N,Net-(U1-IO32)*%
X121250000Y-69250000D03*
X121250000Y-100750000D03*
%TO.N,/CS_5V*%
X156718000Y-90424000D03*
%TO.N,/SDO_SA0*%
X156718000Y-94742000D03*
%TO.N,/ISM_INT_2*%
X154000000Y-65500000D03*
%TO.N,/ISM_INT_1*%
X153900000Y-66500000D03*
%TD*%
%TA.AperFunction,Conductor*%
%TO.N,GND*%
G36*
X113942539Y-50520185D02*
G01*
X113988294Y-50572989D01*
X113999500Y-50624500D01*
X113999500Y-56565891D01*
X114033608Y-56693187D01*
X114066554Y-56750250D01*
X114099500Y-56807314D01*
X114192686Y-56900500D01*
X114306814Y-56966392D01*
X114434108Y-57000500D01*
X164375500Y-57000500D01*
X164442539Y-57020185D01*
X164488294Y-57072989D01*
X164499500Y-57124500D01*
X164499500Y-137876000D01*
X164479815Y-137943039D01*
X164427011Y-137988794D01*
X164375500Y-138000000D01*
X153000000Y-138000000D01*
X153000000Y-149375500D01*
X152980315Y-149442539D01*
X152927511Y-149488294D01*
X152876000Y-149499500D01*
X100624500Y-149499500D01*
X100557461Y-149479815D01*
X100511706Y-149427011D01*
X100500500Y-149375500D01*
X100500500Y-140341316D01*
X107034500Y-140341316D01*
X107034500Y-140658683D01*
X107070029Y-140974020D01*
X107070032Y-140974034D01*
X107140649Y-141283430D01*
X107140653Y-141283442D01*
X107245466Y-141582979D01*
X107383158Y-141868898D01*
X107383160Y-141868901D01*
X107552002Y-142137612D01*
X107749868Y-142385729D01*
X107974271Y-142610132D01*
X108222388Y-142807998D01*
X108491099Y-142976840D01*
X108777024Y-143114535D01*
X109001994Y-143193255D01*
X109076557Y-143219346D01*
X109076569Y-143219350D01*
X109385965Y-143289968D01*
X109385974Y-143289969D01*
X109385979Y-143289970D01*
X109596203Y-143313656D01*
X109701317Y-143325499D01*
X109701320Y-143325500D01*
X109701323Y-143325500D01*
X110018680Y-143325500D01*
X110018681Y-143325499D01*
X110179845Y-143307340D01*
X110334020Y-143289970D01*
X110334023Y-143289969D01*
X110334035Y-143289968D01*
X110643431Y-143219350D01*
X110942976Y-143114535D01*
X111228901Y-142976840D01*
X111497612Y-142807998D01*
X111745729Y-142610132D01*
X111970132Y-142385729D01*
X112167998Y-142137612D01*
X112336840Y-141868901D01*
X112362472Y-141815675D01*
X116874500Y-141815675D01*
X116874500Y-142024324D01*
X116907137Y-142230389D01*
X116971612Y-142428820D01*
X117063995Y-142610132D01*
X117066330Y-142614714D01*
X117188965Y-142783505D01*
X117336495Y-142931035D01*
X117505286Y-143053670D01*
X117593116Y-143098421D01*
X117691179Y-143148387D01*
X117691181Y-143148387D01*
X117691184Y-143148389D01*
X117797545Y-143182948D01*
X117889610Y-143212862D01*
X118095676Y-143245500D01*
X118095681Y-143245500D01*
X118304324Y-143245500D01*
X118510389Y-143212862D01*
X118708816Y-143148389D01*
X118894714Y-143053670D01*
X119063505Y-142931035D01*
X119211035Y-142783505D01*
X119333670Y-142614714D01*
X119428389Y-142428816D01*
X119467069Y-142309770D01*
X119506507Y-142252096D01*
X119570866Y-142224898D01*
X119639712Y-142236813D01*
X119691188Y-142284057D01*
X119702930Y-142309769D01*
X119741611Y-142428816D01*
X119836330Y-142614714D01*
X119958965Y-142783505D01*
X120106495Y-142931035D01*
X120275286Y-143053670D01*
X120363116Y-143098421D01*
X120461179Y-143148387D01*
X120461181Y-143148387D01*
X120461184Y-143148389D01*
X120567545Y-143182948D01*
X120659610Y-143212862D01*
X120865676Y-143245500D01*
X120865681Y-143245500D01*
X121074324Y-143245500D01*
X121280389Y-143212862D01*
X121478816Y-143148389D01*
X121664714Y-143053670D01*
X121833505Y-142931035D01*
X121981035Y-142783505D01*
X122103670Y-142614714D01*
X122198389Y-142428816D01*
X122237069Y-142309770D01*
X122276507Y-142252096D01*
X122340866Y-142224898D01*
X122409712Y-142236813D01*
X122461188Y-142284057D01*
X122472930Y-142309769D01*
X122511611Y-142428816D01*
X122606330Y-142614714D01*
X122728965Y-142783505D01*
X122876495Y-142931035D01*
X123045286Y-143053670D01*
X123133116Y-143098421D01*
X123231179Y-143148387D01*
X123231181Y-143148387D01*
X123231184Y-143148389D01*
X123337545Y-143182948D01*
X123429610Y-143212862D01*
X123635676Y-143245500D01*
X123635681Y-143245500D01*
X123844324Y-143245500D01*
X124050389Y-143212862D01*
X124248816Y-143148389D01*
X124434714Y-143053670D01*
X124603505Y-142931035D01*
X124751035Y-142783505D01*
X124873670Y-142614714D01*
X124968389Y-142428816D01*
X125007069Y-142309770D01*
X125046507Y-142252096D01*
X125110866Y-142224898D01*
X125179712Y-142236813D01*
X125231188Y-142284057D01*
X125242930Y-142309769D01*
X125281611Y-142428816D01*
X125376330Y-142614714D01*
X125498965Y-142783505D01*
X125646495Y-142931035D01*
X125815286Y-143053670D01*
X125903116Y-143098421D01*
X126001179Y-143148387D01*
X126001181Y-143148387D01*
X126001184Y-143148389D01*
X126107545Y-143182948D01*
X126199610Y-143212862D01*
X126405676Y-143245500D01*
X126405681Y-143245500D01*
X126614324Y-143245500D01*
X126820389Y-143212862D01*
X127018816Y-143148389D01*
X127204714Y-143053670D01*
X127373505Y-142931035D01*
X127521035Y-142783505D01*
X127643670Y-142614714D01*
X127738389Y-142428816D01*
X127802862Y-142230389D01*
X127803732Y-142224898D01*
X127835500Y-142024324D01*
X127835500Y-141815675D01*
X127802862Y-141609610D01*
X127738387Y-141411179D01*
X127673296Y-141283431D01*
X127643670Y-141225286D01*
X127521035Y-141056495D01*
X127373505Y-140908965D01*
X127204714Y-140786330D01*
X127018820Y-140691612D01*
X126820389Y-140627137D01*
X126614324Y-140594500D01*
X126614319Y-140594500D01*
X126405681Y-140594500D01*
X126405676Y-140594500D01*
X126199610Y-140627137D01*
X126001179Y-140691612D01*
X125815285Y-140786330D01*
X125646493Y-140908966D01*
X125498966Y-141056493D01*
X125376330Y-141225285D01*
X125281612Y-141411179D01*
X125242931Y-141530228D01*
X125203493Y-141587903D01*
X125139134Y-141615101D01*
X125070288Y-141603186D01*
X125018812Y-141555942D01*
X125007069Y-141530228D01*
X124968387Y-141411179D01*
X124903296Y-141283431D01*
X124873670Y-141225286D01*
X124751035Y-141056495D01*
X124603505Y-140908965D01*
X124434714Y-140786330D01*
X124248820Y-140691612D01*
X124050389Y-140627137D01*
X123844324Y-140594500D01*
X123844319Y-140594500D01*
X123635681Y-140594500D01*
X123635676Y-140594500D01*
X123429610Y-140627137D01*
X123231179Y-140691612D01*
X123045285Y-140786330D01*
X122876493Y-140908966D01*
X122728966Y-141056493D01*
X122606330Y-141225285D01*
X122511612Y-141411179D01*
X122472931Y-141530228D01*
X122433493Y-141587903D01*
X122369134Y-141615101D01*
X122300288Y-141603186D01*
X122248812Y-141555942D01*
X122237069Y-141530228D01*
X122198387Y-141411179D01*
X122133296Y-141283431D01*
X122103670Y-141225286D01*
X121981035Y-141056495D01*
X121833505Y-140908965D01*
X121664714Y-140786330D01*
X121478820Y-140691612D01*
X121280389Y-140627137D01*
X121074324Y-140594500D01*
X121074319Y-140594500D01*
X120865681Y-140594500D01*
X120865676Y-140594500D01*
X120659610Y-140627137D01*
X120461179Y-140691612D01*
X120275285Y-140786330D01*
X120106493Y-140908966D01*
X119958966Y-141056493D01*
X119836330Y-141225285D01*
X119741612Y-141411179D01*
X119702931Y-141530228D01*
X119663493Y-141587903D01*
X119599134Y-141615101D01*
X119530288Y-141603186D01*
X119478812Y-141555942D01*
X119467069Y-141530228D01*
X119428387Y-141411179D01*
X119363296Y-141283431D01*
X119333670Y-141225286D01*
X119211035Y-141056495D01*
X119063505Y-140908965D01*
X118894714Y-140786330D01*
X118708820Y-140691612D01*
X118510389Y-140627137D01*
X118304324Y-140594500D01*
X118304319Y-140594500D01*
X118095681Y-140594500D01*
X118095676Y-140594500D01*
X117889610Y-140627137D01*
X117691179Y-140691612D01*
X117505285Y-140786330D01*
X117336493Y-140908966D01*
X117188966Y-141056493D01*
X117066330Y-141225285D01*
X116971612Y-141411179D01*
X116907137Y-141609610D01*
X116874500Y-141815675D01*
X112362472Y-141815675D01*
X112474535Y-141582976D01*
X112579350Y-141283431D01*
X112649968Y-140974035D01*
X112657300Y-140908966D01*
X112685499Y-140658683D01*
X112685500Y-140658679D01*
X112685500Y-140341320D01*
X112685499Y-140341316D01*
X112649970Y-140025979D01*
X112649969Y-140025974D01*
X112649968Y-140025965D01*
X112579350Y-139716569D01*
X112474535Y-139417024D01*
X112336840Y-139131099D01*
X112239181Y-138975675D01*
X115489500Y-138975675D01*
X115489500Y-139184324D01*
X115522137Y-139390389D01*
X115586612Y-139588820D01*
X115651704Y-139716569D01*
X115681330Y-139774714D01*
X115803965Y-139943505D01*
X115951495Y-140091035D01*
X116120286Y-140213670D01*
X116208116Y-140258421D01*
X116306179Y-140308387D01*
X116306181Y-140308387D01*
X116306184Y-140308389D01*
X116407523Y-140341316D01*
X116504610Y-140372862D01*
X116710676Y-140405500D01*
X116710681Y-140405500D01*
X116919324Y-140405500D01*
X117125389Y-140372862D01*
X117323816Y-140308389D01*
X117509714Y-140213670D01*
X117678505Y-140091035D01*
X117826035Y-139943505D01*
X117948670Y-139774714D01*
X118043389Y-139588816D01*
X118082069Y-139469770D01*
X118121507Y-139412096D01*
X118185866Y-139384898D01*
X118254712Y-139396813D01*
X118306188Y-139444057D01*
X118317930Y-139469769D01*
X118356611Y-139588816D01*
X118451330Y-139774714D01*
X118573965Y-139943505D01*
X118721495Y-140091035D01*
X118890286Y-140213670D01*
X118978116Y-140258421D01*
X119076179Y-140308387D01*
X119076181Y-140308387D01*
X119076184Y-140308389D01*
X119177523Y-140341316D01*
X119274610Y-140372862D01*
X119480676Y-140405500D01*
X119480681Y-140405500D01*
X119689324Y-140405500D01*
X119895389Y-140372862D01*
X120093816Y-140308389D01*
X120279714Y-140213670D01*
X120448505Y-140091035D01*
X120596035Y-139943505D01*
X120718670Y-139774714D01*
X120813389Y-139588816D01*
X120852069Y-139469770D01*
X120891507Y-139412096D01*
X120955866Y-139384898D01*
X121024712Y-139396813D01*
X121076188Y-139444057D01*
X121087930Y-139469769D01*
X121126611Y-139588816D01*
X121221330Y-139774714D01*
X121343965Y-139943505D01*
X121491495Y-140091035D01*
X121660286Y-140213670D01*
X121748116Y-140258421D01*
X121846179Y-140308387D01*
X121846181Y-140308387D01*
X121846184Y-140308389D01*
X121947523Y-140341316D01*
X122044610Y-140372862D01*
X122250676Y-140405500D01*
X122250681Y-140405500D01*
X122459324Y-140405500D01*
X122665389Y-140372862D01*
X122863816Y-140308389D01*
X123049714Y-140213670D01*
X123218505Y-140091035D01*
X123366035Y-139943505D01*
X123488670Y-139774714D01*
X123583389Y-139588816D01*
X123622069Y-139469770D01*
X123661507Y-139412096D01*
X123725866Y-139384898D01*
X123794712Y-139396813D01*
X123846188Y-139444057D01*
X123857930Y-139469769D01*
X123896611Y-139588816D01*
X123991330Y-139774714D01*
X124113965Y-139943505D01*
X124261495Y-140091035D01*
X124430286Y-140213670D01*
X124518116Y-140258421D01*
X124616179Y-140308387D01*
X124616181Y-140308387D01*
X124616184Y-140308389D01*
X124717523Y-140341316D01*
X124814610Y-140372862D01*
X125020676Y-140405500D01*
X125020681Y-140405500D01*
X125229324Y-140405500D01*
X125435389Y-140372862D01*
X125532477Y-140341316D01*
X132024500Y-140341316D01*
X132024500Y-140658683D01*
X132060029Y-140974020D01*
X132060032Y-140974034D01*
X132130649Y-141283430D01*
X132130653Y-141283442D01*
X132235466Y-141582979D01*
X132373158Y-141868898D01*
X132373160Y-141868901D01*
X132542002Y-142137612D01*
X132739868Y-142385729D01*
X132964271Y-142610132D01*
X133212388Y-142807998D01*
X133481099Y-142976840D01*
X133767024Y-143114535D01*
X133991994Y-143193255D01*
X134066557Y-143219346D01*
X134066569Y-143219350D01*
X134375965Y-143289968D01*
X134375974Y-143289969D01*
X134375979Y-143289970D01*
X134586203Y-143313656D01*
X134691317Y-143325499D01*
X134691320Y-143325500D01*
X134691323Y-143325500D01*
X135008680Y-143325500D01*
X135008681Y-143325499D01*
X135169845Y-143307340D01*
X135324020Y-143289970D01*
X135324023Y-143289969D01*
X135324035Y-143289968D01*
X135633431Y-143219350D01*
X135932976Y-143114535D01*
X136218901Y-142976840D01*
X136487612Y-142807998D01*
X136735729Y-142610132D01*
X136960132Y-142385729D01*
X137157998Y-142137612D01*
X137326840Y-141868901D01*
X137464535Y-141582976D01*
X137569350Y-141283431D01*
X137639968Y-140974035D01*
X137647300Y-140908966D01*
X137675499Y-140658683D01*
X137675500Y-140658679D01*
X137675500Y-140341320D01*
X137675499Y-140341316D01*
X137639970Y-140025979D01*
X137639969Y-140025974D01*
X137639968Y-140025965D01*
X137569350Y-139716569D01*
X137464535Y-139417024D01*
X137326840Y-139131099D01*
X137157998Y-138862388D01*
X136960132Y-138614271D01*
X136735729Y-138389868D01*
X136729983Y-138385286D01*
X136518325Y-138216495D01*
X136487612Y-138192002D01*
X136218901Y-138023160D01*
X136218898Y-138023158D01*
X135932979Y-137885466D01*
X135633442Y-137780653D01*
X135633430Y-137780649D01*
X135394652Y-137726149D01*
X135324035Y-137710032D01*
X135324032Y-137710031D01*
X135324020Y-137710029D01*
X135008683Y-137674500D01*
X135008677Y-137674500D01*
X134691323Y-137674500D01*
X134691316Y-137674500D01*
X134375979Y-137710029D01*
X134375965Y-137710032D01*
X134066569Y-137780649D01*
X134066557Y-137780653D01*
X133767020Y-137885466D01*
X133481101Y-138023158D01*
X133212389Y-138192001D01*
X132964271Y-138389867D01*
X132739867Y-138614271D01*
X132542001Y-138862389D01*
X132373158Y-139131101D01*
X132235466Y-139417020D01*
X132130653Y-139716557D01*
X132130649Y-139716569D01*
X132060032Y-140025965D01*
X132060029Y-140025979D01*
X132024500Y-140341316D01*
X125532477Y-140341316D01*
X125633816Y-140308389D01*
X125819714Y-140213670D01*
X125988505Y-140091035D01*
X126136035Y-139943505D01*
X126258670Y-139774714D01*
X126353389Y-139588816D01*
X126417862Y-139390389D01*
X126418732Y-139384898D01*
X126450500Y-139184324D01*
X126450500Y-138975675D01*
X126417862Y-138769610D01*
X126353387Y-138571179D01*
X126303421Y-138473116D01*
X126258670Y-138385286D01*
X126136035Y-138216495D01*
X125988505Y-138068965D01*
X125819714Y-137946330D01*
X125813255Y-137943039D01*
X125633820Y-137851612D01*
X125435389Y-137787137D01*
X125229324Y-137754500D01*
X125229319Y-137754500D01*
X125020681Y-137754500D01*
X125020676Y-137754500D01*
X124814610Y-137787137D01*
X124616179Y-137851612D01*
X124430285Y-137946330D01*
X124261493Y-138068966D01*
X124113966Y-138216493D01*
X123991330Y-138385285D01*
X123896612Y-138571179D01*
X123857931Y-138690228D01*
X123818493Y-138747903D01*
X123754134Y-138775101D01*
X123685288Y-138763186D01*
X123633812Y-138715942D01*
X123622069Y-138690228D01*
X123583387Y-138571179D01*
X123533421Y-138473116D01*
X123488670Y-138385286D01*
X123366035Y-138216495D01*
X123218505Y-138068965D01*
X123049714Y-137946330D01*
X123043255Y-137943039D01*
X122863820Y-137851612D01*
X122665389Y-137787137D01*
X122459324Y-137754500D01*
X122459319Y-137754500D01*
X122250681Y-137754500D01*
X122250676Y-137754500D01*
X122044610Y-137787137D01*
X121846179Y-137851612D01*
X121660285Y-137946330D01*
X121491493Y-138068966D01*
X121343966Y-138216493D01*
X121221330Y-138385285D01*
X121126612Y-138571179D01*
X121087931Y-138690228D01*
X121048493Y-138747903D01*
X120984134Y-138775101D01*
X120915288Y-138763186D01*
X120863812Y-138715942D01*
X120852069Y-138690228D01*
X120813387Y-138571179D01*
X120763421Y-138473116D01*
X120718670Y-138385286D01*
X120596035Y-138216495D01*
X120448505Y-138068965D01*
X120279714Y-137946330D01*
X120273255Y-137943039D01*
X120093820Y-137851612D01*
X119895389Y-137787137D01*
X119689324Y-137754500D01*
X119689319Y-137754500D01*
X119480681Y-137754500D01*
X119480676Y-137754500D01*
X119274610Y-137787137D01*
X119076179Y-137851612D01*
X118890285Y-137946330D01*
X118721493Y-138068966D01*
X118573966Y-138216493D01*
X118451330Y-138385285D01*
X118356612Y-138571179D01*
X118317931Y-138690228D01*
X118278493Y-138747903D01*
X118214134Y-138775101D01*
X118145288Y-138763186D01*
X118093812Y-138715942D01*
X118082069Y-138690228D01*
X118043387Y-138571179D01*
X117993421Y-138473116D01*
X117948670Y-138385286D01*
X117826035Y-138216495D01*
X117678505Y-138068965D01*
X117509714Y-137946330D01*
X117503255Y-137943039D01*
X117323820Y-137851612D01*
X117125389Y-137787137D01*
X116919324Y-137754500D01*
X116919319Y-137754500D01*
X116710681Y-137754500D01*
X116710676Y-137754500D01*
X116504610Y-137787137D01*
X116306179Y-137851612D01*
X116120285Y-137946330D01*
X115951493Y-138068966D01*
X115803966Y-138216493D01*
X115681330Y-138385285D01*
X115586612Y-138571179D01*
X115522137Y-138769610D01*
X115489500Y-138975675D01*
X112239181Y-138975675D01*
X112167998Y-138862388D01*
X111970132Y-138614271D01*
X111745729Y-138389868D01*
X111739983Y-138385286D01*
X111528325Y-138216495D01*
X111497612Y-138192002D01*
X111228901Y-138023160D01*
X111228898Y-138023158D01*
X110942979Y-137885466D01*
X110643442Y-137780653D01*
X110643430Y-137780649D01*
X110404652Y-137726149D01*
X110334035Y-137710032D01*
X110334032Y-137710031D01*
X110334020Y-137710029D01*
X110018683Y-137674500D01*
X110018677Y-137674500D01*
X109701323Y-137674500D01*
X109701316Y-137674500D01*
X109385979Y-137710029D01*
X109385965Y-137710032D01*
X109076569Y-137780649D01*
X109076557Y-137780653D01*
X108777020Y-137885466D01*
X108491101Y-138023158D01*
X108222389Y-138192001D01*
X107974271Y-138389867D01*
X107749867Y-138614271D01*
X107552001Y-138862389D01*
X107383158Y-139131101D01*
X107245466Y-139417020D01*
X107140653Y-139716557D01*
X107140649Y-139716569D01*
X107070032Y-140025965D01*
X107070029Y-140025979D01*
X107034500Y-140341316D01*
X100500500Y-140341316D01*
X100500500Y-133921153D01*
X129399500Y-133921153D01*
X129399500Y-134078846D01*
X129430261Y-134233489D01*
X129430264Y-134233501D01*
X129490602Y-134379172D01*
X129490609Y-134379185D01*
X129578210Y-134510288D01*
X129578213Y-134510292D01*
X129689707Y-134621786D01*
X129689711Y-134621789D01*
X129820814Y-134709390D01*
X129820827Y-134709397D01*
X129966498Y-134769735D01*
X129966503Y-134769737D01*
X130108002Y-134797883D01*
X130121153Y-134800499D01*
X130121156Y-134800500D01*
X130121158Y-134800500D01*
X130278844Y-134800500D01*
X130278845Y-134800499D01*
X130433497Y-134769737D01*
X130579179Y-134709394D01*
X130710289Y-134621789D01*
X130821789Y-134510289D01*
X130909394Y-134379179D01*
X130969737Y-134233497D01*
X131000500Y-134078842D01*
X131000500Y-133921158D01*
X131000500Y-133921155D01*
X131000499Y-133921153D01*
X130969738Y-133766510D01*
X130969737Y-133766503D01*
X130969735Y-133766498D01*
X130909397Y-133620827D01*
X130909390Y-133620814D01*
X130821789Y-133489711D01*
X130821786Y-133489707D01*
X130710292Y-133378213D01*
X130710288Y-133378210D01*
X130579185Y-133290609D01*
X130579172Y-133290602D01*
X130513419Y-133263367D01*
X130433501Y-133230264D01*
X130433489Y-133230261D01*
X130278845Y-133199500D01*
X130278842Y-133199500D01*
X130121158Y-133199500D01*
X130121155Y-133199500D01*
X129966510Y-133230261D01*
X129966498Y-133230264D01*
X129820827Y-133290602D01*
X129820814Y-133290609D01*
X129689711Y-133378210D01*
X129689707Y-133378213D01*
X129578213Y-133489707D01*
X129578210Y-133489711D01*
X129490609Y-133620814D01*
X129490602Y-133620827D01*
X129430264Y-133766498D01*
X129430261Y-133766510D01*
X129399500Y-133921153D01*
X100500500Y-133921153D01*
X100500500Y-133152135D01*
X134699500Y-133152135D01*
X134699500Y-134847870D01*
X134699501Y-134847876D01*
X134705908Y-134907483D01*
X134756202Y-135042328D01*
X134756206Y-135042335D01*
X134842452Y-135157544D01*
X134842455Y-135157547D01*
X134957664Y-135243793D01*
X134957671Y-135243797D01*
X135092517Y-135294091D01*
X135092516Y-135294091D01*
X135099444Y-135294835D01*
X135152127Y-135300500D01*
X136847872Y-135300499D01*
X136907483Y-135294091D01*
X137042331Y-135243796D01*
X137157546Y-135157546D01*
X137243796Y-135042331D01*
X137294091Y-134907483D01*
X137300500Y-134847873D01*
X137300499Y-133202135D01*
X142209500Y-133202135D01*
X142209500Y-134797870D01*
X142209501Y-134797876D01*
X142215908Y-134857483D01*
X142266202Y-134992328D01*
X142266206Y-134992335D01*
X142352452Y-135107544D01*
X142352455Y-135107547D01*
X142467664Y-135193793D01*
X142467671Y-135193797D01*
X142602517Y-135244091D01*
X142602516Y-135244091D01*
X142609444Y-135244835D01*
X142662127Y-135250500D01*
X144257872Y-135250499D01*
X144317483Y-135244091D01*
X144452331Y-135193796D01*
X144567546Y-135107546D01*
X144653796Y-134992331D01*
X144704091Y-134857483D01*
X144710500Y-134797873D01*
X144710499Y-133901577D01*
X147289500Y-133901577D01*
X147289500Y-134098422D01*
X147320290Y-134292826D01*
X147381117Y-134480029D01*
X147453346Y-134621786D01*
X147470476Y-134655405D01*
X147586172Y-134814646D01*
X147725354Y-134953828D01*
X147884595Y-135069524D01*
X147959214Y-135107544D01*
X148059970Y-135158882D01*
X148059972Y-135158882D01*
X148059975Y-135158884D01*
X148160317Y-135191487D01*
X148247173Y-135219709D01*
X148441578Y-135250500D01*
X148441583Y-135250500D01*
X148638422Y-135250500D01*
X148832826Y-135219709D01*
X148912574Y-135193797D01*
X149020025Y-135158884D01*
X149195405Y-135069524D01*
X149354646Y-134953828D01*
X149493828Y-134814646D01*
X149609524Y-134655405D01*
X149698884Y-134480025D01*
X149759709Y-134292826D01*
X149769107Y-134233489D01*
X149790500Y-134098422D01*
X149790500Y-133901577D01*
X149759709Y-133707173D01*
X149698882Y-133519970D01*
X149626652Y-133378211D01*
X149609524Y-133344595D01*
X149493828Y-133185354D01*
X149354646Y-133046172D01*
X149195405Y-132930476D01*
X149020029Y-132841117D01*
X148832826Y-132780290D01*
X148638422Y-132749500D01*
X148638417Y-132749500D01*
X148441583Y-132749500D01*
X148441578Y-132749500D01*
X148247173Y-132780290D01*
X148059970Y-132841117D01*
X147884594Y-132930476D01*
X147793741Y-132996485D01*
X147725354Y-133046172D01*
X147725352Y-133046174D01*
X147725351Y-133046174D01*
X147586174Y-133185351D01*
X147586174Y-133185352D01*
X147586172Y-133185354D01*
X147573980Y-133202135D01*
X147470476Y-133344594D01*
X147381117Y-133519970D01*
X147320290Y-133707173D01*
X147289500Y-133901577D01*
X144710499Y-133901577D01*
X144710499Y-133202128D01*
X144704091Y-133142517D01*
X144685442Y-133092517D01*
X144653797Y-133007671D01*
X144653793Y-133007664D01*
X144567547Y-132892455D01*
X144567544Y-132892452D01*
X144452335Y-132806206D01*
X144452328Y-132806202D01*
X144317482Y-132755908D01*
X144317483Y-132755908D01*
X144257883Y-132749501D01*
X144257881Y-132749500D01*
X144257873Y-132749500D01*
X144257864Y-132749500D01*
X142662129Y-132749500D01*
X142662123Y-132749501D01*
X142602516Y-132755908D01*
X142467671Y-132806202D01*
X142467664Y-132806206D01*
X142352455Y-132892452D01*
X142352452Y-132892455D01*
X142266206Y-133007664D01*
X142266202Y-133007671D01*
X142215908Y-133142517D01*
X142211303Y-133185354D01*
X142209501Y-133202123D01*
X142209500Y-133202135D01*
X137300499Y-133202135D01*
X137300499Y-133152128D01*
X137294091Y-133092517D01*
X137276806Y-133046174D01*
X137243797Y-132957671D01*
X137243793Y-132957664D01*
X137157547Y-132842455D01*
X137157544Y-132842452D01*
X137042335Y-132756206D01*
X137042328Y-132756202D01*
X136907482Y-132705908D01*
X136907483Y-132705908D01*
X136847883Y-132699501D01*
X136847881Y-132699500D01*
X136847873Y-132699500D01*
X136847864Y-132699500D01*
X135152129Y-132699500D01*
X135152123Y-132699501D01*
X135092516Y-132705908D01*
X134957671Y-132756202D01*
X134957664Y-132756206D01*
X134842455Y-132842452D01*
X134842452Y-132842455D01*
X134756206Y-132957664D01*
X134756202Y-132957671D01*
X134705908Y-133092517D01*
X134700533Y-133142516D01*
X134699501Y-133152123D01*
X134699500Y-133152135D01*
X100500500Y-133152135D01*
X100500500Y-132385786D01*
X153748769Y-132385786D01*
X153769249Y-132528241D01*
X153769250Y-132528245D01*
X153829036Y-132659156D01*
X153829037Y-132659157D01*
X153829038Y-132659159D01*
X153866657Y-132705842D01*
X153866660Y-132705845D01*
X153866665Y-132705851D01*
X154781630Y-133620814D01*
X155065730Y-133904914D01*
X155112413Y-133942534D01*
X155112414Y-133942534D01*
X155112416Y-133942536D01*
X155243326Y-134002321D01*
X155243327Y-134002321D01*
X155243329Y-134002322D01*
X155385786Y-134022803D01*
X155528243Y-134002322D01*
X155659159Y-133942534D01*
X155705842Y-133904915D01*
X156904914Y-132705842D01*
X156942534Y-132659159D01*
X157002322Y-132528243D01*
X157022803Y-132385786D01*
X157002322Y-132243329D01*
X156942534Y-132112413D01*
X156904915Y-132065730D01*
X156904910Y-132065725D01*
X156904906Y-132065720D01*
X155705849Y-130866665D01*
X155705842Y-130866658D01*
X155659159Y-130829038D01*
X155659157Y-130829037D01*
X155659155Y-130829035D01*
X155528245Y-130769250D01*
X155528241Y-130769249D01*
X155385786Y-130748769D01*
X155243330Y-130769249D01*
X155243326Y-130769250D01*
X155112415Y-130829036D01*
X155065720Y-130866665D01*
X153866665Y-132065722D01*
X153866659Y-132065729D01*
X153829037Y-132112414D01*
X153829035Y-132112416D01*
X153769250Y-132243326D01*
X153769249Y-132243330D01*
X153748769Y-132385786D01*
X100500500Y-132385786D01*
X100500500Y-127921153D01*
X150399500Y-127921153D01*
X150399500Y-128078846D01*
X150430261Y-128233489D01*
X150430264Y-128233501D01*
X150490602Y-128379172D01*
X150490609Y-128379185D01*
X150578210Y-128510288D01*
X150578213Y-128510292D01*
X150689707Y-128621786D01*
X150689711Y-128621789D01*
X150820814Y-128709390D01*
X150820827Y-128709397D01*
X150966498Y-128769735D01*
X150966503Y-128769737D01*
X151121153Y-128800499D01*
X151121156Y-128800500D01*
X151121158Y-128800500D01*
X151278844Y-128800500D01*
X151278845Y-128800499D01*
X151433497Y-128769737D01*
X151579179Y-128709394D01*
X151631110Y-128674694D01*
X151697785Y-128653816D01*
X151765165Y-128672300D01*
X151768863Y-128674676D01*
X151820821Y-128709394D01*
X151820823Y-128709395D01*
X151820825Y-128709396D01*
X151966498Y-128769735D01*
X151966503Y-128769737D01*
X152121153Y-128800499D01*
X152121156Y-128800500D01*
X152121158Y-128800500D01*
X152278844Y-128800500D01*
X152278845Y-128800499D01*
X152433497Y-128769737D01*
X152579179Y-128709394D01*
X152631110Y-128674694D01*
X152697785Y-128653816D01*
X152765165Y-128672300D01*
X152768863Y-128674676D01*
X152820821Y-128709394D01*
X152820823Y-128709395D01*
X152820825Y-128709396D01*
X152966498Y-128769735D01*
X152966503Y-128769737D01*
X153121153Y-128800499D01*
X153121156Y-128800500D01*
X153121158Y-128800500D01*
X153278844Y-128800500D01*
X153278845Y-128800499D01*
X153433497Y-128769737D01*
X153579179Y-128709394D01*
X153631110Y-128674694D01*
X153697785Y-128653816D01*
X153765165Y-128672300D01*
X153768863Y-128674676D01*
X153820821Y-128709394D01*
X153820823Y-128709395D01*
X153820825Y-128709396D01*
X153966498Y-128769735D01*
X153966503Y-128769737D01*
X154121153Y-128800499D01*
X154121156Y-128800500D01*
X154121158Y-128800500D01*
X154278844Y-128800500D01*
X154278845Y-128800499D01*
X154433497Y-128769737D01*
X154579179Y-128709394D01*
X154631110Y-128674694D01*
X154697785Y-128653816D01*
X154765165Y-128672300D01*
X154768863Y-128674676D01*
X154820821Y-128709394D01*
X154820823Y-128709395D01*
X154820825Y-128709396D01*
X154966498Y-128769735D01*
X154966503Y-128769737D01*
X155121153Y-128800499D01*
X155121156Y-128800500D01*
X155121158Y-128800500D01*
X155278844Y-128800500D01*
X155278845Y-128800499D01*
X155433497Y-128769737D01*
X155579179Y-128709394D01*
X155631110Y-128674694D01*
X155697785Y-128653816D01*
X155765165Y-128672300D01*
X155768863Y-128674676D01*
X155820821Y-128709394D01*
X155820823Y-128709395D01*
X155820825Y-128709396D01*
X155966498Y-128769735D01*
X155966503Y-128769737D01*
X156121153Y-128800499D01*
X156121156Y-128800500D01*
X156121158Y-128800500D01*
X156278844Y-128800500D01*
X156278845Y-128800499D01*
X156433497Y-128769737D01*
X156579179Y-128709394D01*
X156710289Y-128621789D01*
X156821789Y-128510289D01*
X156909394Y-128379179D01*
X156969737Y-128233497D01*
X157000500Y-128078842D01*
X157000500Y-127921158D01*
X157000500Y-127921155D01*
X157000499Y-127921153D01*
X156969738Y-127766510D01*
X156969737Y-127766503D01*
X156969735Y-127766498D01*
X156909397Y-127620827D01*
X156909390Y-127620814D01*
X156821789Y-127489711D01*
X156821786Y-127489707D01*
X156710292Y-127378213D01*
X156710288Y-127378210D01*
X156579185Y-127290609D01*
X156579176Y-127290604D01*
X156506574Y-127260532D01*
X156452171Y-127216691D01*
X156439470Y-127193432D01*
X156409394Y-127120821D01*
X156409391Y-127120816D01*
X156409390Y-127120814D01*
X156321789Y-126989711D01*
X156321786Y-126989707D01*
X156210292Y-126878213D01*
X156210288Y-126878210D01*
X156079185Y-126790609D01*
X156079176Y-126790604D01*
X156006574Y-126760532D01*
X155952171Y-126716691D01*
X155939470Y-126693432D01*
X155909394Y-126620821D01*
X155909391Y-126620816D01*
X155909390Y-126620814D01*
X155821789Y-126489711D01*
X155821786Y-126489707D01*
X155710292Y-126378213D01*
X155710288Y-126378210D01*
X155579185Y-126290609D01*
X155579172Y-126290602D01*
X155433501Y-126230264D01*
X155433489Y-126230261D01*
X155278845Y-126199500D01*
X155278842Y-126199500D01*
X155121158Y-126199500D01*
X155121155Y-126199500D01*
X154966510Y-126230261D01*
X154966498Y-126230264D01*
X154820827Y-126290602D01*
X154820814Y-126290609D01*
X154768891Y-126325304D01*
X154702214Y-126346182D01*
X154634833Y-126327698D01*
X154631109Y-126325304D01*
X154579185Y-126290609D01*
X154579172Y-126290602D01*
X154433501Y-126230264D01*
X154433489Y-126230261D01*
X154278845Y-126199500D01*
X154278842Y-126199500D01*
X154121158Y-126199500D01*
X154121155Y-126199500D01*
X153966510Y-126230261D01*
X153966498Y-126230264D01*
X153820827Y-126290602D01*
X153820814Y-126290609D01*
X153768891Y-126325304D01*
X153702214Y-126346182D01*
X153634833Y-126327698D01*
X153631109Y-126325304D01*
X153579185Y-126290609D01*
X153579172Y-126290602D01*
X153433501Y-126230264D01*
X153433489Y-126230261D01*
X153278845Y-126199500D01*
X153278842Y-126199500D01*
X153121158Y-126199500D01*
X153121155Y-126199500D01*
X152966510Y-126230261D01*
X152966498Y-126230264D01*
X152820827Y-126290602D01*
X152820814Y-126290609D01*
X152768891Y-126325304D01*
X152702214Y-126346182D01*
X152634833Y-126327698D01*
X152631109Y-126325304D01*
X152579185Y-126290609D01*
X152579172Y-126290602D01*
X152433501Y-126230264D01*
X152433489Y-126230261D01*
X152278845Y-126199500D01*
X152278842Y-126199500D01*
X152121158Y-126199500D01*
X152121155Y-126199500D01*
X151966510Y-126230261D01*
X151966498Y-126230264D01*
X151820827Y-126290602D01*
X151820814Y-126290609D01*
X151689711Y-126378210D01*
X151689707Y-126378213D01*
X151578213Y-126489707D01*
X151578210Y-126489711D01*
X151490609Y-126620814D01*
X151490606Y-126620820D01*
X151460532Y-126693425D01*
X151416690Y-126747828D01*
X151393425Y-126760532D01*
X151320820Y-126790606D01*
X151320814Y-126790609D01*
X151189711Y-126878210D01*
X151189707Y-126878213D01*
X151078213Y-126989707D01*
X151078210Y-126989711D01*
X150990609Y-127120814D01*
X150990606Y-127120820D01*
X150960532Y-127193425D01*
X150916690Y-127247828D01*
X150893425Y-127260532D01*
X150820820Y-127290606D01*
X150820814Y-127290609D01*
X150689711Y-127378210D01*
X150689707Y-127378213D01*
X150578213Y-127489707D01*
X150578210Y-127489711D01*
X150490609Y-127620814D01*
X150490602Y-127620827D01*
X150430264Y-127766498D01*
X150430261Y-127766510D01*
X150399500Y-127921153D01*
X100500500Y-127921153D01*
X100500500Y-119171153D01*
X132699500Y-119171153D01*
X132699500Y-119328846D01*
X132730261Y-119483489D01*
X132730264Y-119483501D01*
X132790602Y-119629172D01*
X132790609Y-119629185D01*
X132878210Y-119760288D01*
X132878213Y-119760292D01*
X132989707Y-119871786D01*
X132989711Y-119871789D01*
X133120814Y-119959390D01*
X133120827Y-119959397D01*
X133266498Y-120019735D01*
X133266503Y-120019737D01*
X133421153Y-120050499D01*
X133421156Y-120050500D01*
X133421158Y-120050500D01*
X133578844Y-120050500D01*
X133578845Y-120050499D01*
X133733497Y-120019737D01*
X133879179Y-119959394D01*
X134010289Y-119871789D01*
X134121789Y-119760289D01*
X134209394Y-119629179D01*
X134269737Y-119483497D01*
X134300500Y-119328842D01*
X134300500Y-119171158D01*
X134300500Y-119171155D01*
X134300499Y-119171153D01*
X134269738Y-119016510D01*
X134269737Y-119016503D01*
X134269735Y-119016498D01*
X134209397Y-118870827D01*
X134209390Y-118870814D01*
X134121789Y-118739711D01*
X134121786Y-118739707D01*
X134010292Y-118628213D01*
X134010288Y-118628210D01*
X133879185Y-118540609D01*
X133879172Y-118540602D01*
X133733501Y-118480264D01*
X133733489Y-118480261D01*
X133578845Y-118449500D01*
X133578842Y-118449500D01*
X133421158Y-118449500D01*
X133421155Y-118449500D01*
X133266510Y-118480261D01*
X133266498Y-118480264D01*
X133120827Y-118540602D01*
X133120814Y-118540609D01*
X132989711Y-118628210D01*
X132989707Y-118628213D01*
X132878213Y-118739707D01*
X132878210Y-118739711D01*
X132790609Y-118870814D01*
X132790602Y-118870827D01*
X132730264Y-119016498D01*
X132730261Y-119016510D01*
X132699500Y-119171153D01*
X100500500Y-119171153D01*
X100500500Y-117395675D01*
X105174500Y-117395675D01*
X105174500Y-117604324D01*
X105207137Y-117810389D01*
X105271612Y-118008820D01*
X105366330Y-118194714D01*
X105488965Y-118363505D01*
X105636495Y-118511035D01*
X105805286Y-118633670D01*
X105893116Y-118678421D01*
X105991179Y-118728387D01*
X105991181Y-118728387D01*
X105991184Y-118728389D01*
X106097545Y-118762948D01*
X106189610Y-118792862D01*
X106395676Y-118825500D01*
X106395681Y-118825500D01*
X106604324Y-118825500D01*
X106810389Y-118792862D01*
X107008816Y-118728389D01*
X107194714Y-118633670D01*
X107363505Y-118511035D01*
X107511035Y-118363505D01*
X107633670Y-118194714D01*
X107728389Y-118008816D01*
X107792862Y-117810389D01*
X107814914Y-117671158D01*
X107825500Y-117604324D01*
X107825500Y-117395675D01*
X110174500Y-117395675D01*
X110174500Y-117604324D01*
X110207137Y-117810389D01*
X110271612Y-118008820D01*
X110366330Y-118194714D01*
X110488965Y-118363505D01*
X110636495Y-118511035D01*
X110805286Y-118633670D01*
X110893116Y-118678421D01*
X110991179Y-118728387D01*
X110991181Y-118728387D01*
X110991184Y-118728389D01*
X111097545Y-118762948D01*
X111189610Y-118792862D01*
X111395676Y-118825500D01*
X111395681Y-118825500D01*
X111604324Y-118825500D01*
X111810389Y-118792862D01*
X112008816Y-118728389D01*
X112194714Y-118633670D01*
X112363505Y-118511035D01*
X112511035Y-118363505D01*
X112633670Y-118194714D01*
X112728389Y-118008816D01*
X112792862Y-117810389D01*
X112814915Y-117671153D01*
X119199500Y-117671153D01*
X119199500Y-117828846D01*
X119230261Y-117983489D01*
X119230264Y-117983501D01*
X119290602Y-118129172D01*
X119290609Y-118129185D01*
X119378210Y-118260288D01*
X119378213Y-118260292D01*
X119489707Y-118371786D01*
X119489711Y-118371789D01*
X119620814Y-118459390D01*
X119620827Y-118459397D01*
X119745494Y-118511035D01*
X119766503Y-118519737D01*
X119921153Y-118550499D01*
X119921156Y-118550500D01*
X119921158Y-118550500D01*
X120078844Y-118550500D01*
X120078845Y-118550499D01*
X120233497Y-118519737D01*
X120379179Y-118459394D01*
X120510289Y-118371789D01*
X120621789Y-118260289D01*
X120709394Y-118129179D01*
X120769737Y-117983497D01*
X120800500Y-117828842D01*
X120800500Y-117671158D01*
X120800500Y-117671155D01*
X120800499Y-117671153D01*
X120769738Y-117516510D01*
X120769737Y-117516503D01*
X120769735Y-117516498D01*
X120709397Y-117370827D01*
X120709390Y-117370814D01*
X120621789Y-117239711D01*
X120621786Y-117239707D01*
X120510292Y-117128213D01*
X120510288Y-117128210D01*
X120379185Y-117040609D01*
X120379172Y-117040602D01*
X120233501Y-116980264D01*
X120233489Y-116980261D01*
X120078845Y-116949500D01*
X120078842Y-116949500D01*
X119921158Y-116949500D01*
X119921155Y-116949500D01*
X119766510Y-116980261D01*
X119766498Y-116980264D01*
X119620827Y-117040602D01*
X119620814Y-117040609D01*
X119489711Y-117128210D01*
X119489707Y-117128213D01*
X119378213Y-117239707D01*
X119378210Y-117239711D01*
X119290609Y-117370814D01*
X119290602Y-117370827D01*
X119230264Y-117516498D01*
X119230261Y-117516510D01*
X119199500Y-117671153D01*
X112814915Y-117671153D01*
X112818952Y-117645668D01*
X112818952Y-117645667D01*
X112825500Y-117604325D01*
X112825500Y-117395675D01*
X112792862Y-117189610D01*
X112728387Y-116991179D01*
X112633669Y-116805285D01*
X112511035Y-116636495D01*
X112363505Y-116488965D01*
X112194714Y-116366330D01*
X112008820Y-116271612D01*
X111810389Y-116207137D01*
X111604324Y-116174500D01*
X111604319Y-116174500D01*
X111395681Y-116174500D01*
X111395676Y-116174500D01*
X111189610Y-116207137D01*
X110991179Y-116271612D01*
X110805285Y-116366330D01*
X110636493Y-116488966D01*
X110488966Y-116636493D01*
X110366330Y-116805285D01*
X110271612Y-116991179D01*
X110207137Y-117189610D01*
X110174500Y-117395675D01*
X107825500Y-117395675D01*
X107792862Y-117189610D01*
X107728387Y-116991179D01*
X107633669Y-116805285D01*
X107511035Y-116636495D01*
X107363505Y-116488965D01*
X107194714Y-116366330D01*
X107008820Y-116271612D01*
X106810389Y-116207137D01*
X106604324Y-116174500D01*
X106604319Y-116174500D01*
X106395681Y-116174500D01*
X106395676Y-116174500D01*
X106189610Y-116207137D01*
X105991179Y-116271612D01*
X105805285Y-116366330D01*
X105636493Y-116488966D01*
X105488966Y-116636493D01*
X105366330Y-116805285D01*
X105271612Y-116991179D01*
X105207137Y-117189610D01*
X105174500Y-117395675D01*
X100500500Y-117395675D01*
X100500500Y-113895675D01*
X105174500Y-113895675D01*
X105174500Y-114104324D01*
X105207137Y-114310389D01*
X105271612Y-114508820D01*
X105366330Y-114694714D01*
X105488965Y-114863505D01*
X105636495Y-115011035D01*
X105805286Y-115133670D01*
X105893116Y-115178421D01*
X105991179Y-115228387D01*
X105991181Y-115228387D01*
X105991184Y-115228389D01*
X106097545Y-115262948D01*
X106189610Y-115292862D01*
X106395676Y-115325500D01*
X106395681Y-115325500D01*
X106604324Y-115325500D01*
X106810389Y-115292862D01*
X107008816Y-115228389D01*
X107194714Y-115133670D01*
X107363505Y-115011035D01*
X107511035Y-114863505D01*
X107633670Y-114694714D01*
X107728389Y-114508816D01*
X107792862Y-114310389D01*
X107825500Y-114104324D01*
X107825500Y-113895675D01*
X110174500Y-113895675D01*
X110174500Y-114104324D01*
X110207137Y-114310389D01*
X110271612Y-114508820D01*
X110366330Y-114694714D01*
X110488965Y-114863505D01*
X110636495Y-115011035D01*
X110805286Y-115133670D01*
X110893116Y-115178421D01*
X110991179Y-115228387D01*
X110991181Y-115228387D01*
X110991184Y-115228389D01*
X111097545Y-115262948D01*
X111189610Y-115292862D01*
X111395676Y-115325500D01*
X111395681Y-115325500D01*
X111604324Y-115325500D01*
X111810389Y-115292862D01*
X112008816Y-115228389D01*
X112194714Y-115133670D01*
X112363505Y-115011035D01*
X112511035Y-114863505D01*
X112633670Y-114694714D01*
X112728389Y-114508816D01*
X112792862Y-114310389D01*
X112825500Y-114104324D01*
X112825500Y-113895675D01*
X112792862Y-113689610D01*
X112728387Y-113491179D01*
X112633669Y-113305285D01*
X112511035Y-113136495D01*
X112363505Y-112988965D01*
X112194714Y-112866330D01*
X112008820Y-112771612D01*
X111810389Y-112707137D01*
X111604324Y-112674500D01*
X111604319Y-112674500D01*
X111395681Y-112674500D01*
X111395676Y-112674500D01*
X111189610Y-112707137D01*
X110991179Y-112771612D01*
X110805285Y-112866330D01*
X110636493Y-112988966D01*
X110488966Y-113136493D01*
X110366330Y-113305285D01*
X110271612Y-113491179D01*
X110207137Y-113689610D01*
X110174500Y-113895675D01*
X107825500Y-113895675D01*
X107792862Y-113689610D01*
X107728387Y-113491179D01*
X107633669Y-113305285D01*
X107511035Y-113136495D01*
X107363505Y-112988965D01*
X107194714Y-112866330D01*
X107008820Y-112771612D01*
X106810389Y-112707137D01*
X106604324Y-112674500D01*
X106604319Y-112674500D01*
X106395681Y-112674500D01*
X106395676Y-112674500D01*
X106189610Y-112707137D01*
X105991179Y-112771612D01*
X105805285Y-112866330D01*
X105636493Y-112988966D01*
X105488966Y-113136493D01*
X105366330Y-113305285D01*
X105271612Y-113491179D01*
X105207137Y-113689610D01*
X105174500Y-113895675D01*
X100500500Y-113895675D01*
X100500500Y-112421153D01*
X119199500Y-112421153D01*
X119199500Y-112578846D01*
X119230261Y-112733489D01*
X119230264Y-112733501D01*
X119290602Y-112879172D01*
X119290609Y-112879185D01*
X119378210Y-113010288D01*
X119378213Y-113010292D01*
X119489707Y-113121786D01*
X119489711Y-113121789D01*
X119620814Y-113209390D01*
X119620827Y-113209397D01*
X119766498Y-113269735D01*
X119766503Y-113269737D01*
X119921153Y-113300499D01*
X119921156Y-113300500D01*
X119921158Y-113300500D01*
X120078844Y-113300500D01*
X120078845Y-113300499D01*
X120233497Y-113269737D01*
X120379179Y-113209394D01*
X120510289Y-113121789D01*
X120621789Y-113010289D01*
X120709394Y-112879179D01*
X120769737Y-112733497D01*
X120800500Y-112578842D01*
X120800500Y-112421158D01*
X120800500Y-112421155D01*
X120800499Y-112421153D01*
X120769738Y-112266510D01*
X120769737Y-112266503D01*
X120769735Y-112266498D01*
X120709397Y-112120827D01*
X120709390Y-112120814D01*
X120621789Y-111989711D01*
X120621786Y-111989707D01*
X120510292Y-111878213D01*
X120510288Y-111878210D01*
X120379185Y-111790609D01*
X120379172Y-111790602D01*
X120233501Y-111730264D01*
X120233489Y-111730261D01*
X120078845Y-111699500D01*
X120078842Y-111699500D01*
X119921158Y-111699500D01*
X119921155Y-111699500D01*
X119766510Y-111730261D01*
X119766498Y-111730264D01*
X119620827Y-111790602D01*
X119620814Y-111790609D01*
X119489711Y-111878210D01*
X119489707Y-111878213D01*
X119378213Y-111989707D01*
X119378210Y-111989711D01*
X119290609Y-112120814D01*
X119290602Y-112120827D01*
X119230264Y-112266498D01*
X119230261Y-112266510D01*
X119199500Y-112421153D01*
X100500500Y-112421153D01*
X100500500Y-110395675D01*
X105174500Y-110395675D01*
X105174500Y-110604324D01*
X105207137Y-110810389D01*
X105271612Y-111008820D01*
X105366330Y-111194714D01*
X105488965Y-111363505D01*
X105636495Y-111511035D01*
X105805286Y-111633670D01*
X105893116Y-111678421D01*
X105991179Y-111728387D01*
X105991181Y-111728387D01*
X105991184Y-111728389D01*
X106097545Y-111762948D01*
X106189610Y-111792862D01*
X106395676Y-111825500D01*
X106395681Y-111825500D01*
X106604324Y-111825500D01*
X106810389Y-111792862D01*
X106817332Y-111790606D01*
X107008816Y-111728389D01*
X107194714Y-111633670D01*
X107363505Y-111511035D01*
X107511035Y-111363505D01*
X107633670Y-111194714D01*
X107728389Y-111008816D01*
X107792862Y-110810389D01*
X107825500Y-110604324D01*
X107825500Y-110395675D01*
X110174500Y-110395675D01*
X110174500Y-110604324D01*
X110207137Y-110810389D01*
X110271612Y-111008820D01*
X110366330Y-111194714D01*
X110488965Y-111363505D01*
X110636495Y-111511035D01*
X110805286Y-111633670D01*
X110893116Y-111678421D01*
X110991179Y-111728387D01*
X110991181Y-111728387D01*
X110991184Y-111728389D01*
X111097545Y-111762948D01*
X111189610Y-111792862D01*
X111395676Y-111825500D01*
X111395681Y-111825500D01*
X111604324Y-111825500D01*
X111810389Y-111792862D01*
X111817332Y-111790606D01*
X112008816Y-111728389D01*
X112194714Y-111633670D01*
X112363505Y-111511035D01*
X112511035Y-111363505D01*
X112633670Y-111194714D01*
X112728389Y-111008816D01*
X112792862Y-110810389D01*
X112825500Y-110604324D01*
X112825500Y-110395675D01*
X112792862Y-110189610D01*
X112728387Y-109991179D01*
X112633669Y-109805285D01*
X112511035Y-109636495D01*
X112363505Y-109488965D01*
X112194714Y-109366330D01*
X112008820Y-109271612D01*
X111810389Y-109207137D01*
X111604324Y-109174500D01*
X111604319Y-109174500D01*
X111395681Y-109174500D01*
X111395676Y-109174500D01*
X111189610Y-109207137D01*
X110991179Y-109271612D01*
X110805285Y-109366330D01*
X110636493Y-109488966D01*
X110488966Y-109636493D01*
X110366330Y-109805285D01*
X110271612Y-109991179D01*
X110207137Y-110189610D01*
X110174500Y-110395675D01*
X107825500Y-110395675D01*
X107792862Y-110189610D01*
X107728387Y-109991179D01*
X107633669Y-109805285D01*
X107511035Y-109636495D01*
X107363505Y-109488965D01*
X107194714Y-109366330D01*
X107008820Y-109271612D01*
X106810389Y-109207137D01*
X106604324Y-109174500D01*
X106604319Y-109174500D01*
X106395681Y-109174500D01*
X106395676Y-109174500D01*
X106189610Y-109207137D01*
X105991179Y-109271612D01*
X105805285Y-109366330D01*
X105636493Y-109488966D01*
X105488966Y-109636493D01*
X105366330Y-109805285D01*
X105271612Y-109991179D01*
X105207137Y-110189610D01*
X105174500Y-110395675D01*
X100500500Y-110395675D01*
X100500500Y-106895675D01*
X105174500Y-106895675D01*
X105174500Y-107104324D01*
X105207137Y-107310389D01*
X105271612Y-107508820D01*
X105332445Y-107628211D01*
X105366330Y-107694714D01*
X105488965Y-107863505D01*
X105636495Y-108011035D01*
X105805286Y-108133670D01*
X105878851Y-108171153D01*
X105991179Y-108228387D01*
X105991181Y-108228387D01*
X105991184Y-108228389D01*
X106097545Y-108262948D01*
X106189610Y-108292862D01*
X106395676Y-108325500D01*
X106395681Y-108325500D01*
X106604324Y-108325500D01*
X106810389Y-108292862D01*
X106817332Y-108290606D01*
X107008816Y-108228389D01*
X107194714Y-108133670D01*
X107363505Y-108011035D01*
X107511035Y-107863505D01*
X107633670Y-107694714D01*
X107728389Y-107508816D01*
X107792862Y-107310389D01*
X107825500Y-107104324D01*
X107825500Y-106895675D01*
X110174500Y-106895675D01*
X110174500Y-107104324D01*
X110207137Y-107310389D01*
X110271612Y-107508820D01*
X110332445Y-107628211D01*
X110366330Y-107694714D01*
X110488965Y-107863505D01*
X110636495Y-108011035D01*
X110805286Y-108133670D01*
X110878851Y-108171153D01*
X110991179Y-108228387D01*
X110991181Y-108228387D01*
X110991184Y-108228389D01*
X111097545Y-108262948D01*
X111189610Y-108292862D01*
X111395676Y-108325500D01*
X111395681Y-108325500D01*
X111604324Y-108325500D01*
X111810389Y-108292862D01*
X111817332Y-108290606D01*
X112008816Y-108228389D01*
X112121149Y-108171153D01*
X123449500Y-108171153D01*
X123449500Y-108328846D01*
X123480261Y-108483489D01*
X123480264Y-108483501D01*
X123540602Y-108629172D01*
X123540609Y-108629185D01*
X123628210Y-108760288D01*
X123628213Y-108760292D01*
X123739707Y-108871786D01*
X123739711Y-108871789D01*
X123870814Y-108959390D01*
X123870827Y-108959397D01*
X124016498Y-109019735D01*
X124016503Y-109019737D01*
X124112367Y-109038805D01*
X124113535Y-109039038D01*
X124175446Y-109071422D01*
X124210020Y-109132138D01*
X124210961Y-109136463D01*
X124230261Y-109233491D01*
X124230264Y-109233501D01*
X124290602Y-109379172D01*
X124290609Y-109379185D01*
X124378210Y-109510288D01*
X124378213Y-109510292D01*
X124489707Y-109621786D01*
X124489711Y-109621789D01*
X124620814Y-109709390D01*
X124620827Y-109709397D01*
X124766498Y-109769735D01*
X124766503Y-109769737D01*
X124921153Y-109800499D01*
X124921156Y-109800500D01*
X124921158Y-109800500D01*
X125078844Y-109800500D01*
X125078845Y-109800499D01*
X125233497Y-109769737D01*
X125379179Y-109709394D01*
X125510289Y-109621789D01*
X125621789Y-109510289D01*
X125709394Y-109379179D01*
X125769737Y-109233497D01*
X125800500Y-109078842D01*
X125800500Y-108921158D01*
X125800500Y-108921155D01*
X125800499Y-108921153D01*
X125769738Y-108766510D01*
X125769737Y-108766503D01*
X125730242Y-108671153D01*
X150699500Y-108671153D01*
X150699500Y-108828846D01*
X150730261Y-108983489D01*
X150730264Y-108983501D01*
X150790602Y-109129172D01*
X150790609Y-109129185D01*
X150878210Y-109260288D01*
X150878213Y-109260292D01*
X150989707Y-109371786D01*
X150989711Y-109371789D01*
X151120814Y-109459390D01*
X151120827Y-109459397D01*
X151266498Y-109519735D01*
X151266503Y-109519737D01*
X151421153Y-109550499D01*
X151421156Y-109550500D01*
X151421158Y-109550500D01*
X151578844Y-109550500D01*
X151578845Y-109550499D01*
X151733497Y-109519737D01*
X151879179Y-109459394D01*
X152010289Y-109371789D01*
X152121789Y-109260289D01*
X152209394Y-109129179D01*
X152269737Y-108983497D01*
X152300500Y-108828842D01*
X152300500Y-108671158D01*
X152300500Y-108671155D01*
X152300499Y-108671153D01*
X152269738Y-108516510D01*
X152269737Y-108516503D01*
X152269735Y-108516498D01*
X152209397Y-108370827D01*
X152209390Y-108370814D01*
X152121789Y-108239711D01*
X152121786Y-108239707D01*
X152010292Y-108128213D01*
X152010288Y-108128210D01*
X151879185Y-108040609D01*
X151879172Y-108040602D01*
X151733501Y-107980264D01*
X151733489Y-107980261D01*
X151578845Y-107949500D01*
X151578842Y-107949500D01*
X151421158Y-107949500D01*
X151421155Y-107949500D01*
X151266510Y-107980261D01*
X151266498Y-107980264D01*
X151120827Y-108040602D01*
X151120814Y-108040609D01*
X150989711Y-108128210D01*
X150989707Y-108128213D01*
X150878213Y-108239707D01*
X150878210Y-108239711D01*
X150790609Y-108370814D01*
X150790602Y-108370827D01*
X150730264Y-108516498D01*
X150730261Y-108516510D01*
X150699500Y-108671153D01*
X125730242Y-108671153D01*
X125729933Y-108670408D01*
X125709397Y-108620827D01*
X125709390Y-108620814D01*
X125621789Y-108489711D01*
X125621786Y-108489707D01*
X125510292Y-108378213D01*
X125510288Y-108378210D01*
X125379185Y-108290609D01*
X125379172Y-108290602D01*
X125233501Y-108230264D01*
X125233491Y-108230261D01*
X125136463Y-108210961D01*
X125074552Y-108178576D01*
X125039978Y-108117860D01*
X125039038Y-108113535D01*
X125038805Y-108112367D01*
X125019737Y-108016503D01*
X125017471Y-108011032D01*
X124959397Y-107870827D01*
X124959390Y-107870814D01*
X124871789Y-107739711D01*
X124871786Y-107739707D01*
X124760292Y-107628213D01*
X124760288Y-107628210D01*
X124629185Y-107540609D01*
X124629172Y-107540602D01*
X124483501Y-107480264D01*
X124483489Y-107480261D01*
X124328845Y-107449500D01*
X124328842Y-107449500D01*
X124171158Y-107449500D01*
X124171155Y-107449500D01*
X124016510Y-107480261D01*
X124016498Y-107480264D01*
X123870827Y-107540602D01*
X123870814Y-107540609D01*
X123739711Y-107628210D01*
X123739707Y-107628213D01*
X123628213Y-107739707D01*
X123628210Y-107739711D01*
X123540609Y-107870814D01*
X123540602Y-107870827D01*
X123480264Y-108016498D01*
X123480261Y-108016510D01*
X123449500Y-108171153D01*
X112121149Y-108171153D01*
X112194714Y-108133670D01*
X112289576Y-108064747D01*
X112289578Y-108064747D01*
X112322810Y-108040602D01*
X112363505Y-108011035D01*
X112511035Y-107863505D01*
X112633670Y-107694714D01*
X112728389Y-107508816D01*
X112792862Y-107310389D01*
X112825500Y-107104324D01*
X112825500Y-106895675D01*
X112792862Y-106689610D01*
X112728387Y-106491179D01*
X112633669Y-106305285D01*
X112511035Y-106136495D01*
X112363505Y-105988965D01*
X112194714Y-105866330D01*
X112008820Y-105771612D01*
X111810389Y-105707137D01*
X111604324Y-105674500D01*
X111604319Y-105674500D01*
X111395681Y-105674500D01*
X111395676Y-105674500D01*
X111189610Y-105707137D01*
X110991179Y-105771612D01*
X110805285Y-105866330D01*
X110636493Y-105988966D01*
X110488966Y-106136493D01*
X110366330Y-106305285D01*
X110271612Y-106491179D01*
X110207137Y-106689610D01*
X110174500Y-106895675D01*
X107825500Y-106895675D01*
X107792862Y-106689610D01*
X107728387Y-106491179D01*
X107633669Y-106305285D01*
X107511035Y-106136495D01*
X107363505Y-105988965D01*
X107194714Y-105866330D01*
X107008820Y-105771612D01*
X106810389Y-105707137D01*
X106604324Y-105674500D01*
X106604319Y-105674500D01*
X106395681Y-105674500D01*
X106395676Y-105674500D01*
X106189610Y-105707137D01*
X105991179Y-105771612D01*
X105805285Y-105866330D01*
X105636493Y-105988966D01*
X105488966Y-106136493D01*
X105366330Y-106305285D01*
X105271612Y-106491179D01*
X105207137Y-106689610D01*
X105174500Y-106895675D01*
X100500500Y-106895675D01*
X100500500Y-103395675D01*
X105174500Y-103395675D01*
X105174500Y-103604324D01*
X105207137Y-103810389D01*
X105271612Y-104008820D01*
X105366330Y-104194714D01*
X105488965Y-104363505D01*
X105636495Y-104511035D01*
X105805286Y-104633670D01*
X105893116Y-104678421D01*
X105991179Y-104728387D01*
X105991181Y-104728387D01*
X105991184Y-104728389D01*
X106097545Y-104762948D01*
X106189610Y-104792862D01*
X106395676Y-104825500D01*
X106395681Y-104825500D01*
X106604324Y-104825500D01*
X106810389Y-104792862D01*
X107008816Y-104728389D01*
X107194714Y-104633670D01*
X107363505Y-104511035D01*
X107511035Y-104363505D01*
X107633670Y-104194714D01*
X107728389Y-104008816D01*
X107792862Y-103810389D01*
X107825500Y-103604324D01*
X107825500Y-103395675D01*
X110174500Y-103395675D01*
X110174500Y-103604324D01*
X110207137Y-103810389D01*
X110271612Y-104008820D01*
X110366330Y-104194714D01*
X110488965Y-104363505D01*
X110636495Y-104511035D01*
X110805286Y-104633670D01*
X110893116Y-104678421D01*
X110991179Y-104728387D01*
X110991181Y-104728387D01*
X110991184Y-104728389D01*
X111097545Y-104762948D01*
X111189610Y-104792862D01*
X111395676Y-104825500D01*
X111395681Y-104825500D01*
X111604324Y-104825500D01*
X111810389Y-104792862D01*
X112008816Y-104728389D01*
X112194714Y-104633670D01*
X112363505Y-104511035D01*
X112511035Y-104363505D01*
X112633670Y-104194714D01*
X112728389Y-104008816D01*
X112792862Y-103810389D01*
X112825500Y-103604324D01*
X112825500Y-103395675D01*
X112792862Y-103189610D01*
X112728387Y-102991179D01*
X112633669Y-102805285D01*
X112511035Y-102636495D01*
X112363505Y-102488965D01*
X112194714Y-102366330D01*
X112008820Y-102271612D01*
X111810389Y-102207137D01*
X111604324Y-102174500D01*
X111604319Y-102174500D01*
X111395681Y-102174500D01*
X111395676Y-102174500D01*
X111189610Y-102207137D01*
X110991179Y-102271612D01*
X110805285Y-102366330D01*
X110636493Y-102488966D01*
X110488966Y-102636493D01*
X110366330Y-102805285D01*
X110271612Y-102991179D01*
X110207137Y-103189610D01*
X110174500Y-103395675D01*
X107825500Y-103395675D01*
X107792862Y-103189610D01*
X107728387Y-102991179D01*
X107633669Y-102805285D01*
X107511035Y-102636495D01*
X107363505Y-102488965D01*
X107194714Y-102366330D01*
X107008820Y-102271612D01*
X106810389Y-102207137D01*
X106604324Y-102174500D01*
X106604319Y-102174500D01*
X106395681Y-102174500D01*
X106395676Y-102174500D01*
X106189610Y-102207137D01*
X105991179Y-102271612D01*
X105805285Y-102366330D01*
X105636493Y-102488966D01*
X105488966Y-102636493D01*
X105366330Y-102805285D01*
X105271612Y-102991179D01*
X105207137Y-103189610D01*
X105174500Y-103395675D01*
X100500500Y-103395675D01*
X100500500Y-100671153D01*
X120449500Y-100671153D01*
X120449500Y-100828846D01*
X120480261Y-100983489D01*
X120480264Y-100983501D01*
X120540602Y-101129172D01*
X120540609Y-101129185D01*
X120628210Y-101260288D01*
X120628213Y-101260292D01*
X120739707Y-101371786D01*
X120739711Y-101371789D01*
X120870814Y-101459390D01*
X120870827Y-101459397D01*
X121016498Y-101519735D01*
X121016503Y-101519737D01*
X121171153Y-101550499D01*
X121171156Y-101550500D01*
X121171158Y-101550500D01*
X121328844Y-101550500D01*
X121328845Y-101550499D01*
X121483497Y-101519737D01*
X121602550Y-101470423D01*
X121672017Y-101462955D01*
X121697450Y-101470422D01*
X121816506Y-101519737D01*
X121971156Y-101550499D01*
X121971159Y-101550500D01*
X121971161Y-101550500D01*
X122128847Y-101550500D01*
X122128848Y-101550499D01*
X122283500Y-101519737D01*
X122429182Y-101459394D01*
X122560292Y-101371789D01*
X122671792Y-101260289D01*
X122759397Y-101129179D01*
X122819740Y-100983497D01*
X122850503Y-100828842D01*
X122850503Y-100671158D01*
X122850503Y-100671155D01*
X122850502Y-100671153D01*
X122819741Y-100516510D01*
X122819740Y-100516503D01*
X122819738Y-100516498D01*
X122759400Y-100370827D01*
X122759393Y-100370814D01*
X122671792Y-100239711D01*
X122671789Y-100239707D01*
X122560295Y-100128213D01*
X122560291Y-100128210D01*
X122429188Y-100040609D01*
X122429175Y-100040602D01*
X122283504Y-99980264D01*
X122283492Y-99980261D01*
X122128848Y-99949500D01*
X122128845Y-99949500D01*
X121971161Y-99949500D01*
X121971158Y-99949500D01*
X121816513Y-99980261D01*
X121816501Y-99980264D01*
X121697453Y-100029575D01*
X121627983Y-100037044D01*
X121602549Y-100029575D01*
X121483501Y-99980264D01*
X121483489Y-99980261D01*
X121328845Y-99949500D01*
X121328842Y-99949500D01*
X121171158Y-99949500D01*
X121171155Y-99949500D01*
X121016510Y-99980261D01*
X121016498Y-99980264D01*
X120870827Y-100040602D01*
X120870814Y-100040609D01*
X120739711Y-100128210D01*
X120739707Y-100128213D01*
X120628213Y-100239707D01*
X120628210Y-100239711D01*
X120540609Y-100370814D01*
X120540602Y-100370827D01*
X120480264Y-100516498D01*
X120480261Y-100516510D01*
X120449500Y-100671153D01*
X100500500Y-100671153D01*
X100500500Y-94421153D01*
X153599500Y-94421153D01*
X153599500Y-94578846D01*
X153630261Y-94733489D01*
X153630264Y-94733501D01*
X153690602Y-94879172D01*
X153690609Y-94879185D01*
X153778210Y-95010288D01*
X153778213Y-95010292D01*
X153889707Y-95121786D01*
X153889711Y-95121789D01*
X154020814Y-95209390D01*
X154020827Y-95209397D01*
X154166498Y-95269735D01*
X154166503Y-95269737D01*
X154321153Y-95300499D01*
X154321156Y-95300500D01*
X154321158Y-95300500D01*
X154478844Y-95300500D01*
X154478845Y-95300499D01*
X154633497Y-95269737D01*
X154779179Y-95209394D01*
X154910289Y-95121789D01*
X155021789Y-95010289D01*
X155109394Y-94879179D01*
X155169737Y-94733497D01*
X155178824Y-94687816D01*
X155183730Y-94663153D01*
X155917500Y-94663153D01*
X155917500Y-94820846D01*
X155948261Y-94975489D01*
X155948264Y-94975501D01*
X156008602Y-95121172D01*
X156008609Y-95121185D01*
X156096210Y-95252288D01*
X156096213Y-95252292D01*
X156207707Y-95363786D01*
X156207711Y-95363789D01*
X156338814Y-95451390D01*
X156338827Y-95451397D01*
X156484498Y-95511735D01*
X156484503Y-95511737D01*
X156639153Y-95542499D01*
X156639156Y-95542500D01*
X156639158Y-95542500D01*
X156796844Y-95542500D01*
X156796845Y-95542499D01*
X156951497Y-95511737D01*
X157097179Y-95451394D01*
X157228289Y-95363789D01*
X157339789Y-95252289D01*
X157427394Y-95121179D01*
X157434369Y-95104341D01*
X157448654Y-95069853D01*
X157487737Y-94975497D01*
X157518500Y-94820842D01*
X157518500Y-94663158D01*
X157518500Y-94663155D01*
X157518499Y-94663153D01*
X157487738Y-94508510D01*
X157487737Y-94508503D01*
X157451556Y-94421153D01*
X157427397Y-94362827D01*
X157427390Y-94362814D01*
X157339789Y-94231711D01*
X157339786Y-94231707D01*
X157228292Y-94120213D01*
X157228288Y-94120210D01*
X157097185Y-94032609D01*
X157097172Y-94032602D01*
X156978390Y-93983402D01*
X156951501Y-93972264D01*
X156951489Y-93972261D01*
X156796845Y-93941500D01*
X156796842Y-93941500D01*
X156639158Y-93941500D01*
X156639155Y-93941500D01*
X156484510Y-93972261D01*
X156484498Y-93972264D01*
X156338827Y-94032602D01*
X156338814Y-94032609D01*
X156207711Y-94120210D01*
X156207707Y-94120213D01*
X156096213Y-94231707D01*
X156096210Y-94231711D01*
X156008609Y-94362814D01*
X156008602Y-94362827D01*
X155948264Y-94508498D01*
X155948261Y-94508510D01*
X155917500Y-94663153D01*
X155183730Y-94663153D01*
X155189753Y-94632874D01*
X155189753Y-94632873D01*
X155200499Y-94578846D01*
X155200500Y-94578844D01*
X155200500Y-94421155D01*
X155200499Y-94421153D01*
X155188896Y-94362821D01*
X155169737Y-94266503D01*
X155109794Y-94121786D01*
X155109397Y-94120827D01*
X155109390Y-94120814D01*
X155021789Y-93989711D01*
X155021786Y-93989707D01*
X154910292Y-93878213D01*
X154910288Y-93878210D01*
X154903558Y-93873713D01*
X161209500Y-93873713D01*
X161209500Y-94086286D01*
X161242311Y-94293450D01*
X161242754Y-94296243D01*
X161264384Y-94362814D01*
X161308444Y-94498414D01*
X161404951Y-94687820D01*
X161529890Y-94859786D01*
X161643430Y-94973326D01*
X161676915Y-95034649D01*
X161671931Y-95104341D01*
X161630059Y-95160274D01*
X161599083Y-95177189D01*
X161467669Y-95226203D01*
X161467664Y-95226206D01*
X161352455Y-95312452D01*
X161352452Y-95312455D01*
X161266206Y-95427664D01*
X161266202Y-95427671D01*
X161215908Y-95562517D01*
X161209501Y-95622116D01*
X161209501Y-95622123D01*
X161209500Y-95622135D01*
X161209500Y-97417870D01*
X161209501Y-97417876D01*
X161215908Y-97477483D01*
X161266202Y-97612328D01*
X161266206Y-97612335D01*
X161352452Y-97727544D01*
X161352455Y-97727547D01*
X161467664Y-97813793D01*
X161467671Y-97813797D01*
X161602517Y-97864091D01*
X161602516Y-97864091D01*
X161609444Y-97864835D01*
X161662127Y-97870500D01*
X163457872Y-97870499D01*
X163517483Y-97864091D01*
X163652331Y-97813796D01*
X163767546Y-97727546D01*
X163853796Y-97612331D01*
X163904091Y-97477483D01*
X163910500Y-97417873D01*
X163910499Y-95622128D01*
X163904091Y-95562517D01*
X163896625Y-95542500D01*
X163853797Y-95427671D01*
X163853793Y-95427664D01*
X163767547Y-95312455D01*
X163767544Y-95312452D01*
X163652335Y-95226206D01*
X163652328Y-95226202D01*
X163520917Y-95177189D01*
X163464983Y-95135318D01*
X163440566Y-95069853D01*
X163455418Y-95001580D01*
X163476563Y-94973332D01*
X163590104Y-94859792D01*
X163715051Y-94687816D01*
X163811557Y-94498412D01*
X163877246Y-94296243D01*
X163910500Y-94086287D01*
X163910500Y-93873713D01*
X163877246Y-93663757D01*
X163811557Y-93461588D01*
X163715051Y-93272184D01*
X163715049Y-93272181D01*
X163715048Y-93272179D01*
X163590109Y-93100213D01*
X163439786Y-92949890D01*
X163267820Y-92824951D01*
X163078414Y-92728444D01*
X163078413Y-92728443D01*
X163078412Y-92728443D01*
X162876243Y-92662754D01*
X162876241Y-92662753D01*
X162876240Y-92662753D01*
X162714957Y-92637208D01*
X162666287Y-92629500D01*
X162453713Y-92629500D01*
X162405042Y-92637208D01*
X162243760Y-92662753D01*
X162041585Y-92728444D01*
X161852179Y-92824951D01*
X161680213Y-92949890D01*
X161529890Y-93100213D01*
X161404951Y-93272179D01*
X161308444Y-93461585D01*
X161242753Y-93663760D01*
X161209500Y-93873713D01*
X154903558Y-93873713D01*
X154779185Y-93790609D01*
X154779172Y-93790602D01*
X154633501Y-93730264D01*
X154633489Y-93730261D01*
X154478845Y-93699500D01*
X154478842Y-93699500D01*
X154321158Y-93699500D01*
X154321155Y-93699500D01*
X154166510Y-93730261D01*
X154166498Y-93730264D01*
X154020827Y-93790602D01*
X154020814Y-93790609D01*
X153889711Y-93878210D01*
X153889707Y-93878213D01*
X153778213Y-93989707D01*
X153778210Y-93989711D01*
X153690609Y-94120814D01*
X153690602Y-94120827D01*
X153630264Y-94266498D01*
X153630261Y-94266510D01*
X153599500Y-94421153D01*
X100500500Y-94421153D01*
X100500500Y-93421153D01*
X126449500Y-93421153D01*
X126449500Y-93578846D01*
X126480261Y-93733489D01*
X126480264Y-93733501D01*
X126540602Y-93879172D01*
X126540609Y-93879185D01*
X126628210Y-94010288D01*
X126628213Y-94010292D01*
X126739707Y-94121786D01*
X126739711Y-94121789D01*
X126870814Y-94209390D01*
X126870827Y-94209397D01*
X126924699Y-94231711D01*
X127016503Y-94269737D01*
X127149737Y-94296239D01*
X127171153Y-94300499D01*
X127171156Y-94300500D01*
X127171158Y-94300500D01*
X127328844Y-94300500D01*
X127328845Y-94300499D01*
X127339179Y-94298443D01*
X127364287Y-94293450D01*
X127364292Y-94293449D01*
X127449800Y-94276439D01*
X127483497Y-94269737D01*
X127629179Y-94209394D01*
X127760289Y-94121789D01*
X127871789Y-94010289D01*
X127959394Y-93879179D01*
X128019737Y-93733497D01*
X128050500Y-93578842D01*
X128050500Y-93421158D01*
X128050500Y-93421155D01*
X128050499Y-93421153D01*
X128019738Y-93266510D01*
X128019737Y-93266503D01*
X127959794Y-93121786D01*
X127959397Y-93120827D01*
X127959390Y-93120814D01*
X127871789Y-92989711D01*
X127871786Y-92989707D01*
X127760292Y-92878213D01*
X127760288Y-92878210D01*
X127629185Y-92790609D01*
X127629172Y-92790602D01*
X127483501Y-92730264D01*
X127483489Y-92730261D01*
X127328845Y-92699500D01*
X127328842Y-92699500D01*
X127171158Y-92699500D01*
X127171155Y-92699500D01*
X127016510Y-92730261D01*
X127016498Y-92730264D01*
X126870827Y-92790602D01*
X126870814Y-92790609D01*
X126739711Y-92878210D01*
X126739707Y-92878213D01*
X126628213Y-92989707D01*
X126628210Y-92989711D01*
X126540609Y-93120814D01*
X126540602Y-93120827D01*
X126480264Y-93266498D01*
X126480261Y-93266510D01*
X126449500Y-93421153D01*
X100500500Y-93421153D01*
X100500500Y-92421153D01*
X104199500Y-92421153D01*
X104199500Y-92578846D01*
X104230261Y-92733489D01*
X104230264Y-92733501D01*
X104290602Y-92879172D01*
X104290609Y-92879185D01*
X104378210Y-93010288D01*
X104378213Y-93010292D01*
X104489707Y-93121786D01*
X104489711Y-93121789D01*
X104620814Y-93209390D01*
X104620827Y-93209397D01*
X104758683Y-93266498D01*
X104766503Y-93269737D01*
X104921153Y-93300499D01*
X104921156Y-93300500D01*
X104921158Y-93300500D01*
X105078844Y-93300500D01*
X105078845Y-93300499D01*
X105089179Y-93298443D01*
X105114287Y-93293450D01*
X105114292Y-93293449D01*
X105221220Y-93272179D01*
X105233497Y-93269737D01*
X105379179Y-93209394D01*
X105510289Y-93121789D01*
X105621789Y-93010289D01*
X105709394Y-92879179D01*
X105769737Y-92733497D01*
X105800500Y-92578842D01*
X105800500Y-92421158D01*
X105800500Y-92421155D01*
X105800499Y-92421153D01*
X105795791Y-92397483D01*
X105769737Y-92266503D01*
X105769735Y-92266498D01*
X105709397Y-92120827D01*
X105709390Y-92120814D01*
X105621789Y-91989711D01*
X105621786Y-91989707D01*
X105510292Y-91878213D01*
X105510288Y-91878210D01*
X105379185Y-91790609D01*
X105379172Y-91790602D01*
X105233501Y-91730264D01*
X105233489Y-91730261D01*
X105078845Y-91699500D01*
X105078842Y-91699500D01*
X104921158Y-91699500D01*
X104921155Y-91699500D01*
X104766510Y-91730261D01*
X104766498Y-91730264D01*
X104620827Y-91790602D01*
X104620814Y-91790609D01*
X104489711Y-91878210D01*
X104489707Y-91878213D01*
X104378213Y-91989707D01*
X104378210Y-91989711D01*
X104290609Y-92120814D01*
X104290602Y-92120827D01*
X104230264Y-92266498D01*
X104230261Y-92266510D01*
X104199500Y-92421153D01*
X100500500Y-92421153D01*
X100500500Y-90421153D01*
X130949500Y-90421153D01*
X130949500Y-90578846D01*
X130980261Y-90733489D01*
X130980264Y-90733501D01*
X131040602Y-90879172D01*
X131040609Y-90879185D01*
X131128210Y-91010288D01*
X131128213Y-91010292D01*
X131239707Y-91121786D01*
X131239711Y-91121789D01*
X131370814Y-91209390D01*
X131370827Y-91209397D01*
X131516498Y-91269735D01*
X131516503Y-91269737D01*
X131671153Y-91300499D01*
X131671156Y-91300500D01*
X131671158Y-91300500D01*
X131828844Y-91300500D01*
X131828845Y-91300499D01*
X131983497Y-91269737D01*
X132129179Y-91209394D01*
X132186411Y-91171153D01*
X140199500Y-91171153D01*
X140199500Y-91328846D01*
X140230261Y-91483489D01*
X140230264Y-91483501D01*
X140290602Y-91629172D01*
X140290609Y-91629185D01*
X140378210Y-91760288D01*
X140378213Y-91760292D01*
X140489707Y-91871786D01*
X140489711Y-91871789D01*
X140620814Y-91959390D01*
X140620827Y-91959397D01*
X140694013Y-91989711D01*
X140766503Y-92019737D01*
X140921153Y-92050499D01*
X140921156Y-92050500D01*
X140921158Y-92050500D01*
X141078844Y-92050500D01*
X141078845Y-92050499D01*
X141233497Y-92019737D01*
X141379179Y-91959394D01*
X141510289Y-91871789D01*
X141621789Y-91760289D01*
X141709394Y-91629179D01*
X141769737Y-91483497D01*
X141800500Y-91328842D01*
X141800500Y-91171158D01*
X141800500Y-91171155D01*
X141800499Y-91171153D01*
X141775562Y-91045789D01*
X141769737Y-91016503D01*
X141767163Y-91010288D01*
X141709397Y-90870827D01*
X141709390Y-90870814D01*
X141621789Y-90739711D01*
X141621786Y-90739707D01*
X141510292Y-90628213D01*
X141510288Y-90628210D01*
X141379185Y-90540609D01*
X141379172Y-90540602D01*
X141233501Y-90480264D01*
X141233489Y-90480261D01*
X141078845Y-90449500D01*
X141078842Y-90449500D01*
X140921158Y-90449500D01*
X140921155Y-90449500D01*
X140766510Y-90480261D01*
X140766498Y-90480264D01*
X140620827Y-90540602D01*
X140620814Y-90540609D01*
X140489711Y-90628210D01*
X140489707Y-90628213D01*
X140378213Y-90739707D01*
X140378210Y-90739711D01*
X140290609Y-90870814D01*
X140290602Y-90870827D01*
X140230264Y-91016498D01*
X140230261Y-91016510D01*
X140199500Y-91171153D01*
X132186411Y-91171153D01*
X132260289Y-91121789D01*
X132260292Y-91121786D01*
X132304694Y-91077385D01*
X132371786Y-91010292D01*
X132371789Y-91010289D01*
X132459394Y-90879179D01*
X132462854Y-90870827D01*
X132473067Y-90846166D01*
X132519737Y-90733497D01*
X132550500Y-90578842D01*
X132550500Y-90421158D01*
X132550500Y-90421155D01*
X132550499Y-90421153D01*
X132535881Y-90347664D01*
X132519737Y-90266503D01*
X132519735Y-90266498D01*
X132459397Y-90120827D01*
X132459390Y-90120814D01*
X132371789Y-89989711D01*
X132371786Y-89989707D01*
X132260292Y-89878213D01*
X132260288Y-89878210D01*
X132129185Y-89790609D01*
X132129172Y-89790602D01*
X131983501Y-89730264D01*
X131983489Y-89730261D01*
X131828845Y-89699500D01*
X131828842Y-89699500D01*
X131671158Y-89699500D01*
X131671155Y-89699500D01*
X131516510Y-89730261D01*
X131516498Y-89730264D01*
X131370827Y-89790602D01*
X131370814Y-89790609D01*
X131239711Y-89878210D01*
X131239707Y-89878213D01*
X131128213Y-89989707D01*
X131128210Y-89989711D01*
X131040609Y-90120814D01*
X131040602Y-90120827D01*
X130980264Y-90266498D01*
X130980261Y-90266510D01*
X130949500Y-90421153D01*
X100500500Y-90421153D01*
X100500500Y-87171153D01*
X136949500Y-87171153D01*
X136949500Y-87328846D01*
X136980261Y-87483489D01*
X136980264Y-87483501D01*
X137040602Y-87629172D01*
X137040609Y-87629185D01*
X137128210Y-87760288D01*
X137128213Y-87760292D01*
X137239707Y-87871786D01*
X137239711Y-87871789D01*
X137370814Y-87959390D01*
X137370827Y-87959397D01*
X137516498Y-88019735D01*
X137516503Y-88019737D01*
X137671153Y-88050499D01*
X137671156Y-88050500D01*
X137671158Y-88050500D01*
X137828844Y-88050500D01*
X137828845Y-88050499D01*
X137983497Y-88019737D01*
X138129179Y-87959394D01*
X138260289Y-87871789D01*
X138371789Y-87760289D01*
X138459394Y-87629179D01*
X138519737Y-87483497D01*
X138550500Y-87328842D01*
X138550500Y-87171158D01*
X138550500Y-87171155D01*
X138550499Y-87171153D01*
X138519737Y-87016503D01*
X138519735Y-87016498D01*
X138459397Y-86870827D01*
X138459390Y-86870814D01*
X138371789Y-86739711D01*
X138371786Y-86739707D01*
X138260292Y-86628213D01*
X138260288Y-86628210D01*
X138129185Y-86540609D01*
X138129172Y-86540602D01*
X137983501Y-86480264D01*
X137983489Y-86480261D01*
X137828845Y-86449500D01*
X137828842Y-86449500D01*
X137671158Y-86449500D01*
X137671155Y-86449500D01*
X137516510Y-86480261D01*
X137516498Y-86480264D01*
X137370827Y-86540602D01*
X137370814Y-86540609D01*
X137239711Y-86628210D01*
X137239707Y-86628213D01*
X137128213Y-86739707D01*
X137128210Y-86739711D01*
X137040609Y-86870814D01*
X137040602Y-86870827D01*
X136980264Y-87016498D01*
X136980261Y-87016510D01*
X136949500Y-87171153D01*
X100500500Y-87171153D01*
X100500500Y-85921153D01*
X130949500Y-85921153D01*
X130949500Y-86078846D01*
X130980261Y-86233489D01*
X130980264Y-86233501D01*
X131040602Y-86379172D01*
X131040609Y-86379185D01*
X131128210Y-86510288D01*
X131128213Y-86510292D01*
X131239707Y-86621786D01*
X131239711Y-86621789D01*
X131370814Y-86709390D01*
X131370827Y-86709397D01*
X131444013Y-86739711D01*
X131516503Y-86769737D01*
X131671153Y-86800499D01*
X131671156Y-86800500D01*
X131671158Y-86800500D01*
X131828844Y-86800500D01*
X131828845Y-86800499D01*
X131983497Y-86769737D01*
X132129179Y-86709394D01*
X132260289Y-86621789D01*
X132371789Y-86510289D01*
X132459394Y-86379179D01*
X132519737Y-86233497D01*
X132550500Y-86078842D01*
X132550500Y-85921158D01*
X132550500Y-85921155D01*
X132550499Y-85921153D01*
X132519738Y-85766510D01*
X132519737Y-85766503D01*
X132472383Y-85652179D01*
X132459397Y-85620827D01*
X132459390Y-85620814D01*
X132371789Y-85489711D01*
X132371786Y-85489707D01*
X132260292Y-85378213D01*
X132260288Y-85378210D01*
X132129185Y-85290609D01*
X132129172Y-85290602D01*
X131983501Y-85230264D01*
X131983489Y-85230261D01*
X131828845Y-85199500D01*
X131828842Y-85199500D01*
X131671158Y-85199500D01*
X131671155Y-85199500D01*
X131516510Y-85230261D01*
X131516498Y-85230264D01*
X131370827Y-85290602D01*
X131370814Y-85290609D01*
X131239711Y-85378210D01*
X131239707Y-85378213D01*
X131128213Y-85489707D01*
X131128210Y-85489711D01*
X131040609Y-85620814D01*
X131040602Y-85620827D01*
X130980264Y-85766498D01*
X130980261Y-85766510D01*
X130949500Y-85921153D01*
X100500500Y-85921153D01*
X100500500Y-84361153D01*
X101999500Y-84361153D01*
X101999500Y-84518846D01*
X102030261Y-84673489D01*
X102030264Y-84673501D01*
X102090602Y-84819172D01*
X102090609Y-84819185D01*
X102178210Y-84950288D01*
X102178213Y-84950292D01*
X102289707Y-85061786D01*
X102289711Y-85061789D01*
X102420814Y-85149390D01*
X102420827Y-85149397D01*
X102554948Y-85204951D01*
X102566503Y-85209737D01*
X102669699Y-85230264D01*
X102721153Y-85240499D01*
X102721156Y-85240500D01*
X102721158Y-85240500D01*
X102878844Y-85240500D01*
X102878845Y-85240499D01*
X103033497Y-85209737D01*
X103150080Y-85161447D01*
X103179172Y-85149397D01*
X103179172Y-85149396D01*
X103179179Y-85149394D01*
X103310289Y-85061789D01*
X103421789Y-84950289D01*
X103509394Y-84819179D01*
X103569737Y-84673497D01*
X103600500Y-84518842D01*
X103600500Y-84361158D01*
X103600500Y-84361155D01*
X103600499Y-84361153D01*
X103595976Y-84338414D01*
X103569737Y-84206503D01*
X103540633Y-84136239D01*
X103509397Y-84060827D01*
X103509390Y-84060814D01*
X103421789Y-83929711D01*
X103421786Y-83929707D01*
X103310292Y-83818213D01*
X103310288Y-83818210D01*
X103179185Y-83730609D01*
X103179172Y-83730602D01*
X103033501Y-83670264D01*
X103033489Y-83670261D01*
X102878845Y-83639500D01*
X102878842Y-83639500D01*
X102721158Y-83639500D01*
X102721155Y-83639500D01*
X102566510Y-83670261D01*
X102566498Y-83670264D01*
X102420827Y-83730602D01*
X102420814Y-83730609D01*
X102289711Y-83818210D01*
X102289707Y-83818213D01*
X102178213Y-83929707D01*
X102178210Y-83929711D01*
X102090609Y-84060814D01*
X102090602Y-84060827D01*
X102030264Y-84206498D01*
X102030261Y-84206510D01*
X101999500Y-84361153D01*
X100500500Y-84361153D01*
X100500500Y-82671153D01*
X126449500Y-82671153D01*
X126449500Y-82828846D01*
X126480261Y-82983489D01*
X126480264Y-82983501D01*
X126540602Y-83129172D01*
X126540609Y-83129185D01*
X126628210Y-83260288D01*
X126628213Y-83260292D01*
X126739707Y-83371786D01*
X126739711Y-83371789D01*
X126870814Y-83459390D01*
X126870827Y-83459397D01*
X127016498Y-83519735D01*
X127016503Y-83519737D01*
X127171153Y-83550499D01*
X127171156Y-83550500D01*
X127171158Y-83550500D01*
X127328844Y-83550500D01*
X127328845Y-83550499D01*
X127483497Y-83519737D01*
X127629179Y-83459394D01*
X127760289Y-83371789D01*
X127871789Y-83260289D01*
X127959394Y-83129179D01*
X128019737Y-82983497D01*
X128050500Y-82828842D01*
X128050500Y-82671158D01*
X128050500Y-82671155D01*
X128050499Y-82671153D01*
X128040486Y-82620814D01*
X128019737Y-82516503D01*
X128014042Y-82502753D01*
X127959397Y-82370827D01*
X127959389Y-82370813D01*
X127951468Y-82358958D01*
X127951467Y-82358957D01*
X127909503Y-82296153D01*
X133824500Y-82296153D01*
X133824500Y-82453846D01*
X133855261Y-82608489D01*
X133855264Y-82608501D01*
X133915602Y-82754172D01*
X133915609Y-82754185D01*
X134003210Y-82885288D01*
X134003213Y-82885292D01*
X134114707Y-82996786D01*
X134114711Y-82996789D01*
X134245814Y-83084390D01*
X134245827Y-83084397D01*
X134333230Y-83120599D01*
X134391503Y-83144737D01*
X134391510Y-83144738D01*
X134396185Y-83146157D01*
X134454621Y-83184458D01*
X134478840Y-83228810D01*
X134480260Y-83233492D01*
X134540602Y-83379172D01*
X134540609Y-83379185D01*
X134628210Y-83510288D01*
X134628213Y-83510292D01*
X134739707Y-83621786D01*
X134739711Y-83621789D01*
X134870814Y-83709390D01*
X134870827Y-83709397D01*
X135016498Y-83769735D01*
X135016503Y-83769737D01*
X135171153Y-83800499D01*
X135171156Y-83800500D01*
X135171158Y-83800500D01*
X135328844Y-83800500D01*
X135328845Y-83800499D01*
X135483497Y-83769737D01*
X135618752Y-83713713D01*
X148509500Y-83713713D01*
X148509500Y-83926287D01*
X148542754Y-84136243D01*
X148565585Y-84206510D01*
X148608444Y-84338414D01*
X148704951Y-84527820D01*
X148829890Y-84699786D01*
X148980213Y-84850109D01*
X149152182Y-84975050D01*
X149160946Y-84979516D01*
X149211742Y-85027491D01*
X149228536Y-85095312D01*
X149205998Y-85161447D01*
X149160946Y-85200484D01*
X149152182Y-85204949D01*
X148980213Y-85329890D01*
X148829890Y-85480213D01*
X148704951Y-85652179D01*
X148608444Y-85841585D01*
X148542753Y-86043760D01*
X148509500Y-86253713D01*
X148509500Y-86466286D01*
X148535146Y-86628213D01*
X148542754Y-86676243D01*
X148605978Y-86870827D01*
X148608444Y-86878414D01*
X148704951Y-87067820D01*
X148829890Y-87239786D01*
X148980213Y-87390109D01*
X149152182Y-87515050D01*
X149160946Y-87519516D01*
X149211742Y-87567491D01*
X149228536Y-87635312D01*
X149205998Y-87701447D01*
X149160946Y-87740484D01*
X149152182Y-87744949D01*
X148980213Y-87869890D01*
X148829890Y-88020213D01*
X148704951Y-88192179D01*
X148608444Y-88381585D01*
X148542753Y-88583760D01*
X148509500Y-88793713D01*
X148509500Y-89006286D01*
X148542753Y-89216239D01*
X148608444Y-89418414D01*
X148704951Y-89607820D01*
X148829890Y-89779786D01*
X148943430Y-89893326D01*
X148976915Y-89954649D01*
X148971931Y-90024341D01*
X148930059Y-90080274D01*
X148899083Y-90097189D01*
X148767669Y-90146203D01*
X148767664Y-90146206D01*
X148652455Y-90232452D01*
X148652452Y-90232455D01*
X148566206Y-90347664D01*
X148566202Y-90347671D01*
X148515908Y-90482517D01*
X148509663Y-90540609D01*
X148509501Y-90542123D01*
X148509500Y-90542135D01*
X148509500Y-92337870D01*
X148509501Y-92337876D01*
X148515908Y-92397483D01*
X148566202Y-92532328D01*
X148566206Y-92532335D01*
X148652452Y-92647544D01*
X148652455Y-92647547D01*
X148767664Y-92733793D01*
X148767671Y-92733797D01*
X148902517Y-92784091D01*
X148902516Y-92784091D01*
X148909444Y-92784835D01*
X148962127Y-92790500D01*
X150757872Y-92790499D01*
X150817483Y-92784091D01*
X150952331Y-92733796D01*
X151067546Y-92647546D01*
X151153796Y-92532331D01*
X151204091Y-92397483D01*
X151210500Y-92337873D01*
X151210499Y-90542128D01*
X151204091Y-90482517D01*
X151203251Y-90480264D01*
X151166750Y-90382399D01*
X151153797Y-90347671D01*
X151153793Y-90347664D01*
X151151913Y-90345153D01*
X155917500Y-90345153D01*
X155917500Y-90502846D01*
X155948261Y-90657489D01*
X155948264Y-90657501D01*
X156008602Y-90803172D01*
X156008609Y-90803185D01*
X156096210Y-90934288D01*
X156096213Y-90934292D01*
X156207707Y-91045786D01*
X156207711Y-91045789D01*
X156338814Y-91133390D01*
X156338827Y-91133397D01*
X156484498Y-91193735D01*
X156484503Y-91193737D01*
X156639153Y-91224499D01*
X156639156Y-91224500D01*
X156639158Y-91224500D01*
X156796844Y-91224500D01*
X156796845Y-91224499D01*
X156951497Y-91193737D01*
X157097179Y-91133394D01*
X157228289Y-91045789D01*
X157339789Y-90934289D01*
X157427394Y-90803179D01*
X157487737Y-90657497D01*
X157518500Y-90502842D01*
X157518500Y-90345158D01*
X157518500Y-90345155D01*
X157518499Y-90345153D01*
X157496082Y-90232455D01*
X157487737Y-90190503D01*
X157471605Y-90151557D01*
X157427397Y-90044827D01*
X157427390Y-90044814D01*
X157339789Y-89913711D01*
X157339786Y-89913707D01*
X157228292Y-89802213D01*
X157228288Y-89802210D01*
X157097185Y-89714609D01*
X157097172Y-89714602D01*
X156951501Y-89654264D01*
X156951489Y-89654261D01*
X156796845Y-89623500D01*
X156796842Y-89623500D01*
X156639158Y-89623500D01*
X156639155Y-89623500D01*
X156484510Y-89654261D01*
X156484498Y-89654264D01*
X156338827Y-89714602D01*
X156338814Y-89714609D01*
X156207711Y-89802210D01*
X156207707Y-89802213D01*
X156096213Y-89913707D01*
X156096210Y-89913711D01*
X156008609Y-90044814D01*
X156008602Y-90044827D01*
X155948264Y-90190498D01*
X155948261Y-90190510D01*
X155917500Y-90345153D01*
X151151913Y-90345153D01*
X151067547Y-90232455D01*
X151067544Y-90232452D01*
X150952335Y-90146206D01*
X150952328Y-90146202D01*
X150820917Y-90097189D01*
X150764983Y-90055318D01*
X150740566Y-89989853D01*
X150755418Y-89921580D01*
X150776563Y-89893332D01*
X150890104Y-89779792D01*
X151015051Y-89607816D01*
X151111557Y-89418412D01*
X151177246Y-89216243D01*
X151210500Y-89006287D01*
X151210500Y-88793713D01*
X151177246Y-88583757D01*
X151111557Y-88381588D01*
X151015051Y-88192184D01*
X151015049Y-88192181D01*
X151015048Y-88192179D01*
X150890109Y-88020213D01*
X150739786Y-87869890D01*
X150567820Y-87744951D01*
X150567115Y-87744591D01*
X150559054Y-87740485D01*
X150508259Y-87692512D01*
X150491463Y-87624692D01*
X150513999Y-87558556D01*
X150559054Y-87519515D01*
X150567816Y-87515051D01*
X150611258Y-87483489D01*
X150739786Y-87390109D01*
X150739788Y-87390106D01*
X150739792Y-87390104D01*
X150890104Y-87239792D01*
X150890106Y-87239788D01*
X150890109Y-87239786D01*
X151015048Y-87067820D01*
X151015047Y-87067820D01*
X151015051Y-87067816D01*
X151111557Y-86878412D01*
X151177246Y-86676243D01*
X151210500Y-86466287D01*
X151210500Y-86253713D01*
X151177246Y-86043757D01*
X151111557Y-85841588D01*
X151015051Y-85652184D01*
X151015049Y-85652181D01*
X151015048Y-85652179D01*
X150890109Y-85480213D01*
X150739786Y-85329890D01*
X150567820Y-85204951D01*
X150567115Y-85204591D01*
X150559054Y-85200485D01*
X150508259Y-85152512D01*
X150491463Y-85084692D01*
X150513999Y-85018556D01*
X150559054Y-84979515D01*
X150567816Y-84975051D01*
X150601900Y-84950288D01*
X150739786Y-84850109D01*
X150739788Y-84850106D01*
X150739792Y-84850104D01*
X150890104Y-84699792D01*
X150890106Y-84699788D01*
X150890109Y-84699786D01*
X151015048Y-84527820D01*
X151015047Y-84527820D01*
X151015051Y-84527816D01*
X151111557Y-84338412D01*
X151177246Y-84136243D01*
X151210500Y-83926287D01*
X151210500Y-83713713D01*
X151177246Y-83503757D01*
X151111557Y-83301588D01*
X151015051Y-83112184D01*
X151015049Y-83112181D01*
X151015048Y-83112179D01*
X150890109Y-82940213D01*
X150739786Y-82789890D01*
X150567820Y-82664951D01*
X150378414Y-82568444D01*
X150378413Y-82568443D01*
X150378412Y-82568443D01*
X150176243Y-82502754D01*
X150176241Y-82502753D01*
X150176240Y-82502753D01*
X150014957Y-82477208D01*
X149966287Y-82469500D01*
X149753713Y-82469500D01*
X149705042Y-82477208D01*
X149543760Y-82502753D01*
X149341585Y-82568444D01*
X149152179Y-82664951D01*
X148980213Y-82789890D01*
X148829890Y-82940213D01*
X148704951Y-83112179D01*
X148608444Y-83301585D01*
X148542753Y-83503760D01*
X148524159Y-83621160D01*
X148509500Y-83713713D01*
X135618752Y-83713713D01*
X135629179Y-83709394D01*
X135760289Y-83621789D01*
X135760292Y-83621786D01*
X135760919Y-83621160D01*
X135871786Y-83510292D01*
X135871789Y-83510289D01*
X135959394Y-83379179D01*
X136019737Y-83233497D01*
X136050500Y-83078842D01*
X136050500Y-82921158D01*
X136050500Y-82921155D01*
X136050499Y-82921153D01*
X136019738Y-82766510D01*
X136019737Y-82766503D01*
X135977673Y-82664951D01*
X135959397Y-82620827D01*
X135959390Y-82620814D01*
X135871789Y-82489711D01*
X135871786Y-82489707D01*
X135760292Y-82378213D01*
X135760288Y-82378210D01*
X135629185Y-82290609D01*
X135629172Y-82290602D01*
X135483492Y-82230260D01*
X135478810Y-82228840D01*
X135420375Y-82190538D01*
X135396157Y-82146185D01*
X135394738Y-82141510D01*
X135394737Y-82141503D01*
X135352946Y-82040609D01*
X135334397Y-81995827D01*
X135334390Y-81995814D01*
X135246789Y-81864711D01*
X135246786Y-81864707D01*
X135135292Y-81753213D01*
X135135288Y-81753210D01*
X135004185Y-81665609D01*
X135004172Y-81665602D01*
X134917318Y-81629627D01*
X134858501Y-81605264D01*
X134858489Y-81605261D01*
X134703845Y-81574500D01*
X134703842Y-81574500D01*
X134546158Y-81574500D01*
X134546155Y-81574500D01*
X134391510Y-81605261D01*
X134391498Y-81605264D01*
X134245827Y-81665602D01*
X134245814Y-81665609D01*
X134114711Y-81753210D01*
X134114707Y-81753213D01*
X134003213Y-81864707D01*
X134003210Y-81864711D01*
X133915609Y-81995814D01*
X133915602Y-81995827D01*
X133855264Y-82141498D01*
X133855261Y-82141510D01*
X133824500Y-82296153D01*
X127909503Y-82296153D01*
X127871789Y-82239711D01*
X127871786Y-82239707D01*
X127760292Y-82128213D01*
X127760288Y-82128210D01*
X127629185Y-82040609D01*
X127629172Y-82040602D01*
X127483501Y-81980264D01*
X127483489Y-81980261D01*
X127328845Y-81949500D01*
X127328842Y-81949500D01*
X127171158Y-81949500D01*
X127171155Y-81949500D01*
X127016510Y-81980261D01*
X127016498Y-81980264D01*
X126870827Y-82040602D01*
X126870814Y-82040609D01*
X126739711Y-82128210D01*
X126739707Y-82128213D01*
X126628213Y-82239707D01*
X126628210Y-82239711D01*
X126540609Y-82370814D01*
X126540602Y-82370827D01*
X126480264Y-82516498D01*
X126480261Y-82516510D01*
X126449500Y-82671153D01*
X100500500Y-82671153D01*
X100500500Y-81521153D01*
X151399500Y-81521153D01*
X151399500Y-81678846D01*
X151430261Y-81833489D01*
X151430264Y-81833501D01*
X151490602Y-81979172D01*
X151490609Y-81979185D01*
X151578210Y-82110288D01*
X151578213Y-82110292D01*
X151689707Y-82221786D01*
X151689711Y-82221789D01*
X151820814Y-82309390D01*
X151820827Y-82309397D01*
X151940480Y-82358958D01*
X151966503Y-82369737D01*
X152121153Y-82400499D01*
X152121156Y-82400500D01*
X152121158Y-82400500D01*
X152278844Y-82400500D01*
X152278845Y-82400499D01*
X152433497Y-82369737D01*
X152579179Y-82309394D01*
X152710289Y-82221789D01*
X152821789Y-82110289D01*
X152909394Y-81979179D01*
X152969737Y-81833497D01*
X153000500Y-81678842D01*
X153000500Y-81521158D01*
X153000500Y-81521155D01*
X153000499Y-81521153D01*
X152969738Y-81366510D01*
X152969737Y-81366503D01*
X152969735Y-81366498D01*
X152909397Y-81220827D01*
X152909390Y-81220814D01*
X152821789Y-81089711D01*
X152821786Y-81089707D01*
X152710292Y-80978213D01*
X152710288Y-80978210D01*
X152579185Y-80890609D01*
X152579172Y-80890602D01*
X152433501Y-80830264D01*
X152433489Y-80830261D01*
X152278845Y-80799500D01*
X152278842Y-80799500D01*
X152121158Y-80799500D01*
X152121155Y-80799500D01*
X151966510Y-80830261D01*
X151966498Y-80830264D01*
X151820827Y-80890602D01*
X151820814Y-80890609D01*
X151689711Y-80978210D01*
X151689707Y-80978213D01*
X151578213Y-81089707D01*
X151578210Y-81089711D01*
X151490609Y-81220814D01*
X151490602Y-81220827D01*
X151430264Y-81366498D01*
X151430261Y-81366510D01*
X151399500Y-81521153D01*
X100500500Y-81521153D01*
X100500500Y-78721153D01*
X158499500Y-78721153D01*
X158499500Y-78878846D01*
X158530261Y-79033489D01*
X158530264Y-79033501D01*
X158590602Y-79179172D01*
X158590609Y-79179185D01*
X158678210Y-79310288D01*
X158678213Y-79310292D01*
X158789707Y-79421786D01*
X158789711Y-79421789D01*
X158920814Y-79509390D01*
X158920827Y-79509397D01*
X159066498Y-79569735D01*
X159066503Y-79569737D01*
X159221153Y-79600499D01*
X159221156Y-79600500D01*
X159221158Y-79600500D01*
X159378844Y-79600500D01*
X159378845Y-79600499D01*
X159533497Y-79569737D01*
X159679179Y-79509394D01*
X159810289Y-79421789D01*
X159921789Y-79310289D01*
X160009394Y-79179179D01*
X160069737Y-79033497D01*
X160100500Y-78878842D01*
X160100500Y-78721158D01*
X160100500Y-78721155D01*
X160100499Y-78721153D01*
X160069738Y-78566510D01*
X160069737Y-78566503D01*
X160010610Y-78423756D01*
X160009397Y-78420827D01*
X160009390Y-78420814D01*
X159921789Y-78289711D01*
X159921786Y-78289707D01*
X159810292Y-78178213D01*
X159810288Y-78178210D01*
X159679185Y-78090609D01*
X159679172Y-78090602D01*
X159533501Y-78030264D01*
X159533489Y-78030261D01*
X159378845Y-77999500D01*
X159378842Y-77999500D01*
X159221158Y-77999500D01*
X159221155Y-77999500D01*
X159066510Y-78030261D01*
X159066498Y-78030264D01*
X158920827Y-78090602D01*
X158920814Y-78090609D01*
X158789711Y-78178210D01*
X158789707Y-78178213D01*
X158678213Y-78289707D01*
X158678210Y-78289711D01*
X158590609Y-78420814D01*
X158590602Y-78420827D01*
X158530264Y-78566498D01*
X158530261Y-78566510D01*
X158499500Y-78721153D01*
X100500500Y-78721153D01*
X100500500Y-77421153D01*
X152899500Y-77421153D01*
X152899500Y-77578846D01*
X152930261Y-77733489D01*
X152930264Y-77733501D01*
X152990602Y-77879172D01*
X152990609Y-77879185D01*
X153078210Y-78010288D01*
X153078213Y-78010292D01*
X153189707Y-78121786D01*
X153189711Y-78121789D01*
X153320814Y-78209390D01*
X153320827Y-78209397D01*
X153466498Y-78269735D01*
X153466503Y-78269737D01*
X153621153Y-78300499D01*
X153621156Y-78300500D01*
X153621158Y-78300500D01*
X153778844Y-78300500D01*
X153778845Y-78300499D01*
X153933497Y-78269737D01*
X154079179Y-78209394D01*
X154210289Y-78121789D01*
X154321789Y-78010289D01*
X154409394Y-77879179D01*
X154469737Y-77733497D01*
X154500500Y-77578842D01*
X154500500Y-77421158D01*
X154500500Y-77421155D01*
X154500499Y-77421153D01*
X154488238Y-77359513D01*
X154469737Y-77266503D01*
X154454660Y-77230104D01*
X154409397Y-77120827D01*
X154409390Y-77120814D01*
X154321789Y-76989711D01*
X154321786Y-76989707D01*
X154210292Y-76878213D01*
X154210288Y-76878210D01*
X154079185Y-76790609D01*
X154079172Y-76790602D01*
X153933501Y-76730264D01*
X153933489Y-76730261D01*
X153778845Y-76699500D01*
X153778842Y-76699500D01*
X153621158Y-76699500D01*
X153621155Y-76699500D01*
X153466510Y-76730261D01*
X153466498Y-76730264D01*
X153320827Y-76790602D01*
X153320814Y-76790609D01*
X153189711Y-76878210D01*
X153189707Y-76878213D01*
X153078213Y-76989707D01*
X153078210Y-76989711D01*
X152990609Y-77120814D01*
X152990602Y-77120827D01*
X152930264Y-77266498D01*
X152930261Y-77266510D01*
X152899500Y-77421153D01*
X100500500Y-77421153D01*
X100500500Y-76093713D01*
X161209500Y-76093713D01*
X161209500Y-76306286D01*
X161242753Y-76516239D01*
X161308444Y-76718414D01*
X161404951Y-76907820D01*
X161529890Y-77079786D01*
X161680213Y-77230109D01*
X161852179Y-77355048D01*
X161852181Y-77355049D01*
X161852184Y-77355051D01*
X161860942Y-77359513D01*
X161911739Y-77407487D01*
X161928535Y-77475307D01*
X161905999Y-77541443D01*
X161860949Y-77580481D01*
X161852183Y-77584947D01*
X161680213Y-77709889D01*
X161529890Y-77860212D01*
X161404951Y-78032178D01*
X161308444Y-78221584D01*
X161242753Y-78423759D01*
X161209500Y-78633712D01*
X161209500Y-78846285D01*
X161242753Y-79056238D01*
X161308444Y-79258413D01*
X161404951Y-79447819D01*
X161529890Y-79619785D01*
X161680213Y-79770108D01*
X161852179Y-79895047D01*
X161852181Y-79895048D01*
X161852184Y-79895050D01*
X161860945Y-79899513D01*
X161911741Y-79947487D01*
X161928537Y-80015307D01*
X161906001Y-80081443D01*
X161860950Y-80120481D01*
X161852187Y-80124946D01*
X161852184Y-80124948D01*
X161680213Y-80249890D01*
X161529890Y-80400213D01*
X161404951Y-80572179D01*
X161308444Y-80761585D01*
X161242753Y-80963760D01*
X161209500Y-81173713D01*
X161209500Y-81386286D01*
X161230861Y-81521158D01*
X161242754Y-81596243D01*
X161293756Y-81753211D01*
X161308444Y-81798414D01*
X161404951Y-81987820D01*
X161529890Y-82159786D01*
X161680213Y-82310109D01*
X161852182Y-82435050D01*
X161860946Y-82439516D01*
X161911742Y-82487491D01*
X161928536Y-82555312D01*
X161905998Y-82621447D01*
X161860946Y-82660484D01*
X161852182Y-82664949D01*
X161680213Y-82789890D01*
X161529890Y-82940213D01*
X161404951Y-83112179D01*
X161308444Y-83301585D01*
X161242753Y-83503760D01*
X161224159Y-83621160D01*
X161209500Y-83713713D01*
X161209500Y-83926287D01*
X161242754Y-84136243D01*
X161265585Y-84206510D01*
X161308444Y-84338414D01*
X161404951Y-84527820D01*
X161529890Y-84699786D01*
X161680213Y-84850109D01*
X161852182Y-84975050D01*
X161860946Y-84979516D01*
X161911742Y-85027491D01*
X161928536Y-85095312D01*
X161905998Y-85161447D01*
X161860946Y-85200484D01*
X161852182Y-85204949D01*
X161680213Y-85329890D01*
X161529890Y-85480213D01*
X161404951Y-85652179D01*
X161308444Y-85841585D01*
X161242753Y-86043760D01*
X161209500Y-86253713D01*
X161209500Y-86466286D01*
X161235146Y-86628213D01*
X161242754Y-86676243D01*
X161305978Y-86870827D01*
X161308444Y-86878414D01*
X161404951Y-87067820D01*
X161529890Y-87239786D01*
X161680213Y-87390109D01*
X161852182Y-87515050D01*
X161860946Y-87519516D01*
X161911742Y-87567491D01*
X161928536Y-87635312D01*
X161905998Y-87701447D01*
X161860946Y-87740484D01*
X161852182Y-87744949D01*
X161680213Y-87869890D01*
X161529890Y-88020213D01*
X161404951Y-88192179D01*
X161308444Y-88381585D01*
X161242753Y-88583760D01*
X161209500Y-88793713D01*
X161209500Y-89006286D01*
X161242753Y-89216239D01*
X161308444Y-89418414D01*
X161404951Y-89607820D01*
X161529890Y-89779786D01*
X161680213Y-89930109D01*
X161852179Y-90055048D01*
X161852181Y-90055049D01*
X161852184Y-90055051D01*
X162041588Y-90151557D01*
X162243757Y-90217246D01*
X162453713Y-90250500D01*
X162453714Y-90250500D01*
X162666286Y-90250500D01*
X162666287Y-90250500D01*
X162876243Y-90217246D01*
X163078412Y-90151557D01*
X163267816Y-90055051D01*
X163357554Y-89989853D01*
X163439786Y-89930109D01*
X163439788Y-89930106D01*
X163439792Y-89930104D01*
X163590104Y-89779792D01*
X163590106Y-89779788D01*
X163590109Y-89779786D01*
X163715048Y-89607820D01*
X163715047Y-89607820D01*
X163715051Y-89607816D01*
X163811557Y-89418412D01*
X163877246Y-89216243D01*
X163910500Y-89006287D01*
X163910500Y-88793713D01*
X163877246Y-88583757D01*
X163811557Y-88381588D01*
X163715051Y-88192184D01*
X163715049Y-88192181D01*
X163715048Y-88192179D01*
X163590109Y-88020213D01*
X163439786Y-87869890D01*
X163267820Y-87744951D01*
X163267115Y-87744591D01*
X163259054Y-87740485D01*
X163208259Y-87692512D01*
X163191463Y-87624692D01*
X163213999Y-87558556D01*
X163259054Y-87519515D01*
X163267816Y-87515051D01*
X163311258Y-87483489D01*
X163439786Y-87390109D01*
X163439788Y-87390106D01*
X163439792Y-87390104D01*
X163590104Y-87239792D01*
X163590106Y-87239788D01*
X163590109Y-87239786D01*
X163715048Y-87067820D01*
X163715047Y-87067820D01*
X163715051Y-87067816D01*
X163811557Y-86878412D01*
X163877246Y-86676243D01*
X163910500Y-86466287D01*
X163910500Y-86253713D01*
X163877246Y-86043757D01*
X163811557Y-85841588D01*
X163715051Y-85652184D01*
X163715049Y-85652181D01*
X163715048Y-85652179D01*
X163590109Y-85480213D01*
X163439786Y-85329890D01*
X163267820Y-85204951D01*
X163267115Y-85204591D01*
X163259054Y-85200485D01*
X163208259Y-85152512D01*
X163191463Y-85084692D01*
X163213999Y-85018556D01*
X163259054Y-84979515D01*
X163267816Y-84975051D01*
X163301900Y-84950288D01*
X163439786Y-84850109D01*
X163439788Y-84850106D01*
X163439792Y-84850104D01*
X163590104Y-84699792D01*
X163590106Y-84699788D01*
X163590109Y-84699786D01*
X163715048Y-84527820D01*
X163715047Y-84527820D01*
X163715051Y-84527816D01*
X163811557Y-84338412D01*
X163877246Y-84136243D01*
X163910500Y-83926287D01*
X163910500Y-83713713D01*
X163877246Y-83503757D01*
X163811557Y-83301588D01*
X163715051Y-83112184D01*
X163715049Y-83112181D01*
X163715048Y-83112179D01*
X163590109Y-82940213D01*
X163439786Y-82789890D01*
X163267820Y-82664951D01*
X163267115Y-82664591D01*
X163259054Y-82660485D01*
X163208259Y-82612512D01*
X163191463Y-82544692D01*
X163213999Y-82478556D01*
X163259054Y-82439515D01*
X163267816Y-82435051D01*
X163315373Y-82400499D01*
X163439786Y-82310109D01*
X163439788Y-82310106D01*
X163439792Y-82310104D01*
X163590104Y-82159792D01*
X163590106Y-82159788D01*
X163590109Y-82159786D01*
X163715048Y-81987820D01*
X163715047Y-81987820D01*
X163715051Y-81987816D01*
X163811557Y-81798412D01*
X163877246Y-81596243D01*
X163910500Y-81386287D01*
X163910500Y-81173713D01*
X163877246Y-80963757D01*
X163811557Y-80761588D01*
X163715051Y-80572184D01*
X163715049Y-80572181D01*
X163715048Y-80572179D01*
X163590109Y-80400213D01*
X163439786Y-80249890D01*
X163267817Y-80124949D01*
X163259052Y-80120483D01*
X163208257Y-80072508D01*
X163191462Y-80004687D01*
X163214000Y-79938552D01*
X163259056Y-79899513D01*
X163267816Y-79895050D01*
X163267818Y-79895048D01*
X163267821Y-79895047D01*
X163439786Y-79770108D01*
X163439788Y-79770105D01*
X163439792Y-79770103D01*
X163590104Y-79619791D01*
X163590106Y-79619787D01*
X163590109Y-79619785D01*
X163715048Y-79447819D01*
X163715047Y-79447819D01*
X163715051Y-79447815D01*
X163811557Y-79258411D01*
X163877246Y-79056242D01*
X163910500Y-78846286D01*
X163910500Y-78633712D01*
X163877246Y-78423756D01*
X163811557Y-78221587D01*
X163715051Y-78032183D01*
X163715049Y-78032180D01*
X163715048Y-78032178D01*
X163590109Y-77860212D01*
X163439786Y-77709889D01*
X163267817Y-77584948D01*
X163259054Y-77580483D01*
X163208258Y-77532508D01*
X163191464Y-77464687D01*
X163214002Y-77398552D01*
X163259058Y-77359513D01*
X163267816Y-77355051D01*
X163289789Y-77339086D01*
X163439786Y-77230109D01*
X163439788Y-77230106D01*
X163439792Y-77230104D01*
X163590104Y-77079792D01*
X163590106Y-77079788D01*
X163590109Y-77079786D01*
X163715048Y-76907820D01*
X163715047Y-76907820D01*
X163715051Y-76907816D01*
X163811557Y-76718412D01*
X163877246Y-76516243D01*
X163910500Y-76306287D01*
X163910500Y-76093713D01*
X163877246Y-75883757D01*
X163811557Y-75681588D01*
X163715051Y-75492184D01*
X163715049Y-75492181D01*
X163715048Y-75492179D01*
X163590109Y-75320213D01*
X163439786Y-75169890D01*
X163267820Y-75044951D01*
X163078414Y-74948444D01*
X163078413Y-74948443D01*
X163078412Y-74948443D01*
X162876243Y-74882754D01*
X162876241Y-74882753D01*
X162876240Y-74882753D01*
X162714957Y-74857208D01*
X162666287Y-74849500D01*
X162453713Y-74849500D01*
X162405042Y-74857208D01*
X162243760Y-74882753D01*
X162041585Y-74948444D01*
X161852179Y-75044951D01*
X161680213Y-75169890D01*
X161529890Y-75320213D01*
X161404951Y-75492179D01*
X161308444Y-75681585D01*
X161242753Y-75883760D01*
X161209500Y-76093713D01*
X100500500Y-76093713D01*
X100500500Y-75121153D01*
X152199500Y-75121153D01*
X152199500Y-75278846D01*
X152230261Y-75433489D01*
X152230264Y-75433501D01*
X152290602Y-75579172D01*
X152290609Y-75579185D01*
X152378210Y-75710288D01*
X152378213Y-75710292D01*
X152489707Y-75821786D01*
X152489711Y-75821789D01*
X152620814Y-75909390D01*
X152620827Y-75909397D01*
X152766498Y-75969735D01*
X152766503Y-75969737D01*
X152921153Y-76000499D01*
X152921156Y-76000500D01*
X152921158Y-76000500D01*
X153078844Y-76000500D01*
X153078845Y-76000499D01*
X153130856Y-75990153D01*
X153233494Y-75969738D01*
X153233497Y-75969737D01*
X153379172Y-75909397D01*
X153379172Y-75909396D01*
X153379179Y-75909394D01*
X153510289Y-75821789D01*
X153621789Y-75710289D01*
X153709394Y-75579179D01*
X153769737Y-75433497D01*
X153800500Y-75278842D01*
X153800500Y-75121158D01*
X153800500Y-75121155D01*
X153800499Y-75121153D01*
X153769738Y-74966510D01*
X153769737Y-74966503D01*
X153762256Y-74948443D01*
X153709397Y-74820827D01*
X153709390Y-74820814D01*
X153621789Y-74689711D01*
X153621786Y-74689707D01*
X153510292Y-74578213D01*
X153510288Y-74578210D01*
X153379185Y-74490609D01*
X153379172Y-74490602D01*
X153233501Y-74430264D01*
X153233489Y-74430261D01*
X153078845Y-74399500D01*
X153078842Y-74399500D01*
X152921158Y-74399500D01*
X152921155Y-74399500D01*
X152766510Y-74430261D01*
X152766498Y-74430264D01*
X152620827Y-74490602D01*
X152620814Y-74490609D01*
X152489711Y-74578210D01*
X152489707Y-74578213D01*
X152378213Y-74689707D01*
X152378210Y-74689711D01*
X152290609Y-74820814D01*
X152290602Y-74820827D01*
X152230264Y-74966498D01*
X152230261Y-74966510D01*
X152199500Y-75121153D01*
X100500500Y-75121153D01*
X100500500Y-73671153D01*
X124199500Y-73671153D01*
X124199500Y-73828846D01*
X124230261Y-73983489D01*
X124230264Y-73983501D01*
X124290602Y-74129172D01*
X124290609Y-74129185D01*
X124378210Y-74260288D01*
X124378213Y-74260292D01*
X124489707Y-74371786D01*
X124489711Y-74371789D01*
X124620814Y-74459390D01*
X124620827Y-74459397D01*
X124696181Y-74490609D01*
X124766503Y-74519737D01*
X124921153Y-74550499D01*
X124921156Y-74550500D01*
X124921158Y-74550500D01*
X125078844Y-74550500D01*
X125078845Y-74550499D01*
X125233497Y-74519737D01*
X125379179Y-74459394D01*
X125510289Y-74371789D01*
X125621789Y-74260289D01*
X125709394Y-74129179D01*
X125769737Y-73983497D01*
X125800500Y-73828842D01*
X125800500Y-73671158D01*
X125800500Y-73671155D01*
X125800499Y-73671153D01*
X125798265Y-73659924D01*
X125769737Y-73516503D01*
X125728654Y-73417319D01*
X125709397Y-73370827D01*
X125709390Y-73370814D01*
X125621789Y-73239711D01*
X125621786Y-73239707D01*
X125510292Y-73128213D01*
X125510288Y-73128210D01*
X125402677Y-73056306D01*
X125379183Y-73040608D01*
X125379172Y-73040602D01*
X125233501Y-72980264D01*
X125233489Y-72980261D01*
X125128067Y-72959291D01*
X152149503Y-72959291D01*
X152149503Y-73116984D01*
X152180264Y-73271627D01*
X152180267Y-73271639D01*
X152240605Y-73417310D01*
X152240612Y-73417323D01*
X152328213Y-73548426D01*
X152328216Y-73548430D01*
X152439710Y-73659924D01*
X152439714Y-73659927D01*
X152570817Y-73747528D01*
X152570830Y-73747535D01*
X152716501Y-73807873D01*
X152716506Y-73807875D01*
X152821914Y-73828842D01*
X152871156Y-73838637D01*
X152871159Y-73838638D01*
X152871161Y-73838638D01*
X153028847Y-73838638D01*
X153028848Y-73838637D01*
X153183500Y-73807875D01*
X153329182Y-73747532D01*
X153460292Y-73659927D01*
X153571792Y-73548427D01*
X153659397Y-73417317D01*
X153719740Y-73271635D01*
X153719741Y-73271626D01*
X153721178Y-73268159D01*
X153765019Y-73213756D01*
X153811548Y-73193994D01*
X153933497Y-73169737D01*
X154079179Y-73109394D01*
X154210289Y-73021789D01*
X154321789Y-72910289D01*
X154409394Y-72779179D01*
X154469737Y-72633497D01*
X154500500Y-72478842D01*
X154500500Y-72321158D01*
X154500500Y-72321155D01*
X154500499Y-72321153D01*
X154490006Y-72268401D01*
X154469737Y-72166503D01*
X154456808Y-72135289D01*
X154409397Y-72020827D01*
X154409390Y-72020814D01*
X154321789Y-71889711D01*
X154321786Y-71889707D01*
X154210292Y-71778213D01*
X154210288Y-71778210D01*
X154079185Y-71690609D01*
X154079172Y-71690602D01*
X153933501Y-71630264D01*
X153933489Y-71630261D01*
X153778845Y-71599500D01*
X153778842Y-71599500D01*
X153621158Y-71599500D01*
X153621155Y-71599500D01*
X153466510Y-71630261D01*
X153466498Y-71630264D01*
X153320827Y-71690602D01*
X153320814Y-71690609D01*
X153189711Y-71778210D01*
X153189707Y-71778213D01*
X153078213Y-71889707D01*
X153078210Y-71889711D01*
X152990609Y-72020814D01*
X152990602Y-72020827D01*
X152928823Y-72169978D01*
X152884982Y-72224382D01*
X152838454Y-72244143D01*
X152716511Y-72268399D01*
X152716501Y-72268402D01*
X152570830Y-72328740D01*
X152570817Y-72328747D01*
X152439714Y-72416348D01*
X152439710Y-72416351D01*
X152328216Y-72527845D01*
X152328213Y-72527849D01*
X152240612Y-72658952D01*
X152240605Y-72658965D01*
X152180267Y-72804636D01*
X152180264Y-72804648D01*
X152149503Y-72959291D01*
X125128067Y-72959291D01*
X125078845Y-72949500D01*
X125078842Y-72949500D01*
X124921158Y-72949500D01*
X124921155Y-72949500D01*
X124766510Y-72980261D01*
X124766498Y-72980264D01*
X124620827Y-73040602D01*
X124620814Y-73040609D01*
X124489711Y-73128210D01*
X124489707Y-73128213D01*
X124378213Y-73239707D01*
X124378210Y-73239711D01*
X124290609Y-73370814D01*
X124290602Y-73370827D01*
X124230264Y-73516498D01*
X124230261Y-73516510D01*
X124199500Y-73671153D01*
X100500500Y-73671153D01*
X100500500Y-71546153D01*
X125324500Y-71546153D01*
X125324500Y-71703846D01*
X125355261Y-71858489D01*
X125355264Y-71858501D01*
X125415602Y-72004172D01*
X125415609Y-72004185D01*
X125503210Y-72135288D01*
X125503213Y-72135292D01*
X125614707Y-72246786D01*
X125614711Y-72246789D01*
X125745814Y-72334390D01*
X125745827Y-72334397D01*
X125891498Y-72394735D01*
X125891503Y-72394737D01*
X126046153Y-72425499D01*
X126046156Y-72425500D01*
X126046158Y-72425500D01*
X126203844Y-72425500D01*
X126203845Y-72425499D01*
X126358497Y-72394737D01*
X126504179Y-72334394D01*
X126635289Y-72246789D01*
X126746789Y-72135289D01*
X126834394Y-72004179D01*
X126894737Y-71858497D01*
X126925500Y-71703842D01*
X126925500Y-71546158D01*
X126925500Y-71546155D01*
X126925499Y-71546153D01*
X126894738Y-71391510D01*
X126894737Y-71391503D01*
X126894735Y-71391498D01*
X126834397Y-71245827D01*
X126834390Y-71245814D01*
X126746789Y-71114711D01*
X126746786Y-71114707D01*
X126635292Y-71003213D01*
X126635288Y-71003210D01*
X126504185Y-70915609D01*
X126504172Y-70915602D01*
X126358501Y-70855264D01*
X126358489Y-70855261D01*
X126203845Y-70824500D01*
X126203842Y-70824500D01*
X126046158Y-70824500D01*
X126046155Y-70824500D01*
X125891510Y-70855261D01*
X125891498Y-70855264D01*
X125745827Y-70915602D01*
X125745814Y-70915609D01*
X125614711Y-71003210D01*
X125614707Y-71003213D01*
X125503213Y-71114707D01*
X125503210Y-71114711D01*
X125415609Y-71245814D01*
X125415602Y-71245827D01*
X125355264Y-71391498D01*
X125355261Y-71391510D01*
X125324500Y-71546153D01*
X100500500Y-71546153D01*
X100500500Y-69171153D01*
X120449500Y-69171153D01*
X120449500Y-69328846D01*
X120480261Y-69483489D01*
X120480264Y-69483501D01*
X120540602Y-69629172D01*
X120540609Y-69629185D01*
X120628210Y-69760288D01*
X120628213Y-69760292D01*
X120739707Y-69871786D01*
X120739711Y-69871789D01*
X120870814Y-69959390D01*
X120870827Y-69959397D01*
X121016498Y-70019735D01*
X121016503Y-70019737D01*
X121171153Y-70050499D01*
X121171156Y-70050500D01*
X121171158Y-70050500D01*
X121328844Y-70050500D01*
X121328845Y-70050499D01*
X121483497Y-70019737D01*
X121629179Y-69959394D01*
X121760289Y-69871789D01*
X121871789Y-69760289D01*
X121959394Y-69629179D01*
X121972643Y-69597192D01*
X122016483Y-69542790D01*
X122082776Y-69520724D01*
X122150476Y-69538002D01*
X122174885Y-69556964D01*
X122239707Y-69621786D01*
X122239711Y-69621789D01*
X122370814Y-69709390D01*
X122370827Y-69709397D01*
X122516498Y-69769735D01*
X122516503Y-69769737D01*
X122671153Y-69800499D01*
X122671156Y-69800500D01*
X122671158Y-69800500D01*
X122828844Y-69800500D01*
X122828845Y-69800499D01*
X122983497Y-69769737D01*
X123129179Y-69709394D01*
X123260289Y-69621789D01*
X123371789Y-69510289D01*
X123459394Y-69379179D01*
X123519737Y-69233497D01*
X123550500Y-69078842D01*
X123550500Y-68921158D01*
X123550500Y-68921155D01*
X123550499Y-68921153D01*
X123519738Y-68766510D01*
X123519737Y-68766503D01*
X123519735Y-68766498D01*
X123459397Y-68620827D01*
X123459390Y-68620814D01*
X123371789Y-68489711D01*
X123371786Y-68489707D01*
X123260292Y-68378213D01*
X123260288Y-68378210D01*
X123129185Y-68290609D01*
X123129172Y-68290602D01*
X122983501Y-68230264D01*
X122983489Y-68230261D01*
X122828845Y-68199500D01*
X122828842Y-68199500D01*
X122671158Y-68199500D01*
X122671155Y-68199500D01*
X122516510Y-68230261D01*
X122516498Y-68230264D01*
X122370827Y-68290602D01*
X122370814Y-68290609D01*
X122239711Y-68378210D01*
X122239707Y-68378213D01*
X122128213Y-68489707D01*
X122128210Y-68489711D01*
X122040609Y-68620814D01*
X122040603Y-68620826D01*
X122027355Y-68652809D01*
X121983513Y-68707211D01*
X121917219Y-68729275D01*
X121849520Y-68711995D01*
X121825114Y-68693035D01*
X121760292Y-68628213D01*
X121760288Y-68628210D01*
X121629185Y-68540609D01*
X121629172Y-68540602D01*
X121483501Y-68480264D01*
X121483489Y-68480261D01*
X121328845Y-68449500D01*
X121328842Y-68449500D01*
X121171158Y-68449500D01*
X121171155Y-68449500D01*
X121016510Y-68480261D01*
X121016498Y-68480264D01*
X120870827Y-68540602D01*
X120870814Y-68540609D01*
X120739711Y-68628210D01*
X120739707Y-68628213D01*
X120628213Y-68739707D01*
X120628210Y-68739711D01*
X120540609Y-68870814D01*
X120540602Y-68870827D01*
X120480264Y-69016498D01*
X120480261Y-69016510D01*
X120449500Y-69171153D01*
X100500500Y-69171153D01*
X100500500Y-66421153D01*
X153099500Y-66421153D01*
X153099500Y-66578846D01*
X153130261Y-66733489D01*
X153130264Y-66733501D01*
X153190602Y-66879172D01*
X153190609Y-66879185D01*
X153278210Y-67010288D01*
X153278213Y-67010292D01*
X153389707Y-67121786D01*
X153389711Y-67121789D01*
X153520814Y-67209390D01*
X153520827Y-67209397D01*
X153666498Y-67269735D01*
X153666503Y-67269737D01*
X153821153Y-67300499D01*
X153821156Y-67300500D01*
X153821158Y-67300500D01*
X153978844Y-67300500D01*
X153978845Y-67300499D01*
X154133497Y-67269737D01*
X154279179Y-67209394D01*
X154410289Y-67121789D01*
X154521789Y-67010289D01*
X154609394Y-66879179D01*
X154669737Y-66733497D01*
X154700500Y-66578842D01*
X154700500Y-66421158D01*
X154700500Y-66421155D01*
X154700499Y-66421153D01*
X154669738Y-66266510D01*
X154669737Y-66266503D01*
X154611238Y-66125272D01*
X154603769Y-66055803D01*
X154622694Y-66008933D01*
X154709394Y-65879179D01*
X154769737Y-65733497D01*
X154800500Y-65578842D01*
X154800500Y-65421158D01*
X154800500Y-65421155D01*
X154800499Y-65421153D01*
X154769738Y-65266510D01*
X154769737Y-65266503D01*
X154769735Y-65266498D01*
X154709397Y-65120827D01*
X154709390Y-65120814D01*
X154621789Y-64989711D01*
X154621786Y-64989707D01*
X154510292Y-64878213D01*
X154510288Y-64878210D01*
X154379185Y-64790609D01*
X154379172Y-64790602D01*
X154233501Y-64730264D01*
X154233489Y-64730261D01*
X154078845Y-64699500D01*
X154078842Y-64699500D01*
X153921158Y-64699500D01*
X153921155Y-64699500D01*
X153766510Y-64730261D01*
X153766498Y-64730264D01*
X153620827Y-64790602D01*
X153620814Y-64790609D01*
X153489711Y-64878210D01*
X153489707Y-64878213D01*
X153378213Y-64989707D01*
X153378210Y-64989711D01*
X153290609Y-65120814D01*
X153290602Y-65120827D01*
X153230264Y-65266498D01*
X153230261Y-65266510D01*
X153199500Y-65421153D01*
X153199500Y-65578846D01*
X153230261Y-65733489D01*
X153230264Y-65733501D01*
X153288761Y-65874727D01*
X153296230Y-65944196D01*
X153277302Y-65991070D01*
X153190609Y-66120814D01*
X153190602Y-66120827D01*
X153130264Y-66266498D01*
X153130261Y-66266510D01*
X153099500Y-66421153D01*
X100500500Y-66421153D01*
X100500500Y-64171153D01*
X150699500Y-64171153D01*
X150699500Y-64328846D01*
X150730261Y-64483489D01*
X150730264Y-64483501D01*
X150790602Y-64629172D01*
X150790609Y-64629185D01*
X150878210Y-64760288D01*
X150878213Y-64760292D01*
X150989707Y-64871786D01*
X150989711Y-64871789D01*
X151120814Y-64959390D01*
X151120827Y-64959397D01*
X151194013Y-64989711D01*
X151266503Y-65019737D01*
X151421153Y-65050499D01*
X151421156Y-65050500D01*
X151421158Y-65050500D01*
X151578844Y-65050500D01*
X151578845Y-65050499D01*
X151733497Y-65019737D01*
X151879179Y-64959394D01*
X152010289Y-64871789D01*
X152121789Y-64760289D01*
X152209394Y-64629179D01*
X152269737Y-64483497D01*
X152300500Y-64328842D01*
X152300500Y-64231941D01*
X152320185Y-64164902D01*
X152372989Y-64119147D01*
X152442147Y-64109203D01*
X152505703Y-64138228D01*
X152512181Y-64144260D01*
X152614707Y-64246786D01*
X152614711Y-64246789D01*
X152745814Y-64334390D01*
X152745827Y-64334397D01*
X152891498Y-64394735D01*
X152891503Y-64394737D01*
X153046153Y-64425499D01*
X153046156Y-64425500D01*
X153046158Y-64425500D01*
X153203844Y-64425500D01*
X153203845Y-64425499D01*
X153358497Y-64394737D01*
X153504179Y-64334394D01*
X153635289Y-64246789D01*
X153746789Y-64135289D01*
X153834394Y-64004179D01*
X153894737Y-63858497D01*
X153925500Y-63703842D01*
X153925500Y-63546158D01*
X153925500Y-63546155D01*
X153925499Y-63546153D01*
X153912393Y-63480264D01*
X153894737Y-63391503D01*
X153857043Y-63300500D01*
X153834397Y-63245827D01*
X153834390Y-63245814D01*
X153746789Y-63114711D01*
X153746786Y-63114707D01*
X153635292Y-63003213D01*
X153635288Y-63003210D01*
X153504185Y-62915609D01*
X153504172Y-62915602D01*
X153358501Y-62855264D01*
X153358489Y-62855261D01*
X153203845Y-62824500D01*
X153203842Y-62824500D01*
X153046158Y-62824500D01*
X153046155Y-62824500D01*
X152891510Y-62855261D01*
X152891498Y-62855264D01*
X152745827Y-62915602D01*
X152745814Y-62915609D01*
X152614711Y-63003210D01*
X152614707Y-63003213D01*
X152503213Y-63114707D01*
X152503210Y-63114711D01*
X152415609Y-63245814D01*
X152415602Y-63245827D01*
X152355264Y-63391498D01*
X152355261Y-63391510D01*
X152324500Y-63546153D01*
X152324500Y-63643059D01*
X152304815Y-63710098D01*
X152252011Y-63755853D01*
X152182853Y-63765797D01*
X152119297Y-63736772D01*
X152112819Y-63730740D01*
X152010292Y-63628213D01*
X152010288Y-63628210D01*
X151879185Y-63540609D01*
X151879172Y-63540602D01*
X151733501Y-63480264D01*
X151733489Y-63480261D01*
X151578845Y-63449500D01*
X151578842Y-63449500D01*
X151421158Y-63449500D01*
X151421155Y-63449500D01*
X151266510Y-63480261D01*
X151266498Y-63480264D01*
X151120827Y-63540602D01*
X151120814Y-63540609D01*
X150989711Y-63628210D01*
X150989707Y-63628213D01*
X150878213Y-63739707D01*
X150878210Y-63739711D01*
X150790609Y-63870814D01*
X150790602Y-63870827D01*
X150730264Y-64016498D01*
X150730261Y-64016510D01*
X150699500Y-64171153D01*
X100500500Y-64171153D01*
X100500500Y-62421153D01*
X149949500Y-62421153D01*
X149949500Y-62578846D01*
X149980261Y-62733489D01*
X149980264Y-62733501D01*
X150040602Y-62879172D01*
X150040609Y-62879185D01*
X150128210Y-63010288D01*
X150128213Y-63010292D01*
X150239707Y-63121786D01*
X150239711Y-63121789D01*
X150370814Y-63209390D01*
X150370827Y-63209397D01*
X150516498Y-63269735D01*
X150516503Y-63269737D01*
X150671153Y-63300499D01*
X150671156Y-63300500D01*
X150671158Y-63300500D01*
X150828844Y-63300500D01*
X150828845Y-63300499D01*
X150983497Y-63269737D01*
X151129179Y-63209394D01*
X151260289Y-63121789D01*
X151371789Y-63010289D01*
X151459394Y-62879179D01*
X151519737Y-62733497D01*
X151550500Y-62578842D01*
X151550500Y-62421158D01*
X151550500Y-62421155D01*
X151550499Y-62421153D01*
X151519738Y-62266510D01*
X151519737Y-62266503D01*
X151507822Y-62237737D01*
X151459397Y-62120827D01*
X151459390Y-62120814D01*
X151371789Y-61989711D01*
X151371786Y-61989707D01*
X151260292Y-61878213D01*
X151260288Y-61878210D01*
X151129185Y-61790609D01*
X151129172Y-61790602D01*
X150983501Y-61730264D01*
X150983489Y-61730261D01*
X150828845Y-61699500D01*
X150828842Y-61699500D01*
X150671158Y-61699500D01*
X150671155Y-61699500D01*
X150516510Y-61730261D01*
X150516498Y-61730264D01*
X150370827Y-61790602D01*
X150370814Y-61790609D01*
X150239711Y-61878210D01*
X150239707Y-61878213D01*
X150128213Y-61989707D01*
X150128210Y-61989711D01*
X150040609Y-62120814D01*
X150040602Y-62120827D01*
X149980264Y-62266498D01*
X149980261Y-62266510D01*
X149949500Y-62421153D01*
X100500500Y-62421153D01*
X100500500Y-57657176D01*
X100520185Y-57590137D01*
X100572989Y-57544382D01*
X100642147Y-57534438D01*
X100705703Y-57563463D01*
X100742431Y-57618858D01*
X100835494Y-57905280D01*
X100947910Y-58176677D01*
X101000904Y-58304615D01*
X101162023Y-58620827D01*
X101197136Y-58689740D01*
X101197142Y-58689751D01*
X101422966Y-59058262D01*
X101422971Y-59058269D01*
X101422973Y-59058272D01*
X101437921Y-59078846D01*
X101677025Y-59407946D01*
X101677035Y-59407960D01*
X101859664Y-59621789D01*
X101957743Y-59736624D01*
X102263376Y-60042257D01*
X102263382Y-60042262D01*
X102592039Y-60322964D01*
X102592046Y-60322969D01*
X102941728Y-60577027D01*
X102941732Y-60577029D01*
X102941737Y-60577033D01*
X103310248Y-60802857D01*
X103310254Y-60802860D01*
X103310265Y-60802867D01*
X103695385Y-60999096D01*
X104009449Y-61129185D01*
X104094719Y-61164505D01*
X104199240Y-61198465D01*
X104505790Y-61298070D01*
X104926078Y-61398972D01*
X105352987Y-61466588D01*
X105783885Y-61500500D01*
X105783893Y-61500500D01*
X106216107Y-61500500D01*
X106216115Y-61500500D01*
X106647013Y-61466588D01*
X107073922Y-61398972D01*
X107494210Y-61298070D01*
X107905286Y-61164503D01*
X108304615Y-60999096D01*
X108689735Y-60802867D01*
X108976474Y-60627153D01*
X119849500Y-60627153D01*
X119849500Y-60784846D01*
X119880261Y-60939489D01*
X119880263Y-60939497D01*
X119921705Y-61039547D01*
X119929174Y-61109017D01*
X119921705Y-61134453D01*
X119880263Y-61234502D01*
X119880261Y-61234510D01*
X119849500Y-61389153D01*
X119849500Y-61546846D01*
X119880261Y-61701489D01*
X119880264Y-61701501D01*
X119940602Y-61847172D01*
X119940609Y-61847185D01*
X120028210Y-61978288D01*
X120028213Y-61978292D01*
X120139707Y-62089786D01*
X120139711Y-62089789D01*
X120270814Y-62177390D01*
X120270827Y-62177397D01*
X120416498Y-62237735D01*
X120416503Y-62237737D01*
X120561154Y-62266510D01*
X120571153Y-62268499D01*
X120571156Y-62268500D01*
X120571158Y-62268500D01*
X120728844Y-62268500D01*
X120728845Y-62268499D01*
X120883497Y-62237737D01*
X120983547Y-62196294D01*
X121053017Y-62188826D01*
X121078450Y-62196294D01*
X121178503Y-62237737D01*
X121323154Y-62266510D01*
X121333153Y-62268499D01*
X121333156Y-62268500D01*
X121333158Y-62268500D01*
X121490844Y-62268500D01*
X121490845Y-62268499D01*
X121645497Y-62237737D01*
X121745547Y-62196294D01*
X121815017Y-62188826D01*
X121840450Y-62196294D01*
X121940503Y-62237737D01*
X122085154Y-62266510D01*
X122095153Y-62268499D01*
X122095156Y-62268500D01*
X122095158Y-62268500D01*
X122252844Y-62268500D01*
X122252845Y-62268499D01*
X122407497Y-62237737D01*
X122553179Y-62177394D01*
X122684289Y-62089789D01*
X122795789Y-61978289D01*
X122883394Y-61847179D01*
X122943737Y-61701497D01*
X122974500Y-61546842D01*
X122974500Y-61389158D01*
X122974500Y-61389155D01*
X122974499Y-61389153D01*
X122956380Y-61298065D01*
X122943737Y-61234503D01*
X122902294Y-61134452D01*
X122894826Y-61064983D01*
X122902295Y-61039547D01*
X122919050Y-60999096D01*
X122943737Y-60939497D01*
X122974500Y-60784842D01*
X122974500Y-60671153D01*
X150699500Y-60671153D01*
X150699500Y-60828846D01*
X150730261Y-60983489D01*
X150730264Y-60983501D01*
X150790602Y-61129172D01*
X150790609Y-61129185D01*
X150878210Y-61260288D01*
X150878213Y-61260292D01*
X150989707Y-61371786D01*
X150989711Y-61371789D01*
X151120814Y-61459390D01*
X151120827Y-61459397D01*
X151220060Y-61500500D01*
X151266503Y-61519737D01*
X151402768Y-61546842D01*
X151421153Y-61550499D01*
X151421156Y-61550500D01*
X151421158Y-61550500D01*
X151578844Y-61550500D01*
X151578845Y-61550499D01*
X151733497Y-61519737D01*
X151861811Y-61466588D01*
X151879172Y-61459397D01*
X151879172Y-61459396D01*
X151879179Y-61459394D01*
X152010289Y-61371789D01*
X152121789Y-61260289D01*
X152209394Y-61129179D01*
X152269737Y-60983497D01*
X152300500Y-60828842D01*
X152300500Y-60671158D01*
X152300500Y-60671155D01*
X152300499Y-60671153D01*
X152281776Y-60577027D01*
X152269737Y-60516503D01*
X152251510Y-60472498D01*
X152209397Y-60370827D01*
X152209390Y-60370814D01*
X152121789Y-60239711D01*
X152121786Y-60239707D01*
X152010292Y-60128213D01*
X152010288Y-60128210D01*
X151879185Y-60040609D01*
X151879172Y-60040602D01*
X151733501Y-59980264D01*
X151733489Y-59980261D01*
X151578845Y-59949500D01*
X151578842Y-59949500D01*
X151421158Y-59949500D01*
X151421155Y-59949500D01*
X151266510Y-59980261D01*
X151266498Y-59980264D01*
X151120827Y-60040602D01*
X151120814Y-60040609D01*
X150989711Y-60128210D01*
X150989707Y-60128213D01*
X150878213Y-60239707D01*
X150878210Y-60239711D01*
X150790609Y-60370814D01*
X150790602Y-60370827D01*
X150730264Y-60516498D01*
X150730261Y-60516510D01*
X150699500Y-60671153D01*
X122974500Y-60671153D01*
X122974500Y-60627158D01*
X122974500Y-60627155D01*
X122974499Y-60627153D01*
X122964528Y-60577025D01*
X122943737Y-60472503D01*
X122901622Y-60370827D01*
X122883397Y-60326827D01*
X122883390Y-60326814D01*
X122795789Y-60195711D01*
X122795786Y-60195707D01*
X122684292Y-60084213D01*
X122684288Y-60084210D01*
X122553185Y-59996609D01*
X122553172Y-59996602D01*
X122407501Y-59936264D01*
X122407489Y-59936261D01*
X122252845Y-59905500D01*
X122252842Y-59905500D01*
X122095158Y-59905500D01*
X122095155Y-59905500D01*
X121940510Y-59936261D01*
X121940502Y-59936263D01*
X121878028Y-59962140D01*
X121840452Y-59977705D01*
X121770983Y-59985174D01*
X121745549Y-59977705D01*
X121645497Y-59936263D01*
X121645489Y-59936261D01*
X121490845Y-59905500D01*
X121490842Y-59905500D01*
X121333158Y-59905500D01*
X121333155Y-59905500D01*
X121178510Y-59936261D01*
X121178502Y-59936263D01*
X121116028Y-59962140D01*
X121078452Y-59977705D01*
X121008983Y-59985174D01*
X120983549Y-59977705D01*
X120883497Y-59936263D01*
X120883489Y-59936261D01*
X120728845Y-59905500D01*
X120728842Y-59905500D01*
X120571158Y-59905500D01*
X120571155Y-59905500D01*
X120416510Y-59936261D01*
X120416498Y-59936264D01*
X120270827Y-59996602D01*
X120270814Y-59996609D01*
X120139711Y-60084210D01*
X120139707Y-60084213D01*
X120028213Y-60195707D01*
X120028210Y-60195711D01*
X119940609Y-60326814D01*
X119940602Y-60326827D01*
X119880264Y-60472498D01*
X119880261Y-60472510D01*
X119849500Y-60627153D01*
X108976474Y-60627153D01*
X109058272Y-60577027D01*
X109407954Y-60322969D01*
X109736624Y-60042257D01*
X110042257Y-59736624D01*
X110322969Y-59407954D01*
X110577027Y-59058272D01*
X110661051Y-58921158D01*
X110661054Y-58921153D01*
X113449500Y-58921153D01*
X113449500Y-59078846D01*
X113480261Y-59233489D01*
X113480264Y-59233501D01*
X113540602Y-59379172D01*
X113540609Y-59379185D01*
X113628210Y-59510288D01*
X113628213Y-59510292D01*
X113739707Y-59621786D01*
X113739711Y-59621789D01*
X113870814Y-59709390D01*
X113870827Y-59709397D01*
X113936577Y-59736631D01*
X114016503Y-59769737D01*
X114171153Y-59800499D01*
X114171156Y-59800500D01*
X114171158Y-59800500D01*
X114328844Y-59800500D01*
X114328845Y-59800499D01*
X114483497Y-59769737D01*
X114629179Y-59709394D01*
X114760289Y-59621789D01*
X114871789Y-59510289D01*
X114959394Y-59379179D01*
X115019737Y-59233497D01*
X115050500Y-59078842D01*
X115050500Y-58921158D01*
X115050500Y-58921155D01*
X115050499Y-58921153D01*
X115019737Y-58766503D01*
X114987939Y-58689735D01*
X114959397Y-58620827D01*
X114959390Y-58620814D01*
X114871789Y-58489711D01*
X114871786Y-58489707D01*
X114760292Y-58378213D01*
X114760288Y-58378210D01*
X114629185Y-58290609D01*
X114629172Y-58290602D01*
X114483501Y-58230264D01*
X114483489Y-58230261D01*
X114328845Y-58199500D01*
X114328842Y-58199500D01*
X114171158Y-58199500D01*
X114171155Y-58199500D01*
X114016510Y-58230261D01*
X114016498Y-58230264D01*
X113870827Y-58290602D01*
X113870814Y-58290609D01*
X113739711Y-58378210D01*
X113739707Y-58378213D01*
X113628213Y-58489707D01*
X113628210Y-58489711D01*
X113540609Y-58620814D01*
X113540602Y-58620827D01*
X113480264Y-58766498D01*
X113480261Y-58766510D01*
X113449500Y-58921153D01*
X110661054Y-58921153D01*
X110704488Y-58850276D01*
X110802857Y-58689751D01*
X110802867Y-58689735D01*
X110999096Y-58304615D01*
X111164503Y-57905286D01*
X111298070Y-57494210D01*
X111398972Y-57073922D01*
X111466588Y-56647013D01*
X111500500Y-56216115D01*
X111500500Y-55783885D01*
X111466588Y-55352987D01*
X111398972Y-54926078D01*
X111298070Y-54505790D01*
X111164503Y-54094714D01*
X110999096Y-53695385D01*
X110802867Y-53310265D01*
X110577027Y-52941728D01*
X110322969Y-52592046D01*
X110322964Y-52592039D01*
X110042262Y-52263382D01*
X110042257Y-52263376D01*
X109736624Y-51957743D01*
X109736617Y-51957737D01*
X109407960Y-51677035D01*
X109407946Y-51677025D01*
X109058273Y-51422974D01*
X109058262Y-51422966D01*
X108689751Y-51197142D01*
X108689740Y-51197136D01*
X108689739Y-51197135D01*
X108689735Y-51197133D01*
X108304615Y-51000904D01*
X108176677Y-50947910D01*
X107905280Y-50835494D01*
X107684999Y-50763921D01*
X107618857Y-50742430D01*
X107561183Y-50702994D01*
X107533984Y-50638635D01*
X107545898Y-50569789D01*
X107593143Y-50518313D01*
X107657176Y-50500500D01*
X113875500Y-50500500D01*
X113942539Y-50520185D01*
G37*
%TD.AperFunction*%
%TD*%
M02*
