%TF.GenerationSoftware,KiCad,Pcbnew,9.0.1*%
%TF.CreationDate,2025-06-17T16:13:15+02:00*%
%TF.ProjectId,open_g_db,6f70656e-5f67-45f6-9462-2e6b69636164,rev?*%
%TF.SameCoordinates,Original*%
%TF.FileFunction,Legend,Bot*%
%TF.FilePolarity,Positive*%
%FSLAX46Y46*%
G04 Gerber Fmt 4.6, Leading zero omitted, Abs format (unit mm)*
G04 Created by KiCad (PCBNEW 9.0.1) date 2025-06-17 16:13:15*
%MOMM*%
%LPD*%
G01*
G04 APERTURE LIST*
%ADD10C,0.150000*%
%ADD11C,0.120000*%
G04 APERTURE END LIST*
D10*
X198454819Y-80357142D02*
X197978628Y-80023809D01*
X198454819Y-79785714D02*
X197454819Y-79785714D01*
X197454819Y-79785714D02*
X197454819Y-80166666D01*
X197454819Y-80166666D02*
X197502438Y-80261904D01*
X197502438Y-80261904D02*
X197550057Y-80309523D01*
X197550057Y-80309523D02*
X197645295Y-80357142D01*
X197645295Y-80357142D02*
X197788152Y-80357142D01*
X197788152Y-80357142D02*
X197883390Y-80309523D01*
X197883390Y-80309523D02*
X197931009Y-80261904D01*
X197931009Y-80261904D02*
X197978628Y-80166666D01*
X197978628Y-80166666D02*
X197978628Y-79785714D01*
X197454819Y-81261904D02*
X197454819Y-80785714D01*
X197454819Y-80785714D02*
X197931009Y-80738095D01*
X197931009Y-80738095D02*
X197883390Y-80785714D01*
X197883390Y-80785714D02*
X197835771Y-80880952D01*
X197835771Y-80880952D02*
X197835771Y-81119047D01*
X197835771Y-81119047D02*
X197883390Y-81214285D01*
X197883390Y-81214285D02*
X197931009Y-81261904D01*
X197931009Y-81261904D02*
X198026247Y-81309523D01*
X198026247Y-81309523D02*
X198264342Y-81309523D01*
X198264342Y-81309523D02*
X198359580Y-81261904D01*
X198359580Y-81261904D02*
X198407200Y-81214285D01*
X198407200Y-81214285D02*
X198454819Y-81119047D01*
X198454819Y-81119047D02*
X198454819Y-80880952D01*
X198454819Y-80880952D02*
X198407200Y-80785714D01*
X198407200Y-80785714D02*
X198359580Y-80738095D01*
X198454819Y-82261904D02*
X198454819Y-81690476D01*
X198454819Y-81976190D02*
X197454819Y-81976190D01*
X197454819Y-81976190D02*
X197597676Y-81880952D01*
X197597676Y-81880952D02*
X197692914Y-81785714D01*
X197692914Y-81785714D02*
X197740533Y-81690476D01*
X110454819Y-80357142D02*
X109978628Y-80023809D01*
X110454819Y-79785714D02*
X109454819Y-79785714D01*
X109454819Y-79785714D02*
X109454819Y-80166666D01*
X109454819Y-80166666D02*
X109502438Y-80261904D01*
X109502438Y-80261904D02*
X109550057Y-80309523D01*
X109550057Y-80309523D02*
X109645295Y-80357142D01*
X109645295Y-80357142D02*
X109788152Y-80357142D01*
X109788152Y-80357142D02*
X109883390Y-80309523D01*
X109883390Y-80309523D02*
X109931009Y-80261904D01*
X109931009Y-80261904D02*
X109978628Y-80166666D01*
X109978628Y-80166666D02*
X109978628Y-79785714D01*
X109550057Y-80738095D02*
X109502438Y-80785714D01*
X109502438Y-80785714D02*
X109454819Y-80880952D01*
X109454819Y-80880952D02*
X109454819Y-81119047D01*
X109454819Y-81119047D02*
X109502438Y-81214285D01*
X109502438Y-81214285D02*
X109550057Y-81261904D01*
X109550057Y-81261904D02*
X109645295Y-81309523D01*
X109645295Y-81309523D02*
X109740533Y-81309523D01*
X109740533Y-81309523D02*
X109883390Y-81261904D01*
X109883390Y-81261904D02*
X110454819Y-80690476D01*
X110454819Y-80690476D02*
X110454819Y-81309523D01*
X109550057Y-81690476D02*
X109502438Y-81738095D01*
X109502438Y-81738095D02*
X109454819Y-81833333D01*
X109454819Y-81833333D02*
X109454819Y-82071428D01*
X109454819Y-82071428D02*
X109502438Y-82166666D01*
X109502438Y-82166666D02*
X109550057Y-82214285D01*
X109550057Y-82214285D02*
X109645295Y-82261904D01*
X109645295Y-82261904D02*
X109740533Y-82261904D01*
X109740533Y-82261904D02*
X109883390Y-82214285D01*
X109883390Y-82214285D02*
X110454819Y-81642857D01*
X110454819Y-81642857D02*
X110454819Y-82261904D01*
X171454819Y-80357142D02*
X170978628Y-80023809D01*
X171454819Y-79785714D02*
X170454819Y-79785714D01*
X170454819Y-79785714D02*
X170454819Y-80166666D01*
X170454819Y-80166666D02*
X170502438Y-80261904D01*
X170502438Y-80261904D02*
X170550057Y-80309523D01*
X170550057Y-80309523D02*
X170645295Y-80357142D01*
X170645295Y-80357142D02*
X170788152Y-80357142D01*
X170788152Y-80357142D02*
X170883390Y-80309523D01*
X170883390Y-80309523D02*
X170931009Y-80261904D01*
X170931009Y-80261904D02*
X170978628Y-80166666D01*
X170978628Y-80166666D02*
X170978628Y-79785714D01*
X170788152Y-81214285D02*
X171454819Y-81214285D01*
X170407200Y-80976190D02*
X171121485Y-80738095D01*
X171121485Y-80738095D02*
X171121485Y-81357142D01*
X170883390Y-81880952D02*
X170835771Y-81785714D01*
X170835771Y-81785714D02*
X170788152Y-81738095D01*
X170788152Y-81738095D02*
X170692914Y-81690476D01*
X170692914Y-81690476D02*
X170645295Y-81690476D01*
X170645295Y-81690476D02*
X170550057Y-81738095D01*
X170550057Y-81738095D02*
X170502438Y-81785714D01*
X170502438Y-81785714D02*
X170454819Y-81880952D01*
X170454819Y-81880952D02*
X170454819Y-82071428D01*
X170454819Y-82071428D02*
X170502438Y-82166666D01*
X170502438Y-82166666D02*
X170550057Y-82214285D01*
X170550057Y-82214285D02*
X170645295Y-82261904D01*
X170645295Y-82261904D02*
X170692914Y-82261904D01*
X170692914Y-82261904D02*
X170788152Y-82214285D01*
X170788152Y-82214285D02*
X170835771Y-82166666D01*
X170835771Y-82166666D02*
X170883390Y-82071428D01*
X170883390Y-82071428D02*
X170883390Y-81880952D01*
X170883390Y-81880952D02*
X170931009Y-81785714D01*
X170931009Y-81785714D02*
X170978628Y-81738095D01*
X170978628Y-81738095D02*
X171073866Y-81690476D01*
X171073866Y-81690476D02*
X171264342Y-81690476D01*
X171264342Y-81690476D02*
X171359580Y-81738095D01*
X171359580Y-81738095D02*
X171407200Y-81785714D01*
X171407200Y-81785714D02*
X171454819Y-81880952D01*
X171454819Y-81880952D02*
X171454819Y-82071428D01*
X171454819Y-82071428D02*
X171407200Y-82166666D01*
X171407200Y-82166666D02*
X171359580Y-82214285D01*
X171359580Y-82214285D02*
X171264342Y-82261904D01*
X171264342Y-82261904D02*
X171073866Y-82261904D01*
X171073866Y-82261904D02*
X170978628Y-82214285D01*
X170978628Y-82214285D02*
X170931009Y-82166666D01*
X170931009Y-82166666D02*
X170883390Y-82071428D01*
X213454819Y-80357142D02*
X212978628Y-80023809D01*
X213454819Y-79785714D02*
X212454819Y-79785714D01*
X212454819Y-79785714D02*
X212454819Y-80166666D01*
X212454819Y-80166666D02*
X212502438Y-80261904D01*
X212502438Y-80261904D02*
X212550057Y-80309523D01*
X212550057Y-80309523D02*
X212645295Y-80357142D01*
X212645295Y-80357142D02*
X212788152Y-80357142D01*
X212788152Y-80357142D02*
X212883390Y-80309523D01*
X212883390Y-80309523D02*
X212931009Y-80261904D01*
X212931009Y-80261904D02*
X212978628Y-80166666D01*
X212978628Y-80166666D02*
X212978628Y-79785714D01*
X212454819Y-80690476D02*
X212454819Y-81309523D01*
X212454819Y-81309523D02*
X212835771Y-80976190D01*
X212835771Y-80976190D02*
X212835771Y-81119047D01*
X212835771Y-81119047D02*
X212883390Y-81214285D01*
X212883390Y-81214285D02*
X212931009Y-81261904D01*
X212931009Y-81261904D02*
X213026247Y-81309523D01*
X213026247Y-81309523D02*
X213264342Y-81309523D01*
X213264342Y-81309523D02*
X213359580Y-81261904D01*
X213359580Y-81261904D02*
X213407200Y-81214285D01*
X213407200Y-81214285D02*
X213454819Y-81119047D01*
X213454819Y-81119047D02*
X213454819Y-80833333D01*
X213454819Y-80833333D02*
X213407200Y-80738095D01*
X213407200Y-80738095D02*
X213359580Y-80690476D01*
X212550057Y-81690476D02*
X212502438Y-81738095D01*
X212502438Y-81738095D02*
X212454819Y-81833333D01*
X212454819Y-81833333D02*
X212454819Y-82071428D01*
X212454819Y-82071428D02*
X212502438Y-82166666D01*
X212502438Y-82166666D02*
X212550057Y-82214285D01*
X212550057Y-82214285D02*
X212645295Y-82261904D01*
X212645295Y-82261904D02*
X212740533Y-82261904D01*
X212740533Y-82261904D02*
X212883390Y-82214285D01*
X212883390Y-82214285D02*
X213454819Y-81642857D01*
X213454819Y-81642857D02*
X213454819Y-82261904D01*
X81554819Y-84633333D02*
X81078628Y-84300000D01*
X81554819Y-84061905D02*
X80554819Y-84061905D01*
X80554819Y-84061905D02*
X80554819Y-84442857D01*
X80554819Y-84442857D02*
X80602438Y-84538095D01*
X80602438Y-84538095D02*
X80650057Y-84585714D01*
X80650057Y-84585714D02*
X80745295Y-84633333D01*
X80745295Y-84633333D02*
X80888152Y-84633333D01*
X80888152Y-84633333D02*
X80983390Y-84585714D01*
X80983390Y-84585714D02*
X81031009Y-84538095D01*
X81031009Y-84538095D02*
X81078628Y-84442857D01*
X81078628Y-84442857D02*
X81078628Y-84061905D01*
X80554819Y-85538095D02*
X80554819Y-85061905D01*
X80554819Y-85061905D02*
X81031009Y-85014286D01*
X81031009Y-85014286D02*
X80983390Y-85061905D01*
X80983390Y-85061905D02*
X80935771Y-85157143D01*
X80935771Y-85157143D02*
X80935771Y-85395238D01*
X80935771Y-85395238D02*
X80983390Y-85490476D01*
X80983390Y-85490476D02*
X81031009Y-85538095D01*
X81031009Y-85538095D02*
X81126247Y-85585714D01*
X81126247Y-85585714D02*
X81364342Y-85585714D01*
X81364342Y-85585714D02*
X81459580Y-85538095D01*
X81459580Y-85538095D02*
X81507200Y-85490476D01*
X81507200Y-85490476D02*
X81554819Y-85395238D01*
X81554819Y-85395238D02*
X81554819Y-85157143D01*
X81554819Y-85157143D02*
X81507200Y-85061905D01*
X81507200Y-85061905D02*
X81459580Y-85014286D01*
X137454820Y-73833333D02*
X136978629Y-73500000D01*
X137454820Y-73261905D02*
X136454820Y-73261905D01*
X136454820Y-73261905D02*
X136454820Y-73642857D01*
X136454820Y-73642857D02*
X136502439Y-73738095D01*
X136502439Y-73738095D02*
X136550058Y-73785714D01*
X136550058Y-73785714D02*
X136645296Y-73833333D01*
X136645296Y-73833333D02*
X136788153Y-73833333D01*
X136788153Y-73833333D02*
X136883391Y-73785714D01*
X136883391Y-73785714D02*
X136931010Y-73738095D01*
X136931010Y-73738095D02*
X136978629Y-73642857D01*
X136978629Y-73642857D02*
X136978629Y-73261905D01*
X137454820Y-74309524D02*
X137454820Y-74500000D01*
X137454820Y-74500000D02*
X137407201Y-74595238D01*
X137407201Y-74595238D02*
X137359581Y-74642857D01*
X137359581Y-74642857D02*
X137216724Y-74738095D01*
X137216724Y-74738095D02*
X137026248Y-74785714D01*
X137026248Y-74785714D02*
X136645296Y-74785714D01*
X136645296Y-74785714D02*
X136550058Y-74738095D01*
X136550058Y-74738095D02*
X136502439Y-74690476D01*
X136502439Y-74690476D02*
X136454820Y-74595238D01*
X136454820Y-74595238D02*
X136454820Y-74404762D01*
X136454820Y-74404762D02*
X136502439Y-74309524D01*
X136502439Y-74309524D02*
X136550058Y-74261905D01*
X136550058Y-74261905D02*
X136645296Y-74214286D01*
X136645296Y-74214286D02*
X136883391Y-74214286D01*
X136883391Y-74214286D02*
X136978629Y-74261905D01*
X136978629Y-74261905D02*
X137026248Y-74309524D01*
X137026248Y-74309524D02*
X137073867Y-74404762D01*
X137073867Y-74404762D02*
X137073867Y-74595238D01*
X137073867Y-74595238D02*
X137026248Y-74690476D01*
X137026248Y-74690476D02*
X136978629Y-74738095D01*
X136978629Y-74738095D02*
X136883391Y-74785714D01*
X101454819Y-80357142D02*
X100978628Y-80023809D01*
X101454819Y-79785714D02*
X100454819Y-79785714D01*
X100454819Y-79785714D02*
X100454819Y-80166666D01*
X100454819Y-80166666D02*
X100502438Y-80261904D01*
X100502438Y-80261904D02*
X100550057Y-80309523D01*
X100550057Y-80309523D02*
X100645295Y-80357142D01*
X100645295Y-80357142D02*
X100788152Y-80357142D01*
X100788152Y-80357142D02*
X100883390Y-80309523D01*
X100883390Y-80309523D02*
X100931009Y-80261904D01*
X100931009Y-80261904D02*
X100978628Y-80166666D01*
X100978628Y-80166666D02*
X100978628Y-79785714D01*
X100550057Y-80738095D02*
X100502438Y-80785714D01*
X100502438Y-80785714D02*
X100454819Y-80880952D01*
X100454819Y-80880952D02*
X100454819Y-81119047D01*
X100454819Y-81119047D02*
X100502438Y-81214285D01*
X100502438Y-81214285D02*
X100550057Y-81261904D01*
X100550057Y-81261904D02*
X100645295Y-81309523D01*
X100645295Y-81309523D02*
X100740533Y-81309523D01*
X100740533Y-81309523D02*
X100883390Y-81261904D01*
X100883390Y-81261904D02*
X101454819Y-80690476D01*
X101454819Y-80690476D02*
X101454819Y-81309523D01*
X101454819Y-82261904D02*
X101454819Y-81690476D01*
X101454819Y-81976190D02*
X100454819Y-81976190D01*
X100454819Y-81976190D02*
X100597676Y-81880952D01*
X100597676Y-81880952D02*
X100692914Y-81785714D01*
X100692914Y-81785714D02*
X100740533Y-81690476D01*
X137454820Y-69633333D02*
X136978629Y-69300000D01*
X137454820Y-69061905D02*
X136454820Y-69061905D01*
X136454820Y-69061905D02*
X136454820Y-69442857D01*
X136454820Y-69442857D02*
X136502439Y-69538095D01*
X136502439Y-69538095D02*
X136550058Y-69585714D01*
X136550058Y-69585714D02*
X136645296Y-69633333D01*
X136645296Y-69633333D02*
X136788153Y-69633333D01*
X136788153Y-69633333D02*
X136883391Y-69585714D01*
X136883391Y-69585714D02*
X136931010Y-69538095D01*
X136931010Y-69538095D02*
X136978629Y-69442857D01*
X136978629Y-69442857D02*
X136978629Y-69061905D01*
X136454820Y-70490476D02*
X136454820Y-70300000D01*
X136454820Y-70300000D02*
X136502439Y-70204762D01*
X136502439Y-70204762D02*
X136550058Y-70157143D01*
X136550058Y-70157143D02*
X136692915Y-70061905D01*
X136692915Y-70061905D02*
X136883391Y-70014286D01*
X136883391Y-70014286D02*
X137264343Y-70014286D01*
X137264343Y-70014286D02*
X137359581Y-70061905D01*
X137359581Y-70061905D02*
X137407201Y-70109524D01*
X137407201Y-70109524D02*
X137454820Y-70204762D01*
X137454820Y-70204762D02*
X137454820Y-70395238D01*
X137454820Y-70395238D02*
X137407201Y-70490476D01*
X137407201Y-70490476D02*
X137359581Y-70538095D01*
X137359581Y-70538095D02*
X137264343Y-70585714D01*
X137264343Y-70585714D02*
X137026248Y-70585714D01*
X137026248Y-70585714D02*
X136931010Y-70538095D01*
X136931010Y-70538095D02*
X136883391Y-70490476D01*
X136883391Y-70490476D02*
X136835772Y-70395238D01*
X136835772Y-70395238D02*
X136835772Y-70204762D01*
X136835772Y-70204762D02*
X136883391Y-70109524D01*
X136883391Y-70109524D02*
X136931010Y-70061905D01*
X136931010Y-70061905D02*
X137026248Y-70014286D01*
X192554819Y-80357142D02*
X192078628Y-80023809D01*
X192554819Y-79785714D02*
X191554819Y-79785714D01*
X191554819Y-79785714D02*
X191554819Y-80166666D01*
X191554819Y-80166666D02*
X191602438Y-80261904D01*
X191602438Y-80261904D02*
X191650057Y-80309523D01*
X191650057Y-80309523D02*
X191745295Y-80357142D01*
X191745295Y-80357142D02*
X191888152Y-80357142D01*
X191888152Y-80357142D02*
X191983390Y-80309523D01*
X191983390Y-80309523D02*
X192031009Y-80261904D01*
X192031009Y-80261904D02*
X192078628Y-80166666D01*
X192078628Y-80166666D02*
X192078628Y-79785714D01*
X191888152Y-81214285D02*
X192554819Y-81214285D01*
X191507200Y-80976190D02*
X192221485Y-80738095D01*
X192221485Y-80738095D02*
X192221485Y-81357142D01*
X191554819Y-81928571D02*
X191554819Y-82023809D01*
X191554819Y-82023809D02*
X191602438Y-82119047D01*
X191602438Y-82119047D02*
X191650057Y-82166666D01*
X191650057Y-82166666D02*
X191745295Y-82214285D01*
X191745295Y-82214285D02*
X191935771Y-82261904D01*
X191935771Y-82261904D02*
X192173866Y-82261904D01*
X192173866Y-82261904D02*
X192364342Y-82214285D01*
X192364342Y-82214285D02*
X192459580Y-82166666D01*
X192459580Y-82166666D02*
X192507200Y-82119047D01*
X192507200Y-82119047D02*
X192554819Y-82023809D01*
X192554819Y-82023809D02*
X192554819Y-81928571D01*
X192554819Y-81928571D02*
X192507200Y-81833333D01*
X192507200Y-81833333D02*
X192459580Y-81785714D01*
X192459580Y-81785714D02*
X192364342Y-81738095D01*
X192364342Y-81738095D02*
X192173866Y-81690476D01*
X192173866Y-81690476D02*
X191935771Y-81690476D01*
X191935771Y-81690476D02*
X191745295Y-81738095D01*
X191745295Y-81738095D02*
X191650057Y-81785714D01*
X191650057Y-81785714D02*
X191602438Y-81833333D01*
X191602438Y-81833333D02*
X191554819Y-81928571D01*
X201454819Y-80357142D02*
X200978628Y-80023809D01*
X201454819Y-79785714D02*
X200454819Y-79785714D01*
X200454819Y-79785714D02*
X200454819Y-80166666D01*
X200454819Y-80166666D02*
X200502438Y-80261904D01*
X200502438Y-80261904D02*
X200550057Y-80309523D01*
X200550057Y-80309523D02*
X200645295Y-80357142D01*
X200645295Y-80357142D02*
X200788152Y-80357142D01*
X200788152Y-80357142D02*
X200883390Y-80309523D01*
X200883390Y-80309523D02*
X200931009Y-80261904D01*
X200931009Y-80261904D02*
X200978628Y-80166666D01*
X200978628Y-80166666D02*
X200978628Y-79785714D01*
X200788152Y-81214285D02*
X201454819Y-81214285D01*
X200407200Y-80976190D02*
X201121485Y-80738095D01*
X201121485Y-80738095D02*
X201121485Y-81357142D01*
X201454819Y-82261904D02*
X201454819Y-81690476D01*
X201454819Y-81976190D02*
X200454819Y-81976190D01*
X200454819Y-81976190D02*
X200597676Y-81880952D01*
X200597676Y-81880952D02*
X200692914Y-81785714D01*
X200692914Y-81785714D02*
X200740533Y-81690476D01*
X149054819Y-84257142D02*
X148578628Y-83923809D01*
X149054819Y-83685714D02*
X148054819Y-83685714D01*
X148054819Y-83685714D02*
X148054819Y-84066666D01*
X148054819Y-84066666D02*
X148102438Y-84161904D01*
X148102438Y-84161904D02*
X148150057Y-84209523D01*
X148150057Y-84209523D02*
X148245295Y-84257142D01*
X148245295Y-84257142D02*
X148388152Y-84257142D01*
X148388152Y-84257142D02*
X148483390Y-84209523D01*
X148483390Y-84209523D02*
X148531009Y-84161904D01*
X148531009Y-84161904D02*
X148578628Y-84066666D01*
X148578628Y-84066666D02*
X148578628Y-83685714D01*
X148054819Y-84590476D02*
X148054819Y-85209523D01*
X148054819Y-85209523D02*
X148435771Y-84876190D01*
X148435771Y-84876190D02*
X148435771Y-85019047D01*
X148435771Y-85019047D02*
X148483390Y-85114285D01*
X148483390Y-85114285D02*
X148531009Y-85161904D01*
X148531009Y-85161904D02*
X148626247Y-85209523D01*
X148626247Y-85209523D02*
X148864342Y-85209523D01*
X148864342Y-85209523D02*
X148959580Y-85161904D01*
X148959580Y-85161904D02*
X149007200Y-85114285D01*
X149007200Y-85114285D02*
X149054819Y-85019047D01*
X149054819Y-85019047D02*
X149054819Y-84733333D01*
X149054819Y-84733333D02*
X149007200Y-84638095D01*
X149007200Y-84638095D02*
X148959580Y-84590476D01*
X148054819Y-86114285D02*
X148054819Y-85638095D01*
X148054819Y-85638095D02*
X148531009Y-85590476D01*
X148531009Y-85590476D02*
X148483390Y-85638095D01*
X148483390Y-85638095D02*
X148435771Y-85733333D01*
X148435771Y-85733333D02*
X148435771Y-85971428D01*
X148435771Y-85971428D02*
X148483390Y-86066666D01*
X148483390Y-86066666D02*
X148531009Y-86114285D01*
X148531009Y-86114285D02*
X148626247Y-86161904D01*
X148626247Y-86161904D02*
X148864342Y-86161904D01*
X148864342Y-86161904D02*
X148959580Y-86114285D01*
X148959580Y-86114285D02*
X149007200Y-86066666D01*
X149007200Y-86066666D02*
X149054819Y-85971428D01*
X149054819Y-85971428D02*
X149054819Y-85733333D01*
X149054819Y-85733333D02*
X149007200Y-85638095D01*
X149007200Y-85638095D02*
X148959580Y-85590476D01*
X180454819Y-80357142D02*
X179978628Y-80023809D01*
X180454819Y-79785714D02*
X179454819Y-79785714D01*
X179454819Y-79785714D02*
X179454819Y-80166666D01*
X179454819Y-80166666D02*
X179502438Y-80261904D01*
X179502438Y-80261904D02*
X179550057Y-80309523D01*
X179550057Y-80309523D02*
X179645295Y-80357142D01*
X179645295Y-80357142D02*
X179788152Y-80357142D01*
X179788152Y-80357142D02*
X179883390Y-80309523D01*
X179883390Y-80309523D02*
X179931009Y-80261904D01*
X179931009Y-80261904D02*
X179978628Y-80166666D01*
X179978628Y-80166666D02*
X179978628Y-79785714D01*
X179788152Y-81214285D02*
X180454819Y-81214285D01*
X179407200Y-80976190D02*
X180121485Y-80738095D01*
X180121485Y-80738095D02*
X180121485Y-81357142D01*
X180454819Y-81785714D02*
X180454819Y-81976190D01*
X180454819Y-81976190D02*
X180407200Y-82071428D01*
X180407200Y-82071428D02*
X180359580Y-82119047D01*
X180359580Y-82119047D02*
X180216723Y-82214285D01*
X180216723Y-82214285D02*
X180026247Y-82261904D01*
X180026247Y-82261904D02*
X179645295Y-82261904D01*
X179645295Y-82261904D02*
X179550057Y-82214285D01*
X179550057Y-82214285D02*
X179502438Y-82166666D01*
X179502438Y-82166666D02*
X179454819Y-82071428D01*
X179454819Y-82071428D02*
X179454819Y-81880952D01*
X179454819Y-81880952D02*
X179502438Y-81785714D01*
X179502438Y-81785714D02*
X179550057Y-81738095D01*
X179550057Y-81738095D02*
X179645295Y-81690476D01*
X179645295Y-81690476D02*
X179883390Y-81690476D01*
X179883390Y-81690476D02*
X179978628Y-81738095D01*
X179978628Y-81738095D02*
X180026247Y-81785714D01*
X180026247Y-81785714D02*
X180073866Y-81880952D01*
X180073866Y-81880952D02*
X180073866Y-82071428D01*
X180073866Y-82071428D02*
X180026247Y-82166666D01*
X180026247Y-82166666D02*
X179978628Y-82214285D01*
X179978628Y-82214285D02*
X179883390Y-82261904D01*
X152054819Y-84257142D02*
X151578628Y-83923809D01*
X152054819Y-83685714D02*
X151054819Y-83685714D01*
X151054819Y-83685714D02*
X151054819Y-84066666D01*
X151054819Y-84066666D02*
X151102438Y-84161904D01*
X151102438Y-84161904D02*
X151150057Y-84209523D01*
X151150057Y-84209523D02*
X151245295Y-84257142D01*
X151245295Y-84257142D02*
X151388152Y-84257142D01*
X151388152Y-84257142D02*
X151483390Y-84209523D01*
X151483390Y-84209523D02*
X151531009Y-84161904D01*
X151531009Y-84161904D02*
X151578628Y-84066666D01*
X151578628Y-84066666D02*
X151578628Y-83685714D01*
X151150057Y-84638095D02*
X151102438Y-84685714D01*
X151102438Y-84685714D02*
X151054819Y-84780952D01*
X151054819Y-84780952D02*
X151054819Y-85019047D01*
X151054819Y-85019047D02*
X151102438Y-85114285D01*
X151102438Y-85114285D02*
X151150057Y-85161904D01*
X151150057Y-85161904D02*
X151245295Y-85209523D01*
X151245295Y-85209523D02*
X151340533Y-85209523D01*
X151340533Y-85209523D02*
X151483390Y-85161904D01*
X151483390Y-85161904D02*
X152054819Y-84590476D01*
X152054819Y-84590476D02*
X152054819Y-85209523D01*
X151054819Y-86114285D02*
X151054819Y-85638095D01*
X151054819Y-85638095D02*
X151531009Y-85590476D01*
X151531009Y-85590476D02*
X151483390Y-85638095D01*
X151483390Y-85638095D02*
X151435771Y-85733333D01*
X151435771Y-85733333D02*
X151435771Y-85971428D01*
X151435771Y-85971428D02*
X151483390Y-86066666D01*
X151483390Y-86066666D02*
X151531009Y-86114285D01*
X151531009Y-86114285D02*
X151626247Y-86161904D01*
X151626247Y-86161904D02*
X151864342Y-86161904D01*
X151864342Y-86161904D02*
X151959580Y-86114285D01*
X151959580Y-86114285D02*
X152007200Y-86066666D01*
X152007200Y-86066666D02*
X152054819Y-85971428D01*
X152054819Y-85971428D02*
X152054819Y-85733333D01*
X152054819Y-85733333D02*
X152007200Y-85638095D01*
X152007200Y-85638095D02*
X151959580Y-85590476D01*
X210454819Y-80357142D02*
X209978628Y-80023809D01*
X210454819Y-79785714D02*
X209454819Y-79785714D01*
X209454819Y-79785714D02*
X209454819Y-80166666D01*
X209454819Y-80166666D02*
X209502438Y-80261904D01*
X209502438Y-80261904D02*
X209550057Y-80309523D01*
X209550057Y-80309523D02*
X209645295Y-80357142D01*
X209645295Y-80357142D02*
X209788152Y-80357142D01*
X209788152Y-80357142D02*
X209883390Y-80309523D01*
X209883390Y-80309523D02*
X209931009Y-80261904D01*
X209931009Y-80261904D02*
X209978628Y-80166666D01*
X209978628Y-80166666D02*
X209978628Y-79785714D01*
X209788152Y-81214285D02*
X210454819Y-81214285D01*
X209407200Y-80976190D02*
X210121485Y-80738095D01*
X210121485Y-80738095D02*
X210121485Y-81357142D01*
X209550057Y-81690476D02*
X209502438Y-81738095D01*
X209502438Y-81738095D02*
X209454819Y-81833333D01*
X209454819Y-81833333D02*
X209454819Y-82071428D01*
X209454819Y-82071428D02*
X209502438Y-82166666D01*
X209502438Y-82166666D02*
X209550057Y-82214285D01*
X209550057Y-82214285D02*
X209645295Y-82261904D01*
X209645295Y-82261904D02*
X209740533Y-82261904D01*
X209740533Y-82261904D02*
X209883390Y-82214285D01*
X209883390Y-82214285D02*
X210454819Y-81642857D01*
X210454819Y-81642857D02*
X210454819Y-82261904D01*
X174454819Y-80357142D02*
X173978628Y-80023809D01*
X174454819Y-79785714D02*
X173454819Y-79785714D01*
X173454819Y-79785714D02*
X173454819Y-80166666D01*
X173454819Y-80166666D02*
X173502438Y-80261904D01*
X173502438Y-80261904D02*
X173550057Y-80309523D01*
X173550057Y-80309523D02*
X173645295Y-80357142D01*
X173645295Y-80357142D02*
X173788152Y-80357142D01*
X173788152Y-80357142D02*
X173883390Y-80309523D01*
X173883390Y-80309523D02*
X173931009Y-80261904D01*
X173931009Y-80261904D02*
X173978628Y-80166666D01*
X173978628Y-80166666D02*
X173978628Y-79785714D01*
X173454819Y-80690476D02*
X173454819Y-81309523D01*
X173454819Y-81309523D02*
X173835771Y-80976190D01*
X173835771Y-80976190D02*
X173835771Y-81119047D01*
X173835771Y-81119047D02*
X173883390Y-81214285D01*
X173883390Y-81214285D02*
X173931009Y-81261904D01*
X173931009Y-81261904D02*
X174026247Y-81309523D01*
X174026247Y-81309523D02*
X174264342Y-81309523D01*
X174264342Y-81309523D02*
X174359580Y-81261904D01*
X174359580Y-81261904D02*
X174407200Y-81214285D01*
X174407200Y-81214285D02*
X174454819Y-81119047D01*
X174454819Y-81119047D02*
X174454819Y-80833333D01*
X174454819Y-80833333D02*
X174407200Y-80738095D01*
X174407200Y-80738095D02*
X174359580Y-80690476D01*
X173883390Y-81880952D02*
X173835771Y-81785714D01*
X173835771Y-81785714D02*
X173788152Y-81738095D01*
X173788152Y-81738095D02*
X173692914Y-81690476D01*
X173692914Y-81690476D02*
X173645295Y-81690476D01*
X173645295Y-81690476D02*
X173550057Y-81738095D01*
X173550057Y-81738095D02*
X173502438Y-81785714D01*
X173502438Y-81785714D02*
X173454819Y-81880952D01*
X173454819Y-81880952D02*
X173454819Y-82071428D01*
X173454819Y-82071428D02*
X173502438Y-82166666D01*
X173502438Y-82166666D02*
X173550057Y-82214285D01*
X173550057Y-82214285D02*
X173645295Y-82261904D01*
X173645295Y-82261904D02*
X173692914Y-82261904D01*
X173692914Y-82261904D02*
X173788152Y-82214285D01*
X173788152Y-82214285D02*
X173835771Y-82166666D01*
X173835771Y-82166666D02*
X173883390Y-82071428D01*
X173883390Y-82071428D02*
X173883390Y-81880952D01*
X173883390Y-81880952D02*
X173931009Y-81785714D01*
X173931009Y-81785714D02*
X173978628Y-81738095D01*
X173978628Y-81738095D02*
X174073866Y-81690476D01*
X174073866Y-81690476D02*
X174264342Y-81690476D01*
X174264342Y-81690476D02*
X174359580Y-81738095D01*
X174359580Y-81738095D02*
X174407200Y-81785714D01*
X174407200Y-81785714D02*
X174454819Y-81880952D01*
X174454819Y-81880952D02*
X174454819Y-82071428D01*
X174454819Y-82071428D02*
X174407200Y-82166666D01*
X174407200Y-82166666D02*
X174359580Y-82214285D01*
X174359580Y-82214285D02*
X174264342Y-82261904D01*
X174264342Y-82261904D02*
X174073866Y-82261904D01*
X174073866Y-82261904D02*
X173978628Y-82214285D01*
X173978628Y-82214285D02*
X173931009Y-82166666D01*
X173931009Y-82166666D02*
X173883390Y-82071428D01*
X135454819Y-80357142D02*
X134978628Y-80023809D01*
X135454819Y-79785714D02*
X134454819Y-79785714D01*
X134454819Y-79785714D02*
X134454819Y-80166666D01*
X134454819Y-80166666D02*
X134502438Y-80261904D01*
X134502438Y-80261904D02*
X134550057Y-80309523D01*
X134550057Y-80309523D02*
X134645295Y-80357142D01*
X134645295Y-80357142D02*
X134788152Y-80357142D01*
X134788152Y-80357142D02*
X134883390Y-80309523D01*
X134883390Y-80309523D02*
X134931009Y-80261904D01*
X134931009Y-80261904D02*
X134978628Y-80166666D01*
X134978628Y-80166666D02*
X134978628Y-79785714D01*
X134788152Y-81214285D02*
X135454819Y-81214285D01*
X134407200Y-80976190D02*
X135121485Y-80738095D01*
X135121485Y-80738095D02*
X135121485Y-81357142D01*
X134788152Y-82166666D02*
X135454819Y-82166666D01*
X134407200Y-81928571D02*
X135121485Y-81690476D01*
X135121485Y-81690476D02*
X135121485Y-82309523D01*
X207454819Y-80357142D02*
X206978628Y-80023809D01*
X207454819Y-79785714D02*
X206454819Y-79785714D01*
X206454819Y-79785714D02*
X206454819Y-80166666D01*
X206454819Y-80166666D02*
X206502438Y-80261904D01*
X206502438Y-80261904D02*
X206550057Y-80309523D01*
X206550057Y-80309523D02*
X206645295Y-80357142D01*
X206645295Y-80357142D02*
X206788152Y-80357142D01*
X206788152Y-80357142D02*
X206883390Y-80309523D01*
X206883390Y-80309523D02*
X206931009Y-80261904D01*
X206931009Y-80261904D02*
X206978628Y-80166666D01*
X206978628Y-80166666D02*
X206978628Y-79785714D01*
X206454819Y-81261904D02*
X206454819Y-80785714D01*
X206454819Y-80785714D02*
X206931009Y-80738095D01*
X206931009Y-80738095D02*
X206883390Y-80785714D01*
X206883390Y-80785714D02*
X206835771Y-80880952D01*
X206835771Y-80880952D02*
X206835771Y-81119047D01*
X206835771Y-81119047D02*
X206883390Y-81214285D01*
X206883390Y-81214285D02*
X206931009Y-81261904D01*
X206931009Y-81261904D02*
X207026247Y-81309523D01*
X207026247Y-81309523D02*
X207264342Y-81309523D01*
X207264342Y-81309523D02*
X207359580Y-81261904D01*
X207359580Y-81261904D02*
X207407200Y-81214285D01*
X207407200Y-81214285D02*
X207454819Y-81119047D01*
X207454819Y-81119047D02*
X207454819Y-80880952D01*
X207454819Y-80880952D02*
X207407200Y-80785714D01*
X207407200Y-80785714D02*
X207359580Y-80738095D01*
X206550057Y-81690476D02*
X206502438Y-81738095D01*
X206502438Y-81738095D02*
X206454819Y-81833333D01*
X206454819Y-81833333D02*
X206454819Y-82071428D01*
X206454819Y-82071428D02*
X206502438Y-82166666D01*
X206502438Y-82166666D02*
X206550057Y-82214285D01*
X206550057Y-82214285D02*
X206645295Y-82261904D01*
X206645295Y-82261904D02*
X206740533Y-82261904D01*
X206740533Y-82261904D02*
X206883390Y-82214285D01*
X206883390Y-82214285D02*
X207454819Y-81642857D01*
X207454819Y-81642857D02*
X207454819Y-82261904D01*
X88504819Y-84533333D02*
X88028628Y-84200000D01*
X88504819Y-83961905D02*
X87504819Y-83961905D01*
X87504819Y-83961905D02*
X87504819Y-84342857D01*
X87504819Y-84342857D02*
X87552438Y-84438095D01*
X87552438Y-84438095D02*
X87600057Y-84485714D01*
X87600057Y-84485714D02*
X87695295Y-84533333D01*
X87695295Y-84533333D02*
X87838152Y-84533333D01*
X87838152Y-84533333D02*
X87933390Y-84485714D01*
X87933390Y-84485714D02*
X87981009Y-84438095D01*
X87981009Y-84438095D02*
X88028628Y-84342857D01*
X88028628Y-84342857D02*
X88028628Y-83961905D01*
X87933390Y-85104762D02*
X87885771Y-85009524D01*
X87885771Y-85009524D02*
X87838152Y-84961905D01*
X87838152Y-84961905D02*
X87742914Y-84914286D01*
X87742914Y-84914286D02*
X87695295Y-84914286D01*
X87695295Y-84914286D02*
X87600057Y-84961905D01*
X87600057Y-84961905D02*
X87552438Y-85009524D01*
X87552438Y-85009524D02*
X87504819Y-85104762D01*
X87504819Y-85104762D02*
X87504819Y-85295238D01*
X87504819Y-85295238D02*
X87552438Y-85390476D01*
X87552438Y-85390476D02*
X87600057Y-85438095D01*
X87600057Y-85438095D02*
X87695295Y-85485714D01*
X87695295Y-85485714D02*
X87742914Y-85485714D01*
X87742914Y-85485714D02*
X87838152Y-85438095D01*
X87838152Y-85438095D02*
X87885771Y-85390476D01*
X87885771Y-85390476D02*
X87933390Y-85295238D01*
X87933390Y-85295238D02*
X87933390Y-85104762D01*
X87933390Y-85104762D02*
X87981009Y-85009524D01*
X87981009Y-85009524D02*
X88028628Y-84961905D01*
X88028628Y-84961905D02*
X88123866Y-84914286D01*
X88123866Y-84914286D02*
X88314342Y-84914286D01*
X88314342Y-84914286D02*
X88409580Y-84961905D01*
X88409580Y-84961905D02*
X88457200Y-85009524D01*
X88457200Y-85009524D02*
X88504819Y-85104762D01*
X88504819Y-85104762D02*
X88504819Y-85295238D01*
X88504819Y-85295238D02*
X88457200Y-85390476D01*
X88457200Y-85390476D02*
X88409580Y-85438095D01*
X88409580Y-85438095D02*
X88314342Y-85485714D01*
X88314342Y-85485714D02*
X88123866Y-85485714D01*
X88123866Y-85485714D02*
X88028628Y-85438095D01*
X88028628Y-85438095D02*
X87981009Y-85390476D01*
X87981009Y-85390476D02*
X87933390Y-85295238D01*
X126454819Y-80357142D02*
X125978628Y-80023809D01*
X126454819Y-79785714D02*
X125454819Y-79785714D01*
X125454819Y-79785714D02*
X125454819Y-80166666D01*
X125454819Y-80166666D02*
X125502438Y-80261904D01*
X125502438Y-80261904D02*
X125550057Y-80309523D01*
X125550057Y-80309523D02*
X125645295Y-80357142D01*
X125645295Y-80357142D02*
X125788152Y-80357142D01*
X125788152Y-80357142D02*
X125883390Y-80309523D01*
X125883390Y-80309523D02*
X125931009Y-80261904D01*
X125931009Y-80261904D02*
X125978628Y-80166666D01*
X125978628Y-80166666D02*
X125978628Y-79785714D01*
X125788152Y-81214285D02*
X126454819Y-81214285D01*
X125407200Y-80976190D02*
X126121485Y-80738095D01*
X126121485Y-80738095D02*
X126121485Y-81357142D01*
X125454819Y-81642857D02*
X125454819Y-82261904D01*
X125454819Y-82261904D02*
X125835771Y-81928571D01*
X125835771Y-81928571D02*
X125835771Y-82071428D01*
X125835771Y-82071428D02*
X125883390Y-82166666D01*
X125883390Y-82166666D02*
X125931009Y-82214285D01*
X125931009Y-82214285D02*
X126026247Y-82261904D01*
X126026247Y-82261904D02*
X126264342Y-82261904D01*
X126264342Y-82261904D02*
X126359580Y-82214285D01*
X126359580Y-82214285D02*
X126407200Y-82166666D01*
X126407200Y-82166666D02*
X126454819Y-82071428D01*
X126454819Y-82071428D02*
X126454819Y-81785714D01*
X126454819Y-81785714D02*
X126407200Y-81690476D01*
X126407200Y-81690476D02*
X126359580Y-81642857D01*
X116454819Y-80357142D02*
X115978628Y-80023809D01*
X116454819Y-79785714D02*
X115454819Y-79785714D01*
X115454819Y-79785714D02*
X115454819Y-80166666D01*
X115454819Y-80166666D02*
X115502438Y-80261904D01*
X115502438Y-80261904D02*
X115550057Y-80309523D01*
X115550057Y-80309523D02*
X115645295Y-80357142D01*
X115645295Y-80357142D02*
X115788152Y-80357142D01*
X115788152Y-80357142D02*
X115883390Y-80309523D01*
X115883390Y-80309523D02*
X115931009Y-80261904D01*
X115931009Y-80261904D02*
X115978628Y-80166666D01*
X115978628Y-80166666D02*
X115978628Y-79785714D01*
X116454819Y-81309523D02*
X116454819Y-80738095D01*
X116454819Y-81023809D02*
X115454819Y-81023809D01*
X115454819Y-81023809D02*
X115597676Y-80928571D01*
X115597676Y-80928571D02*
X115692914Y-80833333D01*
X115692914Y-80833333D02*
X115740533Y-80738095D01*
X116454819Y-81785714D02*
X116454819Y-81976190D01*
X116454819Y-81976190D02*
X116407200Y-82071428D01*
X116407200Y-82071428D02*
X116359580Y-82119047D01*
X116359580Y-82119047D02*
X116216723Y-82214285D01*
X116216723Y-82214285D02*
X116026247Y-82261904D01*
X116026247Y-82261904D02*
X115645295Y-82261904D01*
X115645295Y-82261904D02*
X115550057Y-82214285D01*
X115550057Y-82214285D02*
X115502438Y-82166666D01*
X115502438Y-82166666D02*
X115454819Y-82071428D01*
X115454819Y-82071428D02*
X115454819Y-81880952D01*
X115454819Y-81880952D02*
X115502438Y-81785714D01*
X115502438Y-81785714D02*
X115550057Y-81738095D01*
X115550057Y-81738095D02*
X115645295Y-81690476D01*
X115645295Y-81690476D02*
X115883390Y-81690476D01*
X115883390Y-81690476D02*
X115978628Y-81738095D01*
X115978628Y-81738095D02*
X116026247Y-81785714D01*
X116026247Y-81785714D02*
X116073866Y-81880952D01*
X116073866Y-81880952D02*
X116073866Y-82071428D01*
X116073866Y-82071428D02*
X116026247Y-82166666D01*
X116026247Y-82166666D02*
X115978628Y-82214285D01*
X115978628Y-82214285D02*
X115883390Y-82261904D01*
X143054819Y-84257142D02*
X142578628Y-83923809D01*
X143054819Y-83685714D02*
X142054819Y-83685714D01*
X142054819Y-83685714D02*
X142054819Y-84066666D01*
X142054819Y-84066666D02*
X142102438Y-84161904D01*
X142102438Y-84161904D02*
X142150057Y-84209523D01*
X142150057Y-84209523D02*
X142245295Y-84257142D01*
X142245295Y-84257142D02*
X142388152Y-84257142D01*
X142388152Y-84257142D02*
X142483390Y-84209523D01*
X142483390Y-84209523D02*
X142531009Y-84161904D01*
X142531009Y-84161904D02*
X142578628Y-84066666D01*
X142578628Y-84066666D02*
X142578628Y-83685714D01*
X142150057Y-84638095D02*
X142102438Y-84685714D01*
X142102438Y-84685714D02*
X142054819Y-84780952D01*
X142054819Y-84780952D02*
X142054819Y-85019047D01*
X142054819Y-85019047D02*
X142102438Y-85114285D01*
X142102438Y-85114285D02*
X142150057Y-85161904D01*
X142150057Y-85161904D02*
X142245295Y-85209523D01*
X142245295Y-85209523D02*
X142340533Y-85209523D01*
X142340533Y-85209523D02*
X142483390Y-85161904D01*
X142483390Y-85161904D02*
X143054819Y-84590476D01*
X143054819Y-84590476D02*
X143054819Y-85209523D01*
X142388152Y-86066666D02*
X143054819Y-86066666D01*
X142007200Y-85828571D02*
X142721485Y-85590476D01*
X142721485Y-85590476D02*
X142721485Y-86209523D01*
X168454819Y-80357142D02*
X167978628Y-80023809D01*
X168454819Y-79785714D02*
X167454819Y-79785714D01*
X167454819Y-79785714D02*
X167454819Y-80166666D01*
X167454819Y-80166666D02*
X167502438Y-80261904D01*
X167502438Y-80261904D02*
X167550057Y-80309523D01*
X167550057Y-80309523D02*
X167645295Y-80357142D01*
X167645295Y-80357142D02*
X167788152Y-80357142D01*
X167788152Y-80357142D02*
X167883390Y-80309523D01*
X167883390Y-80309523D02*
X167931009Y-80261904D01*
X167931009Y-80261904D02*
X167978628Y-80166666D01*
X167978628Y-80166666D02*
X167978628Y-79785714D01*
X167550057Y-80738095D02*
X167502438Y-80785714D01*
X167502438Y-80785714D02*
X167454819Y-80880952D01*
X167454819Y-80880952D02*
X167454819Y-81119047D01*
X167454819Y-81119047D02*
X167502438Y-81214285D01*
X167502438Y-81214285D02*
X167550057Y-81261904D01*
X167550057Y-81261904D02*
X167645295Y-81309523D01*
X167645295Y-81309523D02*
X167740533Y-81309523D01*
X167740533Y-81309523D02*
X167883390Y-81261904D01*
X167883390Y-81261904D02*
X168454819Y-80690476D01*
X168454819Y-80690476D02*
X168454819Y-81309523D01*
X167454819Y-81642857D02*
X167454819Y-82309523D01*
X167454819Y-82309523D02*
X168454819Y-81880952D01*
X92454819Y-80357142D02*
X91978628Y-80023809D01*
X92454819Y-79785714D02*
X91454819Y-79785714D01*
X91454819Y-79785714D02*
X91454819Y-80166666D01*
X91454819Y-80166666D02*
X91502438Y-80261904D01*
X91502438Y-80261904D02*
X91550057Y-80309523D01*
X91550057Y-80309523D02*
X91645295Y-80357142D01*
X91645295Y-80357142D02*
X91788152Y-80357142D01*
X91788152Y-80357142D02*
X91883390Y-80309523D01*
X91883390Y-80309523D02*
X91931009Y-80261904D01*
X91931009Y-80261904D02*
X91978628Y-80166666D01*
X91978628Y-80166666D02*
X91978628Y-79785714D01*
X91550057Y-80738095D02*
X91502438Y-80785714D01*
X91502438Y-80785714D02*
X91454819Y-80880952D01*
X91454819Y-80880952D02*
X91454819Y-81119047D01*
X91454819Y-81119047D02*
X91502438Y-81214285D01*
X91502438Y-81214285D02*
X91550057Y-81261904D01*
X91550057Y-81261904D02*
X91645295Y-81309523D01*
X91645295Y-81309523D02*
X91740533Y-81309523D01*
X91740533Y-81309523D02*
X91883390Y-81261904D01*
X91883390Y-81261904D02*
X92454819Y-80690476D01*
X92454819Y-80690476D02*
X92454819Y-81309523D01*
X91454819Y-81928571D02*
X91454819Y-82023809D01*
X91454819Y-82023809D02*
X91502438Y-82119047D01*
X91502438Y-82119047D02*
X91550057Y-82166666D01*
X91550057Y-82166666D02*
X91645295Y-82214285D01*
X91645295Y-82214285D02*
X91835771Y-82261904D01*
X91835771Y-82261904D02*
X92073866Y-82261904D01*
X92073866Y-82261904D02*
X92264342Y-82214285D01*
X92264342Y-82214285D02*
X92359580Y-82166666D01*
X92359580Y-82166666D02*
X92407200Y-82119047D01*
X92407200Y-82119047D02*
X92454819Y-82023809D01*
X92454819Y-82023809D02*
X92454819Y-81928571D01*
X92454819Y-81928571D02*
X92407200Y-81833333D01*
X92407200Y-81833333D02*
X92359580Y-81785714D01*
X92359580Y-81785714D02*
X92264342Y-81738095D01*
X92264342Y-81738095D02*
X92073866Y-81690476D01*
X92073866Y-81690476D02*
X91835771Y-81690476D01*
X91835771Y-81690476D02*
X91645295Y-81738095D01*
X91645295Y-81738095D02*
X91550057Y-81785714D01*
X91550057Y-81785714D02*
X91502438Y-81833333D01*
X91502438Y-81833333D02*
X91454819Y-81928571D01*
X119454819Y-80357142D02*
X118978628Y-80023809D01*
X119454819Y-79785714D02*
X118454819Y-79785714D01*
X118454819Y-79785714D02*
X118454819Y-80166666D01*
X118454819Y-80166666D02*
X118502438Y-80261904D01*
X118502438Y-80261904D02*
X118550057Y-80309523D01*
X118550057Y-80309523D02*
X118645295Y-80357142D01*
X118645295Y-80357142D02*
X118788152Y-80357142D01*
X118788152Y-80357142D02*
X118883390Y-80309523D01*
X118883390Y-80309523D02*
X118931009Y-80261904D01*
X118931009Y-80261904D02*
X118978628Y-80166666D01*
X118978628Y-80166666D02*
X118978628Y-79785714D01*
X119454819Y-81309523D02*
X119454819Y-80738095D01*
X119454819Y-81023809D02*
X118454819Y-81023809D01*
X118454819Y-81023809D02*
X118597676Y-80928571D01*
X118597676Y-80928571D02*
X118692914Y-80833333D01*
X118692914Y-80833333D02*
X118740533Y-80738095D01*
X118454819Y-82166666D02*
X118454819Y-81976190D01*
X118454819Y-81976190D02*
X118502438Y-81880952D01*
X118502438Y-81880952D02*
X118550057Y-81833333D01*
X118550057Y-81833333D02*
X118692914Y-81738095D01*
X118692914Y-81738095D02*
X118883390Y-81690476D01*
X118883390Y-81690476D02*
X119264342Y-81690476D01*
X119264342Y-81690476D02*
X119359580Y-81738095D01*
X119359580Y-81738095D02*
X119407200Y-81785714D01*
X119407200Y-81785714D02*
X119454819Y-81880952D01*
X119454819Y-81880952D02*
X119454819Y-82071428D01*
X119454819Y-82071428D02*
X119407200Y-82166666D01*
X119407200Y-82166666D02*
X119359580Y-82214285D01*
X119359580Y-82214285D02*
X119264342Y-82261904D01*
X119264342Y-82261904D02*
X119026247Y-82261904D01*
X119026247Y-82261904D02*
X118931009Y-82214285D01*
X118931009Y-82214285D02*
X118883390Y-82166666D01*
X118883390Y-82166666D02*
X118835771Y-82071428D01*
X118835771Y-82071428D02*
X118835771Y-81880952D01*
X118835771Y-81880952D02*
X118883390Y-81785714D01*
X118883390Y-81785714D02*
X118931009Y-81738095D01*
X118931009Y-81738095D02*
X119026247Y-81690476D01*
X195454819Y-80357142D02*
X194978628Y-80023809D01*
X195454819Y-79785714D02*
X194454819Y-79785714D01*
X194454819Y-79785714D02*
X194454819Y-80166666D01*
X194454819Y-80166666D02*
X194502438Y-80261904D01*
X194502438Y-80261904D02*
X194550057Y-80309523D01*
X194550057Y-80309523D02*
X194645295Y-80357142D01*
X194645295Y-80357142D02*
X194788152Y-80357142D01*
X194788152Y-80357142D02*
X194883390Y-80309523D01*
X194883390Y-80309523D02*
X194931009Y-80261904D01*
X194931009Y-80261904D02*
X194978628Y-80166666D01*
X194978628Y-80166666D02*
X194978628Y-79785714D01*
X194454819Y-80690476D02*
X194454819Y-81309523D01*
X194454819Y-81309523D02*
X194835771Y-80976190D01*
X194835771Y-80976190D02*
X194835771Y-81119047D01*
X194835771Y-81119047D02*
X194883390Y-81214285D01*
X194883390Y-81214285D02*
X194931009Y-81261904D01*
X194931009Y-81261904D02*
X195026247Y-81309523D01*
X195026247Y-81309523D02*
X195264342Y-81309523D01*
X195264342Y-81309523D02*
X195359580Y-81261904D01*
X195359580Y-81261904D02*
X195407200Y-81214285D01*
X195407200Y-81214285D02*
X195454819Y-81119047D01*
X195454819Y-81119047D02*
X195454819Y-80833333D01*
X195454819Y-80833333D02*
X195407200Y-80738095D01*
X195407200Y-80738095D02*
X195359580Y-80690476D01*
X194454819Y-81928571D02*
X194454819Y-82023809D01*
X194454819Y-82023809D02*
X194502438Y-82119047D01*
X194502438Y-82119047D02*
X194550057Y-82166666D01*
X194550057Y-82166666D02*
X194645295Y-82214285D01*
X194645295Y-82214285D02*
X194835771Y-82261904D01*
X194835771Y-82261904D02*
X195073866Y-82261904D01*
X195073866Y-82261904D02*
X195264342Y-82214285D01*
X195264342Y-82214285D02*
X195359580Y-82166666D01*
X195359580Y-82166666D02*
X195407200Y-82119047D01*
X195407200Y-82119047D02*
X195454819Y-82023809D01*
X195454819Y-82023809D02*
X195454819Y-81928571D01*
X195454819Y-81928571D02*
X195407200Y-81833333D01*
X195407200Y-81833333D02*
X195359580Y-81785714D01*
X195359580Y-81785714D02*
X195264342Y-81738095D01*
X195264342Y-81738095D02*
X195073866Y-81690476D01*
X195073866Y-81690476D02*
X194835771Y-81690476D01*
X194835771Y-81690476D02*
X194645295Y-81738095D01*
X194645295Y-81738095D02*
X194550057Y-81785714D01*
X194550057Y-81785714D02*
X194502438Y-81833333D01*
X194502438Y-81833333D02*
X194454819Y-81928571D01*
X107454819Y-80357142D02*
X106978628Y-80023809D01*
X107454819Y-79785714D02*
X106454819Y-79785714D01*
X106454819Y-79785714D02*
X106454819Y-80166666D01*
X106454819Y-80166666D02*
X106502438Y-80261904D01*
X106502438Y-80261904D02*
X106550057Y-80309523D01*
X106550057Y-80309523D02*
X106645295Y-80357142D01*
X106645295Y-80357142D02*
X106788152Y-80357142D01*
X106788152Y-80357142D02*
X106883390Y-80309523D01*
X106883390Y-80309523D02*
X106931009Y-80261904D01*
X106931009Y-80261904D02*
X106978628Y-80166666D01*
X106978628Y-80166666D02*
X106978628Y-79785714D01*
X107454819Y-81309523D02*
X107454819Y-80738095D01*
X107454819Y-81023809D02*
X106454819Y-81023809D01*
X106454819Y-81023809D02*
X106597676Y-80928571D01*
X106597676Y-80928571D02*
X106692914Y-80833333D01*
X106692914Y-80833333D02*
X106740533Y-80738095D01*
X106454819Y-82214285D02*
X106454819Y-81738095D01*
X106454819Y-81738095D02*
X106931009Y-81690476D01*
X106931009Y-81690476D02*
X106883390Y-81738095D01*
X106883390Y-81738095D02*
X106835771Y-81833333D01*
X106835771Y-81833333D02*
X106835771Y-82071428D01*
X106835771Y-82071428D02*
X106883390Y-82166666D01*
X106883390Y-82166666D02*
X106931009Y-82214285D01*
X106931009Y-82214285D02*
X107026247Y-82261904D01*
X107026247Y-82261904D02*
X107264342Y-82261904D01*
X107264342Y-82261904D02*
X107359580Y-82214285D01*
X107359580Y-82214285D02*
X107407200Y-82166666D01*
X107407200Y-82166666D02*
X107454819Y-82071428D01*
X107454819Y-82071428D02*
X107454819Y-81833333D01*
X107454819Y-81833333D02*
X107407200Y-81738095D01*
X107407200Y-81738095D02*
X107359580Y-81690476D01*
X98454819Y-80357142D02*
X97978628Y-80023809D01*
X98454819Y-79785714D02*
X97454819Y-79785714D01*
X97454819Y-79785714D02*
X97454819Y-80166666D01*
X97454819Y-80166666D02*
X97502438Y-80261904D01*
X97502438Y-80261904D02*
X97550057Y-80309523D01*
X97550057Y-80309523D02*
X97645295Y-80357142D01*
X97645295Y-80357142D02*
X97788152Y-80357142D01*
X97788152Y-80357142D02*
X97883390Y-80309523D01*
X97883390Y-80309523D02*
X97931009Y-80261904D01*
X97931009Y-80261904D02*
X97978628Y-80166666D01*
X97978628Y-80166666D02*
X97978628Y-79785714D01*
X98454819Y-81309523D02*
X98454819Y-80738095D01*
X98454819Y-81023809D02*
X97454819Y-81023809D01*
X97454819Y-81023809D02*
X97597676Y-80928571D01*
X97597676Y-80928571D02*
X97692914Y-80833333D01*
X97692914Y-80833333D02*
X97740533Y-80738095D01*
X97788152Y-82166666D02*
X98454819Y-82166666D01*
X97407200Y-81928571D02*
X98121485Y-81690476D01*
X98121485Y-81690476D02*
X98121485Y-82309523D01*
X204454819Y-80357142D02*
X203978628Y-80023809D01*
X204454819Y-79785714D02*
X203454819Y-79785714D01*
X203454819Y-79785714D02*
X203454819Y-80166666D01*
X203454819Y-80166666D02*
X203502438Y-80261904D01*
X203502438Y-80261904D02*
X203550057Y-80309523D01*
X203550057Y-80309523D02*
X203645295Y-80357142D01*
X203645295Y-80357142D02*
X203788152Y-80357142D01*
X203788152Y-80357142D02*
X203883390Y-80309523D01*
X203883390Y-80309523D02*
X203931009Y-80261904D01*
X203931009Y-80261904D02*
X203978628Y-80166666D01*
X203978628Y-80166666D02*
X203978628Y-79785714D01*
X203454819Y-80690476D02*
X203454819Y-81309523D01*
X203454819Y-81309523D02*
X203835771Y-80976190D01*
X203835771Y-80976190D02*
X203835771Y-81119047D01*
X203835771Y-81119047D02*
X203883390Y-81214285D01*
X203883390Y-81214285D02*
X203931009Y-81261904D01*
X203931009Y-81261904D02*
X204026247Y-81309523D01*
X204026247Y-81309523D02*
X204264342Y-81309523D01*
X204264342Y-81309523D02*
X204359580Y-81261904D01*
X204359580Y-81261904D02*
X204407200Y-81214285D01*
X204407200Y-81214285D02*
X204454819Y-81119047D01*
X204454819Y-81119047D02*
X204454819Y-80833333D01*
X204454819Y-80833333D02*
X204407200Y-80738095D01*
X204407200Y-80738095D02*
X204359580Y-80690476D01*
X204454819Y-82261904D02*
X204454819Y-81690476D01*
X204454819Y-81976190D02*
X203454819Y-81976190D01*
X203454819Y-81976190D02*
X203597676Y-81880952D01*
X203597676Y-81880952D02*
X203692914Y-81785714D01*
X203692914Y-81785714D02*
X203740533Y-81690476D01*
X129454819Y-80357142D02*
X128978628Y-80023809D01*
X129454819Y-79785714D02*
X128454819Y-79785714D01*
X128454819Y-79785714D02*
X128454819Y-80166666D01*
X128454819Y-80166666D02*
X128502438Y-80261904D01*
X128502438Y-80261904D02*
X128550057Y-80309523D01*
X128550057Y-80309523D02*
X128645295Y-80357142D01*
X128645295Y-80357142D02*
X128788152Y-80357142D01*
X128788152Y-80357142D02*
X128883390Y-80309523D01*
X128883390Y-80309523D02*
X128931009Y-80261904D01*
X128931009Y-80261904D02*
X128978628Y-80166666D01*
X128978628Y-80166666D02*
X128978628Y-79785714D01*
X128454819Y-80690476D02*
X128454819Y-81309523D01*
X128454819Y-81309523D02*
X128835771Y-80976190D01*
X128835771Y-80976190D02*
X128835771Y-81119047D01*
X128835771Y-81119047D02*
X128883390Y-81214285D01*
X128883390Y-81214285D02*
X128931009Y-81261904D01*
X128931009Y-81261904D02*
X129026247Y-81309523D01*
X129026247Y-81309523D02*
X129264342Y-81309523D01*
X129264342Y-81309523D02*
X129359580Y-81261904D01*
X129359580Y-81261904D02*
X129407200Y-81214285D01*
X129407200Y-81214285D02*
X129454819Y-81119047D01*
X129454819Y-81119047D02*
X129454819Y-80833333D01*
X129454819Y-80833333D02*
X129407200Y-80738095D01*
X129407200Y-80738095D02*
X129359580Y-80690476D01*
X128454819Y-81642857D02*
X128454819Y-82261904D01*
X128454819Y-82261904D02*
X128835771Y-81928571D01*
X128835771Y-81928571D02*
X128835771Y-82071428D01*
X128835771Y-82071428D02*
X128883390Y-82166666D01*
X128883390Y-82166666D02*
X128931009Y-82214285D01*
X128931009Y-82214285D02*
X129026247Y-82261904D01*
X129026247Y-82261904D02*
X129264342Y-82261904D01*
X129264342Y-82261904D02*
X129359580Y-82214285D01*
X129359580Y-82214285D02*
X129407200Y-82166666D01*
X129407200Y-82166666D02*
X129454819Y-82071428D01*
X129454819Y-82071428D02*
X129454819Y-81785714D01*
X129454819Y-81785714D02*
X129407200Y-81690476D01*
X129407200Y-81690476D02*
X129359580Y-81642857D01*
X183454819Y-80357142D02*
X182978628Y-80023809D01*
X183454819Y-79785714D02*
X182454819Y-79785714D01*
X182454819Y-79785714D02*
X182454819Y-80166666D01*
X182454819Y-80166666D02*
X182502438Y-80261904D01*
X182502438Y-80261904D02*
X182550057Y-80309523D01*
X182550057Y-80309523D02*
X182645295Y-80357142D01*
X182645295Y-80357142D02*
X182788152Y-80357142D01*
X182788152Y-80357142D02*
X182883390Y-80309523D01*
X182883390Y-80309523D02*
X182931009Y-80261904D01*
X182931009Y-80261904D02*
X182978628Y-80166666D01*
X182978628Y-80166666D02*
X182978628Y-79785714D01*
X182454819Y-80690476D02*
X182454819Y-81309523D01*
X182454819Y-81309523D02*
X182835771Y-80976190D01*
X182835771Y-80976190D02*
X182835771Y-81119047D01*
X182835771Y-81119047D02*
X182883390Y-81214285D01*
X182883390Y-81214285D02*
X182931009Y-81261904D01*
X182931009Y-81261904D02*
X183026247Y-81309523D01*
X183026247Y-81309523D02*
X183264342Y-81309523D01*
X183264342Y-81309523D02*
X183359580Y-81261904D01*
X183359580Y-81261904D02*
X183407200Y-81214285D01*
X183407200Y-81214285D02*
X183454819Y-81119047D01*
X183454819Y-81119047D02*
X183454819Y-80833333D01*
X183454819Y-80833333D02*
X183407200Y-80738095D01*
X183407200Y-80738095D02*
X183359580Y-80690476D01*
X183454819Y-81785714D02*
X183454819Y-81976190D01*
X183454819Y-81976190D02*
X183407200Y-82071428D01*
X183407200Y-82071428D02*
X183359580Y-82119047D01*
X183359580Y-82119047D02*
X183216723Y-82214285D01*
X183216723Y-82214285D02*
X183026247Y-82261904D01*
X183026247Y-82261904D02*
X182645295Y-82261904D01*
X182645295Y-82261904D02*
X182550057Y-82214285D01*
X182550057Y-82214285D02*
X182502438Y-82166666D01*
X182502438Y-82166666D02*
X182454819Y-82071428D01*
X182454819Y-82071428D02*
X182454819Y-81880952D01*
X182454819Y-81880952D02*
X182502438Y-81785714D01*
X182502438Y-81785714D02*
X182550057Y-81738095D01*
X182550057Y-81738095D02*
X182645295Y-81690476D01*
X182645295Y-81690476D02*
X182883390Y-81690476D01*
X182883390Y-81690476D02*
X182978628Y-81738095D01*
X182978628Y-81738095D02*
X183026247Y-81785714D01*
X183026247Y-81785714D02*
X183073866Y-81880952D01*
X183073866Y-81880952D02*
X183073866Y-82071428D01*
X183073866Y-82071428D02*
X183026247Y-82166666D01*
X183026247Y-82166666D02*
X182978628Y-82214285D01*
X182978628Y-82214285D02*
X182883390Y-82261904D01*
X146054819Y-84257142D02*
X145578628Y-83923809D01*
X146054819Y-83685714D02*
X145054819Y-83685714D01*
X145054819Y-83685714D02*
X145054819Y-84066666D01*
X145054819Y-84066666D02*
X145102438Y-84161904D01*
X145102438Y-84161904D02*
X145150057Y-84209523D01*
X145150057Y-84209523D02*
X145245295Y-84257142D01*
X145245295Y-84257142D02*
X145388152Y-84257142D01*
X145388152Y-84257142D02*
X145483390Y-84209523D01*
X145483390Y-84209523D02*
X145531009Y-84161904D01*
X145531009Y-84161904D02*
X145578628Y-84066666D01*
X145578628Y-84066666D02*
X145578628Y-83685714D01*
X145388152Y-85114285D02*
X146054819Y-85114285D01*
X145007200Y-84876190D02*
X145721485Y-84638095D01*
X145721485Y-84638095D02*
X145721485Y-85257142D01*
X145054819Y-86114285D02*
X145054819Y-85638095D01*
X145054819Y-85638095D02*
X145531009Y-85590476D01*
X145531009Y-85590476D02*
X145483390Y-85638095D01*
X145483390Y-85638095D02*
X145435771Y-85733333D01*
X145435771Y-85733333D02*
X145435771Y-85971428D01*
X145435771Y-85971428D02*
X145483390Y-86066666D01*
X145483390Y-86066666D02*
X145531009Y-86114285D01*
X145531009Y-86114285D02*
X145626247Y-86161904D01*
X145626247Y-86161904D02*
X145864342Y-86161904D01*
X145864342Y-86161904D02*
X145959580Y-86114285D01*
X145959580Y-86114285D02*
X146007200Y-86066666D01*
X146007200Y-86066666D02*
X146054819Y-85971428D01*
X146054819Y-85971428D02*
X146054819Y-85733333D01*
X146054819Y-85733333D02*
X146007200Y-85638095D01*
X146007200Y-85638095D02*
X145959580Y-85590476D01*
X189454819Y-80357142D02*
X188978628Y-80023809D01*
X189454819Y-79785714D02*
X188454819Y-79785714D01*
X188454819Y-79785714D02*
X188454819Y-80166666D01*
X188454819Y-80166666D02*
X188502438Y-80261904D01*
X188502438Y-80261904D02*
X188550057Y-80309523D01*
X188550057Y-80309523D02*
X188645295Y-80357142D01*
X188645295Y-80357142D02*
X188788152Y-80357142D01*
X188788152Y-80357142D02*
X188883390Y-80309523D01*
X188883390Y-80309523D02*
X188931009Y-80261904D01*
X188931009Y-80261904D02*
X188978628Y-80166666D01*
X188978628Y-80166666D02*
X188978628Y-79785714D01*
X188454819Y-81261904D02*
X188454819Y-80785714D01*
X188454819Y-80785714D02*
X188931009Y-80738095D01*
X188931009Y-80738095D02*
X188883390Y-80785714D01*
X188883390Y-80785714D02*
X188835771Y-80880952D01*
X188835771Y-80880952D02*
X188835771Y-81119047D01*
X188835771Y-81119047D02*
X188883390Y-81214285D01*
X188883390Y-81214285D02*
X188931009Y-81261904D01*
X188931009Y-81261904D02*
X189026247Y-81309523D01*
X189026247Y-81309523D02*
X189264342Y-81309523D01*
X189264342Y-81309523D02*
X189359580Y-81261904D01*
X189359580Y-81261904D02*
X189407200Y-81214285D01*
X189407200Y-81214285D02*
X189454819Y-81119047D01*
X189454819Y-81119047D02*
X189454819Y-80880952D01*
X189454819Y-80880952D02*
X189407200Y-80785714D01*
X189407200Y-80785714D02*
X189359580Y-80738095D01*
X188454819Y-81928571D02*
X188454819Y-82023809D01*
X188454819Y-82023809D02*
X188502438Y-82119047D01*
X188502438Y-82119047D02*
X188550057Y-82166666D01*
X188550057Y-82166666D02*
X188645295Y-82214285D01*
X188645295Y-82214285D02*
X188835771Y-82261904D01*
X188835771Y-82261904D02*
X189073866Y-82261904D01*
X189073866Y-82261904D02*
X189264342Y-82214285D01*
X189264342Y-82214285D02*
X189359580Y-82166666D01*
X189359580Y-82166666D02*
X189407200Y-82119047D01*
X189407200Y-82119047D02*
X189454819Y-82023809D01*
X189454819Y-82023809D02*
X189454819Y-81928571D01*
X189454819Y-81928571D02*
X189407200Y-81833333D01*
X189407200Y-81833333D02*
X189359580Y-81785714D01*
X189359580Y-81785714D02*
X189264342Y-81738095D01*
X189264342Y-81738095D02*
X189073866Y-81690476D01*
X189073866Y-81690476D02*
X188835771Y-81690476D01*
X188835771Y-81690476D02*
X188645295Y-81738095D01*
X188645295Y-81738095D02*
X188550057Y-81785714D01*
X188550057Y-81785714D02*
X188502438Y-81833333D01*
X188502438Y-81833333D02*
X188454819Y-81928571D01*
X186454819Y-80357142D02*
X185978628Y-80023809D01*
X186454819Y-79785714D02*
X185454819Y-79785714D01*
X185454819Y-79785714D02*
X185454819Y-80166666D01*
X185454819Y-80166666D02*
X185502438Y-80261904D01*
X185502438Y-80261904D02*
X185550057Y-80309523D01*
X185550057Y-80309523D02*
X185645295Y-80357142D01*
X185645295Y-80357142D02*
X185788152Y-80357142D01*
X185788152Y-80357142D02*
X185883390Y-80309523D01*
X185883390Y-80309523D02*
X185931009Y-80261904D01*
X185931009Y-80261904D02*
X185978628Y-80166666D01*
X185978628Y-80166666D02*
X185978628Y-79785714D01*
X185550057Y-80738095D02*
X185502438Y-80785714D01*
X185502438Y-80785714D02*
X185454819Y-80880952D01*
X185454819Y-80880952D02*
X185454819Y-81119047D01*
X185454819Y-81119047D02*
X185502438Y-81214285D01*
X185502438Y-81214285D02*
X185550057Y-81261904D01*
X185550057Y-81261904D02*
X185645295Y-81309523D01*
X185645295Y-81309523D02*
X185740533Y-81309523D01*
X185740533Y-81309523D02*
X185883390Y-81261904D01*
X185883390Y-81261904D02*
X186454819Y-80690476D01*
X186454819Y-80690476D02*
X186454819Y-81309523D01*
X186454819Y-81785714D02*
X186454819Y-81976190D01*
X186454819Y-81976190D02*
X186407200Y-82071428D01*
X186407200Y-82071428D02*
X186359580Y-82119047D01*
X186359580Y-82119047D02*
X186216723Y-82214285D01*
X186216723Y-82214285D02*
X186026247Y-82261904D01*
X186026247Y-82261904D02*
X185645295Y-82261904D01*
X185645295Y-82261904D02*
X185550057Y-82214285D01*
X185550057Y-82214285D02*
X185502438Y-82166666D01*
X185502438Y-82166666D02*
X185454819Y-82071428D01*
X185454819Y-82071428D02*
X185454819Y-81880952D01*
X185454819Y-81880952D02*
X185502438Y-81785714D01*
X185502438Y-81785714D02*
X185550057Y-81738095D01*
X185550057Y-81738095D02*
X185645295Y-81690476D01*
X185645295Y-81690476D02*
X185883390Y-81690476D01*
X185883390Y-81690476D02*
X185978628Y-81738095D01*
X185978628Y-81738095D02*
X186026247Y-81785714D01*
X186026247Y-81785714D02*
X186073866Y-81880952D01*
X186073866Y-81880952D02*
X186073866Y-82071428D01*
X186073866Y-82071428D02*
X186026247Y-82166666D01*
X186026247Y-82166666D02*
X185978628Y-82214285D01*
X185978628Y-82214285D02*
X185883390Y-82261904D01*
X140054819Y-84357142D02*
X139578628Y-84023809D01*
X140054819Y-83785714D02*
X139054819Y-83785714D01*
X139054819Y-83785714D02*
X139054819Y-84166666D01*
X139054819Y-84166666D02*
X139102438Y-84261904D01*
X139102438Y-84261904D02*
X139150057Y-84309523D01*
X139150057Y-84309523D02*
X139245295Y-84357142D01*
X139245295Y-84357142D02*
X139388152Y-84357142D01*
X139388152Y-84357142D02*
X139483390Y-84309523D01*
X139483390Y-84309523D02*
X139531009Y-84261904D01*
X139531009Y-84261904D02*
X139578628Y-84166666D01*
X139578628Y-84166666D02*
X139578628Y-83785714D01*
X139054819Y-84690476D02*
X139054819Y-85309523D01*
X139054819Y-85309523D02*
X139435771Y-84976190D01*
X139435771Y-84976190D02*
X139435771Y-85119047D01*
X139435771Y-85119047D02*
X139483390Y-85214285D01*
X139483390Y-85214285D02*
X139531009Y-85261904D01*
X139531009Y-85261904D02*
X139626247Y-85309523D01*
X139626247Y-85309523D02*
X139864342Y-85309523D01*
X139864342Y-85309523D02*
X139959580Y-85261904D01*
X139959580Y-85261904D02*
X140007200Y-85214285D01*
X140007200Y-85214285D02*
X140054819Y-85119047D01*
X140054819Y-85119047D02*
X140054819Y-84833333D01*
X140054819Y-84833333D02*
X140007200Y-84738095D01*
X140007200Y-84738095D02*
X139959580Y-84690476D01*
X139388152Y-86166666D02*
X140054819Y-86166666D01*
X139007200Y-85928571D02*
X139721485Y-85690476D01*
X139721485Y-85690476D02*
X139721485Y-86309523D01*
X161054819Y-84257142D02*
X160578628Y-83923809D01*
X161054819Y-83685714D02*
X160054819Y-83685714D01*
X160054819Y-83685714D02*
X160054819Y-84066666D01*
X160054819Y-84066666D02*
X160102438Y-84161904D01*
X160102438Y-84161904D02*
X160150057Y-84209523D01*
X160150057Y-84209523D02*
X160245295Y-84257142D01*
X160245295Y-84257142D02*
X160388152Y-84257142D01*
X160388152Y-84257142D02*
X160483390Y-84209523D01*
X160483390Y-84209523D02*
X160531009Y-84161904D01*
X160531009Y-84161904D02*
X160578628Y-84066666D01*
X160578628Y-84066666D02*
X160578628Y-83685714D01*
X160150057Y-84638095D02*
X160102438Y-84685714D01*
X160102438Y-84685714D02*
X160054819Y-84780952D01*
X160054819Y-84780952D02*
X160054819Y-85019047D01*
X160054819Y-85019047D02*
X160102438Y-85114285D01*
X160102438Y-85114285D02*
X160150057Y-85161904D01*
X160150057Y-85161904D02*
X160245295Y-85209523D01*
X160245295Y-85209523D02*
X160340533Y-85209523D01*
X160340533Y-85209523D02*
X160483390Y-85161904D01*
X160483390Y-85161904D02*
X161054819Y-84590476D01*
X161054819Y-84590476D02*
X161054819Y-85209523D01*
X160054819Y-86066666D02*
X160054819Y-85876190D01*
X160054819Y-85876190D02*
X160102438Y-85780952D01*
X160102438Y-85780952D02*
X160150057Y-85733333D01*
X160150057Y-85733333D02*
X160292914Y-85638095D01*
X160292914Y-85638095D02*
X160483390Y-85590476D01*
X160483390Y-85590476D02*
X160864342Y-85590476D01*
X160864342Y-85590476D02*
X160959580Y-85638095D01*
X160959580Y-85638095D02*
X161007200Y-85685714D01*
X161007200Y-85685714D02*
X161054819Y-85780952D01*
X161054819Y-85780952D02*
X161054819Y-85971428D01*
X161054819Y-85971428D02*
X161007200Y-86066666D01*
X161007200Y-86066666D02*
X160959580Y-86114285D01*
X160959580Y-86114285D02*
X160864342Y-86161904D01*
X160864342Y-86161904D02*
X160626247Y-86161904D01*
X160626247Y-86161904D02*
X160531009Y-86114285D01*
X160531009Y-86114285D02*
X160483390Y-86066666D01*
X160483390Y-86066666D02*
X160435771Y-85971428D01*
X160435771Y-85971428D02*
X160435771Y-85780952D01*
X160435771Y-85780952D02*
X160483390Y-85685714D01*
X160483390Y-85685714D02*
X160531009Y-85638095D01*
X160531009Y-85638095D02*
X160626247Y-85590476D01*
X177454819Y-80357142D02*
X176978628Y-80023809D01*
X177454819Y-79785714D02*
X176454819Y-79785714D01*
X176454819Y-79785714D02*
X176454819Y-80166666D01*
X176454819Y-80166666D02*
X176502438Y-80261904D01*
X176502438Y-80261904D02*
X176550057Y-80309523D01*
X176550057Y-80309523D02*
X176645295Y-80357142D01*
X176645295Y-80357142D02*
X176788152Y-80357142D01*
X176788152Y-80357142D02*
X176883390Y-80309523D01*
X176883390Y-80309523D02*
X176931009Y-80261904D01*
X176931009Y-80261904D02*
X176978628Y-80166666D01*
X176978628Y-80166666D02*
X176978628Y-79785714D01*
X176550057Y-80738095D02*
X176502438Y-80785714D01*
X176502438Y-80785714D02*
X176454819Y-80880952D01*
X176454819Y-80880952D02*
X176454819Y-81119047D01*
X176454819Y-81119047D02*
X176502438Y-81214285D01*
X176502438Y-81214285D02*
X176550057Y-81261904D01*
X176550057Y-81261904D02*
X176645295Y-81309523D01*
X176645295Y-81309523D02*
X176740533Y-81309523D01*
X176740533Y-81309523D02*
X176883390Y-81261904D01*
X176883390Y-81261904D02*
X177454819Y-80690476D01*
X177454819Y-80690476D02*
X177454819Y-81309523D01*
X176883390Y-81880952D02*
X176835771Y-81785714D01*
X176835771Y-81785714D02*
X176788152Y-81738095D01*
X176788152Y-81738095D02*
X176692914Y-81690476D01*
X176692914Y-81690476D02*
X176645295Y-81690476D01*
X176645295Y-81690476D02*
X176550057Y-81738095D01*
X176550057Y-81738095D02*
X176502438Y-81785714D01*
X176502438Y-81785714D02*
X176454819Y-81880952D01*
X176454819Y-81880952D02*
X176454819Y-82071428D01*
X176454819Y-82071428D02*
X176502438Y-82166666D01*
X176502438Y-82166666D02*
X176550057Y-82214285D01*
X176550057Y-82214285D02*
X176645295Y-82261904D01*
X176645295Y-82261904D02*
X176692914Y-82261904D01*
X176692914Y-82261904D02*
X176788152Y-82214285D01*
X176788152Y-82214285D02*
X176835771Y-82166666D01*
X176835771Y-82166666D02*
X176883390Y-82071428D01*
X176883390Y-82071428D02*
X176883390Y-81880952D01*
X176883390Y-81880952D02*
X176931009Y-81785714D01*
X176931009Y-81785714D02*
X176978628Y-81738095D01*
X176978628Y-81738095D02*
X177073866Y-81690476D01*
X177073866Y-81690476D02*
X177264342Y-81690476D01*
X177264342Y-81690476D02*
X177359580Y-81738095D01*
X177359580Y-81738095D02*
X177407200Y-81785714D01*
X177407200Y-81785714D02*
X177454819Y-81880952D01*
X177454819Y-81880952D02*
X177454819Y-82071428D01*
X177454819Y-82071428D02*
X177407200Y-82166666D01*
X177407200Y-82166666D02*
X177359580Y-82214285D01*
X177359580Y-82214285D02*
X177264342Y-82261904D01*
X177264342Y-82261904D02*
X177073866Y-82261904D01*
X177073866Y-82261904D02*
X176978628Y-82214285D01*
X176978628Y-82214285D02*
X176931009Y-82166666D01*
X176931009Y-82166666D02*
X176883390Y-82071428D01*
X95454819Y-80357142D02*
X94978628Y-80023809D01*
X95454819Y-79785714D02*
X94454819Y-79785714D01*
X94454819Y-79785714D02*
X94454819Y-80166666D01*
X94454819Y-80166666D02*
X94502438Y-80261904D01*
X94502438Y-80261904D02*
X94550057Y-80309523D01*
X94550057Y-80309523D02*
X94645295Y-80357142D01*
X94645295Y-80357142D02*
X94788152Y-80357142D01*
X94788152Y-80357142D02*
X94883390Y-80309523D01*
X94883390Y-80309523D02*
X94931009Y-80261904D01*
X94931009Y-80261904D02*
X94978628Y-80166666D01*
X94978628Y-80166666D02*
X94978628Y-79785714D01*
X95454819Y-81309523D02*
X95454819Y-80738095D01*
X95454819Y-81023809D02*
X94454819Y-81023809D01*
X94454819Y-81023809D02*
X94597676Y-80928571D01*
X94597676Y-80928571D02*
X94692914Y-80833333D01*
X94692914Y-80833333D02*
X94740533Y-80738095D01*
X94454819Y-81642857D02*
X94454819Y-82309523D01*
X94454819Y-82309523D02*
X95454819Y-81880952D01*
X164054819Y-84357142D02*
X163578628Y-84023809D01*
X164054819Y-83785714D02*
X163054819Y-83785714D01*
X163054819Y-83785714D02*
X163054819Y-84166666D01*
X163054819Y-84166666D02*
X163102438Y-84261904D01*
X163102438Y-84261904D02*
X163150057Y-84309523D01*
X163150057Y-84309523D02*
X163245295Y-84357142D01*
X163245295Y-84357142D02*
X163388152Y-84357142D01*
X163388152Y-84357142D02*
X163483390Y-84309523D01*
X163483390Y-84309523D02*
X163531009Y-84261904D01*
X163531009Y-84261904D02*
X163578628Y-84166666D01*
X163578628Y-84166666D02*
X163578628Y-83785714D01*
X163388152Y-85214285D02*
X164054819Y-85214285D01*
X163007200Y-84976190D02*
X163721485Y-84738095D01*
X163721485Y-84738095D02*
X163721485Y-85357142D01*
X163054819Y-85642857D02*
X163054819Y-86309523D01*
X163054819Y-86309523D02*
X164054819Y-85880952D01*
X165454819Y-80357142D02*
X164978628Y-80023809D01*
X165454819Y-79785714D02*
X164454819Y-79785714D01*
X164454819Y-79785714D02*
X164454819Y-80166666D01*
X164454819Y-80166666D02*
X164502438Y-80261904D01*
X164502438Y-80261904D02*
X164550057Y-80309523D01*
X164550057Y-80309523D02*
X164645295Y-80357142D01*
X164645295Y-80357142D02*
X164788152Y-80357142D01*
X164788152Y-80357142D02*
X164883390Y-80309523D01*
X164883390Y-80309523D02*
X164931009Y-80261904D01*
X164931009Y-80261904D02*
X164978628Y-80166666D01*
X164978628Y-80166666D02*
X164978628Y-79785714D01*
X164454819Y-80690476D02*
X164454819Y-81309523D01*
X164454819Y-81309523D02*
X164835771Y-80976190D01*
X164835771Y-80976190D02*
X164835771Y-81119047D01*
X164835771Y-81119047D02*
X164883390Y-81214285D01*
X164883390Y-81214285D02*
X164931009Y-81261904D01*
X164931009Y-81261904D02*
X165026247Y-81309523D01*
X165026247Y-81309523D02*
X165264342Y-81309523D01*
X165264342Y-81309523D02*
X165359580Y-81261904D01*
X165359580Y-81261904D02*
X165407200Y-81214285D01*
X165407200Y-81214285D02*
X165454819Y-81119047D01*
X165454819Y-81119047D02*
X165454819Y-80833333D01*
X165454819Y-80833333D02*
X165407200Y-80738095D01*
X165407200Y-80738095D02*
X165359580Y-80690476D01*
X164454819Y-81642857D02*
X164454819Y-82309523D01*
X164454819Y-82309523D02*
X165454819Y-81880952D01*
X155054819Y-84257142D02*
X154578628Y-83923809D01*
X155054819Y-83685714D02*
X154054819Y-83685714D01*
X154054819Y-83685714D02*
X154054819Y-84066666D01*
X154054819Y-84066666D02*
X154102438Y-84161904D01*
X154102438Y-84161904D02*
X154150057Y-84209523D01*
X154150057Y-84209523D02*
X154245295Y-84257142D01*
X154245295Y-84257142D02*
X154388152Y-84257142D01*
X154388152Y-84257142D02*
X154483390Y-84209523D01*
X154483390Y-84209523D02*
X154531009Y-84161904D01*
X154531009Y-84161904D02*
X154578628Y-84066666D01*
X154578628Y-84066666D02*
X154578628Y-83685714D01*
X154388152Y-85114285D02*
X155054819Y-85114285D01*
X154007200Y-84876190D02*
X154721485Y-84638095D01*
X154721485Y-84638095D02*
X154721485Y-85257142D01*
X154054819Y-86066666D02*
X154054819Y-85876190D01*
X154054819Y-85876190D02*
X154102438Y-85780952D01*
X154102438Y-85780952D02*
X154150057Y-85733333D01*
X154150057Y-85733333D02*
X154292914Y-85638095D01*
X154292914Y-85638095D02*
X154483390Y-85590476D01*
X154483390Y-85590476D02*
X154864342Y-85590476D01*
X154864342Y-85590476D02*
X154959580Y-85638095D01*
X154959580Y-85638095D02*
X155007200Y-85685714D01*
X155007200Y-85685714D02*
X155054819Y-85780952D01*
X155054819Y-85780952D02*
X155054819Y-85971428D01*
X155054819Y-85971428D02*
X155007200Y-86066666D01*
X155007200Y-86066666D02*
X154959580Y-86114285D01*
X154959580Y-86114285D02*
X154864342Y-86161904D01*
X154864342Y-86161904D02*
X154626247Y-86161904D01*
X154626247Y-86161904D02*
X154531009Y-86114285D01*
X154531009Y-86114285D02*
X154483390Y-86066666D01*
X154483390Y-86066666D02*
X154435771Y-85971428D01*
X154435771Y-85971428D02*
X154435771Y-85780952D01*
X154435771Y-85780952D02*
X154483390Y-85685714D01*
X154483390Y-85685714D02*
X154531009Y-85638095D01*
X154531009Y-85638095D02*
X154626247Y-85590476D01*
X158054819Y-84257142D02*
X157578628Y-83923809D01*
X158054819Y-83685714D02*
X157054819Y-83685714D01*
X157054819Y-83685714D02*
X157054819Y-84066666D01*
X157054819Y-84066666D02*
X157102438Y-84161904D01*
X157102438Y-84161904D02*
X157150057Y-84209523D01*
X157150057Y-84209523D02*
X157245295Y-84257142D01*
X157245295Y-84257142D02*
X157388152Y-84257142D01*
X157388152Y-84257142D02*
X157483390Y-84209523D01*
X157483390Y-84209523D02*
X157531009Y-84161904D01*
X157531009Y-84161904D02*
X157578628Y-84066666D01*
X157578628Y-84066666D02*
X157578628Y-83685714D01*
X157054819Y-84590476D02*
X157054819Y-85209523D01*
X157054819Y-85209523D02*
X157435771Y-84876190D01*
X157435771Y-84876190D02*
X157435771Y-85019047D01*
X157435771Y-85019047D02*
X157483390Y-85114285D01*
X157483390Y-85114285D02*
X157531009Y-85161904D01*
X157531009Y-85161904D02*
X157626247Y-85209523D01*
X157626247Y-85209523D02*
X157864342Y-85209523D01*
X157864342Y-85209523D02*
X157959580Y-85161904D01*
X157959580Y-85161904D02*
X158007200Y-85114285D01*
X158007200Y-85114285D02*
X158054819Y-85019047D01*
X158054819Y-85019047D02*
X158054819Y-84733333D01*
X158054819Y-84733333D02*
X158007200Y-84638095D01*
X158007200Y-84638095D02*
X157959580Y-84590476D01*
X157054819Y-86066666D02*
X157054819Y-85876190D01*
X157054819Y-85876190D02*
X157102438Y-85780952D01*
X157102438Y-85780952D02*
X157150057Y-85733333D01*
X157150057Y-85733333D02*
X157292914Y-85638095D01*
X157292914Y-85638095D02*
X157483390Y-85590476D01*
X157483390Y-85590476D02*
X157864342Y-85590476D01*
X157864342Y-85590476D02*
X157959580Y-85638095D01*
X157959580Y-85638095D02*
X158007200Y-85685714D01*
X158007200Y-85685714D02*
X158054819Y-85780952D01*
X158054819Y-85780952D02*
X158054819Y-85971428D01*
X158054819Y-85971428D02*
X158007200Y-86066666D01*
X158007200Y-86066666D02*
X157959580Y-86114285D01*
X157959580Y-86114285D02*
X157864342Y-86161904D01*
X157864342Y-86161904D02*
X157626247Y-86161904D01*
X157626247Y-86161904D02*
X157531009Y-86114285D01*
X157531009Y-86114285D02*
X157483390Y-86066666D01*
X157483390Y-86066666D02*
X157435771Y-85971428D01*
X157435771Y-85971428D02*
X157435771Y-85780952D01*
X157435771Y-85780952D02*
X157483390Y-85685714D01*
X157483390Y-85685714D02*
X157531009Y-85638095D01*
X157531009Y-85638095D02*
X157626247Y-85590476D01*
X132454819Y-80357142D02*
X131978628Y-80023809D01*
X132454819Y-79785714D02*
X131454819Y-79785714D01*
X131454819Y-79785714D02*
X131454819Y-80166666D01*
X131454819Y-80166666D02*
X131502438Y-80261904D01*
X131502438Y-80261904D02*
X131550057Y-80309523D01*
X131550057Y-80309523D02*
X131645295Y-80357142D01*
X131645295Y-80357142D02*
X131788152Y-80357142D01*
X131788152Y-80357142D02*
X131883390Y-80309523D01*
X131883390Y-80309523D02*
X131931009Y-80261904D01*
X131931009Y-80261904D02*
X131978628Y-80166666D01*
X131978628Y-80166666D02*
X131978628Y-79785714D01*
X131550057Y-80738095D02*
X131502438Y-80785714D01*
X131502438Y-80785714D02*
X131454819Y-80880952D01*
X131454819Y-80880952D02*
X131454819Y-81119047D01*
X131454819Y-81119047D02*
X131502438Y-81214285D01*
X131502438Y-81214285D02*
X131550057Y-81261904D01*
X131550057Y-81261904D02*
X131645295Y-81309523D01*
X131645295Y-81309523D02*
X131740533Y-81309523D01*
X131740533Y-81309523D02*
X131883390Y-81261904D01*
X131883390Y-81261904D02*
X132454819Y-80690476D01*
X132454819Y-80690476D02*
X132454819Y-81309523D01*
X131454819Y-81642857D02*
X131454819Y-82261904D01*
X131454819Y-82261904D02*
X131835771Y-81928571D01*
X131835771Y-81928571D02*
X131835771Y-82071428D01*
X131835771Y-82071428D02*
X131883390Y-82166666D01*
X131883390Y-82166666D02*
X131931009Y-82214285D01*
X131931009Y-82214285D02*
X132026247Y-82261904D01*
X132026247Y-82261904D02*
X132264342Y-82261904D01*
X132264342Y-82261904D02*
X132359580Y-82214285D01*
X132359580Y-82214285D02*
X132407200Y-82166666D01*
X132407200Y-82166666D02*
X132454819Y-82071428D01*
X132454819Y-82071428D02*
X132454819Y-81785714D01*
X132454819Y-81785714D02*
X132407200Y-81690476D01*
X132407200Y-81690476D02*
X132359580Y-81642857D01*
X104454819Y-80357142D02*
X103978628Y-80023809D01*
X104454819Y-79785714D02*
X103454819Y-79785714D01*
X103454819Y-79785714D02*
X103454819Y-80166666D01*
X103454819Y-80166666D02*
X103502438Y-80261904D01*
X103502438Y-80261904D02*
X103550057Y-80309523D01*
X103550057Y-80309523D02*
X103645295Y-80357142D01*
X103645295Y-80357142D02*
X103788152Y-80357142D01*
X103788152Y-80357142D02*
X103883390Y-80309523D01*
X103883390Y-80309523D02*
X103931009Y-80261904D01*
X103931009Y-80261904D02*
X103978628Y-80166666D01*
X103978628Y-80166666D02*
X103978628Y-79785714D01*
X104454819Y-81309523D02*
X104454819Y-80738095D01*
X104454819Y-81023809D02*
X103454819Y-81023809D01*
X103454819Y-81023809D02*
X103597676Y-80928571D01*
X103597676Y-80928571D02*
X103692914Y-80833333D01*
X103692914Y-80833333D02*
X103740533Y-80738095D01*
X103883390Y-81880952D02*
X103835771Y-81785714D01*
X103835771Y-81785714D02*
X103788152Y-81738095D01*
X103788152Y-81738095D02*
X103692914Y-81690476D01*
X103692914Y-81690476D02*
X103645295Y-81690476D01*
X103645295Y-81690476D02*
X103550057Y-81738095D01*
X103550057Y-81738095D02*
X103502438Y-81785714D01*
X103502438Y-81785714D02*
X103454819Y-81880952D01*
X103454819Y-81880952D02*
X103454819Y-82071428D01*
X103454819Y-82071428D02*
X103502438Y-82166666D01*
X103502438Y-82166666D02*
X103550057Y-82214285D01*
X103550057Y-82214285D02*
X103645295Y-82261904D01*
X103645295Y-82261904D02*
X103692914Y-82261904D01*
X103692914Y-82261904D02*
X103788152Y-82214285D01*
X103788152Y-82214285D02*
X103835771Y-82166666D01*
X103835771Y-82166666D02*
X103883390Y-82071428D01*
X103883390Y-82071428D02*
X103883390Y-81880952D01*
X103883390Y-81880952D02*
X103931009Y-81785714D01*
X103931009Y-81785714D02*
X103978628Y-81738095D01*
X103978628Y-81738095D02*
X104073866Y-81690476D01*
X104073866Y-81690476D02*
X104264342Y-81690476D01*
X104264342Y-81690476D02*
X104359580Y-81738095D01*
X104359580Y-81738095D02*
X104407200Y-81785714D01*
X104407200Y-81785714D02*
X104454819Y-81880952D01*
X104454819Y-81880952D02*
X104454819Y-82071428D01*
X104454819Y-82071428D02*
X104407200Y-82166666D01*
X104407200Y-82166666D02*
X104359580Y-82214285D01*
X104359580Y-82214285D02*
X104264342Y-82261904D01*
X104264342Y-82261904D02*
X104073866Y-82261904D01*
X104073866Y-82261904D02*
X103978628Y-82214285D01*
X103978628Y-82214285D02*
X103931009Y-82166666D01*
X103931009Y-82166666D02*
X103883390Y-82071428D01*
X90261904Y-78606819D02*
X89690476Y-78606819D01*
X89976190Y-79606819D02*
X89976190Y-78606819D01*
X89357142Y-79606819D02*
X89357142Y-78606819D01*
X89357142Y-78606819D02*
X88976190Y-78606819D01*
X88976190Y-78606819D02*
X88880952Y-78654438D01*
X88880952Y-78654438D02*
X88833333Y-78702057D01*
X88833333Y-78702057D02*
X88785714Y-78797295D01*
X88785714Y-78797295D02*
X88785714Y-78940152D01*
X88785714Y-78940152D02*
X88833333Y-79035390D01*
X88833333Y-79035390D02*
X88880952Y-79083009D01*
X88880952Y-79083009D02*
X88976190Y-79130628D01*
X88976190Y-79130628D02*
X89357142Y-79130628D01*
X87928571Y-78940152D02*
X87928571Y-79606819D01*
X88166666Y-78559200D02*
X88404761Y-79273485D01*
X88404761Y-79273485D02*
X87785714Y-79273485D01*
X84939579Y-84570833D02*
X84987199Y-84523214D01*
X84987199Y-84523214D02*
X85034818Y-84380357D01*
X85034818Y-84380357D02*
X85034818Y-84285119D01*
X85034818Y-84285119D02*
X84987199Y-84142262D01*
X84987199Y-84142262D02*
X84891960Y-84047024D01*
X84891960Y-84047024D02*
X84796722Y-83999405D01*
X84796722Y-83999405D02*
X84606246Y-83951786D01*
X84606246Y-83951786D02*
X84463389Y-83951786D01*
X84463389Y-83951786D02*
X84272913Y-83999405D01*
X84272913Y-83999405D02*
X84177675Y-84047024D01*
X84177675Y-84047024D02*
X84082437Y-84142262D01*
X84082437Y-84142262D02*
X84034818Y-84285119D01*
X84034818Y-84285119D02*
X84034818Y-84380357D01*
X84034818Y-84380357D02*
X84082437Y-84523214D01*
X84082437Y-84523214D02*
X84130056Y-84570833D01*
X84034818Y-85427976D02*
X84034818Y-85237500D01*
X84034818Y-85237500D02*
X84082437Y-85142262D01*
X84082437Y-85142262D02*
X84130056Y-85094643D01*
X84130056Y-85094643D02*
X84272913Y-84999405D01*
X84272913Y-84999405D02*
X84463389Y-84951786D01*
X84463389Y-84951786D02*
X84844341Y-84951786D01*
X84844341Y-84951786D02*
X84939579Y-84999405D01*
X84939579Y-84999405D02*
X84987199Y-85047024D01*
X84987199Y-85047024D02*
X85034818Y-85142262D01*
X85034818Y-85142262D02*
X85034818Y-85332738D01*
X85034818Y-85332738D02*
X84987199Y-85427976D01*
X84987199Y-85427976D02*
X84939579Y-85475595D01*
X84939579Y-85475595D02*
X84844341Y-85523214D01*
X84844341Y-85523214D02*
X84606246Y-85523214D01*
X84606246Y-85523214D02*
X84511008Y-85475595D01*
X84511008Y-85475595D02*
X84463389Y-85427976D01*
X84463389Y-85427976D02*
X84415770Y-85332738D01*
X84415770Y-85332738D02*
X84415770Y-85142262D01*
X84415770Y-85142262D02*
X84463389Y-85047024D01*
X84463389Y-85047024D02*
X84511008Y-84999405D01*
X84511008Y-84999405D02*
X84606246Y-84951786D01*
X71577802Y-84306800D02*
X71173741Y-83902739D01*
X70668665Y-84811876D02*
X71375772Y-84104769D01*
X70230932Y-84374143D02*
X70938039Y-83667036D01*
X70938039Y-83667036D02*
X70668665Y-83397662D01*
X70668665Y-83397662D02*
X70567649Y-83363991D01*
X70567649Y-83363991D02*
X70500306Y-83363991D01*
X70500306Y-83363991D02*
X70399291Y-83397662D01*
X70399291Y-83397662D02*
X70298275Y-83498678D01*
X70298275Y-83498678D02*
X70264604Y-83599693D01*
X70264604Y-83599693D02*
X70264604Y-83667036D01*
X70264604Y-83667036D02*
X70298275Y-83768052D01*
X70298275Y-83768052D02*
X70567649Y-84037426D01*
X70298275Y-83027273D02*
X69826871Y-82555869D01*
X69826871Y-82555869D02*
X69422810Y-83566021D01*
X68377802Y-81606800D02*
X67973741Y-81202739D01*
X67468665Y-82111876D02*
X68175772Y-81404769D01*
X67030932Y-81674143D02*
X67738039Y-80967036D01*
X67738039Y-80967036D02*
X67468665Y-80697662D01*
X67468665Y-80697662D02*
X67367649Y-80663991D01*
X67367649Y-80663991D02*
X67300306Y-80663991D01*
X67300306Y-80663991D02*
X67199291Y-80697662D01*
X67199291Y-80697662D02*
X67098275Y-80798678D01*
X67098275Y-80798678D02*
X67064604Y-80899693D01*
X67064604Y-80899693D02*
X67064604Y-80967036D01*
X67064604Y-80967036D02*
X67098275Y-81068052D01*
X67098275Y-81068052D02*
X67367649Y-81337426D01*
X66727886Y-79956884D02*
X66862573Y-80091571D01*
X66862573Y-80091571D02*
X66896245Y-80192586D01*
X66896245Y-80192586D02*
X66896245Y-80259930D01*
X66896245Y-80259930D02*
X66862573Y-80428288D01*
X66862573Y-80428288D02*
X66761558Y-80596647D01*
X66761558Y-80596647D02*
X66492184Y-80866021D01*
X66492184Y-80866021D02*
X66391169Y-80899693D01*
X66391169Y-80899693D02*
X66323825Y-80899693D01*
X66323825Y-80899693D02*
X66222810Y-80866021D01*
X66222810Y-80866021D02*
X66088123Y-80731334D01*
X66088123Y-80731334D02*
X66054451Y-80630319D01*
X66054451Y-80630319D02*
X66054451Y-80562975D01*
X66054451Y-80562975D02*
X66088123Y-80461960D01*
X66088123Y-80461960D02*
X66256482Y-80293601D01*
X66256482Y-80293601D02*
X66357497Y-80259930D01*
X66357497Y-80259930D02*
X66424840Y-80259930D01*
X66424840Y-80259930D02*
X66525856Y-80293601D01*
X66525856Y-80293601D02*
X66660543Y-80428288D01*
X66660543Y-80428288D02*
X66694214Y-80529304D01*
X66694214Y-80529304D02*
X66694214Y-80596647D01*
X66694214Y-80596647D02*
X66660543Y-80697662D01*
X163883220Y-60704819D02*
X163883220Y-61514342D01*
X163883220Y-61514342D02*
X163835601Y-61609580D01*
X163835601Y-61609580D02*
X163787982Y-61657200D01*
X163787982Y-61657200D02*
X163692744Y-61704819D01*
X163692744Y-61704819D02*
X163502268Y-61704819D01*
X163502268Y-61704819D02*
X163407030Y-61657200D01*
X163407030Y-61657200D02*
X163359411Y-61609580D01*
X163359411Y-61609580D02*
X163311792Y-61514342D01*
X163311792Y-61514342D02*
X163311792Y-60704819D01*
X162311792Y-61704819D02*
X162883220Y-61704819D01*
X162597506Y-61704819D02*
X162597506Y-60704819D01*
X162597506Y-60704819D02*
X162692744Y-60847676D01*
X162692744Y-60847676D02*
X162787982Y-60942914D01*
X162787982Y-60942914D02*
X162883220Y-60990533D01*
D11*
%TO.C,R51*%
X197265000Y-84772936D02*
X197265000Y-85227064D01*
X198735000Y-84772936D02*
X198735000Y-85227064D01*
%TO.C,R22*%
X109265000Y-84772936D02*
X109265000Y-85227064D01*
X110735000Y-84772936D02*
X110735000Y-85227064D01*
%TO.C,R48*%
X170265000Y-84772936D02*
X170265000Y-85227064D01*
X171735000Y-84772936D02*
X171735000Y-85227064D01*
%TO.C,R32*%
X212265000Y-84772936D02*
X212265000Y-85227064D01*
X213735000Y-84772936D02*
X213735000Y-85227064D01*
%TO.C,R5*%
X78665000Y-84572936D02*
X78665000Y-85027064D01*
X80135000Y-84572936D02*
X80135000Y-85027064D01*
%TO.C,R9*%
X135735000Y-74227064D02*
X135735000Y-73772936D01*
X134265000Y-74227064D02*
X134265000Y-73772936D01*
%TO.C,R21*%
X100265000Y-84772936D02*
X100265000Y-85227064D01*
X101735000Y-84772936D02*
X101735000Y-85227064D01*
%TO.C,R6*%
X134265000Y-69572936D02*
X134265000Y-70027064D01*
X135735000Y-69572936D02*
X135735000Y-70027064D01*
%TO.C,R40*%
X191265000Y-84772936D02*
X191265000Y-85227064D01*
X192735000Y-84772936D02*
X192735000Y-85227064D01*
%TO.C,R41*%
X200265000Y-84772936D02*
X200265000Y-85227064D01*
X201735000Y-84772936D02*
X201735000Y-85227064D01*
%TO.C,R35*%
X146265000Y-84772936D02*
X146265000Y-85227064D01*
X147735000Y-84772936D02*
X147735000Y-85227064D01*
%TO.C,R49*%
X179265000Y-84772936D02*
X179265000Y-85227064D01*
X180735000Y-84772936D02*
X180735000Y-85227064D01*
%TO.C,R25*%
X149265000Y-84772936D02*
X149265000Y-85227064D01*
X150735000Y-84772936D02*
X150735000Y-85227064D01*
%TO.C,R42*%
X209265000Y-84772936D02*
X209265000Y-85227064D01*
X210735000Y-84772936D02*
X210735000Y-85227064D01*
%TO.C,R38*%
X173265000Y-84772936D02*
X173265000Y-85227064D01*
X174735000Y-84772936D02*
X174735000Y-85227064D01*
%TO.C,R44*%
X134265000Y-84772936D02*
X134265000Y-85227064D01*
X135735000Y-84772936D02*
X135735000Y-85227064D01*
%TO.C,R52*%
X206265000Y-84772936D02*
X206265000Y-85227064D01*
X207735000Y-84772936D02*
X207735000Y-85227064D01*
%TO.C,R8*%
X87135000Y-84927064D02*
X87135000Y-84472936D01*
X85665000Y-84927064D02*
X85665000Y-84472936D01*
%TO.C,R43*%
X125265000Y-84772936D02*
X125265000Y-85227064D01*
X126735000Y-84772936D02*
X126735000Y-85227064D01*
%TO.C,R19*%
X112265000Y-84772936D02*
X112265000Y-85227064D01*
X113735000Y-84772936D02*
X113735000Y-85227064D01*
%TO.C,R24*%
X140265000Y-84772936D02*
X140265000Y-85227064D01*
X141735000Y-84772936D02*
X141735000Y-85227064D01*
%TO.C,R27*%
X167265000Y-84772936D02*
X167265000Y-85227064D01*
X168735000Y-84772936D02*
X168735000Y-85227064D01*
%TO.C,R20*%
X91265000Y-84772936D02*
X91265000Y-85227064D01*
X92735000Y-84772936D02*
X92735000Y-85227064D01*
%TO.C,R16*%
X115265000Y-84772936D02*
X115265000Y-85227064D01*
X116735000Y-84772936D02*
X116735000Y-85227064D01*
%TO.C,R30*%
X194265000Y-84772936D02*
X194265000Y-85227064D01*
X195735000Y-84772936D02*
X195735000Y-85227064D01*
%TO.C,R15*%
X106265000Y-84772936D02*
X106265000Y-85227064D01*
X107735000Y-84772936D02*
X107735000Y-85227064D01*
%TO.C,R14*%
X97265000Y-84772936D02*
X97265000Y-85227064D01*
X98735000Y-84772936D02*
X98735000Y-85227064D01*
%TO.C,R31*%
X203265000Y-84772936D02*
X203265000Y-85227064D01*
X204735000Y-84772936D02*
X204735000Y-85227064D01*
%TO.C,R33*%
X128265000Y-84772936D02*
X128265000Y-85227064D01*
X129735000Y-84772936D02*
X129735000Y-85227064D01*
%TO.C,R39*%
X182265000Y-84772936D02*
X182265000Y-85227064D01*
X183735000Y-84772936D02*
X183735000Y-85227064D01*
%TO.C,R45*%
X143265000Y-84772936D02*
X143265000Y-85227064D01*
X144735000Y-84772936D02*
X144735000Y-85227064D01*
%TO.C,R50*%
X188265000Y-84772936D02*
X188265000Y-85227064D01*
X189735000Y-84772936D02*
X189735000Y-85227064D01*
%TO.C,R29*%
X185265000Y-84772936D02*
X185265000Y-85227064D01*
X186735000Y-84772936D02*
X186735000Y-85227064D01*
%TO.C,R34*%
X137265000Y-84772936D02*
X137265000Y-85227064D01*
X138735000Y-84772936D02*
X138735000Y-85227064D01*
%TO.C,R26*%
X158265000Y-84772936D02*
X158265000Y-85227064D01*
X159735000Y-84772936D02*
X159735000Y-85227064D01*
%TO.C,R28*%
X176265000Y-84772936D02*
X176265000Y-85227064D01*
X177735000Y-84772936D02*
X177735000Y-85227064D01*
%TO.C,R17*%
X94265000Y-84772936D02*
X94265000Y-85227064D01*
X95735000Y-84772936D02*
X95735000Y-85227064D01*
%TO.C,R47*%
X161265000Y-84772936D02*
X161265000Y-85227064D01*
X162735000Y-84772936D02*
X162735000Y-85227064D01*
%TO.C,R37*%
X164265000Y-84772936D02*
X164265000Y-85227064D01*
X165735000Y-84772936D02*
X165735000Y-85227064D01*
%TO.C,R46*%
X152265000Y-84772936D02*
X152265000Y-85227064D01*
X153735000Y-84772936D02*
X153735000Y-85227064D01*
%TO.C,R36*%
X155265000Y-84772936D02*
X155265000Y-85227064D01*
X156735000Y-84772936D02*
X156735000Y-85227064D01*
%TO.C,R23*%
X131265000Y-84772936D02*
X131265000Y-85227064D01*
X132735000Y-84772936D02*
X132735000Y-85227064D01*
%TO.C,R18*%
X103265000Y-84772936D02*
X103265000Y-85227064D01*
X104735000Y-84772936D02*
X104735000Y-85227064D01*
%TO.C,TP4*%
X90450000Y-81300000D02*
G75*
G02*
X87550000Y-81300000I-1450000J0D01*
G01*
X87550000Y-81300000D02*
G75*
G02*
X90450000Y-81300000I1450000J0D01*
G01*
%TO.C,C6*%
X82165000Y-84998753D02*
X82165000Y-84476247D01*
X83635000Y-84998753D02*
X83635000Y-84476247D01*
%TO.C,TP7*%
X69950000Y-85600000D02*
G75*
G02*
X67050000Y-85600000I-1450000J0D01*
G01*
X67050000Y-85600000D02*
G75*
G02*
X69950000Y-85600000I1450000J0D01*
G01*
%TO.C,TP6*%
X66850000Y-83000000D02*
G75*
G02*
X63950000Y-83000000I-1450000J0D01*
G01*
X63950000Y-83000000D02*
G75*
G02*
X66850000Y-83000000I1450000J0D01*
G01*
%TO.C,U1*%
X163670000Y-62550000D02*
X162720000Y-62550000D01*
X163670000Y-63950000D02*
X163670000Y-62550000D01*
X163670000Y-79550000D02*
X163670000Y-80950000D01*
X163670000Y-80950000D02*
X162720000Y-80950000D01*
X144720000Y-62550000D02*
X144220000Y-62550000D01*
X144720000Y-62050000D01*
X144720000Y-62550000D01*
G36*
X144720000Y-62550000D02*
G01*
X144220000Y-62550000D01*
X144720000Y-62050000D01*
X144720000Y-62550000D01*
G37*
%TD*%
M02*
