%TF.GenerationSoftware,KiCad,Pcbnew,9.0.1*%
%TF.CreationDate,2025-06-18T18:38:46+02:00*%
%TF.ProjectId,open_g_db,6f70656e-5f67-45f6-9462-2e6b69636164,rev?*%
%TF.SameCoordinates,Original*%
%TF.FileFunction,Paste,Bot*%
%TF.FilePolarity,Positive*%
%FSLAX46Y46*%
G04 Gerber Fmt 4.6, Leading zero omitted, Abs format (unit mm)*
G04 Created by KiCad (PCBNEW 9.0.1) date 2025-06-18 18:38:46*
%MOMM*%
%LPD*%
G01*
G04 APERTURE LIST*
G04 Aperture macros list*
%AMRoundRect*
0 Rectangle with rounded corners*
0 $1 Rounding radius*
0 $2 $3 $4 $5 $6 $7 $8 $9 X,Y pos of 4 corners*
0 Add a 4 corners polygon primitive as box body*
4,1,4,$2,$3,$4,$5,$6,$7,$8,$9,$2,$3,0*
0 Add four circle primitives for the rounded corners*
1,1,$1+$1,$2,$3*
1,1,$1+$1,$4,$5*
1,1,$1+$1,$6,$7*
1,1,$1+$1,$8,$9*
0 Add four rect primitives between the rounded corners*
20,1,$1+$1,$2,$3,$4,$5,0*
20,1,$1+$1,$4,$5,$6,$7,0*
20,1,$1+$1,$6,$7,$8,$9,0*
20,1,$1+$1,$8,$9,$2,$3,0*%
G04 Aperture macros list end*
%ADD10RoundRect,0.250000X-0.450000X0.350000X-0.450000X-0.350000X0.450000X-0.350000X0.450000X0.350000X0*%
%ADD11RoundRect,0.250000X0.475000X-0.337500X0.475000X0.337500X-0.475000X0.337500X-0.475000X-0.337500X0*%
%ADD12RoundRect,0.250000X0.450000X-0.350000X0.450000X0.350000X-0.450000X0.350000X-0.450000X-0.350000X0*%
%ADD13R,0.900000X1.500000*%
%ADD14R,1.500000X0.900000*%
%ADD15R,0.900000X0.900000*%
G04 APERTURE END LIST*
D10*
%TO.C,R51*%
X198000000Y-84000000D03*
X198000000Y-86000000D03*
%TD*%
%TO.C,R22*%
X110000000Y-84000000D03*
X110000000Y-86000000D03*
%TD*%
%TO.C,R48*%
X171000000Y-84000000D03*
X171000000Y-86000000D03*
%TD*%
%TO.C,R32*%
X213000000Y-84000000D03*
X213000000Y-86000000D03*
%TD*%
%TO.C,R5*%
X79400000Y-83800000D03*
X79400000Y-85800000D03*
%TD*%
D11*
%TO.C,C6*%
X82900000Y-85775000D03*
X82900000Y-83700000D03*
%TD*%
D12*
%TO.C,R9*%
X135000000Y-75000000D03*
X135000000Y-73000000D03*
%TD*%
D10*
%TO.C,R21*%
X101000000Y-84000000D03*
X101000000Y-86000000D03*
%TD*%
%TO.C,R6*%
X135000000Y-68800000D03*
X135000000Y-70800000D03*
%TD*%
%TO.C,R40*%
X192000000Y-84000000D03*
X192000000Y-86000000D03*
%TD*%
%TO.C,R41*%
X201000000Y-84000000D03*
X201000000Y-86000000D03*
%TD*%
%TO.C,R35*%
X147000000Y-84000000D03*
X147000000Y-86000000D03*
%TD*%
%TO.C,R49*%
X180000000Y-84000000D03*
X180000000Y-86000000D03*
%TD*%
%TO.C,R25*%
X150000000Y-84000000D03*
X150000000Y-86000000D03*
%TD*%
%TO.C,R42*%
X210000000Y-84000000D03*
X210000000Y-86000000D03*
%TD*%
%TO.C,R38*%
X174000000Y-84000000D03*
X174000000Y-86000000D03*
%TD*%
%TO.C,R44*%
X135000000Y-84000000D03*
X135000000Y-86000000D03*
%TD*%
%TO.C,R52*%
X207000000Y-84000000D03*
X207000000Y-86000000D03*
%TD*%
D12*
%TO.C,R8*%
X86400000Y-85700000D03*
X86400000Y-83700000D03*
%TD*%
D10*
%TO.C,R43*%
X126000000Y-84000000D03*
X126000000Y-86000000D03*
%TD*%
%TO.C,R19*%
X113000000Y-84000000D03*
X113000000Y-86000000D03*
%TD*%
%TO.C,R24*%
X141000000Y-84000000D03*
X141000000Y-86000000D03*
%TD*%
%TO.C,R27*%
X168000000Y-84000000D03*
X168000000Y-86000000D03*
%TD*%
%TO.C,R20*%
X92000000Y-84000000D03*
X92000000Y-86000000D03*
%TD*%
%TO.C,R16*%
X116000000Y-84000000D03*
X116000000Y-86000000D03*
%TD*%
%TO.C,R30*%
X195000000Y-84000000D03*
X195000000Y-86000000D03*
%TD*%
%TO.C,R15*%
X107000000Y-84000000D03*
X107000000Y-86000000D03*
%TD*%
%TO.C,R14*%
X98000000Y-84000000D03*
X98000000Y-86000000D03*
%TD*%
%TO.C,R31*%
X204000000Y-84000000D03*
X204000000Y-86000000D03*
%TD*%
%TO.C,R33*%
X129000000Y-84000000D03*
X129000000Y-86000000D03*
%TD*%
D13*
%TO.C,U1*%
X145460000Y-63000000D03*
X146730000Y-63000000D03*
X148000000Y-63000000D03*
X149270000Y-63000000D03*
X150540000Y-63000000D03*
X151810000Y-63000000D03*
X153080000Y-63000000D03*
X154350000Y-63000000D03*
X155620000Y-63000000D03*
X156890000Y-63000000D03*
X158160000Y-63000000D03*
X159430000Y-63000000D03*
X160700000Y-63000000D03*
X161970000Y-63000000D03*
D14*
X163220000Y-66035000D03*
X163220000Y-67305000D03*
X163220000Y-68575000D03*
X163220000Y-69845000D03*
X163220000Y-71115000D03*
X163220000Y-72385000D03*
X163220000Y-73655000D03*
X163220000Y-74925000D03*
X163220000Y-76195000D03*
X163220000Y-77465000D03*
D13*
X161970000Y-80500000D03*
X160700000Y-80500000D03*
X159430000Y-80500000D03*
X158160000Y-80500000D03*
X156890000Y-80500000D03*
X155620000Y-80500000D03*
X154350000Y-80500000D03*
X153080000Y-80500000D03*
X151810000Y-80500000D03*
X150540000Y-80500000D03*
X149270000Y-80500000D03*
X148000000Y-80500000D03*
X146730000Y-80500000D03*
X145460000Y-80500000D03*
D15*
X154580000Y-68850000D03*
X153180000Y-68850000D03*
X151780000Y-68850000D03*
X154580000Y-70250000D03*
X153180000Y-70250000D03*
X151780000Y-70250000D03*
X154580000Y-71650000D03*
X153180000Y-71650000D03*
X151780000Y-71650000D03*
%TD*%
D10*
%TO.C,R39*%
X183000000Y-84000000D03*
X183000000Y-86000000D03*
%TD*%
%TO.C,R45*%
X144000000Y-84000000D03*
X144000000Y-86000000D03*
%TD*%
%TO.C,R50*%
X189000000Y-84000000D03*
X189000000Y-86000000D03*
%TD*%
%TO.C,R29*%
X186000000Y-84000000D03*
X186000000Y-86000000D03*
%TD*%
%TO.C,R34*%
X138000000Y-84000000D03*
X138000000Y-86000000D03*
%TD*%
%TO.C,R26*%
X159000000Y-84000000D03*
X159000000Y-86000000D03*
%TD*%
%TO.C,R28*%
X177000000Y-84000000D03*
X177000000Y-86000000D03*
%TD*%
%TO.C,R17*%
X95000000Y-84000000D03*
X95000000Y-86000000D03*
%TD*%
%TO.C,R47*%
X162000000Y-84000000D03*
X162000000Y-86000000D03*
%TD*%
%TO.C,R37*%
X165000000Y-84000000D03*
X165000000Y-86000000D03*
%TD*%
%TO.C,R46*%
X153000000Y-84000000D03*
X153000000Y-86000000D03*
%TD*%
%TO.C,R36*%
X156000000Y-84000000D03*
X156000000Y-86000000D03*
%TD*%
%TO.C,R23*%
X132000000Y-84000000D03*
X132000000Y-86000000D03*
%TD*%
%TO.C,R18*%
X104000000Y-84000000D03*
X104000000Y-86000000D03*
%TD*%
M02*
