%TF.GenerationSoftware,KiCad,Pcbnew,9.0.1*%
%TF.CreationDate,2025-06-18T18:38:46+02:00*%
%TF.ProjectId,open_g_db,6f70656e-5f67-45f6-9462-2e6b69636164,rev?*%
%TF.SameCoordinates,Original*%
%TF.FileFunction,Soldermask,Top*%
%TF.FilePolarity,Negative*%
%FSLAX46Y46*%
G04 Gerber Fmt 4.6, Leading zero omitted, Abs format (unit mm)*
G04 Created by KiCad (PCBNEW 9.0.1) date 2025-06-18 18:38:46*
%MOMM*%
%LPD*%
G01*
G04 APERTURE LIST*
G04 Aperture macros list*
%AMRoundRect*
0 Rectangle with rounded corners*
0 $1 Rounding radius*
0 $2 $3 $4 $5 $6 $7 $8 $9 X,Y pos of 4 corners*
0 Add a 4 corners polygon primitive as box body*
4,1,4,$2,$3,$4,$5,$6,$7,$8,$9,$2,$3,0*
0 Add four circle primitives for the rounded corners*
1,1,$1+$1,$2,$3*
1,1,$1+$1,$4,$5*
1,1,$1+$1,$6,$7*
1,1,$1+$1,$8,$9*
0 Add four rect primitives between the rounded corners*
20,1,$1+$1,$2,$3,$4,$5,0*
20,1,$1+$1,$4,$5,$6,$7,0*
20,1,$1+$1,$6,$7,$8,$9,0*
20,1,$1+$1,$8,$9,$2,$3,0*%
G04 Aperture macros list end*
%ADD10R,1.800000X1.800000*%
%ADD11C,1.800000*%
%ADD12RoundRect,0.250000X0.337500X0.475000X-0.337500X0.475000X-0.337500X-0.475000X0.337500X-0.475000X0*%
%ADD13R,1.234000X1.234000*%
%ADD14C,1.234000*%
%ADD15R,1.600000X1.600000*%
%ADD16C,1.600000*%
%ADD17RoundRect,0.250000X-0.350000X-0.450000X0.350000X-0.450000X0.350000X0.450000X-0.350000X0.450000X0*%
%ADD18R,1.650000X1.650000*%
%ADD19C,1.650000*%
%ADD20C,4.650000*%
%ADD21R,2.000000X2.000000*%
%ADD22C,2.000000*%
%ADD23C,0.900000*%
%ADD24C,10.000000*%
%ADD25RoundRect,0.250000X0.475000X-0.337500X0.475000X0.337500X-0.475000X0.337500X-0.475000X-0.337500X0*%
%ADD26R,1.500000X1.500000*%
%ADD27C,1.500000*%
%ADD28C,2.500000*%
%ADD29R,2.100000X1.400000*%
%ADD30RoundRect,0.250000X0.450000X-0.350000X0.450000X0.350000X-0.450000X0.350000X-0.450000X-0.350000X0*%
%ADD31C,1.540000*%
%ADD32C,1.950000*%
%ADD33C,2.400000*%
%ADD34RoundRect,0.250000X-0.450000X0.350000X-0.450000X-0.350000X0.450000X-0.350000X0.450000X0.350000X0*%
%ADD35R,1.980000X1.980000*%
%ADD36C,1.980000*%
%ADD37RoundRect,0.150000X0.150000X-0.875000X0.150000X0.875000X-0.150000X0.875000X-0.150000X-0.875000X0*%
%ADD38R,2.775000X2.775000*%
%ADD39C,2.775000*%
%ADD40R,0.550000X1.150000*%
%ADD41C,0.600000*%
G04 APERTURE END LIST*
D10*
%TO.C,D13*%
X181730000Y-92595000D03*
D11*
X184270000Y-92595000D03*
%TD*%
D12*
%TO.C,C8*%
X147000000Y-67000000D03*
X144925000Y-67000000D03*
%TD*%
D10*
%TO.C,D11*%
X163730000Y-92595000D03*
D11*
X166270000Y-92595000D03*
%TD*%
D13*
%TO.C,Q4*%
X110460000Y-88400000D03*
D14*
X113000000Y-88400000D03*
X115540000Y-88400000D03*
%TD*%
D12*
%TO.C,C11*%
X174837500Y-62900000D03*
X172762500Y-62900000D03*
%TD*%
D15*
%TO.C,C4*%
X93000000Y-64000000D03*
D16*
X91000000Y-64000000D03*
%TD*%
D15*
%TO.C,C10*%
X113000000Y-64000000D03*
D16*
X115000000Y-64000000D03*
%TD*%
D17*
%TO.C,R10*%
X209000000Y-64000000D03*
X211000000Y-64000000D03*
%TD*%
D10*
%TO.C,D16*%
X208730000Y-92595000D03*
D11*
X211270000Y-92595000D03*
%TD*%
D18*
%TO.C,J1*%
X50940000Y-83085000D03*
D19*
X50940000Y-80315000D03*
X50940000Y-77545000D03*
X50940000Y-74775000D03*
X50940000Y-72005000D03*
X48100000Y-81700000D03*
X48100000Y-78930000D03*
X48100000Y-76160000D03*
X48100000Y-73390000D03*
D20*
X49520000Y-90040000D03*
X49520000Y-65050000D03*
%TD*%
D13*
%TO.C,Q3*%
X101460000Y-88400000D03*
D14*
X104000000Y-88400000D03*
X106540000Y-88400000D03*
%TD*%
D13*
%TO.C,Q12*%
X189460000Y-88430000D03*
D14*
X192000000Y-88430000D03*
X194540000Y-88430000D03*
%TD*%
D21*
%TO.C,LS1*%
X217000000Y-77500000D03*
D22*
X217000000Y-72500000D03*
%TD*%
D23*
%TO.C,H2*%
X56250000Y-75000000D03*
X57348350Y-72348350D03*
X57348350Y-77651650D03*
X60000000Y-71250000D03*
D24*
X60000000Y-75000000D03*
D23*
X60000000Y-78750000D03*
X62651650Y-72348350D03*
X62651650Y-77651650D03*
X63750000Y-75000000D03*
%TD*%
D10*
%TO.C,D15*%
X199730000Y-92595000D03*
D11*
X202270000Y-92595000D03*
%TD*%
D13*
%TO.C,Q9*%
X162460000Y-88430000D03*
D14*
X165000000Y-88430000D03*
X167540000Y-88430000D03*
%TD*%
D25*
%TO.C,C2*%
X137400000Y-74700000D03*
X137400000Y-72625000D03*
%TD*%
D13*
%TO.C,Q13*%
X198460000Y-88430000D03*
D14*
X201000000Y-88430000D03*
X203540000Y-88430000D03*
%TD*%
D12*
%TO.C,C3*%
X140900000Y-61900000D03*
X138825000Y-61900000D03*
%TD*%
D13*
%TO.C,Q1*%
X219440000Y-65470000D03*
D14*
X216900000Y-65470000D03*
X214360001Y-65470000D03*
%TD*%
D26*
%TO.C,PS2*%
X108000000Y-69000000D03*
D27*
X110540000Y-69000000D03*
X113080000Y-69000000D03*
%TD*%
D10*
%TO.C,D10*%
X154730000Y-92595000D03*
D11*
X157270000Y-92595000D03*
%TD*%
D28*
%TO.C,TP3*%
X119100000Y-64700000D03*
%TD*%
%TO.C,TP2*%
X86500000Y-68400000D03*
%TD*%
D17*
%TO.C,R2*%
X58000000Y-88600000D03*
X60000000Y-88600000D03*
%TD*%
D13*
%TO.C,Q10*%
X171460000Y-88430000D03*
D14*
X174000000Y-88430000D03*
X176540000Y-88430000D03*
%TD*%
D29*
%TO.C,IC2*%
X134100000Y-75800000D03*
X125000000Y-75800000D03*
X134100000Y-71300000D03*
X125000000Y-71300000D03*
%TD*%
D28*
%TO.C,TP10*%
X166200000Y-67500000D03*
%TD*%
D12*
%TO.C,C7*%
X147000000Y-64400000D03*
X144925000Y-64400000D03*
%TD*%
D10*
%TO.C,D4*%
X93730000Y-92565000D03*
D11*
X96270000Y-92565000D03*
%TD*%
D10*
%TO.C,D6*%
X111730000Y-92565000D03*
D11*
X114270000Y-92565000D03*
%TD*%
D10*
%TO.C,D12*%
X172730000Y-92595000D03*
D11*
X175270000Y-92595000D03*
%TD*%
D30*
%TO.C,R13*%
X118500000Y-78000000D03*
X118500000Y-76000000D03*
%TD*%
D29*
%TO.C,IC1*%
X134100000Y-67600000D03*
X125000000Y-67600000D03*
X134100000Y-63100000D03*
X125000000Y-63100000D03*
%TD*%
D17*
%TO.C,R1*%
X66100000Y-64900000D03*
X68100000Y-64900000D03*
%TD*%
D15*
%TO.C,C5*%
X98000000Y-64000000D03*
D16*
X100000000Y-64000000D03*
%TD*%
D13*
%TO.C,Q5*%
X126460000Y-88430000D03*
D14*
X129000000Y-88430000D03*
X131540000Y-88430000D03*
%TD*%
D31*
%TO.C,J2*%
X80135000Y-92490000D03*
X84635000Y-92490000D03*
D32*
X85890000Y-90000000D03*
X78880000Y-90000000D03*
%TD*%
D30*
%TO.C,R3*%
X169000000Y-72500000D03*
X169000000Y-70500000D03*
%TD*%
D28*
%TO.C,TP1*%
X86500000Y-64000000D03*
%TD*%
D13*
%TO.C,Q6*%
X135460000Y-88430000D03*
D14*
X138000000Y-88430000D03*
X140540000Y-88430000D03*
%TD*%
D33*
%TO.C,F1*%
X73000000Y-66000000D03*
X73000000Y-62600000D03*
X59530000Y-66000000D03*
X59530000Y-62600000D03*
%TD*%
D34*
%TO.C,R7*%
X140900000Y-64500000D03*
X140900000Y-66500000D03*
%TD*%
D10*
%TO.C,D7*%
X127730000Y-92595000D03*
D11*
X130270000Y-92595000D03*
%TD*%
D35*
%TO.C,D1*%
X80000000Y-66000000D03*
D36*
X80000000Y-71150000D03*
%TD*%
D30*
%TO.C,R11*%
X121300000Y-78000000D03*
X121300000Y-76000000D03*
%TD*%
D28*
%TO.C,TP9*%
X119100000Y-70600000D03*
%TD*%
D15*
%TO.C,C9*%
X108000000Y-65000000D03*
D16*
X108000000Y-63000000D03*
%TD*%
D34*
%TO.C,R4*%
X169000000Y-66200000D03*
X169000000Y-68200000D03*
%TD*%
D23*
%TO.C,H1*%
X226250000Y-75000000D03*
X227348350Y-72348350D03*
X227348350Y-77651650D03*
X230000000Y-71250000D03*
D24*
X230000000Y-75000000D03*
D23*
X230000000Y-78750000D03*
X232651650Y-72348350D03*
X232651650Y-77651650D03*
X233750000Y-75000000D03*
%TD*%
D37*
%TO.C,U2*%
X172730001Y-75000000D03*
X174000000Y-75000000D03*
X175270000Y-75000000D03*
X176540000Y-75000001D03*
X177810000Y-75000000D03*
X179080000Y-75000000D03*
X180350000Y-75000000D03*
X181620000Y-75000000D03*
X182890000Y-75000001D03*
X184160000Y-75000000D03*
X185430000Y-75000000D03*
X186699999Y-75000000D03*
X186699999Y-65700000D03*
X185430000Y-65700000D03*
X184160000Y-65700000D03*
X182890000Y-65699999D03*
X181620000Y-65700000D03*
X180350000Y-65700000D03*
X179080000Y-65700000D03*
X177810000Y-65700000D03*
X176540000Y-65699999D03*
X175270000Y-65700000D03*
X174000000Y-65700000D03*
X172730001Y-65700000D03*
%TD*%
D13*
%TO.C,Q2*%
X92460000Y-88400000D03*
D14*
X95000000Y-88400000D03*
X97540000Y-88400000D03*
%TD*%
D26*
%TO.C,PS1*%
X93000000Y-69035000D03*
D27*
X95540000Y-69035000D03*
X98080000Y-69035000D03*
%TD*%
D10*
%TO.C,D5*%
X102730000Y-92565000D03*
D11*
X105270000Y-92565000D03*
%TD*%
D13*
%TO.C,Q14*%
X207460000Y-88430000D03*
D14*
X210000000Y-88430000D03*
X212540000Y-88430000D03*
%TD*%
D38*
%TO.C,S1*%
X70900000Y-79300000D03*
D39*
X70900000Y-75490000D03*
X70900000Y-71680000D03*
X73440000Y-92000000D03*
X68360000Y-92000000D03*
%TD*%
D13*
%TO.C,Q11*%
X180460000Y-88430000D03*
D14*
X183000000Y-88430000D03*
X185540000Y-88430000D03*
%TD*%
D28*
%TO.C,TP11*%
X166200000Y-71200000D03*
%TD*%
D13*
%TO.C,Q7*%
X144460000Y-88430000D03*
D14*
X147000000Y-88430000D03*
X149540000Y-88430000D03*
%TD*%
D13*
%TO.C,Q8*%
X153460000Y-88430000D03*
D14*
X156000000Y-88430000D03*
X158540000Y-88430000D03*
%TD*%
D40*
%TO.C,D3*%
X209750000Y-74000000D03*
X208450000Y-74000000D03*
X209100000Y-76000000D03*
%TD*%
D10*
%TO.C,D8*%
X136730000Y-92595000D03*
D11*
X139270000Y-92595000D03*
%TD*%
D10*
%TO.C,D2*%
X57630000Y-92565000D03*
D11*
X60170000Y-92565000D03*
%TD*%
D10*
%TO.C,D14*%
X190730000Y-92595000D03*
D11*
X193270000Y-92595000D03*
%TD*%
D28*
%TO.C,TP5*%
X203000000Y-64000000D03*
%TD*%
%TO.C,TP8*%
X158200000Y-74800000D03*
%TD*%
D10*
%TO.C,D9*%
X145730000Y-92595000D03*
D11*
X148270000Y-92595000D03*
%TD*%
D25*
%TO.C,C1*%
X137500000Y-66500000D03*
X137500000Y-64425000D03*
%TD*%
D17*
%TO.C,R12*%
X209000000Y-68000000D03*
X211000000Y-68000000D03*
%TD*%
D41*
%TO.C,U1*%
X153880000Y-68850000D03*
X152480000Y-68850000D03*
X154580000Y-69550000D03*
X153180000Y-69550000D03*
X151780000Y-69550000D03*
X153880000Y-70250000D03*
X152480000Y-70250000D03*
X154580000Y-70950000D03*
X153180000Y-70950000D03*
X151780000Y-70950000D03*
X153880000Y-71650000D03*
X152480000Y-71650000D03*
%TD*%
M02*
