%TF.GenerationSoftware,KiCad,Pcbnew,9.0.1*%
%TF.CreationDate,2025-06-17T16:13:15+02:00*%
%TF.ProjectId,open_g_db,6f70656e-5f67-45f6-9462-2e6b69636164,rev?*%
%TF.SameCoordinates,Original*%
%TF.FileFunction,Paste,Top*%
%TF.FilePolarity,Positive*%
%FSLAX46Y46*%
G04 Gerber Fmt 4.6, Leading zero omitted, Abs format (unit mm)*
G04 Created by KiCad (PCBNEW 9.0.1) date 2025-06-17 16:13:15*
%MOMM*%
%LPD*%
G01*
G04 APERTURE LIST*
G04 Aperture macros list*
%AMRoundRect*
0 Rectangle with rounded corners*
0 $1 Rounding radius*
0 $2 $3 $4 $5 $6 $7 $8 $9 X,Y pos of 4 corners*
0 Add a 4 corners polygon primitive as box body*
4,1,4,$2,$3,$4,$5,$6,$7,$8,$9,$2,$3,0*
0 Add four circle primitives for the rounded corners*
1,1,$1+$1,$2,$3*
1,1,$1+$1,$4,$5*
1,1,$1+$1,$6,$7*
1,1,$1+$1,$8,$9*
0 Add four rect primitives between the rounded corners*
20,1,$1+$1,$2,$3,$4,$5,0*
20,1,$1+$1,$4,$5,$6,$7,0*
20,1,$1+$1,$6,$7,$8,$9,0*
20,1,$1+$1,$8,$9,$2,$3,0*%
G04 Aperture macros list end*
%ADD10RoundRect,0.250000X-0.350000X-0.450000X0.350000X-0.450000X0.350000X0.450000X-0.350000X0.450000X0*%
%ADD11RoundRect,0.250000X0.450000X-0.350000X0.450000X0.350000X-0.450000X0.350000X-0.450000X-0.350000X0*%
%ADD12RoundRect,0.250000X-0.450000X0.350000X-0.450000X-0.350000X0.450000X-0.350000X0.450000X0.350000X0*%
%ADD13RoundRect,0.250000X0.337500X0.475000X-0.337500X0.475000X-0.337500X-0.475000X0.337500X-0.475000X0*%
%ADD14RoundRect,0.250000X0.475000X-0.337500X0.475000X0.337500X-0.475000X0.337500X-0.475000X-0.337500X0*%
%ADD15R,2.100000X1.400000*%
%ADD16RoundRect,0.150000X0.150000X-0.875000X0.150000X0.875000X-0.150000X0.875000X-0.150000X-0.875000X0*%
%ADD17R,0.550000X1.150000*%
G04 APERTURE END LIST*
D10*
%TO.C,R1*%
X66100000Y-64900000D03*
X68100000Y-64900000D03*
%TD*%
D11*
%TO.C,R13*%
X118500000Y-78000000D03*
X118500000Y-76000000D03*
%TD*%
D10*
%TO.C,R10*%
X209000000Y-64000000D03*
X211000000Y-64000000D03*
%TD*%
%TO.C,R2*%
X58000000Y-88600000D03*
X60000000Y-88600000D03*
%TD*%
D11*
%TO.C,R3*%
X169000000Y-72500000D03*
X169000000Y-70500000D03*
%TD*%
D12*
%TO.C,R7*%
X140900000Y-64500000D03*
X140900000Y-66500000D03*
%TD*%
D11*
%TO.C,R11*%
X121300000Y-78000000D03*
X121300000Y-76000000D03*
%TD*%
D12*
%TO.C,R4*%
X169000000Y-66200000D03*
X169000000Y-68200000D03*
%TD*%
D10*
%TO.C,R12*%
X209000000Y-68000000D03*
X211000000Y-68000000D03*
%TD*%
D13*
%TO.C,C8*%
X147000000Y-67000000D03*
X144925000Y-67000000D03*
%TD*%
%TO.C,C11*%
X174837500Y-62900000D03*
X172762500Y-62900000D03*
%TD*%
D14*
%TO.C,C2*%
X137400000Y-74700000D03*
X137400000Y-72625000D03*
%TD*%
D13*
%TO.C,C3*%
X140900000Y-61900000D03*
X138825000Y-61900000D03*
%TD*%
D15*
%TO.C,IC2*%
X134100000Y-75800000D03*
X125000000Y-75800000D03*
X134100000Y-71300000D03*
X125000000Y-71300000D03*
%TD*%
D13*
%TO.C,C7*%
X147000000Y-64400000D03*
X144925000Y-64400000D03*
%TD*%
D15*
%TO.C,IC1*%
X134100000Y-67600000D03*
X125000000Y-67600000D03*
X134100000Y-63100000D03*
X125000000Y-63100000D03*
%TD*%
D16*
%TO.C,U2*%
X172730001Y-75000000D03*
X174000000Y-75000000D03*
X175270000Y-75000000D03*
X176540000Y-75000001D03*
X177810000Y-75000000D03*
X179080000Y-75000000D03*
X180350000Y-75000000D03*
X181620000Y-75000000D03*
X182890000Y-75000001D03*
X184160000Y-75000000D03*
X185430000Y-75000000D03*
X186699999Y-75000000D03*
X186699999Y-65700000D03*
X185430000Y-65700000D03*
X184160000Y-65700000D03*
X182890000Y-65699999D03*
X181620000Y-65700000D03*
X180350000Y-65700000D03*
X179080000Y-65700000D03*
X177810000Y-65700000D03*
X176540000Y-65699999D03*
X175270000Y-65700000D03*
X174000000Y-65700000D03*
X172730001Y-65700000D03*
%TD*%
D17*
%TO.C,D3*%
X209750000Y-74000000D03*
X208450000Y-74000000D03*
X209100000Y-76000000D03*
%TD*%
D14*
%TO.C,C1*%
X137500000Y-66500000D03*
X137500000Y-64425000D03*
%TD*%
M02*
