%TF.GenerationSoftware,KiCad,Pcbnew,9.0.1*%
%TF.CreationDate,2025-06-17T16:13:15+02:00*%
%TF.ProjectId,open_g_db,6f70656e-5f67-45f6-9462-2e6b69636164,rev?*%
%TF.SameCoordinates,Original*%
%TF.FileFunction,Copper,L4,Bot*%
%TF.FilePolarity,Positive*%
%FSLAX46Y46*%
G04 Gerber Fmt 4.6, Leading zero omitted, Abs format (unit mm)*
G04 Created by KiCad (PCBNEW 9.0.1) date 2025-06-17 16:13:15*
%MOMM*%
%LPD*%
G01*
G04 APERTURE LIST*
G04 Aperture macros list*
%AMRoundRect*
0 Rectangle with rounded corners*
0 $1 Rounding radius*
0 $2 $3 $4 $5 $6 $7 $8 $9 X,Y pos of 4 corners*
0 Add a 4 corners polygon primitive as box body*
4,1,4,$2,$3,$4,$5,$6,$7,$8,$9,$2,$3,0*
0 Add four circle primitives for the rounded corners*
1,1,$1+$1,$2,$3*
1,1,$1+$1,$4,$5*
1,1,$1+$1,$6,$7*
1,1,$1+$1,$8,$9*
0 Add four rect primitives between the rounded corners*
20,1,$1+$1,$2,$3,$4,$5,0*
20,1,$1+$1,$4,$5,$6,$7,0*
20,1,$1+$1,$6,$7,$8,$9,0*
20,1,$1+$1,$8,$9,$2,$3,0*%
G04 Aperture macros list end*
%TA.AperFunction,ComponentPad*%
%ADD10R,1.500000X1.500000*%
%TD*%
%TA.AperFunction,ComponentPad*%
%ADD11C,1.500000*%
%TD*%
%TA.AperFunction,SMDPad,CuDef*%
%ADD12RoundRect,0.250000X-0.450000X0.350000X-0.450000X-0.350000X0.450000X-0.350000X0.450000X0.350000X0*%
%TD*%
%TA.AperFunction,SMDPad,CuDef*%
%ADD13RoundRect,0.250000X0.450000X-0.350000X0.450000X0.350000X-0.450000X0.350000X-0.450000X-0.350000X0*%
%TD*%
%TA.AperFunction,ComponentPad*%
%ADD14R,1.650000X1.650000*%
%TD*%
%TA.AperFunction,ComponentPad*%
%ADD15C,1.650000*%
%TD*%
%TA.AperFunction,ComponentPad*%
%ADD16C,4.650000*%
%TD*%
%TA.AperFunction,ComponentPad*%
%ADD17R,1.600000X1.600000*%
%TD*%
%TA.AperFunction,ComponentPad*%
%ADD18C,1.600000*%
%TD*%
%TA.AperFunction,ComponentPad*%
%ADD19R,1.800000X1.800000*%
%TD*%
%TA.AperFunction,ComponentPad*%
%ADD20C,1.800000*%
%TD*%
%TA.AperFunction,ComponentPad*%
%ADD21R,1.234000X1.234000*%
%TD*%
%TA.AperFunction,ComponentPad*%
%ADD22C,1.234000*%
%TD*%
%TA.AperFunction,ComponentPad*%
%ADD23R,2.000000X2.000000*%
%TD*%
%TA.AperFunction,ComponentPad*%
%ADD24C,2.000000*%
%TD*%
%TA.AperFunction,ComponentPad*%
%ADD25C,0.900000*%
%TD*%
%TA.AperFunction,ComponentPad*%
%ADD26C,10.000000*%
%TD*%
%TA.AperFunction,ComponentPad*%
%ADD27C,1.540000*%
%TD*%
%TA.AperFunction,ComponentPad*%
%ADD28C,1.950000*%
%TD*%
%TA.AperFunction,ComponentPad*%
%ADD29C,2.400000*%
%TD*%
%TA.AperFunction,ComponentPad*%
%ADD30R,1.980000X1.980000*%
%TD*%
%TA.AperFunction,ComponentPad*%
%ADD31C,1.980000*%
%TD*%
%TA.AperFunction,ComponentPad*%
%ADD32R,2.775000X2.775000*%
%TD*%
%TA.AperFunction,ComponentPad*%
%ADD33C,2.775000*%
%TD*%
%TA.AperFunction,SMDPad,CuDef*%
%ADD34C,2.500000*%
%TD*%
%TA.AperFunction,SMDPad,CuDef*%
%ADD35RoundRect,0.250000X0.475000X-0.337500X0.475000X0.337500X-0.475000X0.337500X-0.475000X-0.337500X0*%
%TD*%
%TA.AperFunction,SMDPad,CuDef*%
%ADD36R,0.900000X1.500000*%
%TD*%
%TA.AperFunction,SMDPad,CuDef*%
%ADD37R,1.500000X0.900000*%
%TD*%
%TA.AperFunction,HeatsinkPad*%
%ADD38R,0.900000X0.900000*%
%TD*%
%TA.AperFunction,HeatsinkPad*%
%ADD39C,0.600000*%
%TD*%
%TA.AperFunction,ViaPad*%
%ADD40C,0.600000*%
%TD*%
%TA.AperFunction,Conductor*%
%ADD41C,0.200000*%
%TD*%
G04 APERTURE END LIST*
D10*
%TO.P,PS2,1,+VIN*%
%TO.N,+12V*%
X108000000Y-69000000D03*
D11*
%TO.P,PS2,2,-VOUT*%
%TO.N,GND*%
X110540000Y-69000000D03*
%TO.P,PS2,3,GND*%
%TO.N,+5V*%
X113080000Y-69000000D03*
%TD*%
D12*
%TO.P,R51,1*%
%TO.N,GND*%
X198000000Y-84000000D03*
%TO.P,R51,2*%
%TO.N,Net-(Q13-Pad2)*%
X198000000Y-86000000D03*
%TD*%
%TO.P,R22,1*%
%TO.N,GND*%
X110000000Y-84000000D03*
%TO.P,R22,2*%
%TO.N,Net-(Q4-Pad2)*%
X110000000Y-86000000D03*
%TD*%
%TO.P,R48,1*%
%TO.N,GND*%
X171000000Y-84000000D03*
%TO.P,R48,2*%
%TO.N,Net-(Q10-Pad2)*%
X171000000Y-86000000D03*
%TD*%
%TO.P,R32,1*%
%TO.N,LED_PWR*%
X213000000Y-84000000D03*
%TO.P,R32,2*%
%TO.N,Net-(D16-A)*%
X213000000Y-86000000D03*
%TD*%
%TO.P,R5,1*%
%TO.N,+3V3*%
X79400000Y-83800000D03*
%TO.P,R5,2*%
%TO.N,Net-(J2-Pad1)*%
X79400000Y-85800000D03*
%TD*%
D13*
%TO.P,R9,1*%
%TO.N,+3V3*%
X135000000Y-75000000D03*
%TO.P,R9,2*%
%TO.N,/UART_1_TX*%
X135000000Y-73000000D03*
%TD*%
D12*
%TO.P,R21,1*%
%TO.N,GND*%
X101000000Y-84000000D03*
%TO.P,R21,2*%
%TO.N,Net-(Q3-Pad2)*%
X101000000Y-86000000D03*
%TD*%
%TO.P,R6,1*%
%TO.N,+3V3*%
X135000000Y-68800000D03*
%TO.P,R6,2*%
%TO.N,/UART_1_RX*%
X135000000Y-70800000D03*
%TD*%
%TO.P,R40,1*%
%TO.N,/Portexpander_LED/DP_LED_8*%
X192000000Y-84000000D03*
%TO.P,R40,2*%
%TO.N,Net-(Q12-Pad2)*%
X192000000Y-86000000D03*
%TD*%
%TO.P,R41,1*%
%TO.N,/Portexpander_LED/DP_LED_9*%
X201000000Y-84000000D03*
%TO.P,R41,2*%
%TO.N,Net-(Q13-Pad2)*%
X201000000Y-86000000D03*
%TD*%
%TO.P,R35,1*%
%TO.N,/Portexpander_LED/DP_LED_3*%
X147000000Y-84000000D03*
%TO.P,R35,2*%
%TO.N,Net-(Q7-Pad2)*%
X147000000Y-86000000D03*
%TD*%
%TO.P,R49,1*%
%TO.N,GND*%
X180000000Y-84000000D03*
%TO.P,R49,2*%
%TO.N,Net-(Q11-Pad2)*%
X180000000Y-86000000D03*
%TD*%
%TO.P,R25,1*%
%TO.N,LED_PWR*%
X150000000Y-84000000D03*
%TO.P,R25,2*%
%TO.N,Net-(D9-A)*%
X150000000Y-86000000D03*
%TD*%
%TO.P,R42,1*%
%TO.N,/Portexpander_LED/DP_LED_10*%
X210000000Y-84000000D03*
%TO.P,R42,2*%
%TO.N,Net-(Q14-Pad2)*%
X210000000Y-86000000D03*
%TD*%
%TO.P,R38,1*%
%TO.N,/Portexpander_LED/DP_LED_6*%
X174000000Y-84000000D03*
%TO.P,R38,2*%
%TO.N,Net-(Q10-Pad2)*%
X174000000Y-86000000D03*
%TD*%
%TO.P,R44,1*%
%TO.N,GND*%
X135000000Y-84000000D03*
%TO.P,R44,2*%
%TO.N,Net-(Q6-Pad2)*%
X135000000Y-86000000D03*
%TD*%
%TO.P,R52,1*%
%TO.N,GND*%
X207000000Y-84000000D03*
%TO.P,R52,2*%
%TO.N,Net-(Q14-Pad2)*%
X207000000Y-86000000D03*
%TD*%
D13*
%TO.P,R8,1*%
%TO.N,/QUERY_BTN*%
X86400000Y-85700000D03*
%TO.P,R8,2*%
%TO.N,GND*%
X86400000Y-83700000D03*
%TD*%
D12*
%TO.P,R43,1*%
%TO.N,GND*%
X126000000Y-84000000D03*
%TO.P,R43,2*%
%TO.N,Net-(Q5-Pad2)*%
X126000000Y-86000000D03*
%TD*%
%TO.P,R19,1*%
%TO.N,/Portexpander_LED/IND_LED_3*%
X113000000Y-84000000D03*
%TO.P,R19,2*%
%TO.N,Net-(Q4-Pad2)*%
X113000000Y-86000000D03*
%TD*%
%TO.P,R24,1*%
%TO.N,LED_PWR*%
X141000000Y-84000000D03*
%TO.P,R24,2*%
%TO.N,Net-(D8-A)*%
X141000000Y-86000000D03*
%TD*%
%TO.P,R27,1*%
%TO.N,LED_PWR*%
X168000000Y-84000000D03*
%TO.P,R27,2*%
%TO.N,Net-(D11-A)*%
X168000000Y-86000000D03*
%TD*%
%TO.P,R20,1*%
%TO.N,GND*%
X92000000Y-84000000D03*
%TO.P,R20,2*%
%TO.N,Net-(Q2-Pad2)*%
X92000000Y-86000000D03*
%TD*%
%TO.P,R16,1*%
%TO.N,LED_PWR*%
X116000000Y-84000000D03*
%TO.P,R16,2*%
%TO.N,Net-(D6-A)*%
X116000000Y-86000000D03*
%TD*%
%TO.P,R30,1*%
%TO.N,LED_PWR*%
X195000000Y-84000000D03*
%TO.P,R30,2*%
%TO.N,Net-(D14-A)*%
X195000000Y-86000000D03*
%TD*%
%TO.P,R15,1*%
%TO.N,LED_PWR*%
X107000000Y-84000000D03*
%TO.P,R15,2*%
%TO.N,Net-(D5-A)*%
X107000000Y-86000000D03*
%TD*%
%TO.P,R14,1*%
%TO.N,LED_PWR*%
X98000000Y-84000000D03*
%TO.P,R14,2*%
%TO.N,Net-(D4-A)*%
X98000000Y-86000000D03*
%TD*%
%TO.P,R31,1*%
%TO.N,LED_PWR*%
X204000000Y-84000000D03*
%TO.P,R31,2*%
%TO.N,Net-(D15-A)*%
X204000000Y-86000000D03*
%TD*%
%TO.P,R33,1*%
%TO.N,/Portexpander_LED/DP_LED_1*%
X129000000Y-84000000D03*
%TO.P,R33,2*%
%TO.N,Net-(Q5-Pad2)*%
X129000000Y-86000000D03*
%TD*%
%TO.P,R39,1*%
%TO.N,/Portexpander_LED/DP_LED_7*%
X183000000Y-84000000D03*
%TO.P,R39,2*%
%TO.N,Net-(Q11-Pad2)*%
X183000000Y-86000000D03*
%TD*%
%TO.P,R45,1*%
%TO.N,GND*%
X144000000Y-84000000D03*
%TO.P,R45,2*%
%TO.N,Net-(Q7-Pad2)*%
X144000000Y-86000000D03*
%TD*%
%TO.P,R50,1*%
%TO.N,GND*%
X189000000Y-84000000D03*
%TO.P,R50,2*%
%TO.N,Net-(Q12-Pad2)*%
X189000000Y-86000000D03*
%TD*%
%TO.P,R29,1*%
%TO.N,LED_PWR*%
X186000000Y-84000000D03*
%TO.P,R29,2*%
%TO.N,Net-(D13-A)*%
X186000000Y-86000000D03*
%TD*%
%TO.P,R34,1*%
%TO.N,/Portexpander_LED/DP_LED_2*%
X138000000Y-84000000D03*
%TO.P,R34,2*%
%TO.N,Net-(Q6-Pad2)*%
X138000000Y-86000000D03*
%TD*%
%TO.P,R26,1*%
%TO.N,LED_PWR*%
X159000000Y-84000000D03*
%TO.P,R26,2*%
%TO.N,Net-(D10-A)*%
X159000000Y-86000000D03*
%TD*%
%TO.P,R28,1*%
%TO.N,LED_PWR*%
X177000000Y-84000000D03*
%TO.P,R28,2*%
%TO.N,Net-(D12-A)*%
X177000000Y-86000000D03*
%TD*%
%TO.P,R17,1*%
%TO.N,/Portexpander_LED/IND_LED_1*%
X95000000Y-84000000D03*
%TO.P,R17,2*%
%TO.N,Net-(Q2-Pad2)*%
X95000000Y-86000000D03*
%TD*%
%TO.P,R47,1*%
%TO.N,GND*%
X162000000Y-84000000D03*
%TO.P,R47,2*%
%TO.N,Net-(Q9-Pad2)*%
X162000000Y-86000000D03*
%TD*%
%TO.P,R37,1*%
%TO.N,/Portexpander_LED/DP_LED_5*%
X165000000Y-84000000D03*
%TO.P,R37,2*%
%TO.N,Net-(Q9-Pad2)*%
X165000000Y-86000000D03*
%TD*%
%TO.P,R46,1*%
%TO.N,GND*%
X153000000Y-84000000D03*
%TO.P,R46,2*%
%TO.N,Net-(Q8-Pad2)*%
X153000000Y-86000000D03*
%TD*%
%TO.P,R36,1*%
%TO.N,/Portexpander_LED/DP_LED_4*%
X156000000Y-84000000D03*
%TO.P,R36,2*%
%TO.N,Net-(Q8-Pad2)*%
X156000000Y-86000000D03*
%TD*%
%TO.P,R23,1*%
%TO.N,LED_PWR*%
X132000000Y-84000000D03*
%TO.P,R23,2*%
%TO.N,Net-(D7-A)*%
X132000000Y-86000000D03*
%TD*%
%TO.P,R18,1*%
%TO.N,/Portexpander_LED/IND_LED_2*%
X104000000Y-84000000D03*
%TO.P,R18,2*%
%TO.N,Net-(Q3-Pad2)*%
X104000000Y-86000000D03*
%TD*%
D10*
%TO.P,PS1,1,+VIN*%
%TO.N,+12V*%
X93000000Y-69035000D03*
D11*
%TO.P,PS1,2,GND*%
%TO.N,GND*%
X95540000Y-69035000D03*
%TO.P,PS1,3,+VOUT*%
%TO.N,+3V3*%
X98080000Y-69035000D03*
%TD*%
D14*
%TO.P,J1,1,1*%
%TO.N,GND*%
X50940000Y-83085000D03*
D15*
%TO.P,J1,2,2*%
%TO.N,+12V*%
X50940000Y-80315000D03*
%TO.P,J1,3,3*%
%TO.N,unconnected-(J1-Pad3)*%
X50940000Y-77545000D03*
%TO.P,J1,4,4*%
%TO.N,/UART_1_TX*%
X50940000Y-74775000D03*
%TO.P,J1,5,5*%
%TO.N,/UART_1_RX*%
X50940000Y-72005000D03*
%TO.P,J1,6,6*%
%TO.N,unconnected-(J1-Pad6)*%
X48100000Y-81700000D03*
%TO.P,J1,7,7*%
%TO.N,+12P*%
X48100000Y-78930000D03*
%TO.P,J1,8,8*%
%TO.N,GND*%
X48100000Y-76160000D03*
%TO.P,J1,9,9*%
%TO.N,unconnected-(J1-Pad9)*%
X48100000Y-73390000D03*
D16*
%TO.P,J1,MH1*%
%TO.N,N/C*%
X49520000Y-90040000D03*
%TO.P,J1,MH2*%
X49520000Y-65050000D03*
%TD*%
D17*
%TO.P,C4,1*%
%TO.N,+12V*%
X93000000Y-64000000D03*
D18*
%TO.P,C4,2*%
%TO.N,GND*%
X91000000Y-64000000D03*
%TD*%
D17*
%TO.P,C10,1*%
%TO.N,+5V*%
X113000000Y-64000000D03*
D18*
%TO.P,C10,2*%
%TO.N,GND*%
X115000000Y-64000000D03*
%TD*%
D17*
%TO.P,C5,1*%
%TO.N,+3V3*%
X98000000Y-64000000D03*
D18*
%TO.P,C5,2*%
%TO.N,GND*%
X100000000Y-64000000D03*
%TD*%
D17*
%TO.P,C9,1*%
%TO.N,+12V*%
X108000000Y-65000000D03*
D18*
%TO.P,C9,2*%
%TO.N,GND*%
X108000000Y-63000000D03*
%TD*%
D19*
%TO.P,D13,1,K*%
%TO.N,Net-(D13-K)*%
X181730000Y-92595000D03*
D20*
%TO.P,D13,2,A*%
%TO.N,Net-(D13-A)*%
X184270000Y-92595000D03*
%TD*%
D19*
%TO.P,D11,1,K*%
%TO.N,Net-(D11-K)*%
X163730000Y-92595000D03*
D20*
%TO.P,D11,2,A*%
%TO.N,Net-(D11-A)*%
X166270000Y-92595000D03*
%TD*%
D21*
%TO.P,Q4,1*%
%TO.N,Net-(D6-K)*%
X110460000Y-88400000D03*
D22*
%TO.P,Q4,2*%
%TO.N,Net-(Q4-Pad2)*%
X113000000Y-88400000D03*
%TO.P,Q4,3*%
%TO.N,GND*%
X115540000Y-88400000D03*
%TD*%
D19*
%TO.P,D16,1,K*%
%TO.N,Net-(D16-K)*%
X208730000Y-92595000D03*
D20*
%TO.P,D16,2,A*%
%TO.N,Net-(D16-A)*%
X211270000Y-92595000D03*
%TD*%
D21*
%TO.P,Q3,1*%
%TO.N,Net-(D5-K)*%
X101460000Y-88400000D03*
D22*
%TO.P,Q3,2*%
%TO.N,Net-(Q3-Pad2)*%
X104000000Y-88400000D03*
%TO.P,Q3,3*%
%TO.N,GND*%
X106540000Y-88400000D03*
%TD*%
D21*
%TO.P,Q12,1*%
%TO.N,Net-(D14-K)*%
X189460000Y-88430000D03*
D22*
%TO.P,Q12,2*%
%TO.N,Net-(Q12-Pad2)*%
X192000000Y-88430000D03*
%TO.P,Q12,3*%
%TO.N,GND*%
X194540000Y-88430000D03*
%TD*%
D23*
%TO.P,LS1,1,+*%
%TO.N,LED_PWR*%
X217000000Y-77500000D03*
D24*
%TO.P,LS1,2,-*%
%TO.N,Net-(D3-A)*%
X217000000Y-72500000D03*
%TD*%
D25*
%TO.P,H2,1*%
%TO.N,N/C*%
X56250000Y-75000000D03*
X57348350Y-72348350D03*
X57348350Y-77651650D03*
X60000000Y-71250000D03*
D26*
X60000000Y-75000000D03*
D25*
X60000000Y-78750000D03*
X62651650Y-72348350D03*
X62651650Y-77651650D03*
X63750000Y-75000000D03*
%TD*%
D19*
%TO.P,D15,1,K*%
%TO.N,Net-(D15-K)*%
X199730000Y-92595000D03*
D20*
%TO.P,D15,2,A*%
%TO.N,Net-(D15-A)*%
X202270000Y-92595000D03*
%TD*%
D21*
%TO.P,Q9,1*%
%TO.N,Net-(D11-K)*%
X162460000Y-88430000D03*
D22*
%TO.P,Q9,2*%
%TO.N,Net-(Q9-Pad2)*%
X165000000Y-88430000D03*
%TO.P,Q9,3*%
%TO.N,GND*%
X167540000Y-88430000D03*
%TD*%
D21*
%TO.P,Q13,1*%
%TO.N,Net-(D15-K)*%
X198460000Y-88430000D03*
D22*
%TO.P,Q13,2*%
%TO.N,Net-(Q13-Pad2)*%
X201000000Y-88430000D03*
%TO.P,Q13,3*%
%TO.N,GND*%
X203540000Y-88430000D03*
%TD*%
D21*
%TO.P,Q1,1*%
%TO.N,Net-(D3-A)*%
X219440000Y-65470000D03*
D22*
%TO.P,Q1,2*%
%TO.N,Net-(Q1-Pad2)*%
X216900000Y-65470000D03*
%TO.P,Q1,3*%
%TO.N,GND*%
X214360001Y-65470000D03*
%TD*%
D19*
%TO.P,D10,1,K*%
%TO.N,Net-(D10-K)*%
X154730000Y-92595000D03*
D20*
%TO.P,D10,2,A*%
%TO.N,Net-(D10-A)*%
X157270000Y-92595000D03*
%TD*%
D21*
%TO.P,Q10,1*%
%TO.N,Net-(D12-K)*%
X171460000Y-88430000D03*
D22*
%TO.P,Q10,2*%
%TO.N,Net-(Q10-Pad2)*%
X174000000Y-88430000D03*
%TO.P,Q10,3*%
%TO.N,GND*%
X176540000Y-88430000D03*
%TD*%
D19*
%TO.P,D4,1,K*%
%TO.N,Net-(D4-K)*%
X93730000Y-92565000D03*
D20*
%TO.P,D4,2,A*%
%TO.N,Net-(D4-A)*%
X96270000Y-92565000D03*
%TD*%
D19*
%TO.P,D6,1,K*%
%TO.N,Net-(D6-K)*%
X111730000Y-92565000D03*
D20*
%TO.P,D6,2,A*%
%TO.N,Net-(D6-A)*%
X114270000Y-92565000D03*
%TD*%
D19*
%TO.P,D12,1,K*%
%TO.N,Net-(D12-K)*%
X172730000Y-92595000D03*
D20*
%TO.P,D12,2,A*%
%TO.N,Net-(D12-A)*%
X175270000Y-92595000D03*
%TD*%
D21*
%TO.P,Q5,1*%
%TO.N,Net-(D7-K)*%
X126460000Y-88430000D03*
D22*
%TO.P,Q5,2*%
%TO.N,Net-(Q5-Pad2)*%
X129000000Y-88430000D03*
%TO.P,Q5,3*%
%TO.N,GND*%
X131540000Y-88430000D03*
%TD*%
D27*
%TO.P,J2,1,1*%
%TO.N,Net-(J2-Pad1)*%
X80135000Y-92490000D03*
%TO.P,J2,2,2*%
%TO.N,/QUERY_BTN*%
X84635000Y-92490000D03*
D28*
%TO.P,J2,3,3*%
%TO.N,unconnected-(J2-Pad3)*%
X85890000Y-90000000D03*
%TO.P,J2,4,4*%
%TO.N,unconnected-(J2-Pad4)*%
X78880000Y-90000000D03*
%TD*%
D21*
%TO.P,Q6,1*%
%TO.N,Net-(D8-K)*%
X135460000Y-88430000D03*
D22*
%TO.P,Q6,2*%
%TO.N,Net-(Q6-Pad2)*%
X138000000Y-88430000D03*
%TO.P,Q6,3*%
%TO.N,GND*%
X140540000Y-88430000D03*
%TD*%
D29*
%TO.P,F1,1*%
%TO.N,+12V*%
X73000000Y-66000000D03*
X73000000Y-62600000D03*
%TO.P,F1,2*%
%TO.N,Net-(S1-COM)*%
X59530000Y-66000000D03*
X59530000Y-62600000D03*
%TD*%
D19*
%TO.P,D7,1,K*%
%TO.N,Net-(D7-K)*%
X127730000Y-92595000D03*
D20*
%TO.P,D7,2,A*%
%TO.N,Net-(D7-A)*%
X130270000Y-92595000D03*
%TD*%
D30*
%TO.P,D1,1*%
%TO.N,+12V*%
X80000000Y-66000000D03*
D31*
%TO.P,D1,2*%
%TO.N,GND*%
X80000000Y-71150000D03*
%TD*%
D25*
%TO.P,H1,1*%
%TO.N,N/C*%
X226250000Y-75000000D03*
X227348350Y-72348350D03*
X227348350Y-77651650D03*
X230000000Y-71250000D03*
D26*
X230000000Y-75000000D03*
D25*
X230000000Y-78750000D03*
X232651650Y-72348350D03*
X232651650Y-77651650D03*
X233750000Y-75000000D03*
%TD*%
D21*
%TO.P,Q2,1*%
%TO.N,Net-(D4-K)*%
X92460000Y-88400000D03*
D22*
%TO.P,Q2,2*%
%TO.N,Net-(Q2-Pad2)*%
X95000000Y-88400000D03*
%TO.P,Q2,3*%
%TO.N,GND*%
X97540000Y-88400000D03*
%TD*%
D19*
%TO.P,D5,1,K*%
%TO.N,Net-(D5-K)*%
X102730000Y-92565000D03*
D20*
%TO.P,D5,2,A*%
%TO.N,Net-(D5-A)*%
X105270000Y-92565000D03*
%TD*%
D21*
%TO.P,Q14,1*%
%TO.N,Net-(D16-K)*%
X207460000Y-88430000D03*
D22*
%TO.P,Q14,2*%
%TO.N,Net-(Q14-Pad2)*%
X210000000Y-88430000D03*
%TO.P,Q14,3*%
%TO.N,GND*%
X212540000Y-88430000D03*
%TD*%
D32*
%TO.P,S1,1,NO*%
%TO.N,+12P*%
X70900000Y-79300000D03*
D33*
%TO.P,S1,2,COM*%
%TO.N,Net-(S1-COM)*%
X70900000Y-75490000D03*
%TO.P,S1,3,NC*%
%TO.N,unconnected-(S1-NC-Pad3)*%
X70900000Y-71680000D03*
%TO.P,S1,MH1,MH1*%
%TO.N,unconnected-(S1-PadMH1)*%
X73440000Y-92000000D03*
%TO.P,S1,MH2,MH2*%
%TO.N,unconnected-(S1-PadMH2)*%
X68360000Y-92000000D03*
%TD*%
D21*
%TO.P,Q11,1*%
%TO.N,Net-(D13-K)*%
X180460000Y-88430000D03*
D22*
%TO.P,Q11,2*%
%TO.N,Net-(Q11-Pad2)*%
X183000000Y-88430000D03*
%TO.P,Q11,3*%
%TO.N,GND*%
X185540000Y-88430000D03*
%TD*%
D21*
%TO.P,Q7,1*%
%TO.N,Net-(D9-K)*%
X144460000Y-88430000D03*
D22*
%TO.P,Q7,2*%
%TO.N,Net-(Q7-Pad2)*%
X147000000Y-88430000D03*
%TO.P,Q7,3*%
%TO.N,GND*%
X149540000Y-88430000D03*
%TD*%
D21*
%TO.P,Q8,1*%
%TO.N,Net-(D10-K)*%
X153460000Y-88430000D03*
D22*
%TO.P,Q8,2*%
%TO.N,Net-(Q8-Pad2)*%
X156000000Y-88430000D03*
%TO.P,Q8,3*%
%TO.N,GND*%
X158540000Y-88430000D03*
%TD*%
D19*
%TO.P,D8,1,K*%
%TO.N,Net-(D8-K)*%
X136730000Y-92595000D03*
D20*
%TO.P,D8,2,A*%
%TO.N,Net-(D8-A)*%
X139270000Y-92595000D03*
%TD*%
D19*
%TO.P,D2,1,K*%
%TO.N,GND*%
X57630000Y-92565000D03*
D20*
%TO.P,D2,2,A*%
%TO.N,Net-(D2-A)*%
X60170000Y-92565000D03*
%TD*%
D19*
%TO.P,D14,1,K*%
%TO.N,Net-(D14-K)*%
X190730000Y-92595000D03*
D20*
%TO.P,D14,2,A*%
%TO.N,Net-(D14-A)*%
X193270000Y-92595000D03*
%TD*%
D19*
%TO.P,D9,1,K*%
%TO.N,Net-(D9-K)*%
X145730000Y-92595000D03*
D20*
%TO.P,D9,2,A*%
%TO.N,Net-(D9-A)*%
X148270000Y-92595000D03*
%TD*%
D34*
%TO.P,TP4,1,1*%
%TO.N,/QUERY_BTN*%
X89000000Y-81300000D03*
%TD*%
D35*
%TO.P,C6,1*%
%TO.N,/QUERY_BTN*%
X82900000Y-85775000D03*
%TO.P,C6,2*%
%TO.N,GND*%
X82900000Y-83700000D03*
%TD*%
D34*
%TO.P,TP7,1,1*%
%TO.N,/UART_1_TX*%
X68500000Y-85600000D03*
%TD*%
%TO.P,TP6,1,1*%
%TO.N,/UART_1_RX*%
X65400000Y-83000000D03*
%TD*%
D36*
%TO.P,U1,1,GND*%
%TO.N,GND*%
X145460000Y-63000000D03*
%TO.P,U1,2,VDD*%
%TO.N,+3V3*%
X146730000Y-63000000D03*
%TO.P,U1,3,EN*%
%TO.N,/ESP2_EN*%
X148000000Y-63000000D03*
%TO.P,U1,4,SENSOR_VP*%
%TO.N,unconnected-(U1-SENSOR_VP-Pad4)*%
X149270000Y-63000000D03*
%TO.P,U1,5,SENSOR_VN*%
%TO.N,unconnected-(U1-SENSOR_VN-Pad5)*%
X150540000Y-63000000D03*
%TO.P,U1,6,IO34*%
%TO.N,unconnected-(U1-IO34-Pad6)*%
X151810000Y-63000000D03*
%TO.P,U1,7,IO35*%
%TO.N,unconnected-(U1-IO35-Pad7)*%
X153080000Y-63000000D03*
%TO.P,U1,8,IO32*%
%TO.N,unconnected-(U1-IO32-Pad8)*%
X154350000Y-63000000D03*
%TO.P,U1,9,IO33*%
%TO.N,unconnected-(U1-IO33-Pad9)*%
X155620000Y-63000000D03*
%TO.P,U1,10,IO25*%
%TO.N,unconnected-(U1-IO25-Pad10)*%
X156890000Y-63000000D03*
%TO.P,U1,11,IO26*%
%TO.N,unconnected-(U1-IO26-Pad11)*%
X158160000Y-63000000D03*
%TO.P,U1,12,IO27*%
%TO.N,unconnected-(U1-IO27-Pad12)*%
X159430000Y-63000000D03*
%TO.P,U1,13,IO14*%
%TO.N,unconnected-(U1-IO14-Pad13)*%
X160700000Y-63000000D03*
%TO.P,U1,14,IO12*%
%TO.N,/BUZZER_EN*%
X161970000Y-63000000D03*
D37*
%TO.P,U1,15,GND*%
%TO.N,GND*%
X163220000Y-66035000D03*
%TO.P,U1,16,IO13*%
%TO.N,/QUERY_BTN*%
X163220000Y-67305000D03*
%TO.P,U1,17,NC*%
%TO.N,unconnected-(U1-NC-Pad17)*%
X163220000Y-68575000D03*
%TO.P,U1,18,NC*%
%TO.N,unconnected-(U1-NC-Pad18)*%
X163220000Y-69845000D03*
%TO.P,U1,19,NC*%
%TO.N,unconnected-(U1-NC-Pad19)*%
X163220000Y-71115000D03*
%TO.P,U1,20,NC*%
%TO.N,unconnected-(U1-NC-Pad20)*%
X163220000Y-72385000D03*
%TO.P,U1,21,NC*%
%TO.N,unconnected-(U1-NC-Pad21)*%
X163220000Y-73655000D03*
%TO.P,U1,22,NC*%
%TO.N,unconnected-(U1-NC-Pad22)*%
X163220000Y-74925000D03*
%TO.P,U1,23,IO15*%
%TO.N,unconnected-(U1-IO15-Pad23)*%
X163220000Y-76195000D03*
%TO.P,U1,24,IO2*%
%TO.N,unconnected-(U1-IO2-Pad24)*%
X163220000Y-77465000D03*
D36*
%TO.P,U1,25,IO0*%
%TO.N,/ESP2_BOOT*%
X161970000Y-80500000D03*
%TO.P,U1,26,IO4*%
%TO.N,unconnected-(U1-IO4-Pad26)*%
X160700000Y-80500000D03*
%TO.P,U1,27,IO16*%
%TO.N,unconnected-(U1-IO16-Pad27)*%
X159430000Y-80500000D03*
%TO.P,U1,28,IO17*%
%TO.N,I2C_1_SDA*%
X158160000Y-80500000D03*
%TO.P,U1,29,IO5*%
%TO.N,unconnected-(U1-IO5-Pad29)*%
X156890000Y-80500000D03*
%TO.P,U1,30,IO18*%
%TO.N,I2C_1_SCL*%
X155620000Y-80500000D03*
%TO.P,U1,31,IO19*%
%TO.N,unconnected-(U1-IO19-Pad31)*%
X154350000Y-80500000D03*
%TO.P,U1,32,NC*%
%TO.N,unconnected-(U1-NC-Pad32)*%
X153080000Y-80500000D03*
%TO.P,U1,33,IO21*%
%TO.N,unconnected-(U1-IO21-Pad33)*%
X151810000Y-80500000D03*
%TO.P,U1,34,RXD0/IO3*%
%TO.N,/UART_1_RX*%
X150540000Y-80500000D03*
%TO.P,U1,35,TXD0/IO1*%
%TO.N,/UART_1_TX*%
X149270000Y-80500000D03*
%TO.P,U1,36,IO22*%
%TO.N,unconnected-(U1-IO22-Pad36)*%
X148000000Y-80500000D03*
%TO.P,U1,37,IO23*%
%TO.N,unconnected-(U1-IO23-Pad37)*%
X146730000Y-80500000D03*
%TO.P,U1,38,GND*%
%TO.N,GND*%
X145460000Y-80500000D03*
D38*
%TO.P,U1,39,GND*%
X151780000Y-68850000D03*
D39*
X152480000Y-68850000D03*
D38*
X153180000Y-68850000D03*
D39*
X153880000Y-68850000D03*
D38*
X154580000Y-68850000D03*
D39*
X151780000Y-69550000D03*
X153180000Y-69550000D03*
X154580000Y-69550000D03*
D38*
X151780000Y-70250000D03*
D39*
X152480000Y-70250000D03*
D38*
X153180000Y-70250000D03*
D39*
X153880000Y-70250000D03*
D38*
X154580000Y-70250000D03*
D39*
X151780000Y-70950000D03*
X153180000Y-70950000D03*
X154580000Y-70950000D03*
D38*
X151780000Y-71650000D03*
D39*
X152480000Y-71650000D03*
D38*
X153180000Y-71650000D03*
D39*
X153880000Y-71650000D03*
D38*
X154580000Y-71650000D03*
%TD*%
D40*
%TO.N,+3V3*%
X167900000Y-73600000D03*
X146700000Y-61300000D03*
X133300000Y-73800000D03*
X81000000Y-81000000D03*
X147000000Y-68700000D03*
X170500000Y-64800000D03*
X137000000Y-68800000D03*
X142400000Y-61900000D03*
X170900000Y-62900000D03*
X119100000Y-64600000D03*
%TO.N,GND*%
X82900000Y-81000000D03*
X165300000Y-64300000D03*
X86500000Y-68400000D03*
X145400000Y-61200000D03*
X207000000Y-84000000D03*
X176200000Y-61400000D03*
X171000000Y-84000000D03*
X175200000Y-77000000D03*
X101060000Y-84000000D03*
X144000000Y-84000000D03*
X139400000Y-72900000D03*
X153000000Y-84000000D03*
X126100000Y-84000000D03*
X92060000Y-84000000D03*
X187400000Y-77000000D03*
X176600000Y-63300000D03*
X189000000Y-84000000D03*
X180000000Y-84000000D03*
X135000000Y-84000000D03*
X145000000Y-68700000D03*
X137200000Y-62600000D03*
X162000000Y-84000000D03*
X174000000Y-77000000D03*
X110000000Y-84000000D03*
X207000000Y-68000000D03*
X145400000Y-82300000D03*
X137200000Y-61200000D03*
X198000000Y-84000000D03*
%TO.N,/ESP2_EN*%
X142700000Y-66500000D03*
%TO.N,/ESP2_BOOT*%
X159500000Y-76100000D03*
%TO.N,+12V*%
X55500000Y-88600000D03*
X86500000Y-64000000D03*
%TO.N,/QUERY_BTN*%
X139400000Y-74000000D03*
X161100000Y-67300000D03*
%TO.N,/BUZZER_EN*%
X179900000Y-62400000D03*
%TO.N,I2C_1_SCL*%
X160100000Y-72500000D03*
%TO.N,I2C_1_SDA*%
X160725735Y-71025735D03*
%TO.N,/Portexpander_LED/DP_LED_4*%
X156000000Y-82700000D03*
%TO.N,/Portexpander_LED/DP_LED_5*%
X165000000Y-82600000D03*
%TO.N,/Portexpander_LED/DP_LED_6*%
X174000000Y-82000000D03*
%TO.N,/Portexpander_LED/DP_LED_7*%
X183000000Y-82000000D03*
%TO.N,/Portexpander_LED/DP_LED_8*%
X192000000Y-82000000D03*
%TO.N,/Portexpander_LED/DP_LED_9*%
X201000000Y-82000000D03*
%TO.N,/Portexpander_LED/DP_LED_3*%
X147000000Y-82700000D03*
%TO.N,/Portexpander_LED/DP_LED_10*%
X210000000Y-82000000D03*
%TO.N,/Portexpander_LED/DP_LED_2*%
X138000000Y-82000000D03*
%TO.N,/Portexpander_LED/DP_LED_1*%
X129000000Y-82000000D03*
%TO.N,/Portexpander_LED/IND_LED_1*%
X139199000Y-76801000D03*
%TO.N,/Portexpander_LED/IND_LED_2*%
X140900000Y-77400000D03*
%TO.N,/Portexpander_LED/IND_LED_3*%
X142500000Y-76800000D03*
%TO.N,LED_PWR*%
X215500000Y-85000000D03*
X117000000Y-82000000D03*
X216600000Y-85800000D03*
X215500000Y-85800000D03*
X98060000Y-84000000D03*
X120000000Y-81000000D03*
X117000000Y-81000000D03*
X122000000Y-82000000D03*
X186000000Y-84000000D03*
X122000000Y-81000000D03*
X168000000Y-84000000D03*
X118000000Y-81000000D03*
X118000000Y-80000000D03*
X118000000Y-82000000D03*
X119000000Y-82000000D03*
X123000000Y-82000000D03*
X121000000Y-81000000D03*
X120000000Y-80000000D03*
X122000000Y-80000000D03*
X123000000Y-81000000D03*
X120000000Y-82000000D03*
X159000000Y-84000000D03*
X119000000Y-81000000D03*
X123000000Y-80000000D03*
X119000000Y-80000000D03*
X107060000Y-84000000D03*
X115960000Y-84000000D03*
X216600000Y-85000000D03*
X117000000Y-80000000D03*
X141000000Y-84000000D03*
X150000000Y-84000000D03*
X121000000Y-82000000D03*
X204000000Y-84000000D03*
X121000000Y-80000000D03*
X177000000Y-84000000D03*
X132100000Y-84000000D03*
X195000000Y-84000000D03*
X213000000Y-84000000D03*
%TD*%
D41*
%TO.N,/UART_1_TX*%
X149700000Y-78500000D02*
X149270000Y-78930000D01*
X149700000Y-76867100D02*
X149700000Y-78500000D01*
X144933900Y-72101000D02*
X149700000Y-76867100D01*
X149270000Y-78930000D02*
X149270000Y-80500000D01*
X135899000Y-72101000D02*
X144933900Y-72101000D01*
X135000000Y-73000000D02*
X135899000Y-72101000D01*
%TO.N,/UART_1_RX*%
X150540000Y-77140000D02*
X150540000Y-80500000D01*
X145100000Y-71700000D02*
X150540000Y-77140000D01*
X135900000Y-71700000D02*
X145100000Y-71700000D01*
X135000000Y-70800000D02*
X135900000Y-71700000D01*
%TO.N,/UART_1_TX*%
X84199000Y-72101000D02*
X134101000Y-72101000D01*
X61600000Y-85600000D02*
X70700000Y-85600000D01*
X50940000Y-74940000D02*
X61600000Y-85600000D01*
X70700000Y-85600000D02*
X84199000Y-72101000D01*
X134101000Y-72101000D02*
X135000000Y-73000000D01*
X50940000Y-74775000D02*
X50940000Y-74940000D01*
%TO.N,/UART_1_RX*%
X134100000Y-71700000D02*
X135000000Y-70800000D01*
X84000000Y-71700000D02*
X134100000Y-71700000D01*
X72700000Y-83000000D02*
X84000000Y-71700000D01*
X60000000Y-83000000D02*
X72700000Y-83000000D01*
X53000000Y-76000000D02*
X60000000Y-83000000D01*
X53000000Y-74065000D02*
X53000000Y-76000000D01*
X50940000Y-72005000D02*
X53000000Y-74065000D01*
%TO.N,+3V3*%
X134500000Y-75000000D02*
X133300000Y-73800000D01*
X146700000Y-61300000D02*
X146700000Y-62950000D01*
X135000000Y-75000000D02*
X134500000Y-75000000D01*
X79400000Y-82600000D02*
X81000000Y-81000000D01*
X135000000Y-68800000D02*
X137000000Y-68800000D01*
X79400000Y-83800000D02*
X79400000Y-82600000D01*
X146700000Y-62950000D02*
X146650000Y-63000000D01*
%TO.N,GND*%
X82900000Y-83700000D02*
X86400000Y-83700000D01*
X145400000Y-61200000D02*
X145400000Y-62980000D01*
X82900000Y-83700000D02*
X82900000Y-81000000D01*
X145380000Y-82280000D02*
X145400000Y-82300000D01*
X165300000Y-64300000D02*
X163560000Y-66040000D01*
X48060000Y-76200000D02*
X48100000Y-76160000D01*
X92000000Y-84000000D02*
X92060000Y-84000000D01*
X126000000Y-84000000D02*
X126100000Y-84000000D01*
X145400000Y-62980000D02*
X145380000Y-63000000D01*
X101000000Y-84000000D02*
X101060000Y-84000000D01*
X145380000Y-80500000D02*
X145380000Y-82280000D01*
X163560000Y-66040000D02*
X163140000Y-66040000D01*
%TO.N,/ESP2_EN*%
X142700000Y-66500000D02*
X145370000Y-66500000D01*
X147920000Y-63950000D02*
X147920000Y-63000000D01*
X145370000Y-66500000D02*
X147920000Y-63950000D01*
%TO.N,/ESP2_BOOT*%
X159500000Y-76100000D02*
X161890000Y-78490000D01*
X161890000Y-78490000D02*
X161890000Y-80500000D01*
%TO.N,Net-(D4-A)*%
X98660000Y-90175000D02*
X96270000Y-92565000D01*
X98660000Y-86500000D02*
X98660000Y-90175000D01*
X98160000Y-86000000D02*
X98660000Y-86500000D01*
X98000000Y-86000000D02*
X98160000Y-86000000D01*
%TO.N,Net-(D8-A)*%
X141800000Y-86800000D02*
X141000000Y-86000000D01*
X139270000Y-92595000D02*
X141800000Y-90065000D01*
X141800000Y-90065000D02*
X141800000Y-86800000D01*
%TO.N,Net-(D8-K)*%
X136730000Y-92595000D02*
X136730000Y-89700000D01*
X136730000Y-89700000D02*
X135460000Y-88430000D01*
%TO.N,Net-(D9-K)*%
X145730000Y-89700000D02*
X144460000Y-88430000D01*
X145730000Y-92595000D02*
X145730000Y-89700000D01*
%TO.N,/QUERY_BTN*%
X82900000Y-85775000D02*
X86325000Y-85775000D01*
X82900000Y-85775000D02*
X82900000Y-90755000D01*
X161100000Y-67300000D02*
X161109999Y-67309999D01*
X100300000Y-72502000D02*
X130002000Y-72502000D01*
X82900000Y-90755000D02*
X84635000Y-92490000D01*
X130002000Y-72502000D02*
X133900000Y-76400000D01*
X133900000Y-76400000D02*
X137000000Y-76400000D01*
X88200000Y-83900000D02*
X88200000Y-82100000D01*
X89000000Y-81300000D02*
X97798000Y-72502000D01*
X88200000Y-82100000D02*
X89100000Y-81200000D01*
X86400000Y-85700000D02*
X88200000Y-83900000D01*
X161109999Y-67309999D02*
X163140000Y-67309999D01*
X137000000Y-76400000D02*
X139400000Y-74000000D01*
X97798000Y-72502000D02*
X100300000Y-72502000D01*
X86325000Y-85775000D02*
X86400000Y-85700000D01*
%TO.N,Net-(J2-Pad1)*%
X81000000Y-87400000D02*
X79400000Y-85800000D01*
X81000000Y-91625000D02*
X81000000Y-87400000D01*
X80135000Y-92490000D02*
X81000000Y-91625000D01*
%TO.N,/BUZZER_EN*%
X174300000Y-62400000D02*
X173400000Y-61500000D01*
X179900000Y-62400000D02*
X174300000Y-62400000D01*
X173400000Y-61500000D02*
X163100000Y-61500000D01*
X161890000Y-62710000D02*
X161890000Y-63000000D01*
X163100000Y-61500000D02*
X161890000Y-62710000D01*
%TO.N,Net-(D9-A)*%
X148270000Y-92595000D02*
X150458000Y-90407000D01*
X150458000Y-90407000D02*
X150458000Y-86458000D01*
X150458000Y-86458000D02*
X150000000Y-86000000D01*
%TO.N,Net-(D10-A)*%
X159458000Y-90407000D02*
X159458000Y-86458000D01*
X157270000Y-92595000D02*
X159458000Y-90407000D01*
X159458000Y-86458000D02*
X159000000Y-86000000D01*
%TO.N,Net-(D10-K)*%
X154730000Y-92595000D02*
X154730000Y-89700000D01*
X154730000Y-89700000D02*
X153460000Y-88430000D01*
%TO.N,Net-(D11-A)*%
X168700000Y-86700000D02*
X168000000Y-86000000D01*
X168700000Y-90165000D02*
X168700000Y-86700000D01*
X166270000Y-92595000D02*
X168700000Y-90165000D01*
%TO.N,Net-(D11-K)*%
X163730000Y-92595000D02*
X163730000Y-89700000D01*
X163730000Y-89700000D02*
X162460000Y-88430000D01*
%TO.N,Net-(D12-A)*%
X177800000Y-90065000D02*
X177800000Y-87000000D01*
X177800000Y-87000000D02*
X177000000Y-86200000D01*
X177000000Y-86200000D02*
X177000000Y-86000000D01*
X175270000Y-92595000D02*
X177800000Y-90065000D01*
%TO.N,Net-(D12-K)*%
X172730000Y-89700000D02*
X171460000Y-88430000D01*
X172730000Y-92595000D02*
X172730000Y-89700000D01*
%TO.N,Net-(D13-K)*%
X181730000Y-92595000D02*
X181730000Y-89700000D01*
X181730000Y-89700000D02*
X180460000Y-88430000D01*
%TO.N,Net-(D13-A)*%
X186458000Y-86458000D02*
X186000000Y-86000000D01*
X186458000Y-90407000D02*
X186458000Y-86458000D01*
X184270000Y-92595000D02*
X186458000Y-90407000D01*
%TO.N,Net-(D14-A)*%
X195458000Y-86458000D02*
X195000000Y-86000000D01*
X195458000Y-90407000D02*
X195458000Y-86458000D01*
X193270000Y-92595000D02*
X195458000Y-90407000D01*
%TO.N,Net-(D14-K)*%
X190730000Y-89700000D02*
X189460000Y-88430000D01*
X190730000Y-92595000D02*
X190730000Y-89700000D01*
%TO.N,Net-(D15-K)*%
X199730000Y-89700000D02*
X198460000Y-88430000D01*
X199730000Y-92595000D02*
X199730000Y-89700000D01*
%TO.N,Net-(D15-A)*%
X204458000Y-90407000D02*
X204458000Y-86458000D01*
X204458000Y-86458000D02*
X204000000Y-86000000D01*
X202270000Y-92595000D02*
X204458000Y-90407000D01*
%TO.N,Net-(D16-A)*%
X213458000Y-86458000D02*
X213000000Y-86000000D01*
X213458000Y-90407000D02*
X213458000Y-86458000D01*
X211270000Y-92595000D02*
X213458000Y-90407000D01*
%TO.N,Net-(D16-K)*%
X208730000Y-92595000D02*
X208730000Y-89700000D01*
X208730000Y-89700000D02*
X207460000Y-88430000D01*
%TO.N,Net-(D4-K)*%
X93730000Y-92565000D02*
X93730000Y-89670000D01*
X93730000Y-89670000D02*
X92460000Y-88400000D01*
%TO.N,Net-(D5-K)*%
X102730000Y-89770000D02*
X102730000Y-92565000D01*
X101460000Y-88500000D02*
X102730000Y-89770000D01*
X101460000Y-88400000D02*
X101460000Y-88500000D01*
%TO.N,Net-(D5-A)*%
X107060000Y-86000000D02*
X107660000Y-86600000D01*
X107000000Y-86000000D02*
X107060000Y-86000000D01*
X107660000Y-86600000D02*
X107660000Y-90175000D01*
X107660000Y-90175000D02*
X105270000Y-92565000D01*
%TO.N,Net-(D6-K)*%
X111730000Y-92565000D02*
X111730000Y-89670000D01*
X111730000Y-89670000D02*
X110460000Y-88400000D01*
%TO.N,Net-(D6-A)*%
X116660000Y-86600000D02*
X116660000Y-90175000D01*
X116660000Y-90175000D02*
X114270000Y-92565000D01*
X116060000Y-86000000D02*
X116660000Y-86600000D01*
X116000000Y-86000000D02*
X116060000Y-86000000D01*
%TO.N,Net-(D7-A)*%
X130270000Y-92595000D02*
X132700000Y-90165000D01*
X132700000Y-90165000D02*
X132700000Y-86700000D01*
X132700000Y-86700000D02*
X132000000Y-86000000D01*
%TO.N,Net-(D7-K)*%
X127730000Y-92595000D02*
X127730000Y-89700000D01*
X127730000Y-89700000D02*
X126460000Y-88430000D01*
%TO.N,Net-(Q5-Pad2)*%
X129000000Y-88430000D02*
X129000000Y-86000000D01*
X129000000Y-86000000D02*
X126000000Y-86000000D01*
%TO.N,Net-(Q6-Pad2)*%
X138000000Y-88430000D02*
X138000000Y-86000000D01*
X138000000Y-86000000D02*
X135000000Y-86000000D01*
%TO.N,Net-(Q7-Pad2)*%
X147000000Y-88430000D02*
X147000000Y-86000000D01*
X147000000Y-86000000D02*
X144000000Y-86000000D01*
%TO.N,Net-(Q8-Pad2)*%
X156000000Y-88430000D02*
X156000000Y-86000000D01*
X156000000Y-86000000D02*
X153000000Y-86000000D01*
%TO.N,Net-(Q9-Pad2)*%
X165000000Y-86000000D02*
X162000000Y-86000000D01*
X165000000Y-88430000D02*
X165000000Y-86000000D01*
%TO.N,Net-(Q10-Pad2)*%
X174000000Y-86000000D02*
X171000000Y-86000000D01*
X174000000Y-88430000D02*
X174000000Y-86000000D01*
%TO.N,Net-(Q11-Pad2)*%
X183000000Y-86000000D02*
X180000000Y-86000000D01*
X183000000Y-88430000D02*
X183000000Y-86000000D01*
%TO.N,Net-(Q12-Pad2)*%
X192000000Y-86000000D02*
X189000000Y-86000000D01*
X192000000Y-88430000D02*
X192000000Y-86000000D01*
%TO.N,Net-(Q13-Pad2)*%
X201000000Y-86000000D02*
X198000000Y-86000000D01*
X201000000Y-88430000D02*
X201000000Y-86000000D01*
%TO.N,Net-(Q14-Pad2)*%
X210000000Y-86000000D02*
X207000000Y-86000000D01*
X210000000Y-88430000D02*
X210000000Y-86000000D01*
%TO.N,Net-(Q2-Pad2)*%
X95000000Y-86000000D02*
X92000000Y-86000000D01*
X95000000Y-88400000D02*
X95000000Y-86000000D01*
%TO.N,Net-(Q3-Pad2)*%
X101000000Y-86000000D02*
X104000000Y-86000000D01*
X104000000Y-88400000D02*
X104000000Y-86000000D01*
%TO.N,Net-(Q4-Pad2)*%
X113000000Y-86000000D02*
X110000000Y-86000000D01*
X113000000Y-88400000D02*
X113000000Y-86000000D01*
%TO.N,I2C_1_SCL*%
X155540000Y-79460000D02*
X156600000Y-78400000D01*
X156600000Y-78400000D02*
X156600000Y-76000000D01*
X155540000Y-80500000D02*
X155540000Y-79460000D01*
X156600000Y-76000000D02*
X160100000Y-72500000D01*
%TO.N,I2C_1_SDA*%
X160700000Y-72750000D02*
X157100000Y-76350000D01*
X158080000Y-79480000D02*
X158080000Y-80500000D01*
X160725735Y-71025735D02*
X160700000Y-71051470D01*
X157100000Y-78500000D02*
X158080000Y-79480000D01*
X157100000Y-76350000D02*
X157100000Y-78500000D01*
X160700000Y-71051470D02*
X160700000Y-72750000D01*
%TO.N,/Portexpander_LED/DP_LED_4*%
X156000000Y-84000000D02*
X156000000Y-82700000D01*
%TO.N,/Portexpander_LED/DP_LED_5*%
X165000000Y-84000000D02*
X165000000Y-82600000D01*
%TO.N,/Portexpander_LED/DP_LED_6*%
X174000000Y-84000000D02*
X174000000Y-82000000D01*
%TO.N,/Portexpander_LED/DP_LED_7*%
X183000000Y-84000000D02*
X183000000Y-82000000D01*
%TO.N,/Portexpander_LED/DP_LED_8*%
X192000000Y-84000000D02*
X192000000Y-82000000D01*
%TO.N,/Portexpander_LED/DP_LED_9*%
X201000000Y-84000000D02*
X201000000Y-82000000D01*
%TO.N,/Portexpander_LED/DP_LED_3*%
X147000000Y-84000000D02*
X147000000Y-82700000D01*
%TO.N,/Portexpander_LED/DP_LED_10*%
X210000000Y-84000000D02*
X210000000Y-82000000D01*
%TO.N,/Portexpander_LED/DP_LED_2*%
X138000000Y-84000000D02*
X138000000Y-82000000D01*
%TO.N,/Portexpander_LED/DP_LED_1*%
X129000000Y-84000000D02*
X129000000Y-82000000D01*
%TO.N,/Portexpander_LED/IND_LED_1*%
X139199000Y-76801000D02*
X133733900Y-76801000D01*
X106097000Y-72903000D02*
X95000000Y-84000000D01*
X133733900Y-76801000D02*
X129835900Y-72903000D01*
X129835900Y-72903000D02*
X106097000Y-72903000D01*
%TO.N,/Portexpander_LED/IND_LED_2*%
X104000000Y-75567100D02*
X104000000Y-84000000D01*
X106263100Y-73304000D02*
X104000000Y-75567100D01*
X139447943Y-77402000D02*
X133767800Y-77402000D01*
X139449943Y-77400000D02*
X139447943Y-77402000D01*
X140900000Y-77400000D02*
X139449943Y-77400000D01*
X133767800Y-77402000D02*
X129669800Y-73304000D01*
X129669800Y-73304000D02*
X106263100Y-73304000D01*
%TO.N,/Portexpander_LED/IND_LED_3*%
X133799700Y-78001000D02*
X129503700Y-73705000D01*
X114500000Y-73705000D02*
X113000000Y-75205000D01*
X113000000Y-75205000D02*
X113000000Y-84000000D01*
X129503700Y-73705000D02*
X114500000Y-73705000D01*
X141299000Y-78001000D02*
X133799700Y-78001000D01*
X142500000Y-76800000D02*
X141299000Y-78001000D01*
%TO.N,LED_PWR*%
X217000000Y-77500000D02*
X217000000Y-81400000D01*
X132000000Y-84000000D02*
X132100000Y-84000000D01*
X217000000Y-81400000D02*
X216000000Y-82400000D01*
X98000000Y-84000000D02*
X98060000Y-84000000D01*
X216000000Y-84500000D02*
X215500000Y-85000000D01*
X216000000Y-82400000D02*
X216000000Y-84500000D01*
%TD*%
%TA.AperFunction,Conductor*%
%TO.N,LED_PWR*%
G36*
X216515677Y-84019685D02*
G01*
X216536319Y-84036319D01*
X216963681Y-84463681D01*
X216997166Y-84525004D01*
X217000000Y-84551362D01*
X217000000Y-85948638D01*
X216980315Y-86015677D01*
X216963681Y-86036319D01*
X216536319Y-86463681D01*
X216474996Y-86497166D01*
X216448638Y-86500000D01*
X215551362Y-86500000D01*
X215484323Y-86480315D01*
X215463681Y-86463681D01*
X215036319Y-86036319D01*
X215002834Y-85974996D01*
X215000000Y-85948638D01*
X215000000Y-84551362D01*
X215019685Y-84484323D01*
X215036319Y-84463681D01*
X215463681Y-84036319D01*
X215525004Y-84002834D01*
X215551362Y-84000000D01*
X216448638Y-84000000D01*
X216515677Y-84019685D01*
G37*
%TD.AperFunction*%
%TD*%
M02*
