%TF.GenerationSoftware,KiCad,Pcbnew,9.0.1*%
%TF.CreationDate,2025-06-17T16:13:14+02:00*%
%TF.ProjectId,open_g_db,6f70656e-5f67-45f6-9462-2e6b69636164,rev?*%
%TF.SameCoordinates,Original*%
%TF.FileFunction,Copper,L1,Top*%
%TF.FilePolarity,Positive*%
%FSLAX46Y46*%
G04 Gerber Fmt 4.6, Leading zero omitted, Abs format (unit mm)*
G04 Created by KiCad (PCBNEW 9.0.1) date 2025-06-17 16:13:14*
%MOMM*%
%LPD*%
G01*
G04 APERTURE LIST*
G04 Aperture macros list*
%AMRoundRect*
0 Rectangle with rounded corners*
0 $1 Rounding radius*
0 $2 $3 $4 $5 $6 $7 $8 $9 X,Y pos of 4 corners*
0 Add a 4 corners polygon primitive as box body*
4,1,4,$2,$3,$4,$5,$6,$7,$8,$9,$2,$3,0*
0 Add four circle primitives for the rounded corners*
1,1,$1+$1,$2,$3*
1,1,$1+$1,$4,$5*
1,1,$1+$1,$6,$7*
1,1,$1+$1,$8,$9*
0 Add four rect primitives between the rounded corners*
20,1,$1+$1,$2,$3,$4,$5,0*
20,1,$1+$1,$4,$5,$6,$7,0*
20,1,$1+$1,$6,$7,$8,$9,0*
20,1,$1+$1,$8,$9,$2,$3,0*%
G04 Aperture macros list end*
%ADD10C,0.300000*%
%TA.AperFunction,NonConductor*%
%ADD11C,0.300000*%
%TD*%
%TA.AperFunction,ComponentPad*%
%ADD12R,1.500000X1.500000*%
%TD*%
%TA.AperFunction,ComponentPad*%
%ADD13C,1.500000*%
%TD*%
%TA.AperFunction,SMDPad,CuDef*%
%ADD14RoundRect,0.250000X-0.350000X-0.450000X0.350000X-0.450000X0.350000X0.450000X-0.350000X0.450000X0*%
%TD*%
%TA.AperFunction,SMDPad,CuDef*%
%ADD15RoundRect,0.250000X0.450000X-0.350000X0.450000X0.350000X-0.450000X0.350000X-0.450000X-0.350000X0*%
%TD*%
%TA.AperFunction,SMDPad,CuDef*%
%ADD16RoundRect,0.250000X-0.450000X0.350000X-0.450000X-0.350000X0.450000X-0.350000X0.450000X0.350000X0*%
%TD*%
%TA.AperFunction,ComponentPad*%
%ADD17R,1.650000X1.650000*%
%TD*%
%TA.AperFunction,ComponentPad*%
%ADD18C,1.650000*%
%TD*%
%TA.AperFunction,ComponentPad*%
%ADD19C,4.650000*%
%TD*%
%TA.AperFunction,ComponentPad*%
%ADD20R,1.600000X1.600000*%
%TD*%
%TA.AperFunction,ComponentPad*%
%ADD21C,1.600000*%
%TD*%
%TA.AperFunction,ComponentPad*%
%ADD22R,1.800000X1.800000*%
%TD*%
%TA.AperFunction,ComponentPad*%
%ADD23C,1.800000*%
%TD*%
%TA.AperFunction,SMDPad,CuDef*%
%ADD24RoundRect,0.250000X0.337500X0.475000X-0.337500X0.475000X-0.337500X-0.475000X0.337500X-0.475000X0*%
%TD*%
%TA.AperFunction,ComponentPad*%
%ADD25R,1.234000X1.234000*%
%TD*%
%TA.AperFunction,ComponentPad*%
%ADD26C,1.234000*%
%TD*%
%TA.AperFunction,ComponentPad*%
%ADD27R,2.000000X2.000000*%
%TD*%
%TA.AperFunction,ComponentPad*%
%ADD28C,2.000000*%
%TD*%
%TA.AperFunction,ComponentPad*%
%ADD29C,0.900000*%
%TD*%
%TA.AperFunction,ComponentPad*%
%ADD30C,10.000000*%
%TD*%
%TA.AperFunction,SMDPad,CuDef*%
%ADD31RoundRect,0.250000X0.475000X-0.337500X0.475000X0.337500X-0.475000X0.337500X-0.475000X-0.337500X0*%
%TD*%
%TA.AperFunction,SMDPad,CuDef*%
%ADD32C,2.500000*%
%TD*%
%TA.AperFunction,SMDPad,CuDef*%
%ADD33R,2.100000X1.400000*%
%TD*%
%TA.AperFunction,ComponentPad*%
%ADD34C,1.540000*%
%TD*%
%TA.AperFunction,ComponentPad*%
%ADD35C,1.950000*%
%TD*%
%TA.AperFunction,ComponentPad*%
%ADD36C,2.400000*%
%TD*%
%TA.AperFunction,ComponentPad*%
%ADD37R,1.980000X1.980000*%
%TD*%
%TA.AperFunction,ComponentPad*%
%ADD38C,1.980000*%
%TD*%
%TA.AperFunction,SMDPad,CuDef*%
%ADD39RoundRect,0.150000X0.150000X-0.875000X0.150000X0.875000X-0.150000X0.875000X-0.150000X-0.875000X0*%
%TD*%
%TA.AperFunction,ComponentPad*%
%ADD40R,2.775000X2.775000*%
%TD*%
%TA.AperFunction,ComponentPad*%
%ADD41C,2.775000*%
%TD*%
%TA.AperFunction,SMDPad,CuDef*%
%ADD42R,0.550000X1.150000*%
%TD*%
%TA.AperFunction,HeatsinkPad*%
%ADD43C,0.600000*%
%TD*%
%TA.AperFunction,ViaPad*%
%ADD44C,0.600000*%
%TD*%
%TA.AperFunction,Conductor*%
%ADD45C,0.200000*%
%TD*%
G04 APERTURE END LIST*
D10*
D11*
X222571429Y-86470996D02*
X222857143Y-86470996D01*
X222857143Y-86470996D02*
X223000000Y-86542425D01*
X223000000Y-86542425D02*
X223142857Y-86685282D01*
X223142857Y-86685282D02*
X223214286Y-86970996D01*
X223214286Y-86970996D02*
X223214286Y-87470996D01*
X223214286Y-87470996D02*
X223142857Y-87756710D01*
X223142857Y-87756710D02*
X223000000Y-87899568D01*
X223000000Y-87899568D02*
X222857143Y-87970996D01*
X222857143Y-87970996D02*
X222571429Y-87970996D01*
X222571429Y-87970996D02*
X222428572Y-87899568D01*
X222428572Y-87899568D02*
X222285714Y-87756710D01*
X222285714Y-87756710D02*
X222214286Y-87470996D01*
X222214286Y-87470996D02*
X222214286Y-86970996D01*
X222214286Y-86970996D02*
X222285714Y-86685282D01*
X222285714Y-86685282D02*
X222428572Y-86542425D01*
X222428572Y-86542425D02*
X222571429Y-86470996D01*
X223857143Y-86970996D02*
X223857143Y-88470996D01*
X223857143Y-87042425D02*
X224000001Y-86970996D01*
X224000001Y-86970996D02*
X224285715Y-86970996D01*
X224285715Y-86970996D02*
X224428572Y-87042425D01*
X224428572Y-87042425D02*
X224500001Y-87113853D01*
X224500001Y-87113853D02*
X224571429Y-87256710D01*
X224571429Y-87256710D02*
X224571429Y-87685282D01*
X224571429Y-87685282D02*
X224500001Y-87828139D01*
X224500001Y-87828139D02*
X224428572Y-87899568D01*
X224428572Y-87899568D02*
X224285715Y-87970996D01*
X224285715Y-87970996D02*
X224000001Y-87970996D01*
X224000001Y-87970996D02*
X223857143Y-87899568D01*
X225785715Y-87899568D02*
X225642858Y-87970996D01*
X225642858Y-87970996D02*
X225357144Y-87970996D01*
X225357144Y-87970996D02*
X225214286Y-87899568D01*
X225214286Y-87899568D02*
X225142858Y-87756710D01*
X225142858Y-87756710D02*
X225142858Y-87185282D01*
X225142858Y-87185282D02*
X225214286Y-87042425D01*
X225214286Y-87042425D02*
X225357144Y-86970996D01*
X225357144Y-86970996D02*
X225642858Y-86970996D01*
X225642858Y-86970996D02*
X225785715Y-87042425D01*
X225785715Y-87042425D02*
X225857144Y-87185282D01*
X225857144Y-87185282D02*
X225857144Y-87328139D01*
X225857144Y-87328139D02*
X225142858Y-87470996D01*
X226500000Y-86970996D02*
X226500000Y-87970996D01*
X226500000Y-87113853D02*
X226571429Y-87042425D01*
X226571429Y-87042425D02*
X226714286Y-86970996D01*
X226714286Y-86970996D02*
X226928572Y-86970996D01*
X226928572Y-86970996D02*
X227071429Y-87042425D01*
X227071429Y-87042425D02*
X227142858Y-87185282D01*
X227142858Y-87185282D02*
X227142858Y-87970996D01*
X228642858Y-86542425D02*
X228500001Y-86470996D01*
X228500001Y-86470996D02*
X228285715Y-86470996D01*
X228285715Y-86470996D02*
X228071429Y-86542425D01*
X228071429Y-86542425D02*
X227928572Y-86685282D01*
X227928572Y-86685282D02*
X227857143Y-86828139D01*
X227857143Y-86828139D02*
X227785715Y-87113853D01*
X227785715Y-87113853D02*
X227785715Y-87328139D01*
X227785715Y-87328139D02*
X227857143Y-87613853D01*
X227857143Y-87613853D02*
X227928572Y-87756710D01*
X227928572Y-87756710D02*
X228071429Y-87899568D01*
X228071429Y-87899568D02*
X228285715Y-87970996D01*
X228285715Y-87970996D02*
X228428572Y-87970996D01*
X228428572Y-87970996D02*
X228642858Y-87899568D01*
X228642858Y-87899568D02*
X228714286Y-87828139D01*
X228714286Y-87828139D02*
X228714286Y-87328139D01*
X228714286Y-87328139D02*
X228428572Y-87328139D01*
X230500000Y-87970996D02*
X230500000Y-86470996D01*
X230500000Y-86470996D02*
X231071429Y-86470996D01*
X231071429Y-86470996D02*
X231214286Y-86542425D01*
X231214286Y-86542425D02*
X231285715Y-86613853D01*
X231285715Y-86613853D02*
X231357143Y-86756710D01*
X231357143Y-86756710D02*
X231357143Y-86970996D01*
X231357143Y-86970996D02*
X231285715Y-87113853D01*
X231285715Y-87113853D02*
X231214286Y-87185282D01*
X231214286Y-87185282D02*
X231071429Y-87256710D01*
X231071429Y-87256710D02*
X230500000Y-87256710D01*
X232000000Y-87970996D02*
X232000000Y-86970996D01*
X232000000Y-87256710D02*
X232071429Y-87113853D01*
X232071429Y-87113853D02*
X232142858Y-87042425D01*
X232142858Y-87042425D02*
X232285715Y-86970996D01*
X232285715Y-86970996D02*
X232428572Y-86970996D01*
X233142857Y-87970996D02*
X233000000Y-87899568D01*
X233000000Y-87899568D02*
X232928571Y-87828139D01*
X232928571Y-87828139D02*
X232857143Y-87685282D01*
X232857143Y-87685282D02*
X232857143Y-87256710D01*
X232857143Y-87256710D02*
X232928571Y-87113853D01*
X232928571Y-87113853D02*
X233000000Y-87042425D01*
X233000000Y-87042425D02*
X233142857Y-86970996D01*
X233142857Y-86970996D02*
X233357143Y-86970996D01*
X233357143Y-86970996D02*
X233500000Y-87042425D01*
X233500000Y-87042425D02*
X233571429Y-87113853D01*
X233571429Y-87113853D02*
X233642857Y-87256710D01*
X233642857Y-87256710D02*
X233642857Y-87685282D01*
X233642857Y-87685282D02*
X233571429Y-87828139D01*
X233571429Y-87828139D02*
X233500000Y-87899568D01*
X233500000Y-87899568D02*
X233357143Y-87970996D01*
X233357143Y-87970996D02*
X233142857Y-87970996D01*
X234285714Y-86970996D02*
X234285714Y-88256710D01*
X234285714Y-88256710D02*
X234214286Y-88399568D01*
X234214286Y-88399568D02*
X234071429Y-88470996D01*
X234071429Y-88470996D02*
X234000000Y-88470996D01*
X234285714Y-86470996D02*
X234214286Y-86542425D01*
X234214286Y-86542425D02*
X234285714Y-86613853D01*
X234285714Y-86613853D02*
X234357143Y-86542425D01*
X234357143Y-86542425D02*
X234285714Y-86470996D01*
X234285714Y-86470996D02*
X234285714Y-86613853D01*
X235571429Y-87899568D02*
X235428572Y-87970996D01*
X235428572Y-87970996D02*
X235142858Y-87970996D01*
X235142858Y-87970996D02*
X235000000Y-87899568D01*
X235000000Y-87899568D02*
X234928572Y-87756710D01*
X234928572Y-87756710D02*
X234928572Y-87185282D01*
X234928572Y-87185282D02*
X235000000Y-87042425D01*
X235000000Y-87042425D02*
X235142858Y-86970996D01*
X235142858Y-86970996D02*
X235428572Y-86970996D01*
X235428572Y-86970996D02*
X235571429Y-87042425D01*
X235571429Y-87042425D02*
X235642858Y-87185282D01*
X235642858Y-87185282D02*
X235642858Y-87328139D01*
X235642858Y-87328139D02*
X234928572Y-87470996D01*
X236928572Y-87899568D02*
X236785714Y-87970996D01*
X236785714Y-87970996D02*
X236500000Y-87970996D01*
X236500000Y-87970996D02*
X236357143Y-87899568D01*
X236357143Y-87899568D02*
X236285714Y-87828139D01*
X236285714Y-87828139D02*
X236214286Y-87685282D01*
X236214286Y-87685282D02*
X236214286Y-87256710D01*
X236214286Y-87256710D02*
X236285714Y-87113853D01*
X236285714Y-87113853D02*
X236357143Y-87042425D01*
X236357143Y-87042425D02*
X236500000Y-86970996D01*
X236500000Y-86970996D02*
X236785714Y-86970996D01*
X236785714Y-86970996D02*
X236928572Y-87042425D01*
X237357143Y-86970996D02*
X237928571Y-86970996D01*
X237571428Y-86470996D02*
X237571428Y-87756710D01*
X237571428Y-87756710D02*
X237642857Y-87899568D01*
X237642857Y-87899568D02*
X237785714Y-87970996D01*
X237785714Y-87970996D02*
X237928571Y-87970996D01*
X222499999Y-90385912D02*
X222499999Y-88885912D01*
X222499999Y-88885912D02*
X222857142Y-88885912D01*
X222857142Y-88885912D02*
X223071428Y-88957341D01*
X223071428Y-88957341D02*
X223214285Y-89100198D01*
X223214285Y-89100198D02*
X223285714Y-89243055D01*
X223285714Y-89243055D02*
X223357142Y-89528769D01*
X223357142Y-89528769D02*
X223357142Y-89743055D01*
X223357142Y-89743055D02*
X223285714Y-90028769D01*
X223285714Y-90028769D02*
X223214285Y-90171626D01*
X223214285Y-90171626D02*
X223071428Y-90314484D01*
X223071428Y-90314484D02*
X222857142Y-90385912D01*
X222857142Y-90385912D02*
X222499999Y-90385912D01*
X223999999Y-90385912D02*
X223999999Y-89385912D01*
X223999999Y-88885912D02*
X223928571Y-88957341D01*
X223928571Y-88957341D02*
X223999999Y-89028769D01*
X223999999Y-89028769D02*
X224071428Y-88957341D01*
X224071428Y-88957341D02*
X223999999Y-88885912D01*
X223999999Y-88885912D02*
X223999999Y-89028769D01*
X224642857Y-90314484D02*
X224785714Y-90385912D01*
X224785714Y-90385912D02*
X225071428Y-90385912D01*
X225071428Y-90385912D02*
X225214285Y-90314484D01*
X225214285Y-90314484D02*
X225285714Y-90171626D01*
X225285714Y-90171626D02*
X225285714Y-90100198D01*
X225285714Y-90100198D02*
X225214285Y-89957341D01*
X225214285Y-89957341D02*
X225071428Y-89885912D01*
X225071428Y-89885912D02*
X224857143Y-89885912D01*
X224857143Y-89885912D02*
X224714285Y-89814484D01*
X224714285Y-89814484D02*
X224642857Y-89671626D01*
X224642857Y-89671626D02*
X224642857Y-89600198D01*
X224642857Y-89600198D02*
X224714285Y-89457341D01*
X224714285Y-89457341D02*
X224857143Y-89385912D01*
X224857143Y-89385912D02*
X225071428Y-89385912D01*
X225071428Y-89385912D02*
X225214285Y-89457341D01*
X225928571Y-89385912D02*
X225928571Y-90885912D01*
X225928571Y-89457341D02*
X226071429Y-89385912D01*
X226071429Y-89385912D02*
X226357143Y-89385912D01*
X226357143Y-89385912D02*
X226500000Y-89457341D01*
X226500000Y-89457341D02*
X226571429Y-89528769D01*
X226571429Y-89528769D02*
X226642857Y-89671626D01*
X226642857Y-89671626D02*
X226642857Y-90100198D01*
X226642857Y-90100198D02*
X226571429Y-90243055D01*
X226571429Y-90243055D02*
X226500000Y-90314484D01*
X226500000Y-90314484D02*
X226357143Y-90385912D01*
X226357143Y-90385912D02*
X226071429Y-90385912D01*
X226071429Y-90385912D02*
X225928571Y-90314484D01*
X227500000Y-90385912D02*
X227357143Y-90314484D01*
X227357143Y-90314484D02*
X227285714Y-90171626D01*
X227285714Y-90171626D02*
X227285714Y-88885912D01*
X228714286Y-90385912D02*
X228714286Y-89600198D01*
X228714286Y-89600198D02*
X228642857Y-89457341D01*
X228642857Y-89457341D02*
X228500000Y-89385912D01*
X228500000Y-89385912D02*
X228214286Y-89385912D01*
X228214286Y-89385912D02*
X228071428Y-89457341D01*
X228714286Y-90314484D02*
X228571428Y-90385912D01*
X228571428Y-90385912D02*
X228214286Y-90385912D01*
X228214286Y-90385912D02*
X228071428Y-90314484D01*
X228071428Y-90314484D02*
X228000000Y-90171626D01*
X228000000Y-90171626D02*
X228000000Y-90028769D01*
X228000000Y-90028769D02*
X228071428Y-89885912D01*
X228071428Y-89885912D02*
X228214286Y-89814484D01*
X228214286Y-89814484D02*
X228571428Y-89814484D01*
X228571428Y-89814484D02*
X228714286Y-89743055D01*
X229285714Y-89385912D02*
X229642857Y-90385912D01*
X230000000Y-89385912D02*
X229642857Y-90385912D01*
X229642857Y-90385912D02*
X229500000Y-90743055D01*
X229500000Y-90743055D02*
X229428571Y-90814484D01*
X229428571Y-90814484D02*
X229285714Y-90885912D01*
X232214285Y-89600198D02*
X232428571Y-89671626D01*
X232428571Y-89671626D02*
X232500000Y-89743055D01*
X232500000Y-89743055D02*
X232571428Y-89885912D01*
X232571428Y-89885912D02*
X232571428Y-90100198D01*
X232571428Y-90100198D02*
X232500000Y-90243055D01*
X232500000Y-90243055D02*
X232428571Y-90314484D01*
X232428571Y-90314484D02*
X232285714Y-90385912D01*
X232285714Y-90385912D02*
X231714285Y-90385912D01*
X231714285Y-90385912D02*
X231714285Y-88885912D01*
X231714285Y-88885912D02*
X232214285Y-88885912D01*
X232214285Y-88885912D02*
X232357143Y-88957341D01*
X232357143Y-88957341D02*
X232428571Y-89028769D01*
X232428571Y-89028769D02*
X232500000Y-89171626D01*
X232500000Y-89171626D02*
X232500000Y-89314484D01*
X232500000Y-89314484D02*
X232428571Y-89457341D01*
X232428571Y-89457341D02*
X232357143Y-89528769D01*
X232357143Y-89528769D02*
X232214285Y-89600198D01*
X232214285Y-89600198D02*
X231714285Y-89600198D01*
X233428571Y-90385912D02*
X233285714Y-90314484D01*
X233285714Y-90314484D02*
X233214285Y-90243055D01*
X233214285Y-90243055D02*
X233142857Y-90100198D01*
X233142857Y-90100198D02*
X233142857Y-89671626D01*
X233142857Y-89671626D02*
X233214285Y-89528769D01*
X233214285Y-89528769D02*
X233285714Y-89457341D01*
X233285714Y-89457341D02*
X233428571Y-89385912D01*
X233428571Y-89385912D02*
X233642857Y-89385912D01*
X233642857Y-89385912D02*
X233785714Y-89457341D01*
X233785714Y-89457341D02*
X233857143Y-89528769D01*
X233857143Y-89528769D02*
X233928571Y-89671626D01*
X233928571Y-89671626D02*
X233928571Y-90100198D01*
X233928571Y-90100198D02*
X233857143Y-90243055D01*
X233857143Y-90243055D02*
X233785714Y-90314484D01*
X233785714Y-90314484D02*
X233642857Y-90385912D01*
X233642857Y-90385912D02*
X233428571Y-90385912D01*
X235214286Y-90385912D02*
X235214286Y-89600198D01*
X235214286Y-89600198D02*
X235142857Y-89457341D01*
X235142857Y-89457341D02*
X235000000Y-89385912D01*
X235000000Y-89385912D02*
X234714286Y-89385912D01*
X234714286Y-89385912D02*
X234571428Y-89457341D01*
X235214286Y-90314484D02*
X235071428Y-90385912D01*
X235071428Y-90385912D02*
X234714286Y-90385912D01*
X234714286Y-90385912D02*
X234571428Y-90314484D01*
X234571428Y-90314484D02*
X234500000Y-90171626D01*
X234500000Y-90171626D02*
X234500000Y-90028769D01*
X234500000Y-90028769D02*
X234571428Y-89885912D01*
X234571428Y-89885912D02*
X234714286Y-89814484D01*
X234714286Y-89814484D02*
X235071428Y-89814484D01*
X235071428Y-89814484D02*
X235214286Y-89743055D01*
X235928571Y-90385912D02*
X235928571Y-89385912D01*
X235928571Y-89671626D02*
X236000000Y-89528769D01*
X236000000Y-89528769D02*
X236071429Y-89457341D01*
X236071429Y-89457341D02*
X236214286Y-89385912D01*
X236214286Y-89385912D02*
X236357143Y-89385912D01*
X237500000Y-90385912D02*
X237500000Y-88885912D01*
X237500000Y-90314484D02*
X237357142Y-90385912D01*
X237357142Y-90385912D02*
X237071428Y-90385912D01*
X237071428Y-90385912D02*
X236928571Y-90314484D01*
X236928571Y-90314484D02*
X236857142Y-90243055D01*
X236857142Y-90243055D02*
X236785714Y-90100198D01*
X236785714Y-90100198D02*
X236785714Y-89671626D01*
X236785714Y-89671626D02*
X236857142Y-89528769D01*
X236857142Y-89528769D02*
X236928571Y-89457341D01*
X236928571Y-89457341D02*
X237071428Y-89385912D01*
X237071428Y-89385912D02*
X237357142Y-89385912D01*
X237357142Y-89385912D02*
X237500000Y-89457341D01*
X222214287Y-91800828D02*
X222571430Y-92800828D01*
X222571430Y-92800828D02*
X222928573Y-91800828D01*
X224285716Y-92800828D02*
X223428573Y-92800828D01*
X223857144Y-92800828D02*
X223857144Y-91300828D01*
X223857144Y-91300828D02*
X223714287Y-91515114D01*
X223714287Y-91515114D02*
X223571430Y-91657971D01*
X223571430Y-91657971D02*
X223428573Y-91729400D01*
X224928572Y-92657971D02*
X225000001Y-92729400D01*
X225000001Y-92729400D02*
X224928572Y-92800828D01*
X224928572Y-92800828D02*
X224857144Y-92729400D01*
X224857144Y-92729400D02*
X224928572Y-92657971D01*
X224928572Y-92657971D02*
X224928572Y-92800828D01*
X225928573Y-91300828D02*
X226071430Y-91300828D01*
X226071430Y-91300828D02*
X226214287Y-91372257D01*
X226214287Y-91372257D02*
X226285716Y-91443685D01*
X226285716Y-91443685D02*
X226357144Y-91586542D01*
X226357144Y-91586542D02*
X226428573Y-91872257D01*
X226428573Y-91872257D02*
X226428573Y-92229400D01*
X226428573Y-92229400D02*
X226357144Y-92515114D01*
X226357144Y-92515114D02*
X226285716Y-92657971D01*
X226285716Y-92657971D02*
X226214287Y-92729400D01*
X226214287Y-92729400D02*
X226071430Y-92800828D01*
X226071430Y-92800828D02*
X225928573Y-92800828D01*
X225928573Y-92800828D02*
X225785716Y-92729400D01*
X225785716Y-92729400D02*
X225714287Y-92657971D01*
X225714287Y-92657971D02*
X225642858Y-92515114D01*
X225642858Y-92515114D02*
X225571430Y-92229400D01*
X225571430Y-92229400D02*
X225571430Y-91872257D01*
X225571430Y-91872257D02*
X225642858Y-91586542D01*
X225642858Y-91586542D02*
X225714287Y-91443685D01*
X225714287Y-91443685D02*
X225785716Y-91372257D01*
X225785716Y-91372257D02*
X225928573Y-91300828D01*
X228500001Y-91300828D02*
X228642858Y-91300828D01*
X228642858Y-91300828D02*
X228785715Y-91372257D01*
X228785715Y-91372257D02*
X228857144Y-91443685D01*
X228857144Y-91443685D02*
X228928572Y-91586542D01*
X228928572Y-91586542D02*
X229000001Y-91872257D01*
X229000001Y-91872257D02*
X229000001Y-92229400D01*
X229000001Y-92229400D02*
X228928572Y-92515114D01*
X228928572Y-92515114D02*
X228857144Y-92657971D01*
X228857144Y-92657971D02*
X228785715Y-92729400D01*
X228785715Y-92729400D02*
X228642858Y-92800828D01*
X228642858Y-92800828D02*
X228500001Y-92800828D01*
X228500001Y-92800828D02*
X228357144Y-92729400D01*
X228357144Y-92729400D02*
X228285715Y-92657971D01*
X228285715Y-92657971D02*
X228214286Y-92515114D01*
X228214286Y-92515114D02*
X228142858Y-92229400D01*
X228142858Y-92229400D02*
X228142858Y-91872257D01*
X228142858Y-91872257D02*
X228214286Y-91586542D01*
X228214286Y-91586542D02*
X228285715Y-91443685D01*
X228285715Y-91443685D02*
X228357144Y-91372257D01*
X228357144Y-91372257D02*
X228500001Y-91300828D01*
X230285715Y-91300828D02*
X230000000Y-91300828D01*
X230000000Y-91300828D02*
X229857143Y-91372257D01*
X229857143Y-91372257D02*
X229785715Y-91443685D01*
X229785715Y-91443685D02*
X229642857Y-91657971D01*
X229642857Y-91657971D02*
X229571429Y-91943685D01*
X229571429Y-91943685D02*
X229571429Y-92515114D01*
X229571429Y-92515114D02*
X229642857Y-92657971D01*
X229642857Y-92657971D02*
X229714286Y-92729400D01*
X229714286Y-92729400D02*
X229857143Y-92800828D01*
X229857143Y-92800828D02*
X230142857Y-92800828D01*
X230142857Y-92800828D02*
X230285715Y-92729400D01*
X230285715Y-92729400D02*
X230357143Y-92657971D01*
X230357143Y-92657971D02*
X230428572Y-92515114D01*
X230428572Y-92515114D02*
X230428572Y-92157971D01*
X230428572Y-92157971D02*
X230357143Y-92015114D01*
X230357143Y-92015114D02*
X230285715Y-91943685D01*
X230285715Y-91943685D02*
X230142857Y-91872257D01*
X230142857Y-91872257D02*
X229857143Y-91872257D01*
X229857143Y-91872257D02*
X229714286Y-91943685D01*
X229714286Y-91943685D02*
X229642857Y-92015114D01*
X229642857Y-92015114D02*
X229571429Y-92157971D01*
X232142857Y-91229400D02*
X230857143Y-93157971D01*
X232571429Y-91443685D02*
X232642857Y-91372257D01*
X232642857Y-91372257D02*
X232785715Y-91300828D01*
X232785715Y-91300828D02*
X233142857Y-91300828D01*
X233142857Y-91300828D02*
X233285715Y-91372257D01*
X233285715Y-91372257D02*
X233357143Y-91443685D01*
X233357143Y-91443685D02*
X233428572Y-91586542D01*
X233428572Y-91586542D02*
X233428572Y-91729400D01*
X233428572Y-91729400D02*
X233357143Y-91943685D01*
X233357143Y-91943685D02*
X232500000Y-92800828D01*
X232500000Y-92800828D02*
X233428572Y-92800828D01*
X234357143Y-91300828D02*
X234500000Y-91300828D01*
X234500000Y-91300828D02*
X234642857Y-91372257D01*
X234642857Y-91372257D02*
X234714286Y-91443685D01*
X234714286Y-91443685D02*
X234785714Y-91586542D01*
X234785714Y-91586542D02*
X234857143Y-91872257D01*
X234857143Y-91872257D02*
X234857143Y-92229400D01*
X234857143Y-92229400D02*
X234785714Y-92515114D01*
X234785714Y-92515114D02*
X234714286Y-92657971D01*
X234714286Y-92657971D02*
X234642857Y-92729400D01*
X234642857Y-92729400D02*
X234500000Y-92800828D01*
X234500000Y-92800828D02*
X234357143Y-92800828D01*
X234357143Y-92800828D02*
X234214286Y-92729400D01*
X234214286Y-92729400D02*
X234142857Y-92657971D01*
X234142857Y-92657971D02*
X234071428Y-92515114D01*
X234071428Y-92515114D02*
X234000000Y-92229400D01*
X234000000Y-92229400D02*
X234000000Y-91872257D01*
X234000000Y-91872257D02*
X234071428Y-91586542D01*
X234071428Y-91586542D02*
X234142857Y-91443685D01*
X234142857Y-91443685D02*
X234214286Y-91372257D01*
X234214286Y-91372257D02*
X234357143Y-91300828D01*
X235428571Y-91443685D02*
X235499999Y-91372257D01*
X235499999Y-91372257D02*
X235642857Y-91300828D01*
X235642857Y-91300828D02*
X235999999Y-91300828D01*
X235999999Y-91300828D02*
X236142857Y-91372257D01*
X236142857Y-91372257D02*
X236214285Y-91443685D01*
X236214285Y-91443685D02*
X236285714Y-91586542D01*
X236285714Y-91586542D02*
X236285714Y-91729400D01*
X236285714Y-91729400D02*
X236214285Y-91943685D01*
X236214285Y-91943685D02*
X235357142Y-92800828D01*
X235357142Y-92800828D02*
X236285714Y-92800828D01*
X237642856Y-91300828D02*
X236928570Y-91300828D01*
X236928570Y-91300828D02*
X236857142Y-92015114D01*
X236857142Y-92015114D02*
X236928570Y-91943685D01*
X236928570Y-91943685D02*
X237071428Y-91872257D01*
X237071428Y-91872257D02*
X237428570Y-91872257D01*
X237428570Y-91872257D02*
X237571428Y-91943685D01*
X237571428Y-91943685D02*
X237642856Y-92015114D01*
X237642856Y-92015114D02*
X237714285Y-92157971D01*
X237714285Y-92157971D02*
X237714285Y-92515114D01*
X237714285Y-92515114D02*
X237642856Y-92657971D01*
X237642856Y-92657971D02*
X237571428Y-92729400D01*
X237571428Y-92729400D02*
X237428570Y-92800828D01*
X237428570Y-92800828D02*
X237071428Y-92800828D01*
X237071428Y-92800828D02*
X236928570Y-92729400D01*
X236928570Y-92729400D02*
X236857142Y-92657971D01*
D12*
%TO.P,PS2,1,+VIN*%
%TO.N,+12V*%
X108000000Y-69000000D03*
D13*
%TO.P,PS2,2,-VOUT*%
%TO.N,GND*%
X110540000Y-69000000D03*
%TO.P,PS2,3,GND*%
%TO.N,+5V*%
X113080000Y-69000000D03*
%TD*%
D14*
%TO.P,R1,1*%
%TO.N,Net-(S1-COM)*%
X66100000Y-64900000D03*
%TO.P,R1,2*%
%TO.N,+12V*%
X68100000Y-64900000D03*
%TD*%
D15*
%TO.P,R13,1*%
%TO.N,LED_PWR*%
X118500000Y-78000000D03*
%TO.P,R13,2*%
%TO.N,+3V3*%
X118500000Y-76000000D03*
%TD*%
D14*
%TO.P,R10,1*%
%TO.N,/BUZZER_EN*%
X209000000Y-64000000D03*
%TO.P,R10,2*%
%TO.N,Net-(Q1-Pad2)*%
X211000000Y-64000000D03*
%TD*%
%TO.P,R2,1*%
%TO.N,+12V*%
X58000000Y-88600000D03*
%TO.P,R2,2*%
%TO.N,Net-(D2-A)*%
X60000000Y-88600000D03*
%TD*%
D15*
%TO.P,R3,1*%
%TO.N,+3V3*%
X169000000Y-72500000D03*
%TO.P,R3,2*%
%TO.N,I2C_1_SCL*%
X169000000Y-70500000D03*
%TD*%
D16*
%TO.P,R7,1*%
%TO.N,+3V3*%
X140900000Y-64500000D03*
%TO.P,R7,2*%
%TO.N,/ESP2_EN*%
X140900000Y-66500000D03*
%TD*%
D15*
%TO.P,R11,1*%
%TO.N,LED_PWR*%
X121300000Y-78000000D03*
%TO.P,R11,2*%
%TO.N,+5V*%
X121300000Y-76000000D03*
%TD*%
D16*
%TO.P,R4,1*%
%TO.N,+3V3*%
X169000000Y-66200000D03*
%TO.P,R4,2*%
%TO.N,I2C_1_SDA*%
X169000000Y-68200000D03*
%TD*%
D14*
%TO.P,R12,1*%
%TO.N,GND*%
X209000000Y-68000000D03*
%TO.P,R12,2*%
%TO.N,Net-(Q1-Pad2)*%
X211000000Y-68000000D03*
%TD*%
D12*
%TO.P,PS1,1,+VIN*%
%TO.N,+12V*%
X93000000Y-69035000D03*
D13*
%TO.P,PS1,2,GND*%
%TO.N,GND*%
X95540000Y-69035000D03*
%TO.P,PS1,3,+VOUT*%
%TO.N,+3V3*%
X98080000Y-69035000D03*
%TD*%
D17*
%TO.P,J1,1,1*%
%TO.N,GND*%
X50940000Y-83085000D03*
D18*
%TO.P,J1,2,2*%
%TO.N,+12V*%
X50940000Y-80315000D03*
%TO.P,J1,3,3*%
%TO.N,unconnected-(J1-Pad3)*%
X50940000Y-77545000D03*
%TO.P,J1,4,4*%
%TO.N,/UART_1_TX*%
X50940000Y-74775000D03*
%TO.P,J1,5,5*%
%TO.N,/UART_1_RX*%
X50940000Y-72005000D03*
%TO.P,J1,6,6*%
%TO.N,unconnected-(J1-Pad6)*%
X48100000Y-81700000D03*
%TO.P,J1,7,7*%
%TO.N,+12P*%
X48100000Y-78930000D03*
%TO.P,J1,8,8*%
%TO.N,GND*%
X48100000Y-76160000D03*
%TO.P,J1,9,9*%
%TO.N,unconnected-(J1-Pad9)*%
X48100000Y-73390000D03*
D19*
%TO.P,J1,MH1*%
%TO.N,N/C*%
X49520000Y-90040000D03*
%TO.P,J1,MH2*%
X49520000Y-65050000D03*
%TD*%
D20*
%TO.P,C4,1*%
%TO.N,+12V*%
X93000000Y-64000000D03*
D21*
%TO.P,C4,2*%
%TO.N,GND*%
X91000000Y-64000000D03*
%TD*%
D20*
%TO.P,C10,1*%
%TO.N,+5V*%
X113000000Y-64000000D03*
D21*
%TO.P,C10,2*%
%TO.N,GND*%
X115000000Y-64000000D03*
%TD*%
D20*
%TO.P,C5,1*%
%TO.N,+3V3*%
X98000000Y-64000000D03*
D21*
%TO.P,C5,2*%
%TO.N,GND*%
X100000000Y-64000000D03*
%TD*%
D20*
%TO.P,C9,1*%
%TO.N,+12V*%
X108000000Y-65000000D03*
D21*
%TO.P,C9,2*%
%TO.N,GND*%
X108000000Y-63000000D03*
%TD*%
D22*
%TO.P,D13,1,K*%
%TO.N,Net-(D13-K)*%
X181730000Y-92595000D03*
D23*
%TO.P,D13,2,A*%
%TO.N,Net-(D13-A)*%
X184270000Y-92595000D03*
%TD*%
D24*
%TO.P,C8,1*%
%TO.N,+3V3*%
X147000000Y-67000000D03*
%TO.P,C8,2*%
%TO.N,GND*%
X144925000Y-67000000D03*
%TD*%
D22*
%TO.P,D11,1,K*%
%TO.N,Net-(D11-K)*%
X163730000Y-92595000D03*
D23*
%TO.P,D11,2,A*%
%TO.N,Net-(D11-A)*%
X166270000Y-92595000D03*
%TD*%
D25*
%TO.P,Q4,1*%
%TO.N,Net-(D6-K)*%
X110460000Y-88400000D03*
D26*
%TO.P,Q4,2*%
%TO.N,Net-(Q4-Pad2)*%
X113000000Y-88400000D03*
%TO.P,Q4,3*%
%TO.N,GND*%
X115540000Y-88400000D03*
%TD*%
D24*
%TO.P,C11,1*%
%TO.N,GND*%
X174837500Y-62900000D03*
%TO.P,C11,2*%
%TO.N,+3V3*%
X172762500Y-62900000D03*
%TD*%
D22*
%TO.P,D16,1,K*%
%TO.N,Net-(D16-K)*%
X208730000Y-92595000D03*
D23*
%TO.P,D16,2,A*%
%TO.N,Net-(D16-A)*%
X211270000Y-92595000D03*
%TD*%
D25*
%TO.P,Q3,1*%
%TO.N,Net-(D5-K)*%
X101460000Y-88400000D03*
D26*
%TO.P,Q3,2*%
%TO.N,Net-(Q3-Pad2)*%
X104000000Y-88400000D03*
%TO.P,Q3,3*%
%TO.N,GND*%
X106540000Y-88400000D03*
%TD*%
D25*
%TO.P,Q12,1*%
%TO.N,Net-(D14-K)*%
X189460000Y-88430000D03*
D26*
%TO.P,Q12,2*%
%TO.N,Net-(Q12-Pad2)*%
X192000000Y-88430000D03*
%TO.P,Q12,3*%
%TO.N,GND*%
X194540000Y-88430000D03*
%TD*%
D27*
%TO.P,LS1,1,+*%
%TO.N,LED_PWR*%
X217000000Y-77500000D03*
D28*
%TO.P,LS1,2,-*%
%TO.N,Net-(D3-A)*%
X217000000Y-72500000D03*
%TD*%
D29*
%TO.P,H2,1*%
%TO.N,N/C*%
X56250000Y-75000000D03*
X57348350Y-72348350D03*
X57348350Y-77651650D03*
X60000000Y-71250000D03*
D30*
X60000000Y-75000000D03*
D29*
X60000000Y-78750000D03*
X62651650Y-72348350D03*
X62651650Y-77651650D03*
X63750000Y-75000000D03*
%TD*%
D22*
%TO.P,D15,1,K*%
%TO.N,Net-(D15-K)*%
X199730000Y-92595000D03*
D23*
%TO.P,D15,2,A*%
%TO.N,Net-(D15-A)*%
X202270000Y-92595000D03*
%TD*%
D25*
%TO.P,Q9,1*%
%TO.N,Net-(D11-K)*%
X162460000Y-88430000D03*
D26*
%TO.P,Q9,2*%
%TO.N,Net-(Q9-Pad2)*%
X165000000Y-88430000D03*
%TO.P,Q9,3*%
%TO.N,GND*%
X167540000Y-88430000D03*
%TD*%
D31*
%TO.P,C2,1*%
%TO.N,/ESP2_BOOT*%
X137400000Y-74700000D03*
%TO.P,C2,2*%
%TO.N,GND*%
X137400000Y-72625000D03*
%TD*%
D25*
%TO.P,Q13,1*%
%TO.N,Net-(D15-K)*%
X198460000Y-88430000D03*
D26*
%TO.P,Q13,2*%
%TO.N,Net-(Q13-Pad2)*%
X201000000Y-88430000D03*
%TO.P,Q13,3*%
%TO.N,GND*%
X203540000Y-88430000D03*
%TD*%
D24*
%TO.P,C3,1*%
%TO.N,+3V3*%
X140900000Y-61900000D03*
%TO.P,C3,2*%
%TO.N,GND*%
X138825000Y-61900000D03*
%TD*%
D25*
%TO.P,Q1,1*%
%TO.N,Net-(D3-A)*%
X219440000Y-65470000D03*
D26*
%TO.P,Q1,2*%
%TO.N,Net-(Q1-Pad2)*%
X216900000Y-65470000D03*
%TO.P,Q1,3*%
%TO.N,GND*%
X214360001Y-65470000D03*
%TD*%
D22*
%TO.P,D10,1,K*%
%TO.N,Net-(D10-K)*%
X154730000Y-92595000D03*
D23*
%TO.P,D10,2,A*%
%TO.N,Net-(D10-A)*%
X157270000Y-92595000D03*
%TD*%
D32*
%TO.P,TP3,1,1*%
%TO.N,+3V3*%
X119100000Y-64700000D03*
%TD*%
%TO.P,TP2,1,1*%
%TO.N,GND*%
X86500000Y-68400000D03*
%TD*%
D25*
%TO.P,Q10,1*%
%TO.N,Net-(D12-K)*%
X171460000Y-88430000D03*
D26*
%TO.P,Q10,2*%
%TO.N,Net-(Q10-Pad2)*%
X174000000Y-88430000D03*
%TO.P,Q10,3*%
%TO.N,GND*%
X176540000Y-88430000D03*
%TD*%
D33*
%TO.P,IC2,1,NO_1*%
%TO.N,/ESP2_BOOT*%
X134100000Y-75800000D03*
%TO.P,IC2,2,NO_2*%
%TO.N,unconnected-(IC2-NO_2-Pad2)*%
X125000000Y-75800000D03*
%TO.P,IC2,3,COM_1*%
%TO.N,GND*%
X134100000Y-71300000D03*
%TO.P,IC2,4,COM_2*%
%TO.N,unconnected-(IC2-COM_2-Pad4)*%
X125000000Y-71300000D03*
%TD*%
D32*
%TO.P,TP10,1,1*%
%TO.N,I2C_1_SDA*%
X166200000Y-67500000D03*
%TD*%
D24*
%TO.P,C7,1*%
%TO.N,+3V3*%
X147000000Y-64400000D03*
%TO.P,C7,2*%
%TO.N,GND*%
X144925000Y-64400000D03*
%TD*%
D22*
%TO.P,D4,1,K*%
%TO.N,Net-(D4-K)*%
X93730000Y-92565000D03*
D23*
%TO.P,D4,2,A*%
%TO.N,Net-(D4-A)*%
X96270000Y-92565000D03*
%TD*%
D22*
%TO.P,D6,1,K*%
%TO.N,Net-(D6-K)*%
X111730000Y-92565000D03*
D23*
%TO.P,D6,2,A*%
%TO.N,Net-(D6-A)*%
X114270000Y-92565000D03*
%TD*%
D22*
%TO.P,D12,1,K*%
%TO.N,Net-(D12-K)*%
X172730000Y-92595000D03*
D23*
%TO.P,D12,2,A*%
%TO.N,Net-(D12-A)*%
X175270000Y-92595000D03*
%TD*%
D33*
%TO.P,IC1,1,NO_1*%
%TO.N,/ESP2_EN*%
X134100000Y-67600000D03*
%TO.P,IC1,2,NO_2*%
%TO.N,unconnected-(IC1-NO_2-Pad2)*%
X125000000Y-67600000D03*
%TO.P,IC1,3,COM_1*%
%TO.N,GND*%
X134100000Y-63100000D03*
%TO.P,IC1,4,COM_2*%
%TO.N,unconnected-(IC1-COM_2-Pad4)*%
X125000000Y-63100000D03*
%TD*%
D25*
%TO.P,Q5,1*%
%TO.N,Net-(D7-K)*%
X126460000Y-88430000D03*
D26*
%TO.P,Q5,2*%
%TO.N,Net-(Q5-Pad2)*%
X129000000Y-88430000D03*
%TO.P,Q5,3*%
%TO.N,GND*%
X131540000Y-88430000D03*
%TD*%
D34*
%TO.P,J2,1,1*%
%TO.N,Net-(J2-Pad1)*%
X80135000Y-92490000D03*
%TO.P,J2,2,2*%
%TO.N,/QUERY_BTN*%
X84635000Y-92490000D03*
D35*
%TO.P,J2,3,3*%
%TO.N,unconnected-(J2-Pad3)*%
X85890000Y-90000000D03*
%TO.P,J2,4,4*%
%TO.N,unconnected-(J2-Pad4)*%
X78880000Y-90000000D03*
%TD*%
D32*
%TO.P,TP1,1,1*%
%TO.N,+12V*%
X86500000Y-64000000D03*
%TD*%
D25*
%TO.P,Q6,1*%
%TO.N,Net-(D8-K)*%
X135460000Y-88430000D03*
D26*
%TO.P,Q6,2*%
%TO.N,Net-(Q6-Pad2)*%
X138000000Y-88430000D03*
%TO.P,Q6,3*%
%TO.N,GND*%
X140540000Y-88430000D03*
%TD*%
D36*
%TO.P,F1,1*%
%TO.N,+12V*%
X73000000Y-66000000D03*
X73000000Y-62600000D03*
%TO.P,F1,2*%
%TO.N,Net-(S1-COM)*%
X59530000Y-66000000D03*
X59530000Y-62600000D03*
%TD*%
D22*
%TO.P,D7,1,K*%
%TO.N,Net-(D7-K)*%
X127730000Y-92595000D03*
D23*
%TO.P,D7,2,A*%
%TO.N,Net-(D7-A)*%
X130270000Y-92595000D03*
%TD*%
D37*
%TO.P,D1,1*%
%TO.N,+12V*%
X80000000Y-66000000D03*
D38*
%TO.P,D1,2*%
%TO.N,GND*%
X80000000Y-71150000D03*
%TD*%
D32*
%TO.P,TP9,1,1*%
%TO.N,+5V*%
X119100000Y-70600000D03*
%TD*%
D29*
%TO.P,H1,1*%
%TO.N,N/C*%
X226250000Y-75000000D03*
X227348350Y-72348350D03*
X227348350Y-77651650D03*
X230000000Y-71250000D03*
D30*
X230000000Y-75000000D03*
D29*
X230000000Y-78750000D03*
X232651650Y-72348350D03*
X232651650Y-77651650D03*
X233750000Y-75000000D03*
%TD*%
D39*
%TO.P,U2,1,INT*%
%TO.N,unconnected-(U2-INT-Pad1)*%
X172730001Y-75000000D03*
%TO.P,U2,2,AD1*%
%TO.N,GND*%
X174000000Y-75000000D03*
%TO.P,U2,3,AD2*%
X175270000Y-75000000D03*
%TO.P,U2,4,IO0*%
%TO.N,/Portexpander_LED/DP_LED_1*%
X176540000Y-75000001D03*
%TO.P,U2,5,IO1*%
%TO.N,/Portexpander_LED/DP_LED_2*%
X177810000Y-75000000D03*
%TO.P,U2,6,IO2*%
%TO.N,/Portexpander_LED/DP_LED_3*%
X179080000Y-75000000D03*
%TO.P,U2,7,IO3*%
%TO.N,/Portexpander_LED/DP_LED_4*%
X180350000Y-75000000D03*
%TO.P,U2,8,IO4*%
%TO.N,/Portexpander_LED/DP_LED_5*%
X181620000Y-75000000D03*
%TO.P,U2,9,IO5*%
%TO.N,/Portexpander_LED/DP_LED_6*%
X182890000Y-75000001D03*
%TO.P,U2,10,IO6*%
%TO.N,/Portexpander_LED/DP_LED_7*%
X184160000Y-75000000D03*
%TO.P,U2,11,IO7*%
%TO.N,/Portexpander_LED/DP_LED_8*%
X185430000Y-75000000D03*
%TO.P,U2,12,GND*%
%TO.N,GND*%
X186699999Y-75000000D03*
%TO.P,U2,13,IO8*%
%TO.N,/Portexpander_LED/DP_LED_9*%
X186699999Y-65700000D03*
%TO.P,U2,14,IO9*%
%TO.N,/Portexpander_LED/DP_LED_10*%
X185430000Y-65700000D03*
%TO.P,U2,15,IO10*%
%TO.N,/Portexpander_LED/IND_LED_1*%
X184160000Y-65700000D03*
%TO.P,U2,16,IO11*%
%TO.N,/Portexpander_LED/IND_LED_2*%
X182890000Y-65699999D03*
%TO.P,U2,17,IO12*%
%TO.N,/Portexpander_LED/IND_LED_3*%
X181620000Y-65700000D03*
%TO.P,U2,18,IO13*%
%TO.N,unconnected-(U2-IO13-Pad18)*%
X180350000Y-65700000D03*
%TO.P,U2,19,IO14*%
%TO.N,unconnected-(U2-IO14-Pad19)*%
X179080000Y-65700000D03*
%TO.P,U2,20,IO15*%
%TO.N,unconnected-(U2-IO15-Pad20)*%
X177810000Y-65700000D03*
%TO.P,U2,21,AD0*%
%TO.N,GND*%
X176540000Y-65699999D03*
%TO.P,U2,22,SCL*%
%TO.N,I2C_1_SCL*%
X175270000Y-65700000D03*
%TO.P,U2,23,SDA*%
%TO.N,I2C_1_SDA*%
X174000000Y-65700000D03*
%TO.P,U2,24,V+*%
%TO.N,+3V3*%
X172730001Y-65700000D03*
%TD*%
D25*
%TO.P,Q2,1*%
%TO.N,Net-(D4-K)*%
X92460000Y-88400000D03*
D26*
%TO.P,Q2,2*%
%TO.N,Net-(Q2-Pad2)*%
X95000000Y-88400000D03*
%TO.P,Q2,3*%
%TO.N,GND*%
X97540000Y-88400000D03*
%TD*%
D22*
%TO.P,D5,1,K*%
%TO.N,Net-(D5-K)*%
X102730000Y-92565000D03*
D23*
%TO.P,D5,2,A*%
%TO.N,Net-(D5-A)*%
X105270000Y-92565000D03*
%TD*%
D25*
%TO.P,Q14,1*%
%TO.N,Net-(D16-K)*%
X207460000Y-88430000D03*
D26*
%TO.P,Q14,2*%
%TO.N,Net-(Q14-Pad2)*%
X210000000Y-88430000D03*
%TO.P,Q14,3*%
%TO.N,GND*%
X212540000Y-88430000D03*
%TD*%
D40*
%TO.P,S1,1,NO*%
%TO.N,+12P*%
X70900000Y-79300000D03*
D41*
%TO.P,S1,2,COM*%
%TO.N,Net-(S1-COM)*%
X70900000Y-75490000D03*
%TO.P,S1,3,NC*%
%TO.N,unconnected-(S1-NC-Pad3)*%
X70900000Y-71680000D03*
%TO.P,S1,MH1,MH1*%
%TO.N,unconnected-(S1-PadMH1)*%
X73440000Y-92000000D03*
%TO.P,S1,MH2,MH2*%
%TO.N,unconnected-(S1-PadMH2)*%
X68360000Y-92000000D03*
%TD*%
D25*
%TO.P,Q11,1*%
%TO.N,Net-(D13-K)*%
X180460000Y-88430000D03*
D26*
%TO.P,Q11,2*%
%TO.N,Net-(Q11-Pad2)*%
X183000000Y-88430000D03*
%TO.P,Q11,3*%
%TO.N,GND*%
X185540000Y-88430000D03*
%TD*%
D32*
%TO.P,TP11,1,1*%
%TO.N,I2C_1_SCL*%
X166200000Y-71200000D03*
%TD*%
D25*
%TO.P,Q7,1*%
%TO.N,Net-(D9-K)*%
X144460000Y-88430000D03*
D26*
%TO.P,Q7,2*%
%TO.N,Net-(Q7-Pad2)*%
X147000000Y-88430000D03*
%TO.P,Q7,3*%
%TO.N,GND*%
X149540000Y-88430000D03*
%TD*%
D25*
%TO.P,Q8,1*%
%TO.N,Net-(D10-K)*%
X153460000Y-88430000D03*
D26*
%TO.P,Q8,2*%
%TO.N,Net-(Q8-Pad2)*%
X156000000Y-88430000D03*
%TO.P,Q8,3*%
%TO.N,GND*%
X158540000Y-88430000D03*
%TD*%
D42*
%TO.P,D3,1,A*%
%TO.N,Net-(D3-A)*%
X209750000Y-74000000D03*
%TO.P,D3,2,K*%
%TO.N,unconnected-(D3-K-Pad2)*%
X208450000Y-74000000D03*
%TO.P,D3,3,K/A*%
%TO.N,LED_PWR*%
X209100000Y-76000000D03*
%TD*%
D22*
%TO.P,D8,1,K*%
%TO.N,Net-(D8-K)*%
X136730000Y-92595000D03*
D23*
%TO.P,D8,2,A*%
%TO.N,Net-(D8-A)*%
X139270000Y-92595000D03*
%TD*%
D22*
%TO.P,D2,1,K*%
%TO.N,GND*%
X57630000Y-92565000D03*
D23*
%TO.P,D2,2,A*%
%TO.N,Net-(D2-A)*%
X60170000Y-92565000D03*
%TD*%
D22*
%TO.P,D14,1,K*%
%TO.N,Net-(D14-K)*%
X190730000Y-92595000D03*
D23*
%TO.P,D14,2,A*%
%TO.N,Net-(D14-A)*%
X193270000Y-92595000D03*
%TD*%
D32*
%TO.P,TP5,1,1*%
%TO.N,/BUZZER_EN*%
X203000000Y-64000000D03*
%TD*%
%TO.P,TP8,1,1*%
%TO.N,/ESP2_BOOT*%
X158200000Y-74800000D03*
%TD*%
D22*
%TO.P,D9,1,K*%
%TO.N,Net-(D9-K)*%
X145730000Y-92595000D03*
D23*
%TO.P,D9,2,A*%
%TO.N,Net-(D9-A)*%
X148270000Y-92595000D03*
%TD*%
D31*
%TO.P,C1,1*%
%TO.N,/ESP2_EN*%
X137500000Y-66500000D03*
%TO.P,C1,2*%
%TO.N,GND*%
X137500000Y-64425000D03*
%TD*%
D43*
%TO.P,U1,39,GND*%
%TO.N,GND*%
X152480000Y-68850000D03*
X153880000Y-68850000D03*
X151780000Y-69550000D03*
X153180000Y-69550000D03*
X154580000Y-69550000D03*
X152480000Y-70250000D03*
X153880000Y-70250000D03*
X151780000Y-70950000D03*
X153180000Y-70950000D03*
X154580000Y-70950000D03*
X152480000Y-71650000D03*
X153880000Y-71650000D03*
%TD*%
D44*
%TO.N,+3V3*%
X167900000Y-73600000D03*
X146700000Y-61300000D03*
X133300000Y-73800000D03*
X81000000Y-81000000D03*
X147000000Y-68700000D03*
X170500000Y-64800000D03*
X137000000Y-68800000D03*
X142400000Y-61900000D03*
X170900000Y-62900000D03*
X119100000Y-64600000D03*
%TO.N,GND*%
X82900000Y-81000000D03*
X165300000Y-64300000D03*
X86500000Y-68400000D03*
X145400000Y-61200000D03*
X207000000Y-84000000D03*
X176200000Y-61400000D03*
X171000000Y-84000000D03*
X175200000Y-77000000D03*
X101060000Y-84000000D03*
X144000000Y-84000000D03*
X139400000Y-72900000D03*
X153000000Y-84000000D03*
X126100000Y-84000000D03*
X92060000Y-84000000D03*
X187400000Y-77000000D03*
X176600000Y-63300000D03*
X189000000Y-84000000D03*
X180000000Y-84000000D03*
X135000000Y-84000000D03*
X145000000Y-68700000D03*
X137200000Y-62600000D03*
X162000000Y-84000000D03*
X174000000Y-77000000D03*
X110000000Y-84000000D03*
X207000000Y-68000000D03*
X145400000Y-82300000D03*
X137200000Y-61200000D03*
X198000000Y-84000000D03*
%TO.N,/ESP2_EN*%
X142700000Y-66500000D03*
%TO.N,/ESP2_BOOT*%
X159500000Y-76100000D03*
%TO.N,+12V*%
X55500000Y-88600000D03*
X86500000Y-64000000D03*
%TO.N,/QUERY_BTN*%
X139400000Y-74000000D03*
X161100000Y-67300000D03*
%TO.N,/BUZZER_EN*%
X179900000Y-62400000D03*
%TO.N,I2C_1_SCL*%
X160100000Y-72500000D03*
%TO.N,I2C_1_SDA*%
X160725735Y-71025735D03*
%TO.N,/Portexpander_LED/DP_LED_4*%
X156000000Y-82700000D03*
%TO.N,/Portexpander_LED/DP_LED_5*%
X165000000Y-82600000D03*
%TO.N,/Portexpander_LED/DP_LED_6*%
X174000000Y-82000000D03*
%TO.N,/Portexpander_LED/DP_LED_7*%
X183000000Y-82000000D03*
%TO.N,/Portexpander_LED/DP_LED_8*%
X192000000Y-82000000D03*
%TO.N,/Portexpander_LED/DP_LED_9*%
X201000000Y-82000000D03*
%TO.N,/Portexpander_LED/DP_LED_3*%
X147000000Y-82700000D03*
%TO.N,/Portexpander_LED/DP_LED_10*%
X210000000Y-82000000D03*
%TO.N,/Portexpander_LED/DP_LED_2*%
X138000000Y-82000000D03*
%TO.N,/Portexpander_LED/DP_LED_1*%
X129000000Y-82000000D03*
%TO.N,/Portexpander_LED/IND_LED_1*%
X139199000Y-76801000D03*
%TO.N,/Portexpander_LED/IND_LED_2*%
X140900000Y-77400000D03*
%TO.N,/Portexpander_LED/IND_LED_3*%
X142500000Y-76800000D03*
%TO.N,LED_PWR*%
X215500000Y-85000000D03*
X117000000Y-82000000D03*
X216600000Y-85800000D03*
X215500000Y-85800000D03*
X98060000Y-84000000D03*
X120000000Y-81000000D03*
X117000000Y-81000000D03*
X122000000Y-82000000D03*
X186000000Y-84000000D03*
X122000000Y-81000000D03*
X168000000Y-84000000D03*
X118000000Y-81000000D03*
X118000000Y-80000000D03*
X118000000Y-82000000D03*
X119000000Y-82000000D03*
X123000000Y-82000000D03*
X121000000Y-81000000D03*
X120000000Y-80000000D03*
X122000000Y-80000000D03*
X123000000Y-81000000D03*
X120000000Y-82000000D03*
X159000000Y-84000000D03*
X119000000Y-81000000D03*
X123000000Y-80000000D03*
X119000000Y-80000000D03*
X107060000Y-84000000D03*
X115960000Y-84000000D03*
X216600000Y-85000000D03*
X117000000Y-80000000D03*
X141000000Y-84000000D03*
X150000000Y-84000000D03*
X121000000Y-82000000D03*
X204000000Y-84000000D03*
X121000000Y-80000000D03*
X177000000Y-84000000D03*
X132100000Y-84000000D03*
X195000000Y-84000000D03*
X213000000Y-84000000D03*
%TD*%
D45*
%TO.N,+3V3*%
X172762500Y-62900000D02*
X170900000Y-62900000D01*
X147000000Y-67000000D02*
X147000000Y-64400000D01*
X169100000Y-66200000D02*
X170500000Y-64800000D01*
X147000000Y-61600000D02*
X146700000Y-61300000D01*
X172730001Y-62932499D02*
X172762500Y-62900000D01*
X147000000Y-67000000D02*
X147000000Y-68700000D01*
X140900000Y-61900000D02*
X140900000Y-64500000D01*
X169000000Y-66200000D02*
X169100000Y-66200000D01*
X172730001Y-65700000D02*
X172730001Y-62932499D01*
X147000000Y-64400000D02*
X147000000Y-61600000D01*
X119100000Y-64700000D02*
X119100000Y-64600000D01*
X169000000Y-72500000D02*
X167900000Y-73600000D01*
X140900000Y-61900000D02*
X142400000Y-61900000D01*
%TO.N,GND*%
X134100000Y-71300000D02*
X134200000Y-71300000D01*
X134200000Y-71300000D02*
X135525000Y-72625000D01*
X186699999Y-75000000D02*
X186699999Y-76299999D01*
X137900000Y-61900000D02*
X137200000Y-61200000D01*
X144925000Y-68625000D02*
X145000000Y-68700000D01*
X139125000Y-72625000D02*
X139400000Y-72900000D01*
X175270000Y-76930000D02*
X175200000Y-77000000D01*
X144925000Y-61675000D02*
X145400000Y-61200000D01*
X174837500Y-62762500D02*
X176200000Y-61400000D01*
X144925000Y-67000000D02*
X144925000Y-64400000D01*
X174000000Y-75000000D02*
X174000000Y-77000000D01*
X144925000Y-67000000D02*
X144925000Y-68625000D01*
X137500000Y-64425000D02*
X137500000Y-62900000D01*
X136175000Y-63100000D02*
X137500000Y-64425000D01*
X176540000Y-65699999D02*
X176540000Y-63360000D01*
X138825000Y-61900000D02*
X137900000Y-61900000D01*
X134100000Y-63100000D02*
X136175000Y-63100000D01*
X209000000Y-68000000D02*
X207000000Y-68000000D01*
X144925000Y-64400000D02*
X144925000Y-61675000D01*
X137400000Y-72625000D02*
X139125000Y-72625000D01*
X174837500Y-62900000D02*
X174837500Y-62762500D01*
X186699999Y-76299999D02*
X187400000Y-77000000D01*
X175270000Y-75000000D02*
X175270000Y-76930000D01*
X176540000Y-63360000D02*
X176600000Y-63300000D01*
X137500000Y-62900000D02*
X137200000Y-62600000D01*
X135525000Y-72625000D02*
X137400000Y-72625000D01*
%TO.N,/ESP2_EN*%
X134100000Y-67600000D02*
X136400000Y-67600000D01*
X137500000Y-66500000D02*
X140900000Y-66500000D01*
X140900000Y-66500000D02*
X142700000Y-66500000D01*
X136400000Y-67600000D02*
X137500000Y-66500000D01*
%TO.N,/ESP2_BOOT*%
X136300000Y-75800000D02*
X137400000Y-74700000D01*
X159500000Y-76100000D02*
X158100000Y-74700000D01*
X158100000Y-74700000D02*
X137400000Y-74700000D01*
X134100000Y-75800000D02*
X136300000Y-75800000D01*
%TO.N,+12V*%
X58000000Y-88600000D02*
X55500000Y-88600000D01*
%TO.N,/QUERY_BTN*%
X161100000Y-67300000D02*
X150800000Y-67300000D01*
X143200000Y-70200000D02*
X139400000Y-74000000D01*
X147900000Y-70200000D02*
X143200000Y-70200000D01*
X150800000Y-67300000D02*
X147900000Y-70200000D01*
%TO.N,Net-(D2-A)*%
X60170000Y-92565000D02*
X60170000Y-88770000D01*
X60170000Y-88770000D02*
X60000000Y-88600000D01*
%TO.N,Net-(Q1-Pad2)*%
X216900000Y-65470000D02*
X215430000Y-64000000D01*
X211000000Y-68000000D02*
X211000000Y-64000000D01*
X215430000Y-64000000D02*
X211000000Y-64000000D01*
%TO.N,/BUZZER_EN*%
X179900000Y-62400000D02*
X201400000Y-62400000D01*
X209000000Y-64000000D02*
X203000000Y-64000000D01*
X201400000Y-62400000D02*
X203000000Y-64000000D01*
%TO.N,Net-(D3-A)*%
X209750000Y-73750000D02*
X211000000Y-72500000D01*
X219440000Y-70060000D02*
X219440000Y-65700000D01*
X211000000Y-72500000D02*
X217000000Y-72500000D01*
X209750000Y-74000000D02*
X209750000Y-73750000D01*
X217000000Y-72500000D02*
X219440000Y-70060000D01*
%TO.N,I2C_1_SCL*%
X174900000Y-66785000D02*
X175270000Y-66415000D01*
X160100000Y-72500000D02*
X161400000Y-71200000D01*
X169900000Y-69600000D02*
X173900000Y-69600000D01*
X169000000Y-70500000D02*
X169900000Y-69600000D01*
X161400000Y-71200000D02*
X168300000Y-71200000D01*
X175270000Y-66415000D02*
X175270000Y-65700000D01*
X173900000Y-69600000D02*
X174900000Y-68600000D01*
X174900000Y-68600000D02*
X174900000Y-66785000D01*
X168300000Y-71200000D02*
X169000000Y-70500000D01*
%TO.N,I2C_1_SDA*%
X174400000Y-66800000D02*
X174000000Y-66400000D01*
X174400000Y-68500000D02*
X174400000Y-66800000D01*
X160725735Y-71025735D02*
X160774265Y-71025735D01*
X160774265Y-71025735D02*
X164300000Y-67500000D01*
X169000000Y-68200000D02*
X169900000Y-69100000D01*
X169900000Y-69100000D02*
X173800000Y-69100000D01*
X173800000Y-69100000D02*
X174400000Y-68500000D01*
X168300000Y-67500000D02*
X169000000Y-68200000D01*
X174000000Y-66400000D02*
X174000000Y-65700000D01*
X164300000Y-67500000D02*
X168300000Y-67500000D01*
%TO.N,/Portexpander_LED/DP_LED_4*%
X156000000Y-81000000D02*
X157397000Y-79603000D01*
X156000000Y-82700000D02*
X156000000Y-81000000D01*
X157397000Y-79603000D02*
X177497000Y-79603000D01*
X180350000Y-76750000D02*
X180350000Y-75000000D01*
X177497000Y-79603000D02*
X180350000Y-76750000D01*
%TO.N,/Portexpander_LED/DP_LED_5*%
X181620000Y-76680000D02*
X181620000Y-75000000D01*
X178296000Y-80004000D02*
X181620000Y-76680000D01*
X165000000Y-82600000D02*
X165000000Y-81200000D01*
X165000000Y-81200000D02*
X166196000Y-80004000D01*
X166196000Y-80004000D02*
X178296000Y-80004000D01*
%TO.N,/Portexpander_LED/DP_LED_6*%
X182900000Y-75010001D02*
X182890000Y-75000001D01*
X174000000Y-82000000D02*
X174000000Y-81800000D01*
X174000000Y-81800000D02*
X175395000Y-80405000D01*
X179195000Y-80405000D02*
X182900000Y-76700000D01*
X182900000Y-76700000D02*
X182900000Y-75010001D01*
X175395000Y-80405000D02*
X179195000Y-80405000D01*
%TO.N,/Portexpander_LED/DP_LED_7*%
X184160000Y-77740000D02*
X184160000Y-75000000D01*
X183000000Y-82000000D02*
X183000000Y-78900000D01*
X183000000Y-78900000D02*
X184160000Y-77740000D01*
%TO.N,/Portexpander_LED/DP_LED_8*%
X190165800Y-78800000D02*
X186600000Y-78800000D01*
X192000000Y-82000000D02*
X192000000Y-80634200D01*
X186600000Y-78800000D02*
X185430000Y-77630000D01*
X192000000Y-80634200D02*
X190165800Y-78800000D01*
X185430000Y-77630000D02*
X185430000Y-75000000D01*
%TO.N,/Portexpander_LED/DP_LED_9*%
X190500000Y-66300000D02*
X188100000Y-63900000D01*
X186699999Y-64300001D02*
X186699999Y-65700000D01*
X188100000Y-63900000D02*
X187100000Y-63900000D01*
X190500000Y-78567100D02*
X190500000Y-66300000D01*
X199400000Y-80400000D02*
X192332900Y-80400000D01*
X192332900Y-80400000D02*
X190500000Y-78567100D01*
X201000000Y-82000000D02*
X199400000Y-80400000D01*
X187100000Y-63900000D02*
X186699999Y-64300001D01*
%TO.N,/Portexpander_LED/DP_LED_3*%
X147000000Y-82700000D02*
X147000000Y-79900000D01*
X147698000Y-79202000D02*
X176598000Y-79202000D01*
X147000000Y-79900000D02*
X147698000Y-79202000D01*
X176598000Y-79202000D02*
X179080000Y-76720000D01*
X179080000Y-76720000D02*
X179080000Y-75000000D01*
%TO.N,/Portexpander_LED/DP_LED_10*%
X188266100Y-63499000D02*
X185901000Y-63499000D01*
X185901000Y-63499000D02*
X185430000Y-63970000D01*
X190901000Y-66133900D02*
X188266100Y-63499000D01*
X185430000Y-63970000D02*
X185430000Y-65700000D01*
X190901000Y-78401000D02*
X190901000Y-66133900D01*
X210000000Y-82000000D02*
X208000000Y-80000000D01*
X208000000Y-80000000D02*
X192500000Y-80000000D01*
X192500000Y-80000000D02*
X190901000Y-78401000D01*
%TO.N,/Portexpander_LED/DP_LED_2*%
X138000000Y-82000000D02*
X138000000Y-80100000D01*
X177810000Y-76690000D02*
X177810000Y-75000000D01*
X139299000Y-78801000D02*
X175699000Y-78801000D01*
X175699000Y-78801000D02*
X177810000Y-76690000D01*
X138000000Y-80100000D02*
X139299000Y-78801000D01*
%TO.N,/Portexpander_LED/DP_LED_1*%
X132600000Y-78400000D02*
X174900000Y-78400000D01*
X129000000Y-82000000D02*
X132600000Y-78400000D01*
X174900000Y-78400000D02*
X176540000Y-76760000D01*
X176540000Y-76760000D02*
X176540000Y-75000001D01*
%TO.N,/Portexpander_LED/IND_LED_1*%
X167200000Y-78000000D02*
X173100000Y-72100000D01*
X140398000Y-78000000D02*
X167200000Y-78000000D01*
X184160000Y-68240000D02*
X184160000Y-65700000D01*
X180300000Y-72100000D02*
X184160000Y-68240000D01*
X139199000Y-76801000D02*
X140398000Y-78000000D01*
X173100000Y-72100000D02*
X180300000Y-72100000D01*
%TO.N,/Portexpander_LED/IND_LED_2*%
X167100000Y-77400000D02*
X173001000Y-71499000D01*
X140900000Y-77400000D02*
X167100000Y-77400000D01*
X180100000Y-71499000D02*
X182890000Y-68709000D01*
X182890000Y-68709000D02*
X182890000Y-65699999D01*
X173001000Y-71499000D02*
X180100000Y-71499000D01*
%TO.N,/Portexpander_LED/IND_LED_3*%
X172900000Y-70900000D02*
X179900000Y-70900000D01*
X181620000Y-69180000D02*
X181620000Y-65700000D01*
X142500000Y-76800000D02*
X167000000Y-76800000D01*
X179900000Y-70900000D02*
X181620000Y-69180000D01*
X167000000Y-76800000D02*
X172900000Y-70900000D01*
%TO.N,LED_PWR*%
X210300000Y-77500000D02*
X209100000Y-76300000D01*
X209100000Y-76300000D02*
X209100000Y-76000000D01*
X217000000Y-77500000D02*
X210300000Y-77500000D01*
%TD*%
%TA.AperFunction,Conductor*%
%TO.N,Net-(S1-COM)*%
G36*
X63215677Y-60819685D02*
G01*
X63236319Y-60836319D01*
X66663681Y-64263681D01*
X66697166Y-64325004D01*
X66700000Y-64351362D01*
X66700000Y-69000000D01*
X68997175Y-71297175D01*
X69030660Y-71358498D01*
X69032433Y-71401040D01*
X69012000Y-71556252D01*
X69012000Y-71803739D01*
X69012001Y-71803756D01*
X69044303Y-72049117D01*
X69108361Y-72288184D01*
X69203069Y-72516829D01*
X69203074Y-72516840D01*
X69326812Y-72731159D01*
X69326823Y-72731175D01*
X69477479Y-72927514D01*
X69477485Y-72927521D01*
X69652478Y-73102514D01*
X69652484Y-73102519D01*
X69848833Y-73253183D01*
X69848840Y-73253187D01*
X70063159Y-73376925D01*
X70063164Y-73376927D01*
X70063167Y-73376929D01*
X70291820Y-73471640D01*
X70530879Y-73535696D01*
X70776254Y-73568000D01*
X70776261Y-73568000D01*
X71023739Y-73568000D01*
X71023746Y-73568000D01*
X71178960Y-73547565D01*
X71247991Y-73558330D01*
X71282823Y-73582823D01*
X72463681Y-74763681D01*
X72497166Y-74825004D01*
X72500000Y-74851362D01*
X72500000Y-76148638D01*
X72480315Y-76215677D01*
X72463681Y-76236319D01*
X71636319Y-77063681D01*
X71574996Y-77097166D01*
X71548638Y-77100000D01*
X70251362Y-77100000D01*
X70184323Y-77080315D01*
X70163681Y-77063681D01*
X61100000Y-68000000D01*
X58051362Y-68000000D01*
X57984323Y-67980315D01*
X57963681Y-67963681D01*
X57036319Y-67036319D01*
X57002834Y-66974996D01*
X57000000Y-66948638D01*
X57000000Y-61851362D01*
X57019685Y-61784323D01*
X57036319Y-61763681D01*
X57963681Y-60836319D01*
X58025004Y-60802834D01*
X58051362Y-60800000D01*
X63148638Y-60800000D01*
X63215677Y-60819685D01*
G37*
%TD.AperFunction*%
%TD*%
%TA.AperFunction,Conductor*%
%TO.N,+12V*%
G36*
X77415677Y-61419685D02*
G01*
X77436319Y-61436319D01*
X80963681Y-64963681D01*
X80997166Y-65025004D01*
X81000000Y-65051362D01*
X81000000Y-66948638D01*
X80991355Y-66978078D01*
X80984832Y-67008065D01*
X80981077Y-67013080D01*
X80980315Y-67015677D01*
X80963681Y-67036319D01*
X80836319Y-67163681D01*
X80774996Y-67197166D01*
X80748638Y-67200000D01*
X69251362Y-67200000D01*
X69184323Y-67180315D01*
X69163681Y-67163681D01*
X67536319Y-65536319D01*
X67502834Y-65474996D01*
X67500000Y-65448638D01*
X67500000Y-64351362D01*
X67519685Y-64284323D01*
X67536319Y-64263681D01*
X70363681Y-61436319D01*
X70425004Y-61402834D01*
X70451362Y-61400000D01*
X77348638Y-61400000D01*
X77415677Y-61419685D01*
G37*
%TD.AperFunction*%
%TD*%
%TA.AperFunction,Conductor*%
%TO.N,LED_PWR*%
G36*
X123215677Y-77219685D02*
G01*
X123236319Y-77236319D01*
X123963681Y-77963681D01*
X123997166Y-78025004D01*
X124000000Y-78051362D01*
X124000000Y-81948638D01*
X123980315Y-82015677D01*
X123963681Y-82036319D01*
X123036319Y-82963681D01*
X122974996Y-82997166D01*
X122948638Y-83000000D01*
X117051362Y-83000000D01*
X116984323Y-82980315D01*
X116963681Y-82963681D01*
X116036319Y-82036319D01*
X116002834Y-81974996D01*
X116000000Y-81948638D01*
X116000000Y-78051362D01*
X116019685Y-77984323D01*
X116036319Y-77963681D01*
X116763681Y-77236319D01*
X116825004Y-77202834D01*
X116851362Y-77200000D01*
X123148638Y-77200000D01*
X123215677Y-77219685D01*
G37*
%TD.AperFunction*%
%TD*%
%TA.AperFunction,Conductor*%
%TO.N,+5V*%
G36*
X113815677Y-63119685D02*
G01*
X113836319Y-63136319D01*
X113863681Y-63163681D01*
X113878384Y-63190608D01*
X113894977Y-63216427D01*
X113895868Y-63222627D01*
X113897166Y-63225004D01*
X113900000Y-63251362D01*
X113900000Y-63264505D01*
X113886485Y-63320800D01*
X113794781Y-63500776D01*
X113731522Y-63695465D01*
X113699500Y-63897648D01*
X113699500Y-64102351D01*
X113731522Y-64304534D01*
X113794781Y-64499223D01*
X113838623Y-64585266D01*
X113887713Y-64681610D01*
X113900000Y-64698521D01*
X113900000Y-64700000D01*
X113903927Y-64703927D01*
X114008034Y-64847219D01*
X114152784Y-64991969D01*
X114221975Y-65042238D01*
X114288179Y-65090337D01*
X114302973Y-65102973D01*
X122663681Y-73463681D01*
X122697166Y-73525004D01*
X122700000Y-73551362D01*
X122700000Y-76448638D01*
X122691355Y-76478078D01*
X122684832Y-76508065D01*
X122681077Y-76513080D01*
X122680315Y-76515677D01*
X122663681Y-76536319D01*
X122636319Y-76563681D01*
X122574996Y-76597166D01*
X122548638Y-76600000D01*
X119926841Y-76600000D01*
X119859802Y-76580315D01*
X119814047Y-76527511D01*
X119804103Y-76458354D01*
X119805500Y-76448638D01*
X119805500Y-75651359D01*
X119802602Y-75597311D01*
X119802602Y-75597310D01*
X119799770Y-75570977D01*
X119799767Y-75570950D01*
X119791114Y-75517554D01*
X119791114Y-75517552D01*
X119740833Y-75382747D01*
X119740832Y-75382743D01*
X119707347Y-75321420D01*
X119621123Y-75206239D01*
X119621118Y-75206234D01*
X119621113Y-75206228D01*
X115093776Y-70678892D01*
X115093761Y-70678877D01*
X115093737Y-70678855D01*
X115053519Y-70642728D01*
X115053507Y-70642718D01*
X115032856Y-70626076D01*
X114988974Y-70594433D01*
X114858100Y-70534663D01*
X114791055Y-70514976D01*
X114743582Y-70508150D01*
X114648638Y-70494500D01*
X114648636Y-70494500D01*
X113245862Y-70494500D01*
X113178823Y-70474815D01*
X113158181Y-70458181D01*
X112136319Y-69436319D01*
X112102834Y-69374996D01*
X112100000Y-69348638D01*
X112100000Y-63351362D01*
X112119685Y-63284323D01*
X112136319Y-63263681D01*
X112263681Y-63136319D01*
X112325004Y-63102834D01*
X112351362Y-63100000D01*
X113748638Y-63100000D01*
X113815677Y-63119685D01*
G37*
%TD.AperFunction*%
%TD*%
%TA.AperFunction,Conductor*%
%TO.N,+3V3*%
G36*
X98715677Y-63119685D02*
G01*
X98736319Y-63136319D01*
X98763681Y-63163681D01*
X98778384Y-63190608D01*
X98794977Y-63216427D01*
X98795868Y-63222627D01*
X98797166Y-63225004D01*
X98800000Y-63251362D01*
X98800000Y-63465074D01*
X98793931Y-63503392D01*
X98731523Y-63695461D01*
X98731523Y-63695464D01*
X98699500Y-63897648D01*
X98699500Y-64102351D01*
X98731523Y-64304535D01*
X98731523Y-64304538D01*
X98793931Y-64496606D01*
X98800000Y-64534924D01*
X98800000Y-64600000D01*
X98897025Y-64697025D01*
X98909658Y-64711816D01*
X99008034Y-64847219D01*
X99152784Y-64991969D01*
X99222103Y-65042331D01*
X99288179Y-65090337D01*
X99302973Y-65102973D01*
X105200000Y-71000000D01*
X114648638Y-71000000D01*
X114715677Y-71019685D01*
X114736319Y-71036319D01*
X119263681Y-75563681D01*
X119297166Y-75625004D01*
X119300000Y-75651362D01*
X119300000Y-76448638D01*
X119291355Y-76478078D01*
X119284832Y-76508065D01*
X119281077Y-76513080D01*
X119280315Y-76515677D01*
X119263681Y-76536319D01*
X119136319Y-76663681D01*
X119074996Y-76697166D01*
X119048638Y-76700000D01*
X103851362Y-76700000D01*
X103784323Y-76680315D01*
X103763681Y-76663681D01*
X97136319Y-70036319D01*
X97102834Y-69974996D01*
X97100000Y-69948638D01*
X97100000Y-63351362D01*
X97119685Y-63284323D01*
X97136319Y-63263681D01*
X97263681Y-63136319D01*
X97325004Y-63102834D01*
X97351362Y-63100000D01*
X98648638Y-63100000D01*
X98715677Y-63119685D01*
G37*
%TD.AperFunction*%
%TD*%
%TA.AperFunction,Conductor*%
%TO.N,+12P*%
G36*
X72215677Y-77819685D02*
G01*
X72236319Y-77836319D01*
X72363681Y-77963681D01*
X72397166Y-78025004D01*
X72400000Y-78051362D01*
X72400000Y-80748638D01*
X72380315Y-80815677D01*
X72363681Y-80836319D01*
X66136319Y-87063681D01*
X66074996Y-87097166D01*
X66048638Y-87100000D01*
X48851362Y-87100000D01*
X48784323Y-87080315D01*
X48763681Y-87063681D01*
X45136319Y-83436319D01*
X45102834Y-83374996D01*
X45100000Y-83348638D01*
X45100000Y-79851362D01*
X45119685Y-79784323D01*
X45136319Y-79763681D01*
X46763681Y-78136319D01*
X46825004Y-78102834D01*
X46851362Y-78100000D01*
X48353992Y-78100000D01*
X48421031Y-78119685D01*
X48442090Y-78136737D01*
X48864099Y-78562796D01*
X48897291Y-78624278D01*
X48900000Y-78650057D01*
X48900000Y-79248638D01*
X48880315Y-79315677D01*
X48863681Y-79336319D01*
X48200000Y-79999999D01*
X48200000Y-80250500D01*
X48180315Y-80317539D01*
X48127511Y-80363294D01*
X48076000Y-80374500D01*
X47995676Y-80374500D01*
X47789610Y-80407137D01*
X47591179Y-80471612D01*
X47405285Y-80566330D01*
X47236493Y-80688966D01*
X47088966Y-80836493D01*
X46966330Y-81005285D01*
X46871612Y-81191179D01*
X46807137Y-81389610D01*
X46774500Y-81595675D01*
X46774500Y-81804324D01*
X46807137Y-82010389D01*
X46871612Y-82208820D01*
X46966330Y-82394714D01*
X47088965Y-82563505D01*
X47236495Y-82711035D01*
X47405286Y-82833670D01*
X47493116Y-82878421D01*
X47591179Y-82928387D01*
X47591181Y-82928387D01*
X47591184Y-82928389D01*
X47697545Y-82962948D01*
X47789610Y-82992862D01*
X47995676Y-83025500D01*
X47995681Y-83025500D01*
X48204316Y-83025500D01*
X48204319Y-83025500D01*
X48246529Y-83018814D01*
X48315819Y-83027768D01*
X48353606Y-83053606D01*
X49700000Y-84400000D01*
X49975753Y-84400000D01*
X50004265Y-84403323D01*
X50007513Y-84404089D01*
X50007517Y-84404091D01*
X50067127Y-84410500D01*
X51812872Y-84410499D01*
X51872483Y-84404091D01*
X51872488Y-84404088D01*
X51875730Y-84403324D01*
X51904248Y-84400000D01*
X62800000Y-84400000D01*
X69363681Y-77836319D01*
X69425004Y-77802834D01*
X69451362Y-77800000D01*
X72148638Y-77800000D01*
X72215677Y-77819685D01*
G37*
%TD.AperFunction*%
%TD*%
M02*
