%TF.GenerationSoftware,KiCad,Pcbnew,9.0.1*%
%TF.CreationDate,2025-06-18T18:38:46+02:00*%
%TF.ProjectId,open_g_db,6f70656e-5f67-45f6-9462-2e6b69636164,rev?*%
%TF.SameCoordinates,Original*%
%TF.FileFunction,Legend,Top*%
%TF.FilePolarity,Positive*%
%FSLAX46Y46*%
G04 Gerber Fmt 4.6, Leading zero omitted, Abs format (unit mm)*
G04 Created by KiCad (PCBNEW 9.0.1) date 2025-06-18 18:38:46*
%MOMM*%
%LPD*%
G01*
G04 APERTURE LIST*
%ADD10C,0.300000*%
%ADD11C,0.150000*%
%ADD12C,0.254000*%
%ADD13C,0.120000*%
%ADD14C,0.100000*%
%ADD15C,0.200000*%
G04 APERTURE END LIST*
D10*
X222571429Y-86470996D02*
X222857143Y-86470996D01*
X222857143Y-86470996D02*
X223000000Y-86542425D01*
X223000000Y-86542425D02*
X223142857Y-86685282D01*
X223142857Y-86685282D02*
X223214286Y-86970996D01*
X223214286Y-86970996D02*
X223214286Y-87470996D01*
X223214286Y-87470996D02*
X223142857Y-87756710D01*
X223142857Y-87756710D02*
X223000000Y-87899568D01*
X223000000Y-87899568D02*
X222857143Y-87970996D01*
X222857143Y-87970996D02*
X222571429Y-87970996D01*
X222571429Y-87970996D02*
X222428572Y-87899568D01*
X222428572Y-87899568D02*
X222285714Y-87756710D01*
X222285714Y-87756710D02*
X222214286Y-87470996D01*
X222214286Y-87470996D02*
X222214286Y-86970996D01*
X222214286Y-86970996D02*
X222285714Y-86685282D01*
X222285714Y-86685282D02*
X222428572Y-86542425D01*
X222428572Y-86542425D02*
X222571429Y-86470996D01*
X223857143Y-86970996D02*
X223857143Y-88470996D01*
X223857143Y-87042425D02*
X224000001Y-86970996D01*
X224000001Y-86970996D02*
X224285715Y-86970996D01*
X224285715Y-86970996D02*
X224428572Y-87042425D01*
X224428572Y-87042425D02*
X224500001Y-87113853D01*
X224500001Y-87113853D02*
X224571429Y-87256710D01*
X224571429Y-87256710D02*
X224571429Y-87685282D01*
X224571429Y-87685282D02*
X224500001Y-87828139D01*
X224500001Y-87828139D02*
X224428572Y-87899568D01*
X224428572Y-87899568D02*
X224285715Y-87970996D01*
X224285715Y-87970996D02*
X224000001Y-87970996D01*
X224000001Y-87970996D02*
X223857143Y-87899568D01*
X225785715Y-87899568D02*
X225642858Y-87970996D01*
X225642858Y-87970996D02*
X225357144Y-87970996D01*
X225357144Y-87970996D02*
X225214286Y-87899568D01*
X225214286Y-87899568D02*
X225142858Y-87756710D01*
X225142858Y-87756710D02*
X225142858Y-87185282D01*
X225142858Y-87185282D02*
X225214286Y-87042425D01*
X225214286Y-87042425D02*
X225357144Y-86970996D01*
X225357144Y-86970996D02*
X225642858Y-86970996D01*
X225642858Y-86970996D02*
X225785715Y-87042425D01*
X225785715Y-87042425D02*
X225857144Y-87185282D01*
X225857144Y-87185282D02*
X225857144Y-87328139D01*
X225857144Y-87328139D02*
X225142858Y-87470996D01*
X226500000Y-86970996D02*
X226500000Y-87970996D01*
X226500000Y-87113853D02*
X226571429Y-87042425D01*
X226571429Y-87042425D02*
X226714286Y-86970996D01*
X226714286Y-86970996D02*
X226928572Y-86970996D01*
X226928572Y-86970996D02*
X227071429Y-87042425D01*
X227071429Y-87042425D02*
X227142858Y-87185282D01*
X227142858Y-87185282D02*
X227142858Y-87970996D01*
X228642858Y-86542425D02*
X228500001Y-86470996D01*
X228500001Y-86470996D02*
X228285715Y-86470996D01*
X228285715Y-86470996D02*
X228071429Y-86542425D01*
X228071429Y-86542425D02*
X227928572Y-86685282D01*
X227928572Y-86685282D02*
X227857143Y-86828139D01*
X227857143Y-86828139D02*
X227785715Y-87113853D01*
X227785715Y-87113853D02*
X227785715Y-87328139D01*
X227785715Y-87328139D02*
X227857143Y-87613853D01*
X227857143Y-87613853D02*
X227928572Y-87756710D01*
X227928572Y-87756710D02*
X228071429Y-87899568D01*
X228071429Y-87899568D02*
X228285715Y-87970996D01*
X228285715Y-87970996D02*
X228428572Y-87970996D01*
X228428572Y-87970996D02*
X228642858Y-87899568D01*
X228642858Y-87899568D02*
X228714286Y-87828139D01*
X228714286Y-87828139D02*
X228714286Y-87328139D01*
X228714286Y-87328139D02*
X228428572Y-87328139D01*
X230500000Y-87970996D02*
X230500000Y-86470996D01*
X230500000Y-86470996D02*
X231071429Y-86470996D01*
X231071429Y-86470996D02*
X231214286Y-86542425D01*
X231214286Y-86542425D02*
X231285715Y-86613853D01*
X231285715Y-86613853D02*
X231357143Y-86756710D01*
X231357143Y-86756710D02*
X231357143Y-86970996D01*
X231357143Y-86970996D02*
X231285715Y-87113853D01*
X231285715Y-87113853D02*
X231214286Y-87185282D01*
X231214286Y-87185282D02*
X231071429Y-87256710D01*
X231071429Y-87256710D02*
X230500000Y-87256710D01*
X232000000Y-87970996D02*
X232000000Y-86970996D01*
X232000000Y-87256710D02*
X232071429Y-87113853D01*
X232071429Y-87113853D02*
X232142858Y-87042425D01*
X232142858Y-87042425D02*
X232285715Y-86970996D01*
X232285715Y-86970996D02*
X232428572Y-86970996D01*
X233142857Y-87970996D02*
X233000000Y-87899568D01*
X233000000Y-87899568D02*
X232928571Y-87828139D01*
X232928571Y-87828139D02*
X232857143Y-87685282D01*
X232857143Y-87685282D02*
X232857143Y-87256710D01*
X232857143Y-87256710D02*
X232928571Y-87113853D01*
X232928571Y-87113853D02*
X233000000Y-87042425D01*
X233000000Y-87042425D02*
X233142857Y-86970996D01*
X233142857Y-86970996D02*
X233357143Y-86970996D01*
X233357143Y-86970996D02*
X233500000Y-87042425D01*
X233500000Y-87042425D02*
X233571429Y-87113853D01*
X233571429Y-87113853D02*
X233642857Y-87256710D01*
X233642857Y-87256710D02*
X233642857Y-87685282D01*
X233642857Y-87685282D02*
X233571429Y-87828139D01*
X233571429Y-87828139D02*
X233500000Y-87899568D01*
X233500000Y-87899568D02*
X233357143Y-87970996D01*
X233357143Y-87970996D02*
X233142857Y-87970996D01*
X234285714Y-86970996D02*
X234285714Y-88256710D01*
X234285714Y-88256710D02*
X234214286Y-88399568D01*
X234214286Y-88399568D02*
X234071429Y-88470996D01*
X234071429Y-88470996D02*
X234000000Y-88470996D01*
X234285714Y-86470996D02*
X234214286Y-86542425D01*
X234214286Y-86542425D02*
X234285714Y-86613853D01*
X234285714Y-86613853D02*
X234357143Y-86542425D01*
X234357143Y-86542425D02*
X234285714Y-86470996D01*
X234285714Y-86470996D02*
X234285714Y-86613853D01*
X235571429Y-87899568D02*
X235428572Y-87970996D01*
X235428572Y-87970996D02*
X235142858Y-87970996D01*
X235142858Y-87970996D02*
X235000000Y-87899568D01*
X235000000Y-87899568D02*
X234928572Y-87756710D01*
X234928572Y-87756710D02*
X234928572Y-87185282D01*
X234928572Y-87185282D02*
X235000000Y-87042425D01*
X235000000Y-87042425D02*
X235142858Y-86970996D01*
X235142858Y-86970996D02*
X235428572Y-86970996D01*
X235428572Y-86970996D02*
X235571429Y-87042425D01*
X235571429Y-87042425D02*
X235642858Y-87185282D01*
X235642858Y-87185282D02*
X235642858Y-87328139D01*
X235642858Y-87328139D02*
X234928572Y-87470996D01*
X236928572Y-87899568D02*
X236785714Y-87970996D01*
X236785714Y-87970996D02*
X236500000Y-87970996D01*
X236500000Y-87970996D02*
X236357143Y-87899568D01*
X236357143Y-87899568D02*
X236285714Y-87828139D01*
X236285714Y-87828139D02*
X236214286Y-87685282D01*
X236214286Y-87685282D02*
X236214286Y-87256710D01*
X236214286Y-87256710D02*
X236285714Y-87113853D01*
X236285714Y-87113853D02*
X236357143Y-87042425D01*
X236357143Y-87042425D02*
X236500000Y-86970996D01*
X236500000Y-86970996D02*
X236785714Y-86970996D01*
X236785714Y-86970996D02*
X236928572Y-87042425D01*
X237357143Y-86970996D02*
X237928571Y-86970996D01*
X237571428Y-86470996D02*
X237571428Y-87756710D01*
X237571428Y-87756710D02*
X237642857Y-87899568D01*
X237642857Y-87899568D02*
X237785714Y-87970996D01*
X237785714Y-87970996D02*
X237928571Y-87970996D01*
X222499999Y-90385912D02*
X222499999Y-88885912D01*
X222499999Y-88885912D02*
X222857142Y-88885912D01*
X222857142Y-88885912D02*
X223071428Y-88957341D01*
X223071428Y-88957341D02*
X223214285Y-89100198D01*
X223214285Y-89100198D02*
X223285714Y-89243055D01*
X223285714Y-89243055D02*
X223357142Y-89528769D01*
X223357142Y-89528769D02*
X223357142Y-89743055D01*
X223357142Y-89743055D02*
X223285714Y-90028769D01*
X223285714Y-90028769D02*
X223214285Y-90171626D01*
X223214285Y-90171626D02*
X223071428Y-90314484D01*
X223071428Y-90314484D02*
X222857142Y-90385912D01*
X222857142Y-90385912D02*
X222499999Y-90385912D01*
X223999999Y-90385912D02*
X223999999Y-89385912D01*
X223999999Y-88885912D02*
X223928571Y-88957341D01*
X223928571Y-88957341D02*
X223999999Y-89028769D01*
X223999999Y-89028769D02*
X224071428Y-88957341D01*
X224071428Y-88957341D02*
X223999999Y-88885912D01*
X223999999Y-88885912D02*
X223999999Y-89028769D01*
X224642857Y-90314484D02*
X224785714Y-90385912D01*
X224785714Y-90385912D02*
X225071428Y-90385912D01*
X225071428Y-90385912D02*
X225214285Y-90314484D01*
X225214285Y-90314484D02*
X225285714Y-90171626D01*
X225285714Y-90171626D02*
X225285714Y-90100198D01*
X225285714Y-90100198D02*
X225214285Y-89957341D01*
X225214285Y-89957341D02*
X225071428Y-89885912D01*
X225071428Y-89885912D02*
X224857143Y-89885912D01*
X224857143Y-89885912D02*
X224714285Y-89814484D01*
X224714285Y-89814484D02*
X224642857Y-89671626D01*
X224642857Y-89671626D02*
X224642857Y-89600198D01*
X224642857Y-89600198D02*
X224714285Y-89457341D01*
X224714285Y-89457341D02*
X224857143Y-89385912D01*
X224857143Y-89385912D02*
X225071428Y-89385912D01*
X225071428Y-89385912D02*
X225214285Y-89457341D01*
X225928571Y-89385912D02*
X225928571Y-90885912D01*
X225928571Y-89457341D02*
X226071429Y-89385912D01*
X226071429Y-89385912D02*
X226357143Y-89385912D01*
X226357143Y-89385912D02*
X226500000Y-89457341D01*
X226500000Y-89457341D02*
X226571429Y-89528769D01*
X226571429Y-89528769D02*
X226642857Y-89671626D01*
X226642857Y-89671626D02*
X226642857Y-90100198D01*
X226642857Y-90100198D02*
X226571429Y-90243055D01*
X226571429Y-90243055D02*
X226500000Y-90314484D01*
X226500000Y-90314484D02*
X226357143Y-90385912D01*
X226357143Y-90385912D02*
X226071429Y-90385912D01*
X226071429Y-90385912D02*
X225928571Y-90314484D01*
X227500000Y-90385912D02*
X227357143Y-90314484D01*
X227357143Y-90314484D02*
X227285714Y-90171626D01*
X227285714Y-90171626D02*
X227285714Y-88885912D01*
X228714286Y-90385912D02*
X228714286Y-89600198D01*
X228714286Y-89600198D02*
X228642857Y-89457341D01*
X228642857Y-89457341D02*
X228500000Y-89385912D01*
X228500000Y-89385912D02*
X228214286Y-89385912D01*
X228214286Y-89385912D02*
X228071428Y-89457341D01*
X228714286Y-90314484D02*
X228571428Y-90385912D01*
X228571428Y-90385912D02*
X228214286Y-90385912D01*
X228214286Y-90385912D02*
X228071428Y-90314484D01*
X228071428Y-90314484D02*
X228000000Y-90171626D01*
X228000000Y-90171626D02*
X228000000Y-90028769D01*
X228000000Y-90028769D02*
X228071428Y-89885912D01*
X228071428Y-89885912D02*
X228214286Y-89814484D01*
X228214286Y-89814484D02*
X228571428Y-89814484D01*
X228571428Y-89814484D02*
X228714286Y-89743055D01*
X229285714Y-89385912D02*
X229642857Y-90385912D01*
X230000000Y-89385912D02*
X229642857Y-90385912D01*
X229642857Y-90385912D02*
X229500000Y-90743055D01*
X229500000Y-90743055D02*
X229428571Y-90814484D01*
X229428571Y-90814484D02*
X229285714Y-90885912D01*
X232214285Y-89600198D02*
X232428571Y-89671626D01*
X232428571Y-89671626D02*
X232500000Y-89743055D01*
X232500000Y-89743055D02*
X232571428Y-89885912D01*
X232571428Y-89885912D02*
X232571428Y-90100198D01*
X232571428Y-90100198D02*
X232500000Y-90243055D01*
X232500000Y-90243055D02*
X232428571Y-90314484D01*
X232428571Y-90314484D02*
X232285714Y-90385912D01*
X232285714Y-90385912D02*
X231714285Y-90385912D01*
X231714285Y-90385912D02*
X231714285Y-88885912D01*
X231714285Y-88885912D02*
X232214285Y-88885912D01*
X232214285Y-88885912D02*
X232357143Y-88957341D01*
X232357143Y-88957341D02*
X232428571Y-89028769D01*
X232428571Y-89028769D02*
X232500000Y-89171626D01*
X232500000Y-89171626D02*
X232500000Y-89314484D01*
X232500000Y-89314484D02*
X232428571Y-89457341D01*
X232428571Y-89457341D02*
X232357143Y-89528769D01*
X232357143Y-89528769D02*
X232214285Y-89600198D01*
X232214285Y-89600198D02*
X231714285Y-89600198D01*
X233428571Y-90385912D02*
X233285714Y-90314484D01*
X233285714Y-90314484D02*
X233214285Y-90243055D01*
X233214285Y-90243055D02*
X233142857Y-90100198D01*
X233142857Y-90100198D02*
X233142857Y-89671626D01*
X233142857Y-89671626D02*
X233214285Y-89528769D01*
X233214285Y-89528769D02*
X233285714Y-89457341D01*
X233285714Y-89457341D02*
X233428571Y-89385912D01*
X233428571Y-89385912D02*
X233642857Y-89385912D01*
X233642857Y-89385912D02*
X233785714Y-89457341D01*
X233785714Y-89457341D02*
X233857143Y-89528769D01*
X233857143Y-89528769D02*
X233928571Y-89671626D01*
X233928571Y-89671626D02*
X233928571Y-90100198D01*
X233928571Y-90100198D02*
X233857143Y-90243055D01*
X233857143Y-90243055D02*
X233785714Y-90314484D01*
X233785714Y-90314484D02*
X233642857Y-90385912D01*
X233642857Y-90385912D02*
X233428571Y-90385912D01*
X235214286Y-90385912D02*
X235214286Y-89600198D01*
X235214286Y-89600198D02*
X235142857Y-89457341D01*
X235142857Y-89457341D02*
X235000000Y-89385912D01*
X235000000Y-89385912D02*
X234714286Y-89385912D01*
X234714286Y-89385912D02*
X234571428Y-89457341D01*
X235214286Y-90314484D02*
X235071428Y-90385912D01*
X235071428Y-90385912D02*
X234714286Y-90385912D01*
X234714286Y-90385912D02*
X234571428Y-90314484D01*
X234571428Y-90314484D02*
X234500000Y-90171626D01*
X234500000Y-90171626D02*
X234500000Y-90028769D01*
X234500000Y-90028769D02*
X234571428Y-89885912D01*
X234571428Y-89885912D02*
X234714286Y-89814484D01*
X234714286Y-89814484D02*
X235071428Y-89814484D01*
X235071428Y-89814484D02*
X235214286Y-89743055D01*
X235928571Y-90385912D02*
X235928571Y-89385912D01*
X235928571Y-89671626D02*
X236000000Y-89528769D01*
X236000000Y-89528769D02*
X236071429Y-89457341D01*
X236071429Y-89457341D02*
X236214286Y-89385912D01*
X236214286Y-89385912D02*
X236357143Y-89385912D01*
X237500000Y-90385912D02*
X237500000Y-88885912D01*
X237500000Y-90314484D02*
X237357142Y-90385912D01*
X237357142Y-90385912D02*
X237071428Y-90385912D01*
X237071428Y-90385912D02*
X236928571Y-90314484D01*
X236928571Y-90314484D02*
X236857142Y-90243055D01*
X236857142Y-90243055D02*
X236785714Y-90100198D01*
X236785714Y-90100198D02*
X236785714Y-89671626D01*
X236785714Y-89671626D02*
X236857142Y-89528769D01*
X236857142Y-89528769D02*
X236928571Y-89457341D01*
X236928571Y-89457341D02*
X237071428Y-89385912D01*
X237071428Y-89385912D02*
X237357142Y-89385912D01*
X237357142Y-89385912D02*
X237500000Y-89457341D01*
X222214287Y-91800828D02*
X222571430Y-92800828D01*
X222571430Y-92800828D02*
X222928573Y-91800828D01*
X224285716Y-92800828D02*
X223428573Y-92800828D01*
X223857144Y-92800828D02*
X223857144Y-91300828D01*
X223857144Y-91300828D02*
X223714287Y-91515114D01*
X223714287Y-91515114D02*
X223571430Y-91657971D01*
X223571430Y-91657971D02*
X223428573Y-91729400D01*
X224928572Y-92657971D02*
X225000001Y-92729400D01*
X225000001Y-92729400D02*
X224928572Y-92800828D01*
X224928572Y-92800828D02*
X224857144Y-92729400D01*
X224857144Y-92729400D02*
X224928572Y-92657971D01*
X224928572Y-92657971D02*
X224928572Y-92800828D01*
X225928573Y-91300828D02*
X226071430Y-91300828D01*
X226071430Y-91300828D02*
X226214287Y-91372257D01*
X226214287Y-91372257D02*
X226285716Y-91443685D01*
X226285716Y-91443685D02*
X226357144Y-91586542D01*
X226357144Y-91586542D02*
X226428573Y-91872257D01*
X226428573Y-91872257D02*
X226428573Y-92229400D01*
X226428573Y-92229400D02*
X226357144Y-92515114D01*
X226357144Y-92515114D02*
X226285716Y-92657971D01*
X226285716Y-92657971D02*
X226214287Y-92729400D01*
X226214287Y-92729400D02*
X226071430Y-92800828D01*
X226071430Y-92800828D02*
X225928573Y-92800828D01*
X225928573Y-92800828D02*
X225785716Y-92729400D01*
X225785716Y-92729400D02*
X225714287Y-92657971D01*
X225714287Y-92657971D02*
X225642858Y-92515114D01*
X225642858Y-92515114D02*
X225571430Y-92229400D01*
X225571430Y-92229400D02*
X225571430Y-91872257D01*
X225571430Y-91872257D02*
X225642858Y-91586542D01*
X225642858Y-91586542D02*
X225714287Y-91443685D01*
X225714287Y-91443685D02*
X225785716Y-91372257D01*
X225785716Y-91372257D02*
X225928573Y-91300828D01*
X228500001Y-91300828D02*
X228642858Y-91300828D01*
X228642858Y-91300828D02*
X228785715Y-91372257D01*
X228785715Y-91372257D02*
X228857144Y-91443685D01*
X228857144Y-91443685D02*
X228928572Y-91586542D01*
X228928572Y-91586542D02*
X229000001Y-91872257D01*
X229000001Y-91872257D02*
X229000001Y-92229400D01*
X229000001Y-92229400D02*
X228928572Y-92515114D01*
X228928572Y-92515114D02*
X228857144Y-92657971D01*
X228857144Y-92657971D02*
X228785715Y-92729400D01*
X228785715Y-92729400D02*
X228642858Y-92800828D01*
X228642858Y-92800828D02*
X228500001Y-92800828D01*
X228500001Y-92800828D02*
X228357144Y-92729400D01*
X228357144Y-92729400D02*
X228285715Y-92657971D01*
X228285715Y-92657971D02*
X228214286Y-92515114D01*
X228214286Y-92515114D02*
X228142858Y-92229400D01*
X228142858Y-92229400D02*
X228142858Y-91872257D01*
X228142858Y-91872257D02*
X228214286Y-91586542D01*
X228214286Y-91586542D02*
X228285715Y-91443685D01*
X228285715Y-91443685D02*
X228357144Y-91372257D01*
X228357144Y-91372257D02*
X228500001Y-91300828D01*
X230285715Y-91300828D02*
X230000000Y-91300828D01*
X230000000Y-91300828D02*
X229857143Y-91372257D01*
X229857143Y-91372257D02*
X229785715Y-91443685D01*
X229785715Y-91443685D02*
X229642857Y-91657971D01*
X229642857Y-91657971D02*
X229571429Y-91943685D01*
X229571429Y-91943685D02*
X229571429Y-92515114D01*
X229571429Y-92515114D02*
X229642857Y-92657971D01*
X229642857Y-92657971D02*
X229714286Y-92729400D01*
X229714286Y-92729400D02*
X229857143Y-92800828D01*
X229857143Y-92800828D02*
X230142857Y-92800828D01*
X230142857Y-92800828D02*
X230285715Y-92729400D01*
X230285715Y-92729400D02*
X230357143Y-92657971D01*
X230357143Y-92657971D02*
X230428572Y-92515114D01*
X230428572Y-92515114D02*
X230428572Y-92157971D01*
X230428572Y-92157971D02*
X230357143Y-92015114D01*
X230357143Y-92015114D02*
X230285715Y-91943685D01*
X230285715Y-91943685D02*
X230142857Y-91872257D01*
X230142857Y-91872257D02*
X229857143Y-91872257D01*
X229857143Y-91872257D02*
X229714286Y-91943685D01*
X229714286Y-91943685D02*
X229642857Y-92015114D01*
X229642857Y-92015114D02*
X229571429Y-92157971D01*
X232142857Y-91229400D02*
X230857143Y-93157971D01*
X232571429Y-91443685D02*
X232642857Y-91372257D01*
X232642857Y-91372257D02*
X232785715Y-91300828D01*
X232785715Y-91300828D02*
X233142857Y-91300828D01*
X233142857Y-91300828D02*
X233285715Y-91372257D01*
X233285715Y-91372257D02*
X233357143Y-91443685D01*
X233357143Y-91443685D02*
X233428572Y-91586542D01*
X233428572Y-91586542D02*
X233428572Y-91729400D01*
X233428572Y-91729400D02*
X233357143Y-91943685D01*
X233357143Y-91943685D02*
X232500000Y-92800828D01*
X232500000Y-92800828D02*
X233428572Y-92800828D01*
X234357143Y-91300828D02*
X234500000Y-91300828D01*
X234500000Y-91300828D02*
X234642857Y-91372257D01*
X234642857Y-91372257D02*
X234714286Y-91443685D01*
X234714286Y-91443685D02*
X234785714Y-91586542D01*
X234785714Y-91586542D02*
X234857143Y-91872257D01*
X234857143Y-91872257D02*
X234857143Y-92229400D01*
X234857143Y-92229400D02*
X234785714Y-92515114D01*
X234785714Y-92515114D02*
X234714286Y-92657971D01*
X234714286Y-92657971D02*
X234642857Y-92729400D01*
X234642857Y-92729400D02*
X234500000Y-92800828D01*
X234500000Y-92800828D02*
X234357143Y-92800828D01*
X234357143Y-92800828D02*
X234214286Y-92729400D01*
X234214286Y-92729400D02*
X234142857Y-92657971D01*
X234142857Y-92657971D02*
X234071428Y-92515114D01*
X234071428Y-92515114D02*
X234000000Y-92229400D01*
X234000000Y-92229400D02*
X234000000Y-91872257D01*
X234000000Y-91872257D02*
X234071428Y-91586542D01*
X234071428Y-91586542D02*
X234142857Y-91443685D01*
X234142857Y-91443685D02*
X234214286Y-91372257D01*
X234214286Y-91372257D02*
X234357143Y-91300828D01*
X235428571Y-91443685D02*
X235499999Y-91372257D01*
X235499999Y-91372257D02*
X235642857Y-91300828D01*
X235642857Y-91300828D02*
X235999999Y-91300828D01*
X235999999Y-91300828D02*
X236142857Y-91372257D01*
X236142857Y-91372257D02*
X236214285Y-91443685D01*
X236214285Y-91443685D02*
X236285714Y-91586542D01*
X236285714Y-91586542D02*
X236285714Y-91729400D01*
X236285714Y-91729400D02*
X236214285Y-91943685D01*
X236214285Y-91943685D02*
X235357142Y-92800828D01*
X235357142Y-92800828D02*
X236285714Y-92800828D01*
X237642856Y-91300828D02*
X236928570Y-91300828D01*
X236928570Y-91300828D02*
X236857142Y-92015114D01*
X236857142Y-92015114D02*
X236928570Y-91943685D01*
X236928570Y-91943685D02*
X237071428Y-91872257D01*
X237071428Y-91872257D02*
X237428570Y-91872257D01*
X237428570Y-91872257D02*
X237571428Y-91943685D01*
X237571428Y-91943685D02*
X237642856Y-92015114D01*
X237642856Y-92015114D02*
X237714285Y-92157971D01*
X237714285Y-92157971D02*
X237714285Y-92515114D01*
X237714285Y-92515114D02*
X237642856Y-92657971D01*
X237642856Y-92657971D02*
X237571428Y-92729400D01*
X237571428Y-92729400D02*
X237428570Y-92800828D01*
X237428570Y-92800828D02*
X237071428Y-92800828D01*
X237071428Y-92800828D02*
X236928570Y-92729400D01*
X236928570Y-92729400D02*
X236857142Y-92657971D01*
D11*
X185585714Y-93054819D02*
X185585714Y-92054819D01*
X185585714Y-92054819D02*
X185823809Y-92054819D01*
X185823809Y-92054819D02*
X185966666Y-92102438D01*
X185966666Y-92102438D02*
X186061904Y-92197676D01*
X186061904Y-92197676D02*
X186109523Y-92292914D01*
X186109523Y-92292914D02*
X186157142Y-92483390D01*
X186157142Y-92483390D02*
X186157142Y-92626247D01*
X186157142Y-92626247D02*
X186109523Y-92816723D01*
X186109523Y-92816723D02*
X186061904Y-92911961D01*
X186061904Y-92911961D02*
X185966666Y-93007200D01*
X185966666Y-93007200D02*
X185823809Y-93054819D01*
X185823809Y-93054819D02*
X185585714Y-93054819D01*
X187109523Y-93054819D02*
X186538095Y-93054819D01*
X186823809Y-93054819D02*
X186823809Y-92054819D01*
X186823809Y-92054819D02*
X186728571Y-92197676D01*
X186728571Y-92197676D02*
X186633333Y-92292914D01*
X186633333Y-92292914D02*
X186538095Y-92340533D01*
X187442857Y-92054819D02*
X188061904Y-92054819D01*
X188061904Y-92054819D02*
X187728571Y-92435771D01*
X187728571Y-92435771D02*
X187871428Y-92435771D01*
X187871428Y-92435771D02*
X187966666Y-92483390D01*
X187966666Y-92483390D02*
X188014285Y-92531009D01*
X188014285Y-92531009D02*
X188061904Y-92626247D01*
X188061904Y-92626247D02*
X188061904Y-92864342D01*
X188061904Y-92864342D02*
X188014285Y-92959580D01*
X188014285Y-92959580D02*
X187966666Y-93007200D01*
X187966666Y-93007200D02*
X187871428Y-93054819D01*
X187871428Y-93054819D02*
X187585714Y-93054819D01*
X187585714Y-93054819D02*
X187490476Y-93007200D01*
X187490476Y-93007200D02*
X187442857Y-92959580D01*
X148833333Y-67359580D02*
X148785714Y-67407200D01*
X148785714Y-67407200D02*
X148642857Y-67454819D01*
X148642857Y-67454819D02*
X148547619Y-67454819D01*
X148547619Y-67454819D02*
X148404762Y-67407200D01*
X148404762Y-67407200D02*
X148309524Y-67311961D01*
X148309524Y-67311961D02*
X148261905Y-67216723D01*
X148261905Y-67216723D02*
X148214286Y-67026247D01*
X148214286Y-67026247D02*
X148214286Y-66883390D01*
X148214286Y-66883390D02*
X148261905Y-66692914D01*
X148261905Y-66692914D02*
X148309524Y-66597676D01*
X148309524Y-66597676D02*
X148404762Y-66502438D01*
X148404762Y-66502438D02*
X148547619Y-66454819D01*
X148547619Y-66454819D02*
X148642857Y-66454819D01*
X148642857Y-66454819D02*
X148785714Y-66502438D01*
X148785714Y-66502438D02*
X148833333Y-66550057D01*
X149404762Y-66883390D02*
X149309524Y-66835771D01*
X149309524Y-66835771D02*
X149261905Y-66788152D01*
X149261905Y-66788152D02*
X149214286Y-66692914D01*
X149214286Y-66692914D02*
X149214286Y-66645295D01*
X149214286Y-66645295D02*
X149261905Y-66550057D01*
X149261905Y-66550057D02*
X149309524Y-66502438D01*
X149309524Y-66502438D02*
X149404762Y-66454819D01*
X149404762Y-66454819D02*
X149595238Y-66454819D01*
X149595238Y-66454819D02*
X149690476Y-66502438D01*
X149690476Y-66502438D02*
X149738095Y-66550057D01*
X149738095Y-66550057D02*
X149785714Y-66645295D01*
X149785714Y-66645295D02*
X149785714Y-66692914D01*
X149785714Y-66692914D02*
X149738095Y-66788152D01*
X149738095Y-66788152D02*
X149690476Y-66835771D01*
X149690476Y-66835771D02*
X149595238Y-66883390D01*
X149595238Y-66883390D02*
X149404762Y-66883390D01*
X149404762Y-66883390D02*
X149309524Y-66931009D01*
X149309524Y-66931009D02*
X149261905Y-66978628D01*
X149261905Y-66978628D02*
X149214286Y-67073866D01*
X149214286Y-67073866D02*
X149214286Y-67264342D01*
X149214286Y-67264342D02*
X149261905Y-67359580D01*
X149261905Y-67359580D02*
X149309524Y-67407200D01*
X149309524Y-67407200D02*
X149404762Y-67454819D01*
X149404762Y-67454819D02*
X149595238Y-67454819D01*
X149595238Y-67454819D02*
X149690476Y-67407200D01*
X149690476Y-67407200D02*
X149738095Y-67359580D01*
X149738095Y-67359580D02*
X149785714Y-67264342D01*
X149785714Y-67264342D02*
X149785714Y-67073866D01*
X149785714Y-67073866D02*
X149738095Y-66978628D01*
X149738095Y-66978628D02*
X149690476Y-66931009D01*
X149690476Y-66931009D02*
X149595238Y-66883390D01*
X167585714Y-93054819D02*
X167585714Y-92054819D01*
X167585714Y-92054819D02*
X167823809Y-92054819D01*
X167823809Y-92054819D02*
X167966666Y-92102438D01*
X167966666Y-92102438D02*
X168061904Y-92197676D01*
X168061904Y-92197676D02*
X168109523Y-92292914D01*
X168109523Y-92292914D02*
X168157142Y-92483390D01*
X168157142Y-92483390D02*
X168157142Y-92626247D01*
X168157142Y-92626247D02*
X168109523Y-92816723D01*
X168109523Y-92816723D02*
X168061904Y-92911961D01*
X168061904Y-92911961D02*
X167966666Y-93007200D01*
X167966666Y-93007200D02*
X167823809Y-93054819D01*
X167823809Y-93054819D02*
X167585714Y-93054819D01*
X169109523Y-93054819D02*
X168538095Y-93054819D01*
X168823809Y-93054819D02*
X168823809Y-92054819D01*
X168823809Y-92054819D02*
X168728571Y-92197676D01*
X168728571Y-92197676D02*
X168633333Y-92292914D01*
X168633333Y-92292914D02*
X168538095Y-92340533D01*
X170061904Y-93054819D02*
X169490476Y-93054819D01*
X169776190Y-93054819D02*
X169776190Y-92054819D01*
X169776190Y-92054819D02*
X169680952Y-92197676D01*
X169680952Y-92197676D02*
X169585714Y-92292914D01*
X169585714Y-92292914D02*
X169490476Y-92340533D01*
D12*
X112879047Y-91495270D02*
X112758095Y-91434794D01*
X112758095Y-91434794D02*
X112637142Y-91313842D01*
X112637142Y-91313842D02*
X112455714Y-91132413D01*
X112455714Y-91132413D02*
X112334761Y-91071937D01*
X112334761Y-91071937D02*
X112213809Y-91071937D01*
X112274285Y-91374318D02*
X112153333Y-91313842D01*
X112153333Y-91313842D02*
X112032380Y-91192889D01*
X112032380Y-91192889D02*
X111971904Y-90950984D01*
X111971904Y-90950984D02*
X111971904Y-90527651D01*
X111971904Y-90527651D02*
X112032380Y-90285746D01*
X112032380Y-90285746D02*
X112153333Y-90164794D01*
X112153333Y-90164794D02*
X112274285Y-90104318D01*
X112274285Y-90104318D02*
X112516190Y-90104318D01*
X112516190Y-90104318D02*
X112637142Y-90164794D01*
X112637142Y-90164794D02*
X112758095Y-90285746D01*
X112758095Y-90285746D02*
X112818571Y-90527651D01*
X112818571Y-90527651D02*
X112818571Y-90950984D01*
X112818571Y-90950984D02*
X112758095Y-91192889D01*
X112758095Y-91192889D02*
X112637142Y-91313842D01*
X112637142Y-91313842D02*
X112516190Y-91374318D01*
X112516190Y-91374318D02*
X112274285Y-91374318D01*
X113907142Y-90527651D02*
X113907142Y-91374318D01*
X113604761Y-90043842D02*
X113302380Y-90950984D01*
X113302380Y-90950984D02*
X114088571Y-90950984D01*
D11*
X177119642Y-63259580D02*
X177072023Y-63307200D01*
X177072023Y-63307200D02*
X176929166Y-63354819D01*
X176929166Y-63354819D02*
X176833928Y-63354819D01*
X176833928Y-63354819D02*
X176691071Y-63307200D01*
X176691071Y-63307200D02*
X176595833Y-63211961D01*
X176595833Y-63211961D02*
X176548214Y-63116723D01*
X176548214Y-63116723D02*
X176500595Y-62926247D01*
X176500595Y-62926247D02*
X176500595Y-62783390D01*
X176500595Y-62783390D02*
X176548214Y-62592914D01*
X176548214Y-62592914D02*
X176595833Y-62497676D01*
X176595833Y-62497676D02*
X176691071Y-62402438D01*
X176691071Y-62402438D02*
X176833928Y-62354819D01*
X176833928Y-62354819D02*
X176929166Y-62354819D01*
X176929166Y-62354819D02*
X177072023Y-62402438D01*
X177072023Y-62402438D02*
X177119642Y-62450057D01*
X178072023Y-63354819D02*
X177500595Y-63354819D01*
X177786309Y-63354819D02*
X177786309Y-62354819D01*
X177786309Y-62354819D02*
X177691071Y-62497676D01*
X177691071Y-62497676D02*
X177595833Y-62592914D01*
X177595833Y-62592914D02*
X177500595Y-62640533D01*
X179024404Y-63354819D02*
X178452976Y-63354819D01*
X178738690Y-63354819D02*
X178738690Y-62354819D01*
X178738690Y-62354819D02*
X178643452Y-62497676D01*
X178643452Y-62497676D02*
X178548214Y-62592914D01*
X178548214Y-62592914D02*
X178452976Y-62640533D01*
X95133333Y-61559580D02*
X95085714Y-61607200D01*
X95085714Y-61607200D02*
X94942857Y-61654819D01*
X94942857Y-61654819D02*
X94847619Y-61654819D01*
X94847619Y-61654819D02*
X94704762Y-61607200D01*
X94704762Y-61607200D02*
X94609524Y-61511961D01*
X94609524Y-61511961D02*
X94561905Y-61416723D01*
X94561905Y-61416723D02*
X94514286Y-61226247D01*
X94514286Y-61226247D02*
X94514286Y-61083390D01*
X94514286Y-61083390D02*
X94561905Y-60892914D01*
X94561905Y-60892914D02*
X94609524Y-60797676D01*
X94609524Y-60797676D02*
X94704762Y-60702438D01*
X94704762Y-60702438D02*
X94847619Y-60654819D01*
X94847619Y-60654819D02*
X94942857Y-60654819D01*
X94942857Y-60654819D02*
X95085714Y-60702438D01*
X95085714Y-60702438D02*
X95133333Y-60750057D01*
X95990476Y-60988152D02*
X95990476Y-61654819D01*
X95752381Y-60607200D02*
X95514286Y-61321485D01*
X95514286Y-61321485D02*
X96133333Y-61321485D01*
X116157142Y-61359580D02*
X116109523Y-61407200D01*
X116109523Y-61407200D02*
X115966666Y-61454819D01*
X115966666Y-61454819D02*
X115871428Y-61454819D01*
X115871428Y-61454819D02*
X115728571Y-61407200D01*
X115728571Y-61407200D02*
X115633333Y-61311961D01*
X115633333Y-61311961D02*
X115585714Y-61216723D01*
X115585714Y-61216723D02*
X115538095Y-61026247D01*
X115538095Y-61026247D02*
X115538095Y-60883390D01*
X115538095Y-60883390D02*
X115585714Y-60692914D01*
X115585714Y-60692914D02*
X115633333Y-60597676D01*
X115633333Y-60597676D02*
X115728571Y-60502438D01*
X115728571Y-60502438D02*
X115871428Y-60454819D01*
X115871428Y-60454819D02*
X115966666Y-60454819D01*
X115966666Y-60454819D02*
X116109523Y-60502438D01*
X116109523Y-60502438D02*
X116157142Y-60550057D01*
X117109523Y-61454819D02*
X116538095Y-61454819D01*
X116823809Y-61454819D02*
X116823809Y-60454819D01*
X116823809Y-60454819D02*
X116728571Y-60597676D01*
X116728571Y-60597676D02*
X116633333Y-60692914D01*
X116633333Y-60692914D02*
X116538095Y-60740533D01*
X117728571Y-60454819D02*
X117823809Y-60454819D01*
X117823809Y-60454819D02*
X117919047Y-60502438D01*
X117919047Y-60502438D02*
X117966666Y-60550057D01*
X117966666Y-60550057D02*
X118014285Y-60645295D01*
X118014285Y-60645295D02*
X118061904Y-60835771D01*
X118061904Y-60835771D02*
X118061904Y-61073866D01*
X118061904Y-61073866D02*
X118014285Y-61264342D01*
X118014285Y-61264342D02*
X117966666Y-61359580D01*
X117966666Y-61359580D02*
X117919047Y-61407200D01*
X117919047Y-61407200D02*
X117823809Y-61454819D01*
X117823809Y-61454819D02*
X117728571Y-61454819D01*
X117728571Y-61454819D02*
X117633333Y-61407200D01*
X117633333Y-61407200D02*
X117585714Y-61359580D01*
X117585714Y-61359580D02*
X117538095Y-61264342D01*
X117538095Y-61264342D02*
X117490476Y-61073866D01*
X117490476Y-61073866D02*
X117490476Y-60835771D01*
X117490476Y-60835771D02*
X117538095Y-60645295D01*
X117538095Y-60645295D02*
X117585714Y-60550057D01*
X117585714Y-60550057D02*
X117633333Y-60502438D01*
X117633333Y-60502438D02*
X117728571Y-60454819D01*
X209357142Y-62554819D02*
X209023809Y-62078628D01*
X208785714Y-62554819D02*
X208785714Y-61554819D01*
X208785714Y-61554819D02*
X209166666Y-61554819D01*
X209166666Y-61554819D02*
X209261904Y-61602438D01*
X209261904Y-61602438D02*
X209309523Y-61650057D01*
X209309523Y-61650057D02*
X209357142Y-61745295D01*
X209357142Y-61745295D02*
X209357142Y-61888152D01*
X209357142Y-61888152D02*
X209309523Y-61983390D01*
X209309523Y-61983390D02*
X209261904Y-62031009D01*
X209261904Y-62031009D02*
X209166666Y-62078628D01*
X209166666Y-62078628D02*
X208785714Y-62078628D01*
X210309523Y-62554819D02*
X209738095Y-62554819D01*
X210023809Y-62554819D02*
X210023809Y-61554819D01*
X210023809Y-61554819D02*
X209928571Y-61697676D01*
X209928571Y-61697676D02*
X209833333Y-61792914D01*
X209833333Y-61792914D02*
X209738095Y-61840533D01*
X210928571Y-61554819D02*
X211023809Y-61554819D01*
X211023809Y-61554819D02*
X211119047Y-61602438D01*
X211119047Y-61602438D02*
X211166666Y-61650057D01*
X211166666Y-61650057D02*
X211214285Y-61745295D01*
X211214285Y-61745295D02*
X211261904Y-61935771D01*
X211261904Y-61935771D02*
X211261904Y-62173866D01*
X211261904Y-62173866D02*
X211214285Y-62364342D01*
X211214285Y-62364342D02*
X211166666Y-62459580D01*
X211166666Y-62459580D02*
X211119047Y-62507200D01*
X211119047Y-62507200D02*
X211023809Y-62554819D01*
X211023809Y-62554819D02*
X210928571Y-62554819D01*
X210928571Y-62554819D02*
X210833333Y-62507200D01*
X210833333Y-62507200D02*
X210785714Y-62459580D01*
X210785714Y-62459580D02*
X210738095Y-62364342D01*
X210738095Y-62364342D02*
X210690476Y-62173866D01*
X210690476Y-62173866D02*
X210690476Y-61935771D01*
X210690476Y-61935771D02*
X210738095Y-61745295D01*
X210738095Y-61745295D02*
X210785714Y-61650057D01*
X210785714Y-61650057D02*
X210833333Y-61602438D01*
X210833333Y-61602438D02*
X210928571Y-61554819D01*
X212585714Y-93054819D02*
X212585714Y-92054819D01*
X212585714Y-92054819D02*
X212823809Y-92054819D01*
X212823809Y-92054819D02*
X212966666Y-92102438D01*
X212966666Y-92102438D02*
X213061904Y-92197676D01*
X213061904Y-92197676D02*
X213109523Y-92292914D01*
X213109523Y-92292914D02*
X213157142Y-92483390D01*
X213157142Y-92483390D02*
X213157142Y-92626247D01*
X213157142Y-92626247D02*
X213109523Y-92816723D01*
X213109523Y-92816723D02*
X213061904Y-92911961D01*
X213061904Y-92911961D02*
X212966666Y-93007200D01*
X212966666Y-93007200D02*
X212823809Y-93054819D01*
X212823809Y-93054819D02*
X212585714Y-93054819D01*
X214109523Y-93054819D02*
X213538095Y-93054819D01*
X213823809Y-93054819D02*
X213823809Y-92054819D01*
X213823809Y-92054819D02*
X213728571Y-92197676D01*
X213728571Y-92197676D02*
X213633333Y-92292914D01*
X213633333Y-92292914D02*
X213538095Y-92340533D01*
X214966666Y-92054819D02*
X214776190Y-92054819D01*
X214776190Y-92054819D02*
X214680952Y-92102438D01*
X214680952Y-92102438D02*
X214633333Y-92150057D01*
X214633333Y-92150057D02*
X214538095Y-92292914D01*
X214538095Y-92292914D02*
X214490476Y-92483390D01*
X214490476Y-92483390D02*
X214490476Y-92864342D01*
X214490476Y-92864342D02*
X214538095Y-92959580D01*
X214538095Y-92959580D02*
X214585714Y-93007200D01*
X214585714Y-93007200D02*
X214680952Y-93054819D01*
X214680952Y-93054819D02*
X214871428Y-93054819D01*
X214871428Y-93054819D02*
X214966666Y-93007200D01*
X214966666Y-93007200D02*
X215014285Y-92959580D01*
X215014285Y-92959580D02*
X215061904Y-92864342D01*
X215061904Y-92864342D02*
X215061904Y-92626247D01*
X215061904Y-92626247D02*
X215014285Y-92531009D01*
X215014285Y-92531009D02*
X214966666Y-92483390D01*
X214966666Y-92483390D02*
X214871428Y-92435771D01*
X214871428Y-92435771D02*
X214680952Y-92435771D01*
X214680952Y-92435771D02*
X214585714Y-92483390D01*
X214585714Y-92483390D02*
X214538095Y-92531009D01*
X214538095Y-92531009D02*
X214490476Y-92626247D01*
D12*
X54004318Y-82423332D02*
X54911461Y-82423332D01*
X54911461Y-82423332D02*
X55092889Y-82483809D01*
X55092889Y-82483809D02*
X55213842Y-82604761D01*
X55213842Y-82604761D02*
X55274318Y-82786190D01*
X55274318Y-82786190D02*
X55274318Y-82907142D01*
X55274318Y-81153332D02*
X55274318Y-81879047D01*
X55274318Y-81516190D02*
X54004318Y-81516190D01*
X54004318Y-81516190D02*
X54185746Y-81637142D01*
X54185746Y-81637142D02*
X54306699Y-81758094D01*
X54306699Y-81758094D02*
X54367175Y-81879047D01*
X103879047Y-91395270D02*
X103758095Y-91334794D01*
X103758095Y-91334794D02*
X103637142Y-91213842D01*
X103637142Y-91213842D02*
X103455714Y-91032413D01*
X103455714Y-91032413D02*
X103334761Y-90971937D01*
X103334761Y-90971937D02*
X103213809Y-90971937D01*
X103274285Y-91274318D02*
X103153333Y-91213842D01*
X103153333Y-91213842D02*
X103032380Y-91092889D01*
X103032380Y-91092889D02*
X102971904Y-90850984D01*
X102971904Y-90850984D02*
X102971904Y-90427651D01*
X102971904Y-90427651D02*
X103032380Y-90185746D01*
X103032380Y-90185746D02*
X103153333Y-90064794D01*
X103153333Y-90064794D02*
X103274285Y-90004318D01*
X103274285Y-90004318D02*
X103516190Y-90004318D01*
X103516190Y-90004318D02*
X103637142Y-90064794D01*
X103637142Y-90064794D02*
X103758095Y-90185746D01*
X103758095Y-90185746D02*
X103818571Y-90427651D01*
X103818571Y-90427651D02*
X103818571Y-90850984D01*
X103818571Y-90850984D02*
X103758095Y-91092889D01*
X103758095Y-91092889D02*
X103637142Y-91213842D01*
X103637142Y-91213842D02*
X103516190Y-91274318D01*
X103516190Y-91274318D02*
X103274285Y-91274318D01*
X104241904Y-90004318D02*
X105028095Y-90004318D01*
X105028095Y-90004318D02*
X104604761Y-90488127D01*
X104604761Y-90488127D02*
X104786190Y-90488127D01*
X104786190Y-90488127D02*
X104907142Y-90548603D01*
X104907142Y-90548603D02*
X104967618Y-90609080D01*
X104967618Y-90609080D02*
X105028095Y-90730032D01*
X105028095Y-90730032D02*
X105028095Y-91032413D01*
X105028095Y-91032413D02*
X104967618Y-91153365D01*
X104967618Y-91153365D02*
X104907142Y-91213842D01*
X104907142Y-91213842D02*
X104786190Y-91274318D01*
X104786190Y-91274318D02*
X104423333Y-91274318D01*
X104423333Y-91274318D02*
X104302380Y-91213842D01*
X104302380Y-91213842D02*
X104241904Y-91153365D01*
X191274285Y-91495270D02*
X191153333Y-91434794D01*
X191153333Y-91434794D02*
X191032380Y-91313842D01*
X191032380Y-91313842D02*
X190850952Y-91132413D01*
X190850952Y-91132413D02*
X190729999Y-91071937D01*
X190729999Y-91071937D02*
X190609047Y-91071937D01*
X190669523Y-91374318D02*
X190548571Y-91313842D01*
X190548571Y-91313842D02*
X190427618Y-91192889D01*
X190427618Y-91192889D02*
X190367142Y-90950984D01*
X190367142Y-90950984D02*
X190367142Y-90527651D01*
X190367142Y-90527651D02*
X190427618Y-90285746D01*
X190427618Y-90285746D02*
X190548571Y-90164794D01*
X190548571Y-90164794D02*
X190669523Y-90104318D01*
X190669523Y-90104318D02*
X190911428Y-90104318D01*
X190911428Y-90104318D02*
X191032380Y-90164794D01*
X191032380Y-90164794D02*
X191153333Y-90285746D01*
X191153333Y-90285746D02*
X191213809Y-90527651D01*
X191213809Y-90527651D02*
X191213809Y-90950984D01*
X191213809Y-90950984D02*
X191153333Y-91192889D01*
X191153333Y-91192889D02*
X191032380Y-91313842D01*
X191032380Y-91313842D02*
X190911428Y-91374318D01*
X190911428Y-91374318D02*
X190669523Y-91374318D01*
X192423333Y-91374318D02*
X191697618Y-91374318D01*
X192060475Y-91374318D02*
X192060475Y-90104318D01*
X192060475Y-90104318D02*
X191939523Y-90285746D01*
X191939523Y-90285746D02*
X191818571Y-90406699D01*
X191818571Y-90406699D02*
X191697618Y-90467175D01*
X192907142Y-90225270D02*
X192967618Y-90164794D01*
X192967618Y-90164794D02*
X193088571Y-90104318D01*
X193088571Y-90104318D02*
X193390952Y-90104318D01*
X193390952Y-90104318D02*
X193511904Y-90164794D01*
X193511904Y-90164794D02*
X193572380Y-90225270D01*
X193572380Y-90225270D02*
X193632857Y-90346222D01*
X193632857Y-90346222D02*
X193632857Y-90467175D01*
X193632857Y-90467175D02*
X193572380Y-90648603D01*
X193572380Y-90648603D02*
X192846666Y-91374318D01*
X192846666Y-91374318D02*
X193632857Y-91374318D01*
X216183571Y-75574318D02*
X215578809Y-75574318D01*
X215578809Y-75574318D02*
X215578809Y-74304318D01*
X216546428Y-75513842D02*
X216727857Y-75574318D01*
X216727857Y-75574318D02*
X217030238Y-75574318D01*
X217030238Y-75574318D02*
X217151190Y-75513842D01*
X217151190Y-75513842D02*
X217211666Y-75453365D01*
X217211666Y-75453365D02*
X217272143Y-75332413D01*
X217272143Y-75332413D02*
X217272143Y-75211461D01*
X217272143Y-75211461D02*
X217211666Y-75090508D01*
X217211666Y-75090508D02*
X217151190Y-75030032D01*
X217151190Y-75030032D02*
X217030238Y-74969556D01*
X217030238Y-74969556D02*
X216788333Y-74909080D01*
X216788333Y-74909080D02*
X216667381Y-74848603D01*
X216667381Y-74848603D02*
X216606904Y-74788127D01*
X216606904Y-74788127D02*
X216546428Y-74667175D01*
X216546428Y-74667175D02*
X216546428Y-74546222D01*
X216546428Y-74546222D02*
X216606904Y-74425270D01*
X216606904Y-74425270D02*
X216667381Y-74364794D01*
X216667381Y-74364794D02*
X216788333Y-74304318D01*
X216788333Y-74304318D02*
X217090714Y-74304318D01*
X217090714Y-74304318D02*
X217272143Y-74364794D01*
X218481667Y-75574318D02*
X217755952Y-75574318D01*
X218118809Y-75574318D02*
X218118809Y-74304318D01*
X218118809Y-74304318D02*
X217997857Y-74485746D01*
X217997857Y-74485746D02*
X217876905Y-74606699D01*
X217876905Y-74606699D02*
X217755952Y-74667175D01*
D11*
X64082857Y-80160353D02*
X63375750Y-79453246D01*
X63712468Y-79789964D02*
X64116529Y-79385903D01*
X64486918Y-79756292D02*
X63779811Y-79049185D01*
X64150201Y-78813483D02*
X64150201Y-78746140D01*
X64150201Y-78746140D02*
X64183872Y-78645124D01*
X64183872Y-78645124D02*
X64352231Y-78476766D01*
X64352231Y-78476766D02*
X64453246Y-78443094D01*
X64453246Y-78443094D02*
X64520590Y-78443094D01*
X64520590Y-78443094D02*
X64621605Y-78476766D01*
X64621605Y-78476766D02*
X64688949Y-78544109D01*
X64688949Y-78544109D02*
X64756292Y-78678796D01*
X64756292Y-78678796D02*
X64756292Y-79486918D01*
X64756292Y-79486918D02*
X65194025Y-79049185D01*
X203585714Y-93054819D02*
X203585714Y-92054819D01*
X203585714Y-92054819D02*
X203823809Y-92054819D01*
X203823809Y-92054819D02*
X203966666Y-92102438D01*
X203966666Y-92102438D02*
X204061904Y-92197676D01*
X204061904Y-92197676D02*
X204109523Y-92292914D01*
X204109523Y-92292914D02*
X204157142Y-92483390D01*
X204157142Y-92483390D02*
X204157142Y-92626247D01*
X204157142Y-92626247D02*
X204109523Y-92816723D01*
X204109523Y-92816723D02*
X204061904Y-92911961D01*
X204061904Y-92911961D02*
X203966666Y-93007200D01*
X203966666Y-93007200D02*
X203823809Y-93054819D01*
X203823809Y-93054819D02*
X203585714Y-93054819D01*
X205109523Y-93054819D02*
X204538095Y-93054819D01*
X204823809Y-93054819D02*
X204823809Y-92054819D01*
X204823809Y-92054819D02*
X204728571Y-92197676D01*
X204728571Y-92197676D02*
X204633333Y-92292914D01*
X204633333Y-92292914D02*
X204538095Y-92340533D01*
X206014285Y-92054819D02*
X205538095Y-92054819D01*
X205538095Y-92054819D02*
X205490476Y-92531009D01*
X205490476Y-92531009D02*
X205538095Y-92483390D01*
X205538095Y-92483390D02*
X205633333Y-92435771D01*
X205633333Y-92435771D02*
X205871428Y-92435771D01*
X205871428Y-92435771D02*
X205966666Y-92483390D01*
X205966666Y-92483390D02*
X206014285Y-92531009D01*
X206014285Y-92531009D02*
X206061904Y-92626247D01*
X206061904Y-92626247D02*
X206061904Y-92864342D01*
X206061904Y-92864342D02*
X206014285Y-92959580D01*
X206014285Y-92959580D02*
X205966666Y-93007200D01*
X205966666Y-93007200D02*
X205871428Y-93054819D01*
X205871428Y-93054819D02*
X205633333Y-93054819D01*
X205633333Y-93054819D02*
X205538095Y-93007200D01*
X205538095Y-93007200D02*
X205490476Y-92959580D01*
D12*
X164879047Y-91495270D02*
X164758095Y-91434794D01*
X164758095Y-91434794D02*
X164637142Y-91313842D01*
X164637142Y-91313842D02*
X164455714Y-91132413D01*
X164455714Y-91132413D02*
X164334761Y-91071937D01*
X164334761Y-91071937D02*
X164213809Y-91071937D01*
X164274285Y-91374318D02*
X164153333Y-91313842D01*
X164153333Y-91313842D02*
X164032380Y-91192889D01*
X164032380Y-91192889D02*
X163971904Y-90950984D01*
X163971904Y-90950984D02*
X163971904Y-90527651D01*
X163971904Y-90527651D02*
X164032380Y-90285746D01*
X164032380Y-90285746D02*
X164153333Y-90164794D01*
X164153333Y-90164794D02*
X164274285Y-90104318D01*
X164274285Y-90104318D02*
X164516190Y-90104318D01*
X164516190Y-90104318D02*
X164637142Y-90164794D01*
X164637142Y-90164794D02*
X164758095Y-90285746D01*
X164758095Y-90285746D02*
X164818571Y-90527651D01*
X164818571Y-90527651D02*
X164818571Y-90950984D01*
X164818571Y-90950984D02*
X164758095Y-91192889D01*
X164758095Y-91192889D02*
X164637142Y-91313842D01*
X164637142Y-91313842D02*
X164516190Y-91374318D01*
X164516190Y-91374318D02*
X164274285Y-91374318D01*
X165423333Y-91374318D02*
X165665237Y-91374318D01*
X165665237Y-91374318D02*
X165786190Y-91313842D01*
X165786190Y-91313842D02*
X165846666Y-91253365D01*
X165846666Y-91253365D02*
X165967618Y-91071937D01*
X165967618Y-91071937D02*
X166028095Y-90830032D01*
X166028095Y-90830032D02*
X166028095Y-90346222D01*
X166028095Y-90346222D02*
X165967618Y-90225270D01*
X165967618Y-90225270D02*
X165907142Y-90164794D01*
X165907142Y-90164794D02*
X165786190Y-90104318D01*
X165786190Y-90104318D02*
X165544285Y-90104318D01*
X165544285Y-90104318D02*
X165423333Y-90164794D01*
X165423333Y-90164794D02*
X165362856Y-90225270D01*
X165362856Y-90225270D02*
X165302380Y-90346222D01*
X165302380Y-90346222D02*
X165302380Y-90648603D01*
X165302380Y-90648603D02*
X165362856Y-90769556D01*
X165362856Y-90769556D02*
X165423333Y-90830032D01*
X165423333Y-90830032D02*
X165544285Y-90890508D01*
X165544285Y-90890508D02*
X165786190Y-90890508D01*
X165786190Y-90890508D02*
X165907142Y-90830032D01*
X165907142Y-90830032D02*
X165967618Y-90769556D01*
X165967618Y-90769556D02*
X166028095Y-90648603D01*
D11*
X137759580Y-76866666D02*
X137807200Y-76914285D01*
X137807200Y-76914285D02*
X137854819Y-77057142D01*
X137854819Y-77057142D02*
X137854819Y-77152380D01*
X137854819Y-77152380D02*
X137807200Y-77295237D01*
X137807200Y-77295237D02*
X137711961Y-77390475D01*
X137711961Y-77390475D02*
X137616723Y-77438094D01*
X137616723Y-77438094D02*
X137426247Y-77485713D01*
X137426247Y-77485713D02*
X137283390Y-77485713D01*
X137283390Y-77485713D02*
X137092914Y-77438094D01*
X137092914Y-77438094D02*
X136997676Y-77390475D01*
X136997676Y-77390475D02*
X136902438Y-77295237D01*
X136902438Y-77295237D02*
X136854819Y-77152380D01*
X136854819Y-77152380D02*
X136854819Y-77057142D01*
X136854819Y-77057142D02*
X136902438Y-76914285D01*
X136902438Y-76914285D02*
X136950057Y-76866666D01*
X136950057Y-76485713D02*
X136902438Y-76438094D01*
X136902438Y-76438094D02*
X136854819Y-76342856D01*
X136854819Y-76342856D02*
X136854819Y-76104761D01*
X136854819Y-76104761D02*
X136902438Y-76009523D01*
X136902438Y-76009523D02*
X136950057Y-75961904D01*
X136950057Y-75961904D02*
X137045295Y-75914285D01*
X137045295Y-75914285D02*
X137140533Y-75914285D01*
X137140533Y-75914285D02*
X137283390Y-75961904D01*
X137283390Y-75961904D02*
X137854819Y-76533332D01*
X137854819Y-76533332D02*
X137854819Y-75914285D01*
D12*
X200274285Y-91495270D02*
X200153333Y-91434794D01*
X200153333Y-91434794D02*
X200032380Y-91313842D01*
X200032380Y-91313842D02*
X199850952Y-91132413D01*
X199850952Y-91132413D02*
X199729999Y-91071937D01*
X199729999Y-91071937D02*
X199609047Y-91071937D01*
X199669523Y-91374318D02*
X199548571Y-91313842D01*
X199548571Y-91313842D02*
X199427618Y-91192889D01*
X199427618Y-91192889D02*
X199367142Y-90950984D01*
X199367142Y-90950984D02*
X199367142Y-90527651D01*
X199367142Y-90527651D02*
X199427618Y-90285746D01*
X199427618Y-90285746D02*
X199548571Y-90164794D01*
X199548571Y-90164794D02*
X199669523Y-90104318D01*
X199669523Y-90104318D02*
X199911428Y-90104318D01*
X199911428Y-90104318D02*
X200032380Y-90164794D01*
X200032380Y-90164794D02*
X200153333Y-90285746D01*
X200153333Y-90285746D02*
X200213809Y-90527651D01*
X200213809Y-90527651D02*
X200213809Y-90950984D01*
X200213809Y-90950984D02*
X200153333Y-91192889D01*
X200153333Y-91192889D02*
X200032380Y-91313842D01*
X200032380Y-91313842D02*
X199911428Y-91374318D01*
X199911428Y-91374318D02*
X199669523Y-91374318D01*
X201423333Y-91374318D02*
X200697618Y-91374318D01*
X201060475Y-91374318D02*
X201060475Y-90104318D01*
X201060475Y-90104318D02*
X200939523Y-90285746D01*
X200939523Y-90285746D02*
X200818571Y-90406699D01*
X200818571Y-90406699D02*
X200697618Y-90467175D01*
X201846666Y-90104318D02*
X202632857Y-90104318D01*
X202632857Y-90104318D02*
X202209523Y-90588127D01*
X202209523Y-90588127D02*
X202390952Y-90588127D01*
X202390952Y-90588127D02*
X202511904Y-90648603D01*
X202511904Y-90648603D02*
X202572380Y-90709080D01*
X202572380Y-90709080D02*
X202632857Y-90830032D01*
X202632857Y-90830032D02*
X202632857Y-91132413D01*
X202632857Y-91132413D02*
X202572380Y-91253365D01*
X202572380Y-91253365D02*
X202511904Y-91313842D01*
X202511904Y-91313842D02*
X202390952Y-91374318D01*
X202390952Y-91374318D02*
X202028095Y-91374318D01*
X202028095Y-91374318D02*
X201907142Y-91313842D01*
X201907142Y-91313842D02*
X201846666Y-91253365D01*
D11*
X142533333Y-63559580D02*
X142485714Y-63607200D01*
X142485714Y-63607200D02*
X142342857Y-63654819D01*
X142342857Y-63654819D02*
X142247619Y-63654819D01*
X142247619Y-63654819D02*
X142104762Y-63607200D01*
X142104762Y-63607200D02*
X142009524Y-63511961D01*
X142009524Y-63511961D02*
X141961905Y-63416723D01*
X141961905Y-63416723D02*
X141914286Y-63226247D01*
X141914286Y-63226247D02*
X141914286Y-63083390D01*
X141914286Y-63083390D02*
X141961905Y-62892914D01*
X141961905Y-62892914D02*
X142009524Y-62797676D01*
X142009524Y-62797676D02*
X142104762Y-62702438D01*
X142104762Y-62702438D02*
X142247619Y-62654819D01*
X142247619Y-62654819D02*
X142342857Y-62654819D01*
X142342857Y-62654819D02*
X142485714Y-62702438D01*
X142485714Y-62702438D02*
X142533333Y-62750057D01*
X142866667Y-62654819D02*
X143485714Y-62654819D01*
X143485714Y-62654819D02*
X143152381Y-63035771D01*
X143152381Y-63035771D02*
X143295238Y-63035771D01*
X143295238Y-63035771D02*
X143390476Y-63083390D01*
X143390476Y-63083390D02*
X143438095Y-63131009D01*
X143438095Y-63131009D02*
X143485714Y-63226247D01*
X143485714Y-63226247D02*
X143485714Y-63464342D01*
X143485714Y-63464342D02*
X143438095Y-63559580D01*
X143438095Y-63559580D02*
X143390476Y-63607200D01*
X143390476Y-63607200D02*
X143295238Y-63654819D01*
X143295238Y-63654819D02*
X143009524Y-63654819D01*
X143009524Y-63654819D02*
X142914286Y-63607200D01*
X142914286Y-63607200D02*
X142866667Y-63559580D01*
D12*
X216779047Y-63795270D02*
X216658095Y-63734794D01*
X216658095Y-63734794D02*
X216537142Y-63613842D01*
X216537142Y-63613842D02*
X216355714Y-63432413D01*
X216355714Y-63432413D02*
X216234761Y-63371937D01*
X216234761Y-63371937D02*
X216113809Y-63371937D01*
X216174285Y-63674318D02*
X216053333Y-63613842D01*
X216053333Y-63613842D02*
X215932380Y-63492889D01*
X215932380Y-63492889D02*
X215871904Y-63250984D01*
X215871904Y-63250984D02*
X215871904Y-62827651D01*
X215871904Y-62827651D02*
X215932380Y-62585746D01*
X215932380Y-62585746D02*
X216053333Y-62464794D01*
X216053333Y-62464794D02*
X216174285Y-62404318D01*
X216174285Y-62404318D02*
X216416190Y-62404318D01*
X216416190Y-62404318D02*
X216537142Y-62464794D01*
X216537142Y-62464794D02*
X216658095Y-62585746D01*
X216658095Y-62585746D02*
X216718571Y-62827651D01*
X216718571Y-62827651D02*
X216718571Y-63250984D01*
X216718571Y-63250984D02*
X216658095Y-63492889D01*
X216658095Y-63492889D02*
X216537142Y-63613842D01*
X216537142Y-63613842D02*
X216416190Y-63674318D01*
X216416190Y-63674318D02*
X216174285Y-63674318D01*
X217928095Y-63674318D02*
X217202380Y-63674318D01*
X217565237Y-63674318D02*
X217565237Y-62404318D01*
X217565237Y-62404318D02*
X217444285Y-62585746D01*
X217444285Y-62585746D02*
X217323333Y-62706699D01*
X217323333Y-62706699D02*
X217202380Y-62767175D01*
X106457856Y-80074318D02*
X106457856Y-78804318D01*
X106457856Y-78804318D02*
X106941666Y-78804318D01*
X106941666Y-78804318D02*
X107062618Y-78864794D01*
X107062618Y-78864794D02*
X107123095Y-78925270D01*
X107123095Y-78925270D02*
X107183571Y-79046222D01*
X107183571Y-79046222D02*
X107183571Y-79227651D01*
X107183571Y-79227651D02*
X107123095Y-79348603D01*
X107123095Y-79348603D02*
X107062618Y-79409080D01*
X107062618Y-79409080D02*
X106941666Y-79469556D01*
X106941666Y-79469556D02*
X106457856Y-79469556D01*
X107667380Y-80013842D02*
X107848809Y-80074318D01*
X107848809Y-80074318D02*
X108151190Y-80074318D01*
X108151190Y-80074318D02*
X108272142Y-80013842D01*
X108272142Y-80013842D02*
X108332618Y-79953365D01*
X108332618Y-79953365D02*
X108393095Y-79832413D01*
X108393095Y-79832413D02*
X108393095Y-79711461D01*
X108393095Y-79711461D02*
X108332618Y-79590508D01*
X108332618Y-79590508D02*
X108272142Y-79530032D01*
X108272142Y-79530032D02*
X108151190Y-79469556D01*
X108151190Y-79469556D02*
X107909285Y-79409080D01*
X107909285Y-79409080D02*
X107788333Y-79348603D01*
X107788333Y-79348603D02*
X107727856Y-79288127D01*
X107727856Y-79288127D02*
X107667380Y-79167175D01*
X107667380Y-79167175D02*
X107667380Y-79046222D01*
X107667380Y-79046222D02*
X107727856Y-78925270D01*
X107727856Y-78925270D02*
X107788333Y-78864794D01*
X107788333Y-78864794D02*
X107909285Y-78804318D01*
X107909285Y-78804318D02*
X108211666Y-78804318D01*
X108211666Y-78804318D02*
X108393095Y-78864794D01*
X108876904Y-78925270D02*
X108937380Y-78864794D01*
X108937380Y-78864794D02*
X109058333Y-78804318D01*
X109058333Y-78804318D02*
X109360714Y-78804318D01*
X109360714Y-78804318D02*
X109481666Y-78864794D01*
X109481666Y-78864794D02*
X109542142Y-78925270D01*
X109542142Y-78925270D02*
X109602619Y-79046222D01*
X109602619Y-79046222D02*
X109602619Y-79167175D01*
X109602619Y-79167175D02*
X109542142Y-79348603D01*
X109542142Y-79348603D02*
X108816428Y-80074318D01*
X108816428Y-80074318D02*
X109602619Y-80074318D01*
D11*
X158585714Y-93054819D02*
X158585714Y-92054819D01*
X158585714Y-92054819D02*
X158823809Y-92054819D01*
X158823809Y-92054819D02*
X158966666Y-92102438D01*
X158966666Y-92102438D02*
X159061904Y-92197676D01*
X159061904Y-92197676D02*
X159109523Y-92292914D01*
X159109523Y-92292914D02*
X159157142Y-92483390D01*
X159157142Y-92483390D02*
X159157142Y-92626247D01*
X159157142Y-92626247D02*
X159109523Y-92816723D01*
X159109523Y-92816723D02*
X159061904Y-92911961D01*
X159061904Y-92911961D02*
X158966666Y-93007200D01*
X158966666Y-93007200D02*
X158823809Y-93054819D01*
X158823809Y-93054819D02*
X158585714Y-93054819D01*
X160109523Y-93054819D02*
X159538095Y-93054819D01*
X159823809Y-93054819D02*
X159823809Y-92054819D01*
X159823809Y-92054819D02*
X159728571Y-92197676D01*
X159728571Y-92197676D02*
X159633333Y-92292914D01*
X159633333Y-92292914D02*
X159538095Y-92340533D01*
X160728571Y-92054819D02*
X160823809Y-92054819D01*
X160823809Y-92054819D02*
X160919047Y-92102438D01*
X160919047Y-92102438D02*
X160966666Y-92150057D01*
X160966666Y-92150057D02*
X161014285Y-92245295D01*
X161014285Y-92245295D02*
X161061904Y-92435771D01*
X161061904Y-92435771D02*
X161061904Y-92673866D01*
X161061904Y-92673866D02*
X161014285Y-92864342D01*
X161014285Y-92864342D02*
X160966666Y-92959580D01*
X160966666Y-92959580D02*
X160919047Y-93007200D01*
X160919047Y-93007200D02*
X160823809Y-93054819D01*
X160823809Y-93054819D02*
X160728571Y-93054819D01*
X160728571Y-93054819D02*
X160633333Y-93007200D01*
X160633333Y-93007200D02*
X160585714Y-92959580D01*
X160585714Y-92959580D02*
X160538095Y-92864342D01*
X160538095Y-92864342D02*
X160490476Y-92673866D01*
X160490476Y-92673866D02*
X160490476Y-92435771D01*
X160490476Y-92435771D02*
X160538095Y-92245295D01*
X160538095Y-92245295D02*
X160585714Y-92150057D01*
X160585714Y-92150057D02*
X160633333Y-92102438D01*
X160633333Y-92102438D02*
X160728571Y-92054819D01*
X120293199Y-61522197D02*
X120697260Y-61926258D01*
X119788123Y-62431334D02*
X120495230Y-61724227D01*
X120225856Y-62869067D02*
X120932963Y-62161960D01*
X120932963Y-62161960D02*
X121202337Y-62431334D01*
X121202337Y-62431334D02*
X121236008Y-62532350D01*
X121236008Y-62532350D02*
X121236008Y-62599693D01*
X121236008Y-62599693D02*
X121202337Y-62700708D01*
X121202337Y-62700708D02*
X121101321Y-62801724D01*
X121101321Y-62801724D02*
X121000306Y-62835395D01*
X121000306Y-62835395D02*
X120932963Y-62835395D01*
X120932963Y-62835395D02*
X120831947Y-62801724D01*
X120831947Y-62801724D02*
X120562573Y-62532350D01*
X121572726Y-62801724D02*
X122010459Y-63239456D01*
X122010459Y-63239456D02*
X121505382Y-63273128D01*
X121505382Y-63273128D02*
X121606398Y-63374143D01*
X121606398Y-63374143D02*
X121640069Y-63475159D01*
X121640069Y-63475159D02*
X121640069Y-63542502D01*
X121640069Y-63542502D02*
X121606398Y-63643517D01*
X121606398Y-63643517D02*
X121438039Y-63811876D01*
X121438039Y-63811876D02*
X121337024Y-63845548D01*
X121337024Y-63845548D02*
X121269680Y-63845548D01*
X121269680Y-63845548D02*
X121168665Y-63811876D01*
X121168665Y-63811876D02*
X120966634Y-63609846D01*
X120966634Y-63609846D02*
X120932963Y-63508830D01*
X120932963Y-63508830D02*
X120932963Y-63441487D01*
X85238095Y-70954819D02*
X85809523Y-70954819D01*
X85523809Y-71954819D02*
X85523809Y-70954819D01*
X86142857Y-71954819D02*
X86142857Y-70954819D01*
X86142857Y-70954819D02*
X86523809Y-70954819D01*
X86523809Y-70954819D02*
X86619047Y-71002438D01*
X86619047Y-71002438D02*
X86666666Y-71050057D01*
X86666666Y-71050057D02*
X86714285Y-71145295D01*
X86714285Y-71145295D02*
X86714285Y-71288152D01*
X86714285Y-71288152D02*
X86666666Y-71383390D01*
X86666666Y-71383390D02*
X86619047Y-71431009D01*
X86619047Y-71431009D02*
X86523809Y-71478628D01*
X86523809Y-71478628D02*
X86142857Y-71478628D01*
X87095238Y-71050057D02*
X87142857Y-71002438D01*
X87142857Y-71002438D02*
X87238095Y-70954819D01*
X87238095Y-70954819D02*
X87476190Y-70954819D01*
X87476190Y-70954819D02*
X87571428Y-71002438D01*
X87571428Y-71002438D02*
X87619047Y-71050057D01*
X87619047Y-71050057D02*
X87666666Y-71145295D01*
X87666666Y-71145295D02*
X87666666Y-71240533D01*
X87666666Y-71240533D02*
X87619047Y-71383390D01*
X87619047Y-71383390D02*
X87047619Y-71954819D01*
X87047619Y-71954819D02*
X87666666Y-71954819D01*
X58833333Y-87404819D02*
X58500000Y-86928628D01*
X58261905Y-87404819D02*
X58261905Y-86404819D01*
X58261905Y-86404819D02*
X58642857Y-86404819D01*
X58642857Y-86404819D02*
X58738095Y-86452438D01*
X58738095Y-86452438D02*
X58785714Y-86500057D01*
X58785714Y-86500057D02*
X58833333Y-86595295D01*
X58833333Y-86595295D02*
X58833333Y-86738152D01*
X58833333Y-86738152D02*
X58785714Y-86833390D01*
X58785714Y-86833390D02*
X58738095Y-86881009D01*
X58738095Y-86881009D02*
X58642857Y-86928628D01*
X58642857Y-86928628D02*
X58261905Y-86928628D01*
X59214286Y-86500057D02*
X59261905Y-86452438D01*
X59261905Y-86452438D02*
X59357143Y-86404819D01*
X59357143Y-86404819D02*
X59595238Y-86404819D01*
X59595238Y-86404819D02*
X59690476Y-86452438D01*
X59690476Y-86452438D02*
X59738095Y-86500057D01*
X59738095Y-86500057D02*
X59785714Y-86595295D01*
X59785714Y-86595295D02*
X59785714Y-86690533D01*
X59785714Y-86690533D02*
X59738095Y-86833390D01*
X59738095Y-86833390D02*
X59166667Y-87404819D01*
X59166667Y-87404819D02*
X59785714Y-87404819D01*
D12*
X173274285Y-91495270D02*
X173153333Y-91434794D01*
X173153333Y-91434794D02*
X173032380Y-91313842D01*
X173032380Y-91313842D02*
X172850952Y-91132413D01*
X172850952Y-91132413D02*
X172729999Y-91071937D01*
X172729999Y-91071937D02*
X172609047Y-91071937D01*
X172669523Y-91374318D02*
X172548571Y-91313842D01*
X172548571Y-91313842D02*
X172427618Y-91192889D01*
X172427618Y-91192889D02*
X172367142Y-90950984D01*
X172367142Y-90950984D02*
X172367142Y-90527651D01*
X172367142Y-90527651D02*
X172427618Y-90285746D01*
X172427618Y-90285746D02*
X172548571Y-90164794D01*
X172548571Y-90164794D02*
X172669523Y-90104318D01*
X172669523Y-90104318D02*
X172911428Y-90104318D01*
X172911428Y-90104318D02*
X173032380Y-90164794D01*
X173032380Y-90164794D02*
X173153333Y-90285746D01*
X173153333Y-90285746D02*
X173213809Y-90527651D01*
X173213809Y-90527651D02*
X173213809Y-90950984D01*
X173213809Y-90950984D02*
X173153333Y-91192889D01*
X173153333Y-91192889D02*
X173032380Y-91313842D01*
X173032380Y-91313842D02*
X172911428Y-91374318D01*
X172911428Y-91374318D02*
X172669523Y-91374318D01*
X174423333Y-91374318D02*
X173697618Y-91374318D01*
X174060475Y-91374318D02*
X174060475Y-90104318D01*
X174060475Y-90104318D02*
X173939523Y-90285746D01*
X173939523Y-90285746D02*
X173818571Y-90406699D01*
X173818571Y-90406699D02*
X173697618Y-90467175D01*
X175209523Y-90104318D02*
X175330476Y-90104318D01*
X175330476Y-90104318D02*
X175451428Y-90164794D01*
X175451428Y-90164794D02*
X175511904Y-90225270D01*
X175511904Y-90225270D02*
X175572380Y-90346222D01*
X175572380Y-90346222D02*
X175632857Y-90588127D01*
X175632857Y-90588127D02*
X175632857Y-90890508D01*
X175632857Y-90890508D02*
X175572380Y-91132413D01*
X175572380Y-91132413D02*
X175511904Y-91253365D01*
X175511904Y-91253365D02*
X175451428Y-91313842D01*
X175451428Y-91313842D02*
X175330476Y-91374318D01*
X175330476Y-91374318D02*
X175209523Y-91374318D01*
X175209523Y-91374318D02*
X175088571Y-91313842D01*
X175088571Y-91313842D02*
X175028095Y-91253365D01*
X175028095Y-91253365D02*
X174967618Y-91132413D01*
X174967618Y-91132413D02*
X174907142Y-90890508D01*
X174907142Y-90890508D02*
X174907142Y-90588127D01*
X174907142Y-90588127D02*
X174967618Y-90346222D01*
X174967618Y-90346222D02*
X175028095Y-90225270D01*
X175028095Y-90225270D02*
X175088571Y-90164794D01*
X175088571Y-90164794D02*
X175209523Y-90104318D01*
X128310237Y-74124318D02*
X128310237Y-72854318D01*
X129640714Y-74003365D02*
X129580238Y-74063842D01*
X129580238Y-74063842D02*
X129398809Y-74124318D01*
X129398809Y-74124318D02*
X129277857Y-74124318D01*
X129277857Y-74124318D02*
X129096428Y-74063842D01*
X129096428Y-74063842D02*
X128975476Y-73942889D01*
X128975476Y-73942889D02*
X128914999Y-73821937D01*
X128914999Y-73821937D02*
X128854523Y-73580032D01*
X128854523Y-73580032D02*
X128854523Y-73398603D01*
X128854523Y-73398603D02*
X128914999Y-73156699D01*
X128914999Y-73156699D02*
X128975476Y-73035746D01*
X128975476Y-73035746D02*
X129096428Y-72914794D01*
X129096428Y-72914794D02*
X129277857Y-72854318D01*
X129277857Y-72854318D02*
X129398809Y-72854318D01*
X129398809Y-72854318D02*
X129580238Y-72914794D01*
X129580238Y-72914794D02*
X129640714Y-72975270D01*
X130124523Y-72975270D02*
X130184999Y-72914794D01*
X130184999Y-72914794D02*
X130305952Y-72854318D01*
X130305952Y-72854318D02*
X130608333Y-72854318D01*
X130608333Y-72854318D02*
X130729285Y-72914794D01*
X130729285Y-72914794D02*
X130789761Y-72975270D01*
X130789761Y-72975270D02*
X130850238Y-73096222D01*
X130850238Y-73096222D02*
X130850238Y-73217175D01*
X130850238Y-73217175D02*
X130789761Y-73398603D01*
X130789761Y-73398603D02*
X130064047Y-74124318D01*
X130064047Y-74124318D02*
X130850238Y-74124318D01*
D11*
X164461905Y-64806819D02*
X165033333Y-64806819D01*
X164747619Y-65806819D02*
X164747619Y-64806819D01*
X165366667Y-65806819D02*
X165366667Y-64806819D01*
X165366667Y-64806819D02*
X165747619Y-64806819D01*
X165747619Y-64806819D02*
X165842857Y-64854438D01*
X165842857Y-64854438D02*
X165890476Y-64902057D01*
X165890476Y-64902057D02*
X165938095Y-64997295D01*
X165938095Y-64997295D02*
X165938095Y-65140152D01*
X165938095Y-65140152D02*
X165890476Y-65235390D01*
X165890476Y-65235390D02*
X165842857Y-65283009D01*
X165842857Y-65283009D02*
X165747619Y-65330628D01*
X165747619Y-65330628D02*
X165366667Y-65330628D01*
X166890476Y-65806819D02*
X166319048Y-65806819D01*
X166604762Y-65806819D02*
X166604762Y-64806819D01*
X166604762Y-64806819D02*
X166509524Y-64949676D01*
X166509524Y-64949676D02*
X166414286Y-65044914D01*
X166414286Y-65044914D02*
X166319048Y-65092533D01*
X167509524Y-64806819D02*
X167604762Y-64806819D01*
X167604762Y-64806819D02*
X167700000Y-64854438D01*
X167700000Y-64854438D02*
X167747619Y-64902057D01*
X167747619Y-64902057D02*
X167795238Y-64997295D01*
X167795238Y-64997295D02*
X167842857Y-65187771D01*
X167842857Y-65187771D02*
X167842857Y-65425866D01*
X167842857Y-65425866D02*
X167795238Y-65616342D01*
X167795238Y-65616342D02*
X167747619Y-65711580D01*
X167747619Y-65711580D02*
X167700000Y-65759200D01*
X167700000Y-65759200D02*
X167604762Y-65806819D01*
X167604762Y-65806819D02*
X167509524Y-65806819D01*
X167509524Y-65806819D02*
X167414286Y-65759200D01*
X167414286Y-65759200D02*
X167366667Y-65711580D01*
X167366667Y-65711580D02*
X167319048Y-65616342D01*
X167319048Y-65616342D02*
X167271429Y-65425866D01*
X167271429Y-65425866D02*
X167271429Y-65187771D01*
X167271429Y-65187771D02*
X167319048Y-64997295D01*
X167319048Y-64997295D02*
X167366667Y-64902057D01*
X167366667Y-64902057D02*
X167414286Y-64854438D01*
X167414286Y-64854438D02*
X167509524Y-64806819D01*
X148833333Y-64359580D02*
X148785714Y-64407200D01*
X148785714Y-64407200D02*
X148642857Y-64454819D01*
X148642857Y-64454819D02*
X148547619Y-64454819D01*
X148547619Y-64454819D02*
X148404762Y-64407200D01*
X148404762Y-64407200D02*
X148309524Y-64311961D01*
X148309524Y-64311961D02*
X148261905Y-64216723D01*
X148261905Y-64216723D02*
X148214286Y-64026247D01*
X148214286Y-64026247D02*
X148214286Y-63883390D01*
X148214286Y-63883390D02*
X148261905Y-63692914D01*
X148261905Y-63692914D02*
X148309524Y-63597676D01*
X148309524Y-63597676D02*
X148404762Y-63502438D01*
X148404762Y-63502438D02*
X148547619Y-63454819D01*
X148547619Y-63454819D02*
X148642857Y-63454819D01*
X148642857Y-63454819D02*
X148785714Y-63502438D01*
X148785714Y-63502438D02*
X148833333Y-63550057D01*
X149166667Y-63454819D02*
X149833333Y-63454819D01*
X149833333Y-63454819D02*
X149404762Y-64454819D01*
X97561905Y-93054819D02*
X97561905Y-92054819D01*
X97561905Y-92054819D02*
X97800000Y-92054819D01*
X97800000Y-92054819D02*
X97942857Y-92102438D01*
X97942857Y-92102438D02*
X98038095Y-92197676D01*
X98038095Y-92197676D02*
X98085714Y-92292914D01*
X98085714Y-92292914D02*
X98133333Y-92483390D01*
X98133333Y-92483390D02*
X98133333Y-92626247D01*
X98133333Y-92626247D02*
X98085714Y-92816723D01*
X98085714Y-92816723D02*
X98038095Y-92911961D01*
X98038095Y-92911961D02*
X97942857Y-93007200D01*
X97942857Y-93007200D02*
X97800000Y-93054819D01*
X97800000Y-93054819D02*
X97561905Y-93054819D01*
X98990476Y-92388152D02*
X98990476Y-93054819D01*
X98752381Y-92007200D02*
X98514286Y-92721485D01*
X98514286Y-92721485D02*
X99133333Y-92721485D01*
X115561905Y-93054819D02*
X115561905Y-92054819D01*
X115561905Y-92054819D02*
X115800000Y-92054819D01*
X115800000Y-92054819D02*
X115942857Y-92102438D01*
X115942857Y-92102438D02*
X116038095Y-92197676D01*
X116038095Y-92197676D02*
X116085714Y-92292914D01*
X116085714Y-92292914D02*
X116133333Y-92483390D01*
X116133333Y-92483390D02*
X116133333Y-92626247D01*
X116133333Y-92626247D02*
X116085714Y-92816723D01*
X116085714Y-92816723D02*
X116038095Y-92911961D01*
X116038095Y-92911961D02*
X115942857Y-93007200D01*
X115942857Y-93007200D02*
X115800000Y-93054819D01*
X115800000Y-93054819D02*
X115561905Y-93054819D01*
X116990476Y-92054819D02*
X116800000Y-92054819D01*
X116800000Y-92054819D02*
X116704762Y-92102438D01*
X116704762Y-92102438D02*
X116657143Y-92150057D01*
X116657143Y-92150057D02*
X116561905Y-92292914D01*
X116561905Y-92292914D02*
X116514286Y-92483390D01*
X116514286Y-92483390D02*
X116514286Y-92864342D01*
X116514286Y-92864342D02*
X116561905Y-92959580D01*
X116561905Y-92959580D02*
X116609524Y-93007200D01*
X116609524Y-93007200D02*
X116704762Y-93054819D01*
X116704762Y-93054819D02*
X116895238Y-93054819D01*
X116895238Y-93054819D02*
X116990476Y-93007200D01*
X116990476Y-93007200D02*
X117038095Y-92959580D01*
X117038095Y-92959580D02*
X117085714Y-92864342D01*
X117085714Y-92864342D02*
X117085714Y-92626247D01*
X117085714Y-92626247D02*
X117038095Y-92531009D01*
X117038095Y-92531009D02*
X116990476Y-92483390D01*
X116990476Y-92483390D02*
X116895238Y-92435771D01*
X116895238Y-92435771D02*
X116704762Y-92435771D01*
X116704762Y-92435771D02*
X116609524Y-92483390D01*
X116609524Y-92483390D02*
X116561905Y-92531009D01*
X116561905Y-92531009D02*
X116514286Y-92626247D01*
X176585714Y-93054819D02*
X176585714Y-92054819D01*
X176585714Y-92054819D02*
X176823809Y-92054819D01*
X176823809Y-92054819D02*
X176966666Y-92102438D01*
X176966666Y-92102438D02*
X177061904Y-92197676D01*
X177061904Y-92197676D02*
X177109523Y-92292914D01*
X177109523Y-92292914D02*
X177157142Y-92483390D01*
X177157142Y-92483390D02*
X177157142Y-92626247D01*
X177157142Y-92626247D02*
X177109523Y-92816723D01*
X177109523Y-92816723D02*
X177061904Y-92911961D01*
X177061904Y-92911961D02*
X176966666Y-93007200D01*
X176966666Y-93007200D02*
X176823809Y-93054819D01*
X176823809Y-93054819D02*
X176585714Y-93054819D01*
X178109523Y-93054819D02*
X177538095Y-93054819D01*
X177823809Y-93054819D02*
X177823809Y-92054819D01*
X177823809Y-92054819D02*
X177728571Y-92197676D01*
X177728571Y-92197676D02*
X177633333Y-92292914D01*
X177633333Y-92292914D02*
X177538095Y-92340533D01*
X178490476Y-92150057D02*
X178538095Y-92102438D01*
X178538095Y-92102438D02*
X178633333Y-92054819D01*
X178633333Y-92054819D02*
X178871428Y-92054819D01*
X178871428Y-92054819D02*
X178966666Y-92102438D01*
X178966666Y-92102438D02*
X179014285Y-92150057D01*
X179014285Y-92150057D02*
X179061904Y-92245295D01*
X179061904Y-92245295D02*
X179061904Y-92340533D01*
X179061904Y-92340533D02*
X179014285Y-92483390D01*
X179014285Y-92483390D02*
X178442857Y-93054819D01*
X178442857Y-93054819D02*
X179061904Y-93054819D01*
X118057142Y-74954819D02*
X117723809Y-74478628D01*
X117485714Y-74954819D02*
X117485714Y-73954819D01*
X117485714Y-73954819D02*
X117866666Y-73954819D01*
X117866666Y-73954819D02*
X117961904Y-74002438D01*
X117961904Y-74002438D02*
X118009523Y-74050057D01*
X118009523Y-74050057D02*
X118057142Y-74145295D01*
X118057142Y-74145295D02*
X118057142Y-74288152D01*
X118057142Y-74288152D02*
X118009523Y-74383390D01*
X118009523Y-74383390D02*
X117961904Y-74431009D01*
X117961904Y-74431009D02*
X117866666Y-74478628D01*
X117866666Y-74478628D02*
X117485714Y-74478628D01*
X119009523Y-74954819D02*
X118438095Y-74954819D01*
X118723809Y-74954819D02*
X118723809Y-73954819D01*
X118723809Y-73954819D02*
X118628571Y-74097676D01*
X118628571Y-74097676D02*
X118533333Y-74192914D01*
X118533333Y-74192914D02*
X118438095Y-74240533D01*
X119342857Y-73954819D02*
X119961904Y-73954819D01*
X119961904Y-73954819D02*
X119628571Y-74335771D01*
X119628571Y-74335771D02*
X119771428Y-74335771D01*
X119771428Y-74335771D02*
X119866666Y-74383390D01*
X119866666Y-74383390D02*
X119914285Y-74431009D01*
X119914285Y-74431009D02*
X119961904Y-74526247D01*
X119961904Y-74526247D02*
X119961904Y-74764342D01*
X119961904Y-74764342D02*
X119914285Y-74859580D01*
X119914285Y-74859580D02*
X119866666Y-74907200D01*
X119866666Y-74907200D02*
X119771428Y-74954819D01*
X119771428Y-74954819D02*
X119485714Y-74954819D01*
X119485714Y-74954819D02*
X119390476Y-74907200D01*
X119390476Y-74907200D02*
X119342857Y-74859580D01*
D12*
X128310237Y-65924318D02*
X128310237Y-64654318D01*
X129640714Y-65803365D02*
X129580238Y-65863842D01*
X129580238Y-65863842D02*
X129398809Y-65924318D01*
X129398809Y-65924318D02*
X129277857Y-65924318D01*
X129277857Y-65924318D02*
X129096428Y-65863842D01*
X129096428Y-65863842D02*
X128975476Y-65742889D01*
X128975476Y-65742889D02*
X128914999Y-65621937D01*
X128914999Y-65621937D02*
X128854523Y-65380032D01*
X128854523Y-65380032D02*
X128854523Y-65198603D01*
X128854523Y-65198603D02*
X128914999Y-64956699D01*
X128914999Y-64956699D02*
X128975476Y-64835746D01*
X128975476Y-64835746D02*
X129096428Y-64714794D01*
X129096428Y-64714794D02*
X129277857Y-64654318D01*
X129277857Y-64654318D02*
X129398809Y-64654318D01*
X129398809Y-64654318D02*
X129580238Y-64714794D01*
X129580238Y-64714794D02*
X129640714Y-64775270D01*
X130850238Y-65924318D02*
X130124523Y-65924318D01*
X130487380Y-65924318D02*
X130487380Y-64654318D01*
X130487380Y-64654318D02*
X130366428Y-64835746D01*
X130366428Y-64835746D02*
X130245476Y-64956699D01*
X130245476Y-64956699D02*
X130124523Y-65017175D01*
D11*
X66933333Y-63704819D02*
X66600000Y-63228628D01*
X66361905Y-63704819D02*
X66361905Y-62704819D01*
X66361905Y-62704819D02*
X66742857Y-62704819D01*
X66742857Y-62704819D02*
X66838095Y-62752438D01*
X66838095Y-62752438D02*
X66885714Y-62800057D01*
X66885714Y-62800057D02*
X66933333Y-62895295D01*
X66933333Y-62895295D02*
X66933333Y-63038152D01*
X66933333Y-63038152D02*
X66885714Y-63133390D01*
X66885714Y-63133390D02*
X66838095Y-63181009D01*
X66838095Y-63181009D02*
X66742857Y-63228628D01*
X66742857Y-63228628D02*
X66361905Y-63228628D01*
X67885714Y-63704819D02*
X67314286Y-63704819D01*
X67600000Y-63704819D02*
X67600000Y-62704819D01*
X67600000Y-62704819D02*
X67504762Y-62847676D01*
X67504762Y-62847676D02*
X67409524Y-62942914D01*
X67409524Y-62942914D02*
X67314286Y-62990533D01*
X102133333Y-66459580D02*
X102085714Y-66507200D01*
X102085714Y-66507200D02*
X101942857Y-66554819D01*
X101942857Y-66554819D02*
X101847619Y-66554819D01*
X101847619Y-66554819D02*
X101704762Y-66507200D01*
X101704762Y-66507200D02*
X101609524Y-66411961D01*
X101609524Y-66411961D02*
X101561905Y-66316723D01*
X101561905Y-66316723D02*
X101514286Y-66126247D01*
X101514286Y-66126247D02*
X101514286Y-65983390D01*
X101514286Y-65983390D02*
X101561905Y-65792914D01*
X101561905Y-65792914D02*
X101609524Y-65697676D01*
X101609524Y-65697676D02*
X101704762Y-65602438D01*
X101704762Y-65602438D02*
X101847619Y-65554819D01*
X101847619Y-65554819D02*
X101942857Y-65554819D01*
X101942857Y-65554819D02*
X102085714Y-65602438D01*
X102085714Y-65602438D02*
X102133333Y-65650057D01*
X103038095Y-65554819D02*
X102561905Y-65554819D01*
X102561905Y-65554819D02*
X102514286Y-66031009D01*
X102514286Y-66031009D02*
X102561905Y-65983390D01*
X102561905Y-65983390D02*
X102657143Y-65935771D01*
X102657143Y-65935771D02*
X102895238Y-65935771D01*
X102895238Y-65935771D02*
X102990476Y-65983390D01*
X102990476Y-65983390D02*
X103038095Y-66031009D01*
X103038095Y-66031009D02*
X103085714Y-66126247D01*
X103085714Y-66126247D02*
X103085714Y-66364342D01*
X103085714Y-66364342D02*
X103038095Y-66459580D01*
X103038095Y-66459580D02*
X102990476Y-66507200D01*
X102990476Y-66507200D02*
X102895238Y-66554819D01*
X102895238Y-66554819D02*
X102657143Y-66554819D01*
X102657143Y-66554819D02*
X102561905Y-66507200D01*
X102561905Y-66507200D02*
X102514286Y-66459580D01*
D12*
X128879047Y-91495270D02*
X128758095Y-91434794D01*
X128758095Y-91434794D02*
X128637142Y-91313842D01*
X128637142Y-91313842D02*
X128455714Y-91132413D01*
X128455714Y-91132413D02*
X128334761Y-91071937D01*
X128334761Y-91071937D02*
X128213809Y-91071937D01*
X128274285Y-91374318D02*
X128153333Y-91313842D01*
X128153333Y-91313842D02*
X128032380Y-91192889D01*
X128032380Y-91192889D02*
X127971904Y-90950984D01*
X127971904Y-90950984D02*
X127971904Y-90527651D01*
X127971904Y-90527651D02*
X128032380Y-90285746D01*
X128032380Y-90285746D02*
X128153333Y-90164794D01*
X128153333Y-90164794D02*
X128274285Y-90104318D01*
X128274285Y-90104318D02*
X128516190Y-90104318D01*
X128516190Y-90104318D02*
X128637142Y-90164794D01*
X128637142Y-90164794D02*
X128758095Y-90285746D01*
X128758095Y-90285746D02*
X128818571Y-90527651D01*
X128818571Y-90527651D02*
X128818571Y-90950984D01*
X128818571Y-90950984D02*
X128758095Y-91192889D01*
X128758095Y-91192889D02*
X128637142Y-91313842D01*
X128637142Y-91313842D02*
X128516190Y-91374318D01*
X128516190Y-91374318D02*
X128274285Y-91374318D01*
X129967618Y-90104318D02*
X129362856Y-90104318D01*
X129362856Y-90104318D02*
X129302380Y-90709080D01*
X129302380Y-90709080D02*
X129362856Y-90648603D01*
X129362856Y-90648603D02*
X129483809Y-90588127D01*
X129483809Y-90588127D02*
X129786190Y-90588127D01*
X129786190Y-90588127D02*
X129907142Y-90648603D01*
X129907142Y-90648603D02*
X129967618Y-90709080D01*
X129967618Y-90709080D02*
X130028095Y-90830032D01*
X130028095Y-90830032D02*
X130028095Y-91132413D01*
X130028095Y-91132413D02*
X129967618Y-91253365D01*
X129967618Y-91253365D02*
X129907142Y-91313842D01*
X129907142Y-91313842D02*
X129786190Y-91374318D01*
X129786190Y-91374318D02*
X129483809Y-91374318D01*
X129483809Y-91374318D02*
X129362856Y-91313842D01*
X129362856Y-91313842D02*
X129302380Y-91253365D01*
X81959167Y-86004318D02*
X81959167Y-86911461D01*
X81959167Y-86911461D02*
X81898690Y-87092889D01*
X81898690Y-87092889D02*
X81777738Y-87213842D01*
X81777738Y-87213842D02*
X81596309Y-87274318D01*
X81596309Y-87274318D02*
X81475357Y-87274318D01*
X82503452Y-86125270D02*
X82563928Y-86064794D01*
X82563928Y-86064794D02*
X82684881Y-86004318D01*
X82684881Y-86004318D02*
X82987262Y-86004318D01*
X82987262Y-86004318D02*
X83108214Y-86064794D01*
X83108214Y-86064794D02*
X83168690Y-86125270D01*
X83168690Y-86125270D02*
X83229167Y-86246222D01*
X83229167Y-86246222D02*
X83229167Y-86367175D01*
X83229167Y-86367175D02*
X83168690Y-86548603D01*
X83168690Y-86548603D02*
X82442976Y-87274318D01*
X82442976Y-87274318D02*
X83229167Y-87274318D01*
D11*
X171154819Y-71666666D02*
X170678628Y-71999999D01*
X171154819Y-72238094D02*
X170154819Y-72238094D01*
X170154819Y-72238094D02*
X170154819Y-71857142D01*
X170154819Y-71857142D02*
X170202438Y-71761904D01*
X170202438Y-71761904D02*
X170250057Y-71714285D01*
X170250057Y-71714285D02*
X170345295Y-71666666D01*
X170345295Y-71666666D02*
X170488152Y-71666666D01*
X170488152Y-71666666D02*
X170583390Y-71714285D01*
X170583390Y-71714285D02*
X170631009Y-71761904D01*
X170631009Y-71761904D02*
X170678628Y-71857142D01*
X170678628Y-71857142D02*
X170678628Y-72238094D01*
X170154819Y-71333332D02*
X170154819Y-70714285D01*
X170154819Y-70714285D02*
X170535771Y-71047618D01*
X170535771Y-71047618D02*
X170535771Y-70904761D01*
X170535771Y-70904761D02*
X170583390Y-70809523D01*
X170583390Y-70809523D02*
X170631009Y-70761904D01*
X170631009Y-70761904D02*
X170726247Y-70714285D01*
X170726247Y-70714285D02*
X170964342Y-70714285D01*
X170964342Y-70714285D02*
X171059580Y-70761904D01*
X171059580Y-70761904D02*
X171107200Y-70809523D01*
X171107200Y-70809523D02*
X171154819Y-70904761D01*
X171154819Y-70904761D02*
X171154819Y-71190475D01*
X171154819Y-71190475D02*
X171107200Y-71285713D01*
X171107200Y-71285713D02*
X171059580Y-71333332D01*
X85238095Y-61306819D02*
X85809523Y-61306819D01*
X85523809Y-62306819D02*
X85523809Y-61306819D01*
X86142857Y-62306819D02*
X86142857Y-61306819D01*
X86142857Y-61306819D02*
X86523809Y-61306819D01*
X86523809Y-61306819D02*
X86619047Y-61354438D01*
X86619047Y-61354438D02*
X86666666Y-61402057D01*
X86666666Y-61402057D02*
X86714285Y-61497295D01*
X86714285Y-61497295D02*
X86714285Y-61640152D01*
X86714285Y-61640152D02*
X86666666Y-61735390D01*
X86666666Y-61735390D02*
X86619047Y-61783009D01*
X86619047Y-61783009D02*
X86523809Y-61830628D01*
X86523809Y-61830628D02*
X86142857Y-61830628D01*
X87666666Y-62306819D02*
X87095238Y-62306819D01*
X87380952Y-62306819D02*
X87380952Y-61306819D01*
X87380952Y-61306819D02*
X87285714Y-61449676D01*
X87285714Y-61449676D02*
X87190476Y-61544914D01*
X87190476Y-61544914D02*
X87095238Y-61592533D01*
D12*
X137879047Y-91495270D02*
X137758095Y-91434794D01*
X137758095Y-91434794D02*
X137637142Y-91313842D01*
X137637142Y-91313842D02*
X137455714Y-91132413D01*
X137455714Y-91132413D02*
X137334761Y-91071937D01*
X137334761Y-91071937D02*
X137213809Y-91071937D01*
X137274285Y-91374318D02*
X137153333Y-91313842D01*
X137153333Y-91313842D02*
X137032380Y-91192889D01*
X137032380Y-91192889D02*
X136971904Y-90950984D01*
X136971904Y-90950984D02*
X136971904Y-90527651D01*
X136971904Y-90527651D02*
X137032380Y-90285746D01*
X137032380Y-90285746D02*
X137153333Y-90164794D01*
X137153333Y-90164794D02*
X137274285Y-90104318D01*
X137274285Y-90104318D02*
X137516190Y-90104318D01*
X137516190Y-90104318D02*
X137637142Y-90164794D01*
X137637142Y-90164794D02*
X137758095Y-90285746D01*
X137758095Y-90285746D02*
X137818571Y-90527651D01*
X137818571Y-90527651D02*
X137818571Y-90950984D01*
X137818571Y-90950984D02*
X137758095Y-91192889D01*
X137758095Y-91192889D02*
X137637142Y-91313842D01*
X137637142Y-91313842D02*
X137516190Y-91374318D01*
X137516190Y-91374318D02*
X137274285Y-91374318D01*
X138907142Y-90104318D02*
X138665237Y-90104318D01*
X138665237Y-90104318D02*
X138544285Y-90164794D01*
X138544285Y-90164794D02*
X138483809Y-90225270D01*
X138483809Y-90225270D02*
X138362856Y-90406699D01*
X138362856Y-90406699D02*
X138302380Y-90648603D01*
X138302380Y-90648603D02*
X138302380Y-91132413D01*
X138302380Y-91132413D02*
X138362856Y-91253365D01*
X138362856Y-91253365D02*
X138423333Y-91313842D01*
X138423333Y-91313842D02*
X138544285Y-91374318D01*
X138544285Y-91374318D02*
X138786190Y-91374318D01*
X138786190Y-91374318D02*
X138907142Y-91313842D01*
X138907142Y-91313842D02*
X138967618Y-91253365D01*
X138967618Y-91253365D02*
X139028095Y-91132413D01*
X139028095Y-91132413D02*
X139028095Y-90830032D01*
X139028095Y-90830032D02*
X138967618Y-90709080D01*
X138967618Y-90709080D02*
X138907142Y-90648603D01*
X138907142Y-90648603D02*
X138786190Y-90588127D01*
X138786190Y-90588127D02*
X138544285Y-90588127D01*
X138544285Y-90588127D02*
X138423333Y-90648603D01*
X138423333Y-90648603D02*
X138362856Y-90709080D01*
X138362856Y-90709080D02*
X138302380Y-90830032D01*
X66276667Y-68909080D02*
X65853333Y-68909080D01*
X65853333Y-69574318D02*
X65853333Y-68304318D01*
X65853333Y-68304318D02*
X66458095Y-68304318D01*
X67607143Y-69574318D02*
X66881428Y-69574318D01*
X67244285Y-69574318D02*
X67244285Y-68304318D01*
X67244285Y-68304318D02*
X67123333Y-68485746D01*
X67123333Y-68485746D02*
X67002381Y-68606699D01*
X67002381Y-68606699D02*
X66881428Y-68667175D01*
D11*
X141354819Y-68766666D02*
X140878628Y-69099999D01*
X141354819Y-69338094D02*
X140354819Y-69338094D01*
X140354819Y-69338094D02*
X140354819Y-68957142D01*
X140354819Y-68957142D02*
X140402438Y-68861904D01*
X140402438Y-68861904D02*
X140450057Y-68814285D01*
X140450057Y-68814285D02*
X140545295Y-68766666D01*
X140545295Y-68766666D02*
X140688152Y-68766666D01*
X140688152Y-68766666D02*
X140783390Y-68814285D01*
X140783390Y-68814285D02*
X140831009Y-68861904D01*
X140831009Y-68861904D02*
X140878628Y-68957142D01*
X140878628Y-68957142D02*
X140878628Y-69338094D01*
X140354819Y-68433332D02*
X140354819Y-67766666D01*
X140354819Y-67766666D02*
X141354819Y-68195237D01*
X132061905Y-93054819D02*
X132061905Y-92054819D01*
X132061905Y-92054819D02*
X132300000Y-92054819D01*
X132300000Y-92054819D02*
X132442857Y-92102438D01*
X132442857Y-92102438D02*
X132538095Y-92197676D01*
X132538095Y-92197676D02*
X132585714Y-92292914D01*
X132585714Y-92292914D02*
X132633333Y-92483390D01*
X132633333Y-92483390D02*
X132633333Y-92626247D01*
X132633333Y-92626247D02*
X132585714Y-92816723D01*
X132585714Y-92816723D02*
X132538095Y-92911961D01*
X132538095Y-92911961D02*
X132442857Y-93007200D01*
X132442857Y-93007200D02*
X132300000Y-93054819D01*
X132300000Y-93054819D02*
X132061905Y-93054819D01*
X132966667Y-92054819D02*
X133633333Y-92054819D01*
X133633333Y-92054819D02*
X133204762Y-93054819D01*
D12*
X79562618Y-75874318D02*
X79562618Y-74604318D01*
X79562618Y-74604318D02*
X79864999Y-74604318D01*
X79864999Y-74604318D02*
X80046428Y-74664794D01*
X80046428Y-74664794D02*
X80167380Y-74785746D01*
X80167380Y-74785746D02*
X80227857Y-74906699D01*
X80227857Y-74906699D02*
X80288333Y-75148603D01*
X80288333Y-75148603D02*
X80288333Y-75330032D01*
X80288333Y-75330032D02*
X80227857Y-75571937D01*
X80227857Y-75571937D02*
X80167380Y-75692889D01*
X80167380Y-75692889D02*
X80046428Y-75813842D01*
X80046428Y-75813842D02*
X79864999Y-75874318D01*
X79864999Y-75874318D02*
X79562618Y-75874318D01*
X81497857Y-75874318D02*
X80772142Y-75874318D01*
X81134999Y-75874318D02*
X81134999Y-74604318D01*
X81134999Y-74604318D02*
X81014047Y-74785746D01*
X81014047Y-74785746D02*
X80893095Y-74906699D01*
X80893095Y-74906699D02*
X80772142Y-74967175D01*
D11*
X123157142Y-78654819D02*
X122823809Y-78178628D01*
X122585714Y-78654819D02*
X122585714Y-77654819D01*
X122585714Y-77654819D02*
X122966666Y-77654819D01*
X122966666Y-77654819D02*
X123061904Y-77702438D01*
X123061904Y-77702438D02*
X123109523Y-77750057D01*
X123109523Y-77750057D02*
X123157142Y-77845295D01*
X123157142Y-77845295D02*
X123157142Y-77988152D01*
X123157142Y-77988152D02*
X123109523Y-78083390D01*
X123109523Y-78083390D02*
X123061904Y-78131009D01*
X123061904Y-78131009D02*
X122966666Y-78178628D01*
X122966666Y-78178628D02*
X122585714Y-78178628D01*
X124109523Y-78654819D02*
X123538095Y-78654819D01*
X123823809Y-78654819D02*
X123823809Y-77654819D01*
X123823809Y-77654819D02*
X123728571Y-77797676D01*
X123728571Y-77797676D02*
X123633333Y-77892914D01*
X123633333Y-77892914D02*
X123538095Y-77940533D01*
X125061904Y-78654819D02*
X124490476Y-78654819D01*
X124776190Y-78654819D02*
X124776190Y-77654819D01*
X124776190Y-77654819D02*
X124680952Y-77797676D01*
X124680952Y-77797676D02*
X124585714Y-77892914D01*
X124585714Y-77892914D02*
X124490476Y-77940533D01*
X120393199Y-67522197D02*
X120797260Y-67926258D01*
X119888123Y-68431334D02*
X120595230Y-67724227D01*
X120325856Y-68869067D02*
X121032963Y-68161960D01*
X121032963Y-68161960D02*
X121302337Y-68431334D01*
X121302337Y-68431334D02*
X121336008Y-68532350D01*
X121336008Y-68532350D02*
X121336008Y-68599693D01*
X121336008Y-68599693D02*
X121302337Y-68700708D01*
X121302337Y-68700708D02*
X121201321Y-68801724D01*
X121201321Y-68801724D02*
X121100306Y-68835395D01*
X121100306Y-68835395D02*
X121032963Y-68835395D01*
X121032963Y-68835395D02*
X120931947Y-68801724D01*
X120931947Y-68801724D02*
X120662573Y-68532350D01*
X121066634Y-69609846D02*
X121201321Y-69744533D01*
X121201321Y-69744533D02*
X121302337Y-69778204D01*
X121302337Y-69778204D02*
X121369680Y-69778204D01*
X121369680Y-69778204D02*
X121538039Y-69744533D01*
X121538039Y-69744533D02*
X121706398Y-69643517D01*
X121706398Y-69643517D02*
X121975772Y-69374143D01*
X121975772Y-69374143D02*
X122009443Y-69273128D01*
X122009443Y-69273128D02*
X122009443Y-69205785D01*
X122009443Y-69205785D02*
X121975772Y-69104769D01*
X121975772Y-69104769D02*
X121841085Y-68970082D01*
X121841085Y-68970082D02*
X121740069Y-68936411D01*
X121740069Y-68936411D02*
X121672726Y-68936411D01*
X121672726Y-68936411D02*
X121571711Y-68970082D01*
X121571711Y-68970082D02*
X121403352Y-69138441D01*
X121403352Y-69138441D02*
X121369680Y-69239456D01*
X121369680Y-69239456D02*
X121369680Y-69306800D01*
X121369680Y-69306800D02*
X121403352Y-69407815D01*
X121403352Y-69407815D02*
X121538039Y-69542502D01*
X121538039Y-69542502D02*
X121639054Y-69576174D01*
X121639054Y-69576174D02*
X121706398Y-69576174D01*
X121706398Y-69576174D02*
X121807413Y-69542502D01*
X104933333Y-61839580D02*
X104885714Y-61887200D01*
X104885714Y-61887200D02*
X104742857Y-61934819D01*
X104742857Y-61934819D02*
X104647619Y-61934819D01*
X104647619Y-61934819D02*
X104504762Y-61887200D01*
X104504762Y-61887200D02*
X104409524Y-61791961D01*
X104409524Y-61791961D02*
X104361905Y-61696723D01*
X104361905Y-61696723D02*
X104314286Y-61506247D01*
X104314286Y-61506247D02*
X104314286Y-61363390D01*
X104314286Y-61363390D02*
X104361905Y-61172914D01*
X104361905Y-61172914D02*
X104409524Y-61077676D01*
X104409524Y-61077676D02*
X104504762Y-60982438D01*
X104504762Y-60982438D02*
X104647619Y-60934819D01*
X104647619Y-60934819D02*
X104742857Y-60934819D01*
X104742857Y-60934819D02*
X104885714Y-60982438D01*
X104885714Y-60982438D02*
X104933333Y-61030057D01*
X105409524Y-61934819D02*
X105600000Y-61934819D01*
X105600000Y-61934819D02*
X105695238Y-61887200D01*
X105695238Y-61887200D02*
X105742857Y-61839580D01*
X105742857Y-61839580D02*
X105838095Y-61696723D01*
X105838095Y-61696723D02*
X105885714Y-61506247D01*
X105885714Y-61506247D02*
X105885714Y-61125295D01*
X105885714Y-61125295D02*
X105838095Y-61030057D01*
X105838095Y-61030057D02*
X105790476Y-60982438D01*
X105790476Y-60982438D02*
X105695238Y-60934819D01*
X105695238Y-60934819D02*
X105504762Y-60934819D01*
X105504762Y-60934819D02*
X105409524Y-60982438D01*
X105409524Y-60982438D02*
X105361905Y-61030057D01*
X105361905Y-61030057D02*
X105314286Y-61125295D01*
X105314286Y-61125295D02*
X105314286Y-61363390D01*
X105314286Y-61363390D02*
X105361905Y-61458628D01*
X105361905Y-61458628D02*
X105409524Y-61506247D01*
X105409524Y-61506247D02*
X105504762Y-61553866D01*
X105504762Y-61553866D02*
X105695238Y-61553866D01*
X105695238Y-61553866D02*
X105790476Y-61506247D01*
X105790476Y-61506247D02*
X105838095Y-61458628D01*
X105838095Y-61458628D02*
X105885714Y-61363390D01*
X171254819Y-67366666D02*
X170778628Y-67699999D01*
X171254819Y-67938094D02*
X170254819Y-67938094D01*
X170254819Y-67938094D02*
X170254819Y-67557142D01*
X170254819Y-67557142D02*
X170302438Y-67461904D01*
X170302438Y-67461904D02*
X170350057Y-67414285D01*
X170350057Y-67414285D02*
X170445295Y-67366666D01*
X170445295Y-67366666D02*
X170588152Y-67366666D01*
X170588152Y-67366666D02*
X170683390Y-67414285D01*
X170683390Y-67414285D02*
X170731009Y-67461904D01*
X170731009Y-67461904D02*
X170778628Y-67557142D01*
X170778628Y-67557142D02*
X170778628Y-67938094D01*
X170588152Y-66509523D02*
X171254819Y-66509523D01*
X170207200Y-66747618D02*
X170921485Y-66985713D01*
X170921485Y-66985713D02*
X170921485Y-66366666D01*
X234182857Y-80260353D02*
X233475750Y-79553246D01*
X233812468Y-79889964D02*
X234216529Y-79485903D01*
X234586918Y-79856292D02*
X233879811Y-79149185D01*
X235294025Y-79149185D02*
X234889964Y-79553246D01*
X235091994Y-79351216D02*
X234384888Y-78644109D01*
X234384888Y-78644109D02*
X234418559Y-78812468D01*
X234418559Y-78812468D02*
X234418559Y-78947155D01*
X234418559Y-78947155D02*
X234384888Y-79048170D01*
X187854819Y-71061904D02*
X188664342Y-71061904D01*
X188664342Y-71061904D02*
X188759580Y-71014285D01*
X188759580Y-71014285D02*
X188807200Y-70966666D01*
X188807200Y-70966666D02*
X188854819Y-70871428D01*
X188854819Y-70871428D02*
X188854819Y-70680952D01*
X188854819Y-70680952D02*
X188807200Y-70585714D01*
X188807200Y-70585714D02*
X188759580Y-70538095D01*
X188759580Y-70538095D02*
X188664342Y-70490476D01*
X188664342Y-70490476D02*
X187854819Y-70490476D01*
X187950057Y-70061904D02*
X187902438Y-70014285D01*
X187902438Y-70014285D02*
X187854819Y-69919047D01*
X187854819Y-69919047D02*
X187854819Y-69680952D01*
X187854819Y-69680952D02*
X187902438Y-69585714D01*
X187902438Y-69585714D02*
X187950057Y-69538095D01*
X187950057Y-69538095D02*
X188045295Y-69490476D01*
X188045295Y-69490476D02*
X188140533Y-69490476D01*
X188140533Y-69490476D02*
X188283390Y-69538095D01*
X188283390Y-69538095D02*
X188854819Y-70109523D01*
X188854819Y-70109523D02*
X188854819Y-69490476D01*
D12*
X94879047Y-91395270D02*
X94758095Y-91334794D01*
X94758095Y-91334794D02*
X94637142Y-91213842D01*
X94637142Y-91213842D02*
X94455714Y-91032413D01*
X94455714Y-91032413D02*
X94334761Y-90971937D01*
X94334761Y-90971937D02*
X94213809Y-90971937D01*
X94274285Y-91274318D02*
X94153333Y-91213842D01*
X94153333Y-91213842D02*
X94032380Y-91092889D01*
X94032380Y-91092889D02*
X93971904Y-90850984D01*
X93971904Y-90850984D02*
X93971904Y-90427651D01*
X93971904Y-90427651D02*
X94032380Y-90185746D01*
X94032380Y-90185746D02*
X94153333Y-90064794D01*
X94153333Y-90064794D02*
X94274285Y-90004318D01*
X94274285Y-90004318D02*
X94516190Y-90004318D01*
X94516190Y-90004318D02*
X94637142Y-90064794D01*
X94637142Y-90064794D02*
X94758095Y-90185746D01*
X94758095Y-90185746D02*
X94818571Y-90427651D01*
X94818571Y-90427651D02*
X94818571Y-90850984D01*
X94818571Y-90850984D02*
X94758095Y-91092889D01*
X94758095Y-91092889D02*
X94637142Y-91213842D01*
X94637142Y-91213842D02*
X94516190Y-91274318D01*
X94516190Y-91274318D02*
X94274285Y-91274318D01*
X95302380Y-90125270D02*
X95362856Y-90064794D01*
X95362856Y-90064794D02*
X95483809Y-90004318D01*
X95483809Y-90004318D02*
X95786190Y-90004318D01*
X95786190Y-90004318D02*
X95907142Y-90064794D01*
X95907142Y-90064794D02*
X95967618Y-90125270D01*
X95967618Y-90125270D02*
X96028095Y-90246222D01*
X96028095Y-90246222D02*
X96028095Y-90367175D01*
X96028095Y-90367175D02*
X95967618Y-90548603D01*
X95967618Y-90548603D02*
X95241904Y-91274318D01*
X95241904Y-91274318D02*
X96028095Y-91274318D01*
X91457856Y-80074318D02*
X91457856Y-78804318D01*
X91457856Y-78804318D02*
X91941666Y-78804318D01*
X91941666Y-78804318D02*
X92062618Y-78864794D01*
X92062618Y-78864794D02*
X92123095Y-78925270D01*
X92123095Y-78925270D02*
X92183571Y-79046222D01*
X92183571Y-79046222D02*
X92183571Y-79227651D01*
X92183571Y-79227651D02*
X92123095Y-79348603D01*
X92123095Y-79348603D02*
X92062618Y-79409080D01*
X92062618Y-79409080D02*
X91941666Y-79469556D01*
X91941666Y-79469556D02*
X91457856Y-79469556D01*
X92667380Y-80013842D02*
X92848809Y-80074318D01*
X92848809Y-80074318D02*
X93151190Y-80074318D01*
X93151190Y-80074318D02*
X93272142Y-80013842D01*
X93272142Y-80013842D02*
X93332618Y-79953365D01*
X93332618Y-79953365D02*
X93393095Y-79832413D01*
X93393095Y-79832413D02*
X93393095Y-79711461D01*
X93393095Y-79711461D02*
X93332618Y-79590508D01*
X93332618Y-79590508D02*
X93272142Y-79530032D01*
X93272142Y-79530032D02*
X93151190Y-79469556D01*
X93151190Y-79469556D02*
X92909285Y-79409080D01*
X92909285Y-79409080D02*
X92788333Y-79348603D01*
X92788333Y-79348603D02*
X92727856Y-79288127D01*
X92727856Y-79288127D02*
X92667380Y-79167175D01*
X92667380Y-79167175D02*
X92667380Y-79046222D01*
X92667380Y-79046222D02*
X92727856Y-78925270D01*
X92727856Y-78925270D02*
X92788333Y-78864794D01*
X92788333Y-78864794D02*
X92909285Y-78804318D01*
X92909285Y-78804318D02*
X93211666Y-78804318D01*
X93211666Y-78804318D02*
X93393095Y-78864794D01*
X94602619Y-80074318D02*
X93876904Y-80074318D01*
X94239761Y-80074318D02*
X94239761Y-78804318D01*
X94239761Y-78804318D02*
X94118809Y-78985746D01*
X94118809Y-78985746D02*
X93997857Y-79106699D01*
X93997857Y-79106699D02*
X93876904Y-79167175D01*
D11*
X106561905Y-93054819D02*
X106561905Y-92054819D01*
X106561905Y-92054819D02*
X106800000Y-92054819D01*
X106800000Y-92054819D02*
X106942857Y-92102438D01*
X106942857Y-92102438D02*
X107038095Y-92197676D01*
X107038095Y-92197676D02*
X107085714Y-92292914D01*
X107085714Y-92292914D02*
X107133333Y-92483390D01*
X107133333Y-92483390D02*
X107133333Y-92626247D01*
X107133333Y-92626247D02*
X107085714Y-92816723D01*
X107085714Y-92816723D02*
X107038095Y-92911961D01*
X107038095Y-92911961D02*
X106942857Y-93007200D01*
X106942857Y-93007200D02*
X106800000Y-93054819D01*
X106800000Y-93054819D02*
X106561905Y-93054819D01*
X108038095Y-92054819D02*
X107561905Y-92054819D01*
X107561905Y-92054819D02*
X107514286Y-92531009D01*
X107514286Y-92531009D02*
X107561905Y-92483390D01*
X107561905Y-92483390D02*
X107657143Y-92435771D01*
X107657143Y-92435771D02*
X107895238Y-92435771D01*
X107895238Y-92435771D02*
X107990476Y-92483390D01*
X107990476Y-92483390D02*
X108038095Y-92531009D01*
X108038095Y-92531009D02*
X108085714Y-92626247D01*
X108085714Y-92626247D02*
X108085714Y-92864342D01*
X108085714Y-92864342D02*
X108038095Y-92959580D01*
X108038095Y-92959580D02*
X107990476Y-93007200D01*
X107990476Y-93007200D02*
X107895238Y-93054819D01*
X107895238Y-93054819D02*
X107657143Y-93054819D01*
X107657143Y-93054819D02*
X107561905Y-93007200D01*
X107561905Y-93007200D02*
X107514286Y-92959580D01*
D12*
X209274285Y-91495270D02*
X209153333Y-91434794D01*
X209153333Y-91434794D02*
X209032380Y-91313842D01*
X209032380Y-91313842D02*
X208850952Y-91132413D01*
X208850952Y-91132413D02*
X208729999Y-91071937D01*
X208729999Y-91071937D02*
X208609047Y-91071937D01*
X208669523Y-91374318D02*
X208548571Y-91313842D01*
X208548571Y-91313842D02*
X208427618Y-91192889D01*
X208427618Y-91192889D02*
X208367142Y-90950984D01*
X208367142Y-90950984D02*
X208367142Y-90527651D01*
X208367142Y-90527651D02*
X208427618Y-90285746D01*
X208427618Y-90285746D02*
X208548571Y-90164794D01*
X208548571Y-90164794D02*
X208669523Y-90104318D01*
X208669523Y-90104318D02*
X208911428Y-90104318D01*
X208911428Y-90104318D02*
X209032380Y-90164794D01*
X209032380Y-90164794D02*
X209153333Y-90285746D01*
X209153333Y-90285746D02*
X209213809Y-90527651D01*
X209213809Y-90527651D02*
X209213809Y-90950984D01*
X209213809Y-90950984D02*
X209153333Y-91192889D01*
X209153333Y-91192889D02*
X209032380Y-91313842D01*
X209032380Y-91313842D02*
X208911428Y-91374318D01*
X208911428Y-91374318D02*
X208669523Y-91374318D01*
X210423333Y-91374318D02*
X209697618Y-91374318D01*
X210060475Y-91374318D02*
X210060475Y-90104318D01*
X210060475Y-90104318D02*
X209939523Y-90285746D01*
X209939523Y-90285746D02*
X209818571Y-90406699D01*
X209818571Y-90406699D02*
X209697618Y-90467175D01*
X211511904Y-90527651D02*
X211511904Y-91374318D01*
X211209523Y-90043842D02*
X210907142Y-90950984D01*
X210907142Y-90950984D02*
X211693333Y-90950984D01*
X73532380Y-79813842D02*
X73713809Y-79874318D01*
X73713809Y-79874318D02*
X74016190Y-79874318D01*
X74016190Y-79874318D02*
X74137142Y-79813842D01*
X74137142Y-79813842D02*
X74197618Y-79753365D01*
X74197618Y-79753365D02*
X74258095Y-79632413D01*
X74258095Y-79632413D02*
X74258095Y-79511461D01*
X74258095Y-79511461D02*
X74197618Y-79390508D01*
X74197618Y-79390508D02*
X74137142Y-79330032D01*
X74137142Y-79330032D02*
X74016190Y-79269556D01*
X74016190Y-79269556D02*
X73774285Y-79209080D01*
X73774285Y-79209080D02*
X73653333Y-79148603D01*
X73653333Y-79148603D02*
X73592856Y-79088127D01*
X73592856Y-79088127D02*
X73532380Y-78967175D01*
X73532380Y-78967175D02*
X73532380Y-78846222D01*
X73532380Y-78846222D02*
X73592856Y-78725270D01*
X73592856Y-78725270D02*
X73653333Y-78664794D01*
X73653333Y-78664794D02*
X73774285Y-78604318D01*
X73774285Y-78604318D02*
X74076666Y-78604318D01*
X74076666Y-78604318D02*
X74258095Y-78664794D01*
X75467619Y-79874318D02*
X74741904Y-79874318D01*
X75104761Y-79874318D02*
X75104761Y-78604318D01*
X75104761Y-78604318D02*
X74983809Y-78785746D01*
X74983809Y-78785746D02*
X74862857Y-78906699D01*
X74862857Y-78906699D02*
X74741904Y-78967175D01*
X182274285Y-91495270D02*
X182153333Y-91434794D01*
X182153333Y-91434794D02*
X182032380Y-91313842D01*
X182032380Y-91313842D02*
X181850952Y-91132413D01*
X181850952Y-91132413D02*
X181729999Y-91071937D01*
X181729999Y-91071937D02*
X181609047Y-91071937D01*
X181669523Y-91374318D02*
X181548571Y-91313842D01*
X181548571Y-91313842D02*
X181427618Y-91192889D01*
X181427618Y-91192889D02*
X181367142Y-90950984D01*
X181367142Y-90950984D02*
X181367142Y-90527651D01*
X181367142Y-90527651D02*
X181427618Y-90285746D01*
X181427618Y-90285746D02*
X181548571Y-90164794D01*
X181548571Y-90164794D02*
X181669523Y-90104318D01*
X181669523Y-90104318D02*
X181911428Y-90104318D01*
X181911428Y-90104318D02*
X182032380Y-90164794D01*
X182032380Y-90164794D02*
X182153333Y-90285746D01*
X182153333Y-90285746D02*
X182213809Y-90527651D01*
X182213809Y-90527651D02*
X182213809Y-90950984D01*
X182213809Y-90950984D02*
X182153333Y-91192889D01*
X182153333Y-91192889D02*
X182032380Y-91313842D01*
X182032380Y-91313842D02*
X181911428Y-91374318D01*
X181911428Y-91374318D02*
X181669523Y-91374318D01*
X183423333Y-91374318D02*
X182697618Y-91374318D01*
X183060475Y-91374318D02*
X183060475Y-90104318D01*
X183060475Y-90104318D02*
X182939523Y-90285746D01*
X182939523Y-90285746D02*
X182818571Y-90406699D01*
X182818571Y-90406699D02*
X182697618Y-90467175D01*
X184632857Y-91374318D02*
X183907142Y-91374318D01*
X184269999Y-91374318D02*
X184269999Y-90104318D01*
X184269999Y-90104318D02*
X184149047Y-90285746D01*
X184149047Y-90285746D02*
X184028095Y-90406699D01*
X184028095Y-90406699D02*
X183907142Y-90467175D01*
D11*
X164461905Y-73054819D02*
X165033333Y-73054819D01*
X164747619Y-74054819D02*
X164747619Y-73054819D01*
X165366667Y-74054819D02*
X165366667Y-73054819D01*
X165366667Y-73054819D02*
X165747619Y-73054819D01*
X165747619Y-73054819D02*
X165842857Y-73102438D01*
X165842857Y-73102438D02*
X165890476Y-73150057D01*
X165890476Y-73150057D02*
X165938095Y-73245295D01*
X165938095Y-73245295D02*
X165938095Y-73388152D01*
X165938095Y-73388152D02*
X165890476Y-73483390D01*
X165890476Y-73483390D02*
X165842857Y-73531009D01*
X165842857Y-73531009D02*
X165747619Y-73578628D01*
X165747619Y-73578628D02*
X165366667Y-73578628D01*
X166890476Y-74054819D02*
X166319048Y-74054819D01*
X166604762Y-74054819D02*
X166604762Y-73054819D01*
X166604762Y-73054819D02*
X166509524Y-73197676D01*
X166509524Y-73197676D02*
X166414286Y-73292914D01*
X166414286Y-73292914D02*
X166319048Y-73340533D01*
X167842857Y-74054819D02*
X167271429Y-74054819D01*
X167557143Y-74054819D02*
X167557143Y-73054819D01*
X167557143Y-73054819D02*
X167461905Y-73197676D01*
X167461905Y-73197676D02*
X167366667Y-73292914D01*
X167366667Y-73292914D02*
X167271429Y-73340533D01*
D12*
X146879047Y-91495270D02*
X146758095Y-91434794D01*
X146758095Y-91434794D02*
X146637142Y-91313842D01*
X146637142Y-91313842D02*
X146455714Y-91132413D01*
X146455714Y-91132413D02*
X146334761Y-91071937D01*
X146334761Y-91071937D02*
X146213809Y-91071937D01*
X146274285Y-91374318D02*
X146153333Y-91313842D01*
X146153333Y-91313842D02*
X146032380Y-91192889D01*
X146032380Y-91192889D02*
X145971904Y-90950984D01*
X145971904Y-90950984D02*
X145971904Y-90527651D01*
X145971904Y-90527651D02*
X146032380Y-90285746D01*
X146032380Y-90285746D02*
X146153333Y-90164794D01*
X146153333Y-90164794D02*
X146274285Y-90104318D01*
X146274285Y-90104318D02*
X146516190Y-90104318D01*
X146516190Y-90104318D02*
X146637142Y-90164794D01*
X146637142Y-90164794D02*
X146758095Y-90285746D01*
X146758095Y-90285746D02*
X146818571Y-90527651D01*
X146818571Y-90527651D02*
X146818571Y-90950984D01*
X146818571Y-90950984D02*
X146758095Y-91192889D01*
X146758095Y-91192889D02*
X146637142Y-91313842D01*
X146637142Y-91313842D02*
X146516190Y-91374318D01*
X146516190Y-91374318D02*
X146274285Y-91374318D01*
X147241904Y-90104318D02*
X148088571Y-90104318D01*
X148088571Y-90104318D02*
X147544285Y-91374318D01*
X155879047Y-91495270D02*
X155758095Y-91434794D01*
X155758095Y-91434794D02*
X155637142Y-91313842D01*
X155637142Y-91313842D02*
X155455714Y-91132413D01*
X155455714Y-91132413D02*
X155334761Y-91071937D01*
X155334761Y-91071937D02*
X155213809Y-91071937D01*
X155274285Y-91374318D02*
X155153333Y-91313842D01*
X155153333Y-91313842D02*
X155032380Y-91192889D01*
X155032380Y-91192889D02*
X154971904Y-90950984D01*
X154971904Y-90950984D02*
X154971904Y-90527651D01*
X154971904Y-90527651D02*
X155032380Y-90285746D01*
X155032380Y-90285746D02*
X155153333Y-90164794D01*
X155153333Y-90164794D02*
X155274285Y-90104318D01*
X155274285Y-90104318D02*
X155516190Y-90104318D01*
X155516190Y-90104318D02*
X155637142Y-90164794D01*
X155637142Y-90164794D02*
X155758095Y-90285746D01*
X155758095Y-90285746D02*
X155818571Y-90527651D01*
X155818571Y-90527651D02*
X155818571Y-90950984D01*
X155818571Y-90950984D02*
X155758095Y-91192889D01*
X155758095Y-91192889D02*
X155637142Y-91313842D01*
X155637142Y-91313842D02*
X155516190Y-91374318D01*
X155516190Y-91374318D02*
X155274285Y-91374318D01*
X156544285Y-90648603D02*
X156423333Y-90588127D01*
X156423333Y-90588127D02*
X156362856Y-90527651D01*
X156362856Y-90527651D02*
X156302380Y-90406699D01*
X156302380Y-90406699D02*
X156302380Y-90346222D01*
X156302380Y-90346222D02*
X156362856Y-90225270D01*
X156362856Y-90225270D02*
X156423333Y-90164794D01*
X156423333Y-90164794D02*
X156544285Y-90104318D01*
X156544285Y-90104318D02*
X156786190Y-90104318D01*
X156786190Y-90104318D02*
X156907142Y-90164794D01*
X156907142Y-90164794D02*
X156967618Y-90225270D01*
X156967618Y-90225270D02*
X157028095Y-90346222D01*
X157028095Y-90346222D02*
X157028095Y-90406699D01*
X157028095Y-90406699D02*
X156967618Y-90527651D01*
X156967618Y-90527651D02*
X156907142Y-90588127D01*
X156907142Y-90588127D02*
X156786190Y-90648603D01*
X156786190Y-90648603D02*
X156544285Y-90648603D01*
X156544285Y-90648603D02*
X156423333Y-90709080D01*
X156423333Y-90709080D02*
X156362856Y-90769556D01*
X156362856Y-90769556D02*
X156302380Y-90890508D01*
X156302380Y-90890508D02*
X156302380Y-91132413D01*
X156302380Y-91132413D02*
X156362856Y-91253365D01*
X156362856Y-91253365D02*
X156423333Y-91313842D01*
X156423333Y-91313842D02*
X156544285Y-91374318D01*
X156544285Y-91374318D02*
X156786190Y-91374318D01*
X156786190Y-91374318D02*
X156907142Y-91313842D01*
X156907142Y-91313842D02*
X156967618Y-91253365D01*
X156967618Y-91253365D02*
X157028095Y-91132413D01*
X157028095Y-91132413D02*
X157028095Y-90890508D01*
X157028095Y-90890508D02*
X156967618Y-90769556D01*
X156967618Y-90769556D02*
X156907142Y-90709080D01*
X156907142Y-90709080D02*
X156786190Y-90648603D01*
X207374318Y-75937381D02*
X206104318Y-75937381D01*
X206104318Y-75937381D02*
X206104318Y-75635000D01*
X206104318Y-75635000D02*
X206164794Y-75453571D01*
X206164794Y-75453571D02*
X206285746Y-75332619D01*
X206285746Y-75332619D02*
X206406699Y-75272142D01*
X206406699Y-75272142D02*
X206648603Y-75211666D01*
X206648603Y-75211666D02*
X206830032Y-75211666D01*
X206830032Y-75211666D02*
X207071937Y-75272142D01*
X207071937Y-75272142D02*
X207192889Y-75332619D01*
X207192889Y-75332619D02*
X207313842Y-75453571D01*
X207313842Y-75453571D02*
X207374318Y-75635000D01*
X207374318Y-75635000D02*
X207374318Y-75937381D01*
X206104318Y-74788333D02*
X206104318Y-74002142D01*
X206104318Y-74002142D02*
X206588127Y-74425476D01*
X206588127Y-74425476D02*
X206588127Y-74244047D01*
X206588127Y-74244047D02*
X206648603Y-74123095D01*
X206648603Y-74123095D02*
X206709080Y-74062619D01*
X206709080Y-74062619D02*
X206830032Y-74002142D01*
X206830032Y-74002142D02*
X207132413Y-74002142D01*
X207132413Y-74002142D02*
X207253365Y-74062619D01*
X207253365Y-74062619D02*
X207313842Y-74123095D01*
X207313842Y-74123095D02*
X207374318Y-74244047D01*
X207374318Y-74244047D02*
X207374318Y-74606904D01*
X207374318Y-74606904D02*
X207313842Y-74727857D01*
X207313842Y-74727857D02*
X207253365Y-74788333D01*
D11*
X141061905Y-93054819D02*
X141061905Y-92054819D01*
X141061905Y-92054819D02*
X141300000Y-92054819D01*
X141300000Y-92054819D02*
X141442857Y-92102438D01*
X141442857Y-92102438D02*
X141538095Y-92197676D01*
X141538095Y-92197676D02*
X141585714Y-92292914D01*
X141585714Y-92292914D02*
X141633333Y-92483390D01*
X141633333Y-92483390D02*
X141633333Y-92626247D01*
X141633333Y-92626247D02*
X141585714Y-92816723D01*
X141585714Y-92816723D02*
X141538095Y-92911961D01*
X141538095Y-92911961D02*
X141442857Y-93007200D01*
X141442857Y-93007200D02*
X141300000Y-93054819D01*
X141300000Y-93054819D02*
X141061905Y-93054819D01*
X142204762Y-92483390D02*
X142109524Y-92435771D01*
X142109524Y-92435771D02*
X142061905Y-92388152D01*
X142061905Y-92388152D02*
X142014286Y-92292914D01*
X142014286Y-92292914D02*
X142014286Y-92245295D01*
X142014286Y-92245295D02*
X142061905Y-92150057D01*
X142061905Y-92150057D02*
X142109524Y-92102438D01*
X142109524Y-92102438D02*
X142204762Y-92054819D01*
X142204762Y-92054819D02*
X142395238Y-92054819D01*
X142395238Y-92054819D02*
X142490476Y-92102438D01*
X142490476Y-92102438D02*
X142538095Y-92150057D01*
X142538095Y-92150057D02*
X142585714Y-92245295D01*
X142585714Y-92245295D02*
X142585714Y-92292914D01*
X142585714Y-92292914D02*
X142538095Y-92388152D01*
X142538095Y-92388152D02*
X142490476Y-92435771D01*
X142490476Y-92435771D02*
X142395238Y-92483390D01*
X142395238Y-92483390D02*
X142204762Y-92483390D01*
X142204762Y-92483390D02*
X142109524Y-92531009D01*
X142109524Y-92531009D02*
X142061905Y-92578628D01*
X142061905Y-92578628D02*
X142014286Y-92673866D01*
X142014286Y-92673866D02*
X142014286Y-92864342D01*
X142014286Y-92864342D02*
X142061905Y-92959580D01*
X142061905Y-92959580D02*
X142109524Y-93007200D01*
X142109524Y-93007200D02*
X142204762Y-93054819D01*
X142204762Y-93054819D02*
X142395238Y-93054819D01*
X142395238Y-93054819D02*
X142490476Y-93007200D01*
X142490476Y-93007200D02*
X142538095Y-92959580D01*
X142538095Y-92959580D02*
X142585714Y-92864342D01*
X142585714Y-92864342D02*
X142585714Y-92673866D01*
X142585714Y-92673866D02*
X142538095Y-92578628D01*
X142538095Y-92578628D02*
X142490476Y-92531009D01*
X142490476Y-92531009D02*
X142395238Y-92483390D01*
X58161905Y-91059819D02*
X58161905Y-90059819D01*
X58161905Y-90059819D02*
X58400000Y-90059819D01*
X58400000Y-90059819D02*
X58542857Y-90107438D01*
X58542857Y-90107438D02*
X58638095Y-90202676D01*
X58638095Y-90202676D02*
X58685714Y-90297914D01*
X58685714Y-90297914D02*
X58733333Y-90488390D01*
X58733333Y-90488390D02*
X58733333Y-90631247D01*
X58733333Y-90631247D02*
X58685714Y-90821723D01*
X58685714Y-90821723D02*
X58638095Y-90916961D01*
X58638095Y-90916961D02*
X58542857Y-91012200D01*
X58542857Y-91012200D02*
X58400000Y-91059819D01*
X58400000Y-91059819D02*
X58161905Y-91059819D01*
X59114286Y-90155057D02*
X59161905Y-90107438D01*
X59161905Y-90107438D02*
X59257143Y-90059819D01*
X59257143Y-90059819D02*
X59495238Y-90059819D01*
X59495238Y-90059819D02*
X59590476Y-90107438D01*
X59590476Y-90107438D02*
X59638095Y-90155057D01*
X59638095Y-90155057D02*
X59685714Y-90250295D01*
X59685714Y-90250295D02*
X59685714Y-90345533D01*
X59685714Y-90345533D02*
X59638095Y-90488390D01*
X59638095Y-90488390D02*
X59066667Y-91059819D01*
X59066667Y-91059819D02*
X59685714Y-91059819D01*
X194585714Y-93054819D02*
X194585714Y-92054819D01*
X194585714Y-92054819D02*
X194823809Y-92054819D01*
X194823809Y-92054819D02*
X194966666Y-92102438D01*
X194966666Y-92102438D02*
X195061904Y-92197676D01*
X195061904Y-92197676D02*
X195109523Y-92292914D01*
X195109523Y-92292914D02*
X195157142Y-92483390D01*
X195157142Y-92483390D02*
X195157142Y-92626247D01*
X195157142Y-92626247D02*
X195109523Y-92816723D01*
X195109523Y-92816723D02*
X195061904Y-92911961D01*
X195061904Y-92911961D02*
X194966666Y-93007200D01*
X194966666Y-93007200D02*
X194823809Y-93054819D01*
X194823809Y-93054819D02*
X194585714Y-93054819D01*
X196109523Y-93054819D02*
X195538095Y-93054819D01*
X195823809Y-93054819D02*
X195823809Y-92054819D01*
X195823809Y-92054819D02*
X195728571Y-92197676D01*
X195728571Y-92197676D02*
X195633333Y-92292914D01*
X195633333Y-92292914D02*
X195538095Y-92340533D01*
X196966666Y-92388152D02*
X196966666Y-93054819D01*
X196728571Y-92007200D02*
X196490476Y-92721485D01*
X196490476Y-92721485D02*
X197109523Y-92721485D01*
X201738095Y-61306819D02*
X202309523Y-61306819D01*
X202023809Y-62306819D02*
X202023809Y-61306819D01*
X202642857Y-62306819D02*
X202642857Y-61306819D01*
X202642857Y-61306819D02*
X203023809Y-61306819D01*
X203023809Y-61306819D02*
X203119047Y-61354438D01*
X203119047Y-61354438D02*
X203166666Y-61402057D01*
X203166666Y-61402057D02*
X203214285Y-61497295D01*
X203214285Y-61497295D02*
X203214285Y-61640152D01*
X203214285Y-61640152D02*
X203166666Y-61735390D01*
X203166666Y-61735390D02*
X203119047Y-61783009D01*
X203119047Y-61783009D02*
X203023809Y-61830628D01*
X203023809Y-61830628D02*
X202642857Y-61830628D01*
X204119047Y-61306819D02*
X203642857Y-61306819D01*
X203642857Y-61306819D02*
X203595238Y-61783009D01*
X203595238Y-61783009D02*
X203642857Y-61735390D01*
X203642857Y-61735390D02*
X203738095Y-61687771D01*
X203738095Y-61687771D02*
X203976190Y-61687771D01*
X203976190Y-61687771D02*
X204071428Y-61735390D01*
X204071428Y-61735390D02*
X204119047Y-61783009D01*
X204119047Y-61783009D02*
X204166666Y-61878247D01*
X204166666Y-61878247D02*
X204166666Y-62116342D01*
X204166666Y-62116342D02*
X204119047Y-62211580D01*
X204119047Y-62211580D02*
X204071428Y-62259200D01*
X204071428Y-62259200D02*
X203976190Y-62306819D01*
X203976190Y-62306819D02*
X203738095Y-62306819D01*
X203738095Y-62306819D02*
X203642857Y-62259200D01*
X203642857Y-62259200D02*
X203595238Y-62211580D01*
X156938095Y-72106819D02*
X157509523Y-72106819D01*
X157223809Y-73106819D02*
X157223809Y-72106819D01*
X157842857Y-73106819D02*
X157842857Y-72106819D01*
X157842857Y-72106819D02*
X158223809Y-72106819D01*
X158223809Y-72106819D02*
X158319047Y-72154438D01*
X158319047Y-72154438D02*
X158366666Y-72202057D01*
X158366666Y-72202057D02*
X158414285Y-72297295D01*
X158414285Y-72297295D02*
X158414285Y-72440152D01*
X158414285Y-72440152D02*
X158366666Y-72535390D01*
X158366666Y-72535390D02*
X158319047Y-72583009D01*
X158319047Y-72583009D02*
X158223809Y-72630628D01*
X158223809Y-72630628D02*
X157842857Y-72630628D01*
X158985714Y-72535390D02*
X158890476Y-72487771D01*
X158890476Y-72487771D02*
X158842857Y-72440152D01*
X158842857Y-72440152D02*
X158795238Y-72344914D01*
X158795238Y-72344914D02*
X158795238Y-72297295D01*
X158795238Y-72297295D02*
X158842857Y-72202057D01*
X158842857Y-72202057D02*
X158890476Y-72154438D01*
X158890476Y-72154438D02*
X158985714Y-72106819D01*
X158985714Y-72106819D02*
X159176190Y-72106819D01*
X159176190Y-72106819D02*
X159271428Y-72154438D01*
X159271428Y-72154438D02*
X159319047Y-72202057D01*
X159319047Y-72202057D02*
X159366666Y-72297295D01*
X159366666Y-72297295D02*
X159366666Y-72344914D01*
X159366666Y-72344914D02*
X159319047Y-72440152D01*
X159319047Y-72440152D02*
X159271428Y-72487771D01*
X159271428Y-72487771D02*
X159176190Y-72535390D01*
X159176190Y-72535390D02*
X158985714Y-72535390D01*
X158985714Y-72535390D02*
X158890476Y-72583009D01*
X158890476Y-72583009D02*
X158842857Y-72630628D01*
X158842857Y-72630628D02*
X158795238Y-72725866D01*
X158795238Y-72725866D02*
X158795238Y-72916342D01*
X158795238Y-72916342D02*
X158842857Y-73011580D01*
X158842857Y-73011580D02*
X158890476Y-73059200D01*
X158890476Y-73059200D02*
X158985714Y-73106819D01*
X158985714Y-73106819D02*
X159176190Y-73106819D01*
X159176190Y-73106819D02*
X159271428Y-73059200D01*
X159271428Y-73059200D02*
X159319047Y-73011580D01*
X159319047Y-73011580D02*
X159366666Y-72916342D01*
X159366666Y-72916342D02*
X159366666Y-72725866D01*
X159366666Y-72725866D02*
X159319047Y-72630628D01*
X159319047Y-72630628D02*
X159271428Y-72583009D01*
X159271428Y-72583009D02*
X159176190Y-72535390D01*
X150061905Y-93054819D02*
X150061905Y-92054819D01*
X150061905Y-92054819D02*
X150300000Y-92054819D01*
X150300000Y-92054819D02*
X150442857Y-92102438D01*
X150442857Y-92102438D02*
X150538095Y-92197676D01*
X150538095Y-92197676D02*
X150585714Y-92292914D01*
X150585714Y-92292914D02*
X150633333Y-92483390D01*
X150633333Y-92483390D02*
X150633333Y-92626247D01*
X150633333Y-92626247D02*
X150585714Y-92816723D01*
X150585714Y-92816723D02*
X150538095Y-92911961D01*
X150538095Y-92911961D02*
X150442857Y-93007200D01*
X150442857Y-93007200D02*
X150300000Y-93054819D01*
X150300000Y-93054819D02*
X150061905Y-93054819D01*
X151109524Y-93054819D02*
X151300000Y-93054819D01*
X151300000Y-93054819D02*
X151395238Y-93007200D01*
X151395238Y-93007200D02*
X151442857Y-92959580D01*
X151442857Y-92959580D02*
X151538095Y-92816723D01*
X151538095Y-92816723D02*
X151585714Y-92626247D01*
X151585714Y-92626247D02*
X151585714Y-92245295D01*
X151585714Y-92245295D02*
X151538095Y-92150057D01*
X151538095Y-92150057D02*
X151490476Y-92102438D01*
X151490476Y-92102438D02*
X151395238Y-92054819D01*
X151395238Y-92054819D02*
X151204762Y-92054819D01*
X151204762Y-92054819D02*
X151109524Y-92102438D01*
X151109524Y-92102438D02*
X151061905Y-92150057D01*
X151061905Y-92150057D02*
X151014286Y-92245295D01*
X151014286Y-92245295D02*
X151014286Y-92483390D01*
X151014286Y-92483390D02*
X151061905Y-92578628D01*
X151061905Y-92578628D02*
X151109524Y-92626247D01*
X151109524Y-92626247D02*
X151204762Y-92673866D01*
X151204762Y-92673866D02*
X151395238Y-92673866D01*
X151395238Y-92673866D02*
X151490476Y-92626247D01*
X151490476Y-92626247D02*
X151538095Y-92578628D01*
X151538095Y-92578628D02*
X151585714Y-92483390D01*
X137859580Y-68766666D02*
X137907200Y-68814285D01*
X137907200Y-68814285D02*
X137954819Y-68957142D01*
X137954819Y-68957142D02*
X137954819Y-69052380D01*
X137954819Y-69052380D02*
X137907200Y-69195237D01*
X137907200Y-69195237D02*
X137811961Y-69290475D01*
X137811961Y-69290475D02*
X137716723Y-69338094D01*
X137716723Y-69338094D02*
X137526247Y-69385713D01*
X137526247Y-69385713D02*
X137383390Y-69385713D01*
X137383390Y-69385713D02*
X137192914Y-69338094D01*
X137192914Y-69338094D02*
X137097676Y-69290475D01*
X137097676Y-69290475D02*
X137002438Y-69195237D01*
X137002438Y-69195237D02*
X136954819Y-69052380D01*
X136954819Y-69052380D02*
X136954819Y-68957142D01*
X136954819Y-68957142D02*
X137002438Y-68814285D01*
X137002438Y-68814285D02*
X137050057Y-68766666D01*
X137954819Y-67814285D02*
X137954819Y-68385713D01*
X137954819Y-68099999D02*
X136954819Y-68099999D01*
X136954819Y-68099999D02*
X137097676Y-68195237D01*
X137097676Y-68195237D02*
X137192914Y-68290475D01*
X137192914Y-68290475D02*
X137240533Y-68385713D01*
X209357142Y-66804819D02*
X209023809Y-66328628D01*
X208785714Y-66804819D02*
X208785714Y-65804819D01*
X208785714Y-65804819D02*
X209166666Y-65804819D01*
X209166666Y-65804819D02*
X209261904Y-65852438D01*
X209261904Y-65852438D02*
X209309523Y-65900057D01*
X209309523Y-65900057D02*
X209357142Y-65995295D01*
X209357142Y-65995295D02*
X209357142Y-66138152D01*
X209357142Y-66138152D02*
X209309523Y-66233390D01*
X209309523Y-66233390D02*
X209261904Y-66281009D01*
X209261904Y-66281009D02*
X209166666Y-66328628D01*
X209166666Y-66328628D02*
X208785714Y-66328628D01*
X210309523Y-66804819D02*
X209738095Y-66804819D01*
X210023809Y-66804819D02*
X210023809Y-65804819D01*
X210023809Y-65804819D02*
X209928571Y-65947676D01*
X209928571Y-65947676D02*
X209833333Y-66042914D01*
X209833333Y-66042914D02*
X209738095Y-66090533D01*
X210690476Y-65900057D02*
X210738095Y-65852438D01*
X210738095Y-65852438D02*
X210833333Y-65804819D01*
X210833333Y-65804819D02*
X211071428Y-65804819D01*
X211071428Y-65804819D02*
X211166666Y-65852438D01*
X211166666Y-65852438D02*
X211214285Y-65900057D01*
X211214285Y-65900057D02*
X211261904Y-65995295D01*
X211261904Y-65995295D02*
X211261904Y-66090533D01*
X211261904Y-66090533D02*
X211214285Y-66233390D01*
X211214285Y-66233390D02*
X210642857Y-66804819D01*
X210642857Y-66804819D02*
X211261904Y-66804819D01*
D13*
%TO.C,D13*%
X181440000Y-93805000D02*
X181440000Y-97665000D01*
X181440000Y-93805000D02*
X184560000Y-93805000D01*
X181730000Y-93675000D02*
X181730000Y-93675000D01*
X181730000Y-93675000D02*
X181730000Y-93805000D01*
X181730000Y-93805000D02*
X181730000Y-93675000D01*
X181730000Y-93805000D02*
X181730000Y-93805000D01*
X184270000Y-93675000D02*
X184270000Y-93675000D01*
X184270000Y-93675000D02*
X184270000Y-93805000D01*
X184270000Y-93805000D02*
X184270000Y-93675000D01*
X184270000Y-93805000D02*
X184270000Y-93805000D01*
X184560000Y-93805000D02*
X184560000Y-97665000D01*
X184560000Y-93805000D02*
X184960000Y-93805000D01*
X184560000Y-94925000D02*
X184560000Y-93805000D01*
X184960000Y-93805000D02*
X184960000Y-94925000D01*
X184960000Y-94925000D02*
X184560000Y-94925000D01*
X184560000Y-97665000D02*
G75*
G02*
X181440000Y-97665000I-1560000J0D01*
G01*
%TO.C,C8*%
X146223753Y-66265000D02*
X145701247Y-66265000D01*
X146223753Y-67735000D02*
X145701247Y-67735000D01*
%TO.C,D11*%
X163440000Y-93805000D02*
X163440000Y-97665000D01*
X163440000Y-93805000D02*
X166560000Y-93805000D01*
X163730000Y-93675000D02*
X163730000Y-93675000D01*
X163730000Y-93675000D02*
X163730000Y-93805000D01*
X163730000Y-93805000D02*
X163730000Y-93675000D01*
X163730000Y-93805000D02*
X163730000Y-93805000D01*
X166270000Y-93675000D02*
X166270000Y-93675000D01*
X166270000Y-93675000D02*
X166270000Y-93805000D01*
X166270000Y-93805000D02*
X166270000Y-93675000D01*
X166270000Y-93805000D02*
X166270000Y-93805000D01*
X166560000Y-93805000D02*
X166560000Y-97665000D01*
X166560000Y-93805000D02*
X166960000Y-93805000D01*
X166560000Y-94925000D02*
X166560000Y-93805000D01*
X166960000Y-93805000D02*
X166960000Y-94925000D01*
X166960000Y-94925000D02*
X166560000Y-94925000D01*
X166560000Y-97665000D02*
G75*
G02*
X163440000Y-97665000I-1560000J0D01*
G01*
D14*
%TO.C,Q4*%
X109260000Y-88400000D02*
X109260000Y-88400000D01*
X109360000Y-88400000D02*
X109360000Y-88400000D01*
D15*
X111400000Y-89670000D02*
X114600000Y-89670000D01*
D14*
X109260000Y-88400000D02*
G75*
G02*
X109360000Y-88400000I50000J0D01*
G01*
X109360000Y-88400000D02*
G75*
G02*
X109260000Y-88400000I-50000J0D01*
G01*
D13*
%TO.C,C11*%
X174061253Y-62165000D02*
X173538747Y-62165000D01*
X174061253Y-63635000D02*
X173538747Y-63635000D01*
%TO.C,C4*%
X89400000Y-64283000D02*
X89400000Y-63717000D01*
X89440000Y-64517000D02*
X89440000Y-63483000D01*
X89480000Y-64677000D02*
X89480000Y-63323000D01*
X89520000Y-64805000D02*
X89520000Y-63195000D01*
X89560000Y-64914000D02*
X89560000Y-63086000D01*
X89600000Y-65011000D02*
X89600000Y-62989000D01*
X89640000Y-65098000D02*
X89640000Y-62902000D01*
X89680000Y-65177000D02*
X89680000Y-62823000D01*
X89720000Y-65251000D02*
X89720000Y-62749000D01*
X89760000Y-65319000D02*
X89760000Y-62681000D01*
X89800000Y-65383000D02*
X89800000Y-62617000D01*
X89840000Y-65443000D02*
X89840000Y-62557000D01*
X89880000Y-65499000D02*
X89880000Y-62501000D01*
X89920000Y-65553000D02*
X89920000Y-62447000D01*
X89960000Y-65604000D02*
X89960000Y-62396000D01*
X90000000Y-62960000D02*
X90000000Y-62348000D01*
X90000000Y-65652000D02*
X90000000Y-65040000D01*
X90040000Y-62960000D02*
X90040000Y-62301000D01*
X90040000Y-65699000D02*
X90040000Y-65040000D01*
X90080000Y-62960000D02*
X90080000Y-62257000D01*
X90080000Y-65743000D02*
X90080000Y-65040000D01*
X90120000Y-62960000D02*
X90120000Y-62215000D01*
X90120000Y-65785000D02*
X90120000Y-65040000D01*
X90160000Y-62960000D02*
X90160000Y-62175000D01*
X90160000Y-65825000D02*
X90160000Y-65040000D01*
X90200000Y-62960000D02*
X90200000Y-62136000D01*
X90200000Y-65864000D02*
X90200000Y-65040000D01*
X90240000Y-62960000D02*
X90240000Y-62099000D01*
X90240000Y-65901000D02*
X90240000Y-65040000D01*
X90280000Y-62960000D02*
X90280000Y-62064000D01*
X90280000Y-65936000D02*
X90280000Y-65040000D01*
X90320000Y-62960000D02*
X90320000Y-62030000D01*
X90320000Y-65970000D02*
X90320000Y-65040000D01*
X90360000Y-62960000D02*
X90360000Y-61997000D01*
X90360000Y-66003000D02*
X90360000Y-65040000D01*
X90400000Y-62960000D02*
X90400000Y-61965000D01*
X90400000Y-66035000D02*
X90400000Y-65040000D01*
X90440000Y-62960000D02*
X90440000Y-61935000D01*
X90440000Y-66065000D02*
X90440000Y-65040000D01*
X90480000Y-62960000D02*
X90480000Y-61906000D01*
X90480000Y-66094000D02*
X90480000Y-65040000D01*
X90520000Y-62960000D02*
X90520000Y-61878000D01*
X90520000Y-66122000D02*
X90520000Y-65040000D01*
X90560000Y-62960000D02*
X90560000Y-61851000D01*
X90560000Y-66149000D02*
X90560000Y-65040000D01*
X90600000Y-62960000D02*
X90600000Y-61825000D01*
X90600000Y-66175000D02*
X90600000Y-65040000D01*
X90640000Y-62960000D02*
X90640000Y-61801000D01*
X90640000Y-66199000D02*
X90640000Y-65040000D01*
X90680000Y-62960000D02*
X90680000Y-61777000D01*
X90680000Y-66223000D02*
X90680000Y-65040000D01*
X90720000Y-62960000D02*
X90720000Y-61754000D01*
X90720000Y-66246000D02*
X90720000Y-65040000D01*
X90760000Y-62960000D02*
X90760000Y-61732000D01*
X90760000Y-66268000D02*
X90760000Y-65040000D01*
X90800000Y-62960000D02*
X90800000Y-61711000D01*
X90800000Y-66289000D02*
X90800000Y-65040000D01*
X90840000Y-62960000D02*
X90840000Y-61691000D01*
X90840000Y-66309000D02*
X90840000Y-65040000D01*
X90880000Y-62960000D02*
X90880000Y-61671000D01*
X90880000Y-66329000D02*
X90880000Y-65040000D01*
X90920000Y-62960000D02*
X90920000Y-61653000D01*
X90920000Y-66347000D02*
X90920000Y-65040000D01*
X90960000Y-62960000D02*
X90960000Y-61635000D01*
X90960000Y-66365000D02*
X90960000Y-65040000D01*
X91000000Y-62960000D02*
X91000000Y-61618000D01*
X91000000Y-66382000D02*
X91000000Y-65040000D01*
X91040000Y-62960000D02*
X91040000Y-61602000D01*
X91040000Y-66398000D02*
X91040000Y-65040000D01*
X91080000Y-62960000D02*
X91080000Y-61587000D01*
X91080000Y-66413000D02*
X91080000Y-65040000D01*
X91120000Y-62960000D02*
X91120000Y-61572000D01*
X91120000Y-66428000D02*
X91120000Y-65040000D01*
X91160000Y-62960000D02*
X91160000Y-61558000D01*
X91160000Y-66442000D02*
X91160000Y-65040000D01*
X91200000Y-62960000D02*
X91200000Y-61545000D01*
X91200000Y-66455000D02*
X91200000Y-65040000D01*
X91240000Y-62960000D02*
X91240000Y-61533000D01*
X91240000Y-66467000D02*
X91240000Y-65040000D01*
X91280000Y-62960000D02*
X91280000Y-61521000D01*
X91280000Y-66479000D02*
X91280000Y-65040000D01*
X91320000Y-62960000D02*
X91320000Y-61510000D01*
X91320000Y-66490000D02*
X91320000Y-65040000D01*
X91360000Y-62960000D02*
X91360000Y-61499000D01*
X91360000Y-66501000D02*
X91360000Y-65040000D01*
X91400000Y-62960000D02*
X91400000Y-61490000D01*
X91400000Y-66510000D02*
X91400000Y-65040000D01*
X91440000Y-62960000D02*
X91440000Y-61481000D01*
X91440000Y-66519000D02*
X91440000Y-65040000D01*
X91480000Y-62960000D02*
X91480000Y-61472000D01*
X91480000Y-66528000D02*
X91480000Y-65040000D01*
X91520000Y-62960000D02*
X91520000Y-61464000D01*
X91520000Y-66536000D02*
X91520000Y-65040000D01*
X91560000Y-62960000D02*
X91560000Y-61457000D01*
X91560000Y-66543000D02*
X91560000Y-65040000D01*
X91600000Y-62960000D02*
X91600000Y-61451000D01*
X91600000Y-66549000D02*
X91600000Y-65040000D01*
X91640000Y-62960000D02*
X91640000Y-61445000D01*
X91640000Y-66555000D02*
X91640000Y-65040000D01*
X91680000Y-62960000D02*
X91680000Y-61440000D01*
X91680000Y-66560000D02*
X91680000Y-65040000D01*
X91720000Y-62960000D02*
X91720000Y-61435000D01*
X91720000Y-66565000D02*
X91720000Y-65040000D01*
X91760000Y-62960000D02*
X91760000Y-61431000D01*
X91760000Y-66569000D02*
X91760000Y-65040000D01*
X91800000Y-62960000D02*
X91800000Y-61428000D01*
X91800000Y-66572000D02*
X91800000Y-65040000D01*
X91840000Y-62960000D02*
X91840000Y-61425000D01*
X91840000Y-66575000D02*
X91840000Y-65040000D01*
X91880000Y-62960000D02*
X91880000Y-61423000D01*
X91880000Y-66577000D02*
X91880000Y-65040000D01*
X91920000Y-62960000D02*
X91920000Y-61421000D01*
X91920000Y-66579000D02*
X91920000Y-65040000D01*
X91960000Y-62960000D02*
X91960000Y-61420000D01*
X91960000Y-66580000D02*
X91960000Y-65040000D01*
X92000000Y-62960000D02*
X92000000Y-61420000D01*
X92000000Y-66580000D02*
X92000000Y-65040000D01*
X94554775Y-65725000D02*
X94554775Y-65225000D01*
X94804775Y-65475000D02*
X94304775Y-65475000D01*
X94620000Y-64000000D02*
G75*
G02*
X89380000Y-64000000I-2620000J0D01*
G01*
X89380000Y-64000000D02*
G75*
G02*
X94620000Y-64000000I2620000J0D01*
G01*
%TO.C,C10*%
X111195225Y-62525000D02*
X111695225Y-62525000D01*
X111445225Y-62275000D02*
X111445225Y-62775000D01*
X114000000Y-61420000D02*
X114000000Y-62960000D01*
X114000000Y-65040000D02*
X114000000Y-66580000D01*
X114040000Y-61420000D02*
X114040000Y-62960000D01*
X114040000Y-65040000D02*
X114040000Y-66580000D01*
X114080000Y-61421000D02*
X114080000Y-62960000D01*
X114080000Y-65040000D02*
X114080000Y-66579000D01*
X114120000Y-61423000D02*
X114120000Y-62960000D01*
X114120000Y-65040000D02*
X114120000Y-66577000D01*
X114160000Y-61425000D02*
X114160000Y-62960000D01*
X114160000Y-65040000D02*
X114160000Y-66575000D01*
X114200000Y-61428000D02*
X114200000Y-62960000D01*
X114200000Y-65040000D02*
X114200000Y-66572000D01*
X114240000Y-61431000D02*
X114240000Y-62960000D01*
X114240000Y-65040000D02*
X114240000Y-66569000D01*
X114280000Y-61435000D02*
X114280000Y-62960000D01*
X114280000Y-65040000D02*
X114280000Y-66565000D01*
X114320000Y-61440000D02*
X114320000Y-62960000D01*
X114320000Y-65040000D02*
X114320000Y-66560000D01*
X114360000Y-61445000D02*
X114360000Y-62960000D01*
X114360000Y-65040000D02*
X114360000Y-66555000D01*
X114400000Y-61451000D02*
X114400000Y-62960000D01*
X114400000Y-65040000D02*
X114400000Y-66549000D01*
X114440000Y-61457000D02*
X114440000Y-62960000D01*
X114440000Y-65040000D02*
X114440000Y-66543000D01*
X114480000Y-61464000D02*
X114480000Y-62960000D01*
X114480000Y-65040000D02*
X114480000Y-66536000D01*
X114520000Y-61472000D02*
X114520000Y-62960000D01*
X114520000Y-65040000D02*
X114520000Y-66528000D01*
X114560000Y-61481000D02*
X114560000Y-62960000D01*
X114560000Y-65040000D02*
X114560000Y-66519000D01*
X114600000Y-61490000D02*
X114600000Y-62960000D01*
X114600000Y-65040000D02*
X114600000Y-66510000D01*
X114640000Y-61499000D02*
X114640000Y-62960000D01*
X114640000Y-65040000D02*
X114640000Y-66501000D01*
X114680000Y-61510000D02*
X114680000Y-62960000D01*
X114680000Y-65040000D02*
X114680000Y-66490000D01*
X114720000Y-61521000D02*
X114720000Y-62960000D01*
X114720000Y-65040000D02*
X114720000Y-66479000D01*
X114760000Y-61533000D02*
X114760000Y-62960000D01*
X114760000Y-65040000D02*
X114760000Y-66467000D01*
X114800000Y-61545000D02*
X114800000Y-62960000D01*
X114800000Y-65040000D02*
X114800000Y-66455000D01*
X114840000Y-61558000D02*
X114840000Y-62960000D01*
X114840000Y-65040000D02*
X114840000Y-66442000D01*
X114880000Y-61572000D02*
X114880000Y-62960000D01*
X114880000Y-65040000D02*
X114880000Y-66428000D01*
X114920000Y-61587000D02*
X114920000Y-62960000D01*
X114920000Y-65040000D02*
X114920000Y-66413000D01*
X114960000Y-61602000D02*
X114960000Y-62960000D01*
X114960000Y-65040000D02*
X114960000Y-66398000D01*
X115000000Y-61618000D02*
X115000000Y-62960000D01*
X115000000Y-65040000D02*
X115000000Y-66382000D01*
X115040000Y-61635000D02*
X115040000Y-62960000D01*
X115040000Y-65040000D02*
X115040000Y-66365000D01*
X115080000Y-61653000D02*
X115080000Y-62960000D01*
X115080000Y-65040000D02*
X115080000Y-66347000D01*
X115120000Y-61671000D02*
X115120000Y-62960000D01*
X115120000Y-65040000D02*
X115120000Y-66329000D01*
X115160000Y-61691000D02*
X115160000Y-62960000D01*
X115160000Y-65040000D02*
X115160000Y-66309000D01*
X115200000Y-61711000D02*
X115200000Y-62960000D01*
X115200000Y-65040000D02*
X115200000Y-66289000D01*
X115240000Y-61732000D02*
X115240000Y-62960000D01*
X115240000Y-65040000D02*
X115240000Y-66268000D01*
X115280000Y-61754000D02*
X115280000Y-62960000D01*
X115280000Y-65040000D02*
X115280000Y-66246000D01*
X115320000Y-61777000D02*
X115320000Y-62960000D01*
X115320000Y-65040000D02*
X115320000Y-66223000D01*
X115360000Y-61801000D02*
X115360000Y-62960000D01*
X115360000Y-65040000D02*
X115360000Y-66199000D01*
X115400000Y-61825000D02*
X115400000Y-62960000D01*
X115400000Y-65040000D02*
X115400000Y-66175000D01*
X115440000Y-61851000D02*
X115440000Y-62960000D01*
X115440000Y-65040000D02*
X115440000Y-66149000D01*
X115480000Y-61878000D02*
X115480000Y-62960000D01*
X115480000Y-65040000D02*
X115480000Y-66122000D01*
X115520000Y-61906000D02*
X115520000Y-62960000D01*
X115520000Y-65040000D02*
X115520000Y-66094000D01*
X115560000Y-61935000D02*
X115560000Y-62960000D01*
X115560000Y-65040000D02*
X115560000Y-66065000D01*
X115600000Y-61965000D02*
X115600000Y-62960000D01*
X115600000Y-65040000D02*
X115600000Y-66035000D01*
X115640000Y-61997000D02*
X115640000Y-62960000D01*
X115640000Y-65040000D02*
X115640000Y-66003000D01*
X115680000Y-62030000D02*
X115680000Y-62960000D01*
X115680000Y-65040000D02*
X115680000Y-65970000D01*
X115720000Y-62064000D02*
X115720000Y-62960000D01*
X115720000Y-65040000D02*
X115720000Y-65936000D01*
X115760000Y-62099000D02*
X115760000Y-62960000D01*
X115760000Y-65040000D02*
X115760000Y-65901000D01*
X115800000Y-62136000D02*
X115800000Y-62960000D01*
X115800000Y-65040000D02*
X115800000Y-65864000D01*
X115840000Y-62175000D02*
X115840000Y-62960000D01*
X115840000Y-65040000D02*
X115840000Y-65825000D01*
X115880000Y-62215000D02*
X115880000Y-62960000D01*
X115880000Y-65040000D02*
X115880000Y-65785000D01*
X115920000Y-62257000D02*
X115920000Y-62960000D01*
X115920000Y-65040000D02*
X115920000Y-65743000D01*
X115960000Y-62301000D02*
X115960000Y-62960000D01*
X115960000Y-65040000D02*
X115960000Y-65699000D01*
X116000000Y-62348000D02*
X116000000Y-62960000D01*
X116000000Y-65040000D02*
X116000000Y-65652000D01*
X116040000Y-62396000D02*
X116040000Y-65604000D01*
X116080000Y-62447000D02*
X116080000Y-65553000D01*
X116120000Y-62501000D02*
X116120000Y-65499000D01*
X116160000Y-62557000D02*
X116160000Y-65443000D01*
X116200000Y-62617000D02*
X116200000Y-65383000D01*
X116240000Y-62681000D02*
X116240000Y-65319000D01*
X116280000Y-62749000D02*
X116280000Y-65251000D01*
X116320000Y-62823000D02*
X116320000Y-65177000D01*
X116360000Y-62902000D02*
X116360000Y-65098000D01*
X116400000Y-62989000D02*
X116400000Y-65011000D01*
X116440000Y-63086000D02*
X116440000Y-64914000D01*
X116480000Y-63195000D02*
X116480000Y-64805000D01*
X116520000Y-63323000D02*
X116520000Y-64677000D01*
X116560000Y-63483000D02*
X116560000Y-64517000D01*
X116600000Y-63717000D02*
X116600000Y-64283000D01*
X116620000Y-64000000D02*
G75*
G02*
X111380000Y-64000000I-2620000J0D01*
G01*
X111380000Y-64000000D02*
G75*
G02*
X116620000Y-64000000I2620000J0D01*
G01*
%TO.C,R10*%
X209772936Y-63265000D02*
X210227064Y-63265000D01*
X209772936Y-64735000D02*
X210227064Y-64735000D01*
%TO.C,D16*%
X208440000Y-93805000D02*
X208440000Y-97665000D01*
X208440000Y-93805000D02*
X211560000Y-93805000D01*
X208730000Y-93675000D02*
X208730000Y-93675000D01*
X208730000Y-93675000D02*
X208730000Y-93805000D01*
X208730000Y-93805000D02*
X208730000Y-93675000D01*
X208730000Y-93805000D02*
X208730000Y-93805000D01*
X211270000Y-93675000D02*
X211270000Y-93675000D01*
X211270000Y-93675000D02*
X211270000Y-93805000D01*
X211270000Y-93805000D02*
X211270000Y-93675000D01*
X211270000Y-93805000D02*
X211270000Y-93805000D01*
X211560000Y-93805000D02*
X211560000Y-97665000D01*
X211560000Y-93805000D02*
X211960000Y-93805000D01*
X211560000Y-94925000D02*
X211560000Y-93805000D01*
X211960000Y-93805000D02*
X211960000Y-94925000D01*
X211960000Y-94925000D02*
X211560000Y-94925000D01*
X211560000Y-97665000D02*
G75*
G02*
X208440000Y-97665000I-1560000J0D01*
G01*
D15*
%TO.C,J1*%
X34220000Y-63545000D02*
X40020000Y-63545000D01*
X34220000Y-67545000D02*
X34220000Y-63545000D01*
X34220000Y-69380000D02*
X34220000Y-85710000D01*
X34220000Y-85710000D02*
X40020000Y-85710000D01*
X34220000Y-87545000D02*
X34220000Y-91545000D01*
X34220000Y-91545000D02*
X40020000Y-91545000D01*
X40020000Y-62140000D02*
X52520000Y-62140000D01*
X40020000Y-67545000D02*
X34220000Y-67545000D01*
X40020000Y-69380000D02*
X34220000Y-69380000D01*
X40020000Y-87545000D02*
X34220000Y-87545000D01*
X40020000Y-92950000D02*
X40020000Y-62140000D01*
X52520000Y-62140000D02*
X52520000Y-92950000D01*
X52520000Y-92950000D02*
X40020000Y-92950000D01*
D14*
X52940000Y-83085000D02*
X52940000Y-83085000D01*
X53040000Y-83085000D02*
X53040000Y-83085000D01*
X52940000Y-83085000D02*
G75*
G02*
X53040000Y-83085000I50000J0D01*
G01*
X53040000Y-83085000D02*
G75*
G02*
X52940000Y-83085000I-50000J0D01*
G01*
%TO.C,Q3*%
X100260000Y-88400000D02*
X100260000Y-88400000D01*
X100360000Y-88400000D02*
X100360000Y-88400000D01*
D15*
X102400000Y-89670000D02*
X105600000Y-89670000D01*
D14*
X100260000Y-88400000D02*
G75*
G02*
X100360000Y-88400000I50000J0D01*
G01*
X100360000Y-88400000D02*
G75*
G02*
X100260000Y-88400000I-50000J0D01*
G01*
%TO.C,Q12*%
X188260000Y-88430000D02*
X188260000Y-88430000D01*
X188360000Y-88430000D02*
X188360000Y-88430000D01*
D15*
X190400000Y-89700000D02*
X193600000Y-89700000D01*
D14*
X188260000Y-88430000D02*
G75*
G02*
X188360000Y-88430000I50000J0D01*
G01*
X188360000Y-88430000D02*
G75*
G02*
X188260000Y-88430000I-50000J0D01*
G01*
D15*
%TO.C,LS1*%
X217000000Y-70400000D02*
X217000000Y-70400000D01*
X217000000Y-79600000D02*
X217000000Y-79600000D01*
D14*
X217000000Y-80100001D02*
X217000000Y-80100001D01*
X217000000Y-80200000D02*
X217000000Y-80200000D01*
D15*
X217000000Y-70400000D02*
G75*
G02*
X217000000Y-79600000I0J-4600000D01*
G01*
X217000000Y-79600000D02*
G75*
G02*
X217000000Y-70400000I0J4600000D01*
G01*
D14*
X217000000Y-80100001D02*
G75*
G02*
X217000000Y-80200001I1J-50000D01*
G01*
X217000000Y-80200000D02*
G75*
G02*
X217000000Y-80100000I0J50000D01*
G01*
D13*
%TO.C,D15*%
X199440000Y-93805000D02*
X199440000Y-97665000D01*
X199440000Y-93805000D02*
X202560000Y-93805000D01*
X199730000Y-93675000D02*
X199730000Y-93675000D01*
X199730000Y-93675000D02*
X199730000Y-93805000D01*
X199730000Y-93805000D02*
X199730000Y-93675000D01*
X199730000Y-93805000D02*
X199730000Y-93805000D01*
X202270000Y-93675000D02*
X202270000Y-93675000D01*
X202270000Y-93675000D02*
X202270000Y-93805000D01*
X202270000Y-93805000D02*
X202270000Y-93675000D01*
X202270000Y-93805000D02*
X202270000Y-93805000D01*
X202560000Y-93805000D02*
X202560000Y-97665000D01*
X202560000Y-93805000D02*
X202960000Y-93805000D01*
X202560000Y-94925000D02*
X202560000Y-93805000D01*
X202960000Y-93805000D02*
X202960000Y-94925000D01*
X202960000Y-94925000D02*
X202560000Y-94925000D01*
X202560000Y-97665000D02*
G75*
G02*
X199440000Y-97665000I-1560000J0D01*
G01*
D14*
%TO.C,Q9*%
X161260000Y-88430000D02*
X161260000Y-88430000D01*
X161360000Y-88430000D02*
X161360000Y-88430000D01*
D15*
X163400000Y-89700000D02*
X166600000Y-89700000D01*
D14*
X161260000Y-88430000D02*
G75*
G02*
X161360000Y-88430000I50000J0D01*
G01*
X161360000Y-88430000D02*
G75*
G02*
X161260000Y-88430000I-50000J0D01*
G01*
D13*
%TO.C,C2*%
X136665000Y-73923753D02*
X136665000Y-73401247D01*
X138135000Y-73923753D02*
X138135000Y-73401247D01*
D14*
%TO.C,Q13*%
X197260000Y-88430000D02*
X197260000Y-88430000D01*
X197360000Y-88430000D02*
X197360000Y-88430000D01*
D15*
X199400000Y-89700000D02*
X202600000Y-89700000D01*
D14*
X197260000Y-88430000D02*
G75*
G02*
X197360000Y-88430000I50000J0D01*
G01*
X197360000Y-88430000D02*
G75*
G02*
X197260000Y-88430000I-50000J0D01*
G01*
D13*
%TO.C,C3*%
X140123753Y-61165000D02*
X139601247Y-61165000D01*
X140123753Y-62635000D02*
X139601247Y-62635000D01*
D15*
%TO.C,Q1*%
X218500000Y-64200000D02*
X215300000Y-64199999D01*
D14*
X220539999Y-65470000D02*
X220539999Y-65470000D01*
X220640000Y-65470000D02*
X220640000Y-65470000D01*
X220539999Y-65470000D02*
G75*
G02*
X220640001Y-65470000I50001J-1D01*
G01*
X220640000Y-65470000D02*
G75*
G02*
X220540000Y-65470000I-50000J1D01*
G01*
D15*
%TO.C,PS2*%
X104790000Y-68680000D02*
X104790000Y-77680000D01*
X104790000Y-77680000D02*
X116290000Y-77680000D01*
X106800000Y-68680000D02*
X104790000Y-68680000D01*
D14*
X108000000Y-67700000D02*
X108000000Y-67700000D01*
X108000000Y-67800000D02*
X108000000Y-67800000D01*
D15*
X116290000Y-68680000D02*
X114200000Y-68680000D01*
X116290000Y-77680000D02*
X116290000Y-68680000D01*
D14*
X108000000Y-67700000D02*
G75*
G02*
X108000000Y-67800000I0J-50000D01*
G01*
X108000000Y-67800000D02*
G75*
G02*
X108000000Y-67700000I0J50000D01*
G01*
D13*
%TO.C,D10*%
X154440000Y-93805000D02*
X154440000Y-97665000D01*
X154440000Y-93805000D02*
X157560000Y-93805000D01*
X154730000Y-93675000D02*
X154730000Y-93675000D01*
X154730000Y-93675000D02*
X154730000Y-93805000D01*
X154730000Y-93805000D02*
X154730000Y-93675000D01*
X154730000Y-93805000D02*
X154730000Y-93805000D01*
X157270000Y-93675000D02*
X157270000Y-93675000D01*
X157270000Y-93675000D02*
X157270000Y-93805000D01*
X157270000Y-93805000D02*
X157270000Y-93675000D01*
X157270000Y-93805000D02*
X157270000Y-93805000D01*
X157560000Y-93805000D02*
X157560000Y-97665000D01*
X157560000Y-93805000D02*
X157960000Y-93805000D01*
X157560000Y-94925000D02*
X157560000Y-93805000D01*
X157960000Y-93805000D02*
X157960000Y-94925000D01*
X157960000Y-94925000D02*
X157560000Y-94925000D01*
X157560000Y-97665000D02*
G75*
G02*
X154440000Y-97665000I-1560000J0D01*
G01*
%TO.C,TP3*%
X120550000Y-64700000D02*
G75*
G02*
X117650000Y-64700000I-1450000J0D01*
G01*
X117650000Y-64700000D02*
G75*
G02*
X120550000Y-64700000I1450000J0D01*
G01*
%TO.C,TP2*%
X87950000Y-68400000D02*
G75*
G02*
X85050000Y-68400000I-1450000J0D01*
G01*
X85050000Y-68400000D02*
G75*
G02*
X87950000Y-68400000I1450000J0D01*
G01*
%TO.C,R2*%
X58772936Y-87865000D02*
X59227064Y-87865000D01*
X58772936Y-89335000D02*
X59227064Y-89335000D01*
D14*
%TO.C,Q10*%
X170260000Y-88430000D02*
X170260000Y-88430000D01*
X170360000Y-88430000D02*
X170360000Y-88430000D01*
D15*
X172400000Y-89700000D02*
X175600000Y-89700000D01*
D14*
X170260000Y-88430000D02*
G75*
G02*
X170360000Y-88430000I50000J0D01*
G01*
X170360000Y-88430000D02*
G75*
G02*
X170260000Y-88430000I-50000J0D01*
G01*
D15*
%TO.C,IC2*%
X126550000Y-74550000D02*
X126550000Y-72550000D01*
X132050000Y-70550000D02*
X127050000Y-70550000D01*
X132050000Y-76550000D02*
X127050000Y-76550000D01*
X132550000Y-74550000D02*
X132550000Y-72550000D01*
D14*
X135649999Y-75750000D02*
X135649999Y-75750000D01*
X135650000Y-75850000D02*
X135650000Y-75850000D01*
X135649999Y-75750000D02*
G75*
G02*
X135650000Y-75850000I1J-50000D01*
G01*
X135650000Y-75850000D02*
G75*
G02*
X135649999Y-75750000I0J50000D01*
G01*
D13*
%TO.C,TP10*%
X167650000Y-67500000D02*
G75*
G02*
X164750000Y-67500000I-1450000J0D01*
G01*
X164750000Y-67500000D02*
G75*
G02*
X167650000Y-67500000I1450000J0D01*
G01*
%TO.C,C7*%
X146223753Y-63665000D02*
X145701247Y-63665000D01*
X146223753Y-65135000D02*
X145701247Y-65135000D01*
%TO.C,D4*%
X93440000Y-93775000D02*
X93440000Y-97635000D01*
X93440000Y-93775000D02*
X96560000Y-93775000D01*
X93730000Y-93645000D02*
X93730000Y-93645000D01*
X93730000Y-93645000D02*
X93730000Y-93775000D01*
X93730000Y-93775000D02*
X93730000Y-93645000D01*
X93730000Y-93775000D02*
X93730000Y-93775000D01*
X96270000Y-93645000D02*
X96270000Y-93645000D01*
X96270000Y-93645000D02*
X96270000Y-93775000D01*
X96270000Y-93775000D02*
X96270000Y-93645000D01*
X96270000Y-93775000D02*
X96270000Y-93775000D01*
X96560000Y-93775000D02*
X96560000Y-97635000D01*
X96560000Y-93775000D02*
X96960000Y-93775000D01*
X96560000Y-94895000D02*
X96560000Y-93775000D01*
X96960000Y-93775000D02*
X96960000Y-94895000D01*
X96960000Y-94895000D02*
X96560000Y-94895000D01*
X96560000Y-97635000D02*
G75*
G02*
X93440000Y-97635000I-1560000J0D01*
G01*
%TO.C,D6*%
X111440000Y-93775000D02*
X111440000Y-97635000D01*
X111440000Y-93775000D02*
X114560000Y-93775000D01*
X111730000Y-93645000D02*
X111730000Y-93645000D01*
X111730000Y-93645000D02*
X111730000Y-93775000D01*
X111730000Y-93775000D02*
X111730000Y-93645000D01*
X111730000Y-93775000D02*
X111730000Y-93775000D01*
X114270000Y-93645000D02*
X114270000Y-93645000D01*
X114270000Y-93645000D02*
X114270000Y-93775000D01*
X114270000Y-93775000D02*
X114270000Y-93645000D01*
X114270000Y-93775000D02*
X114270000Y-93775000D01*
X114560000Y-93775000D02*
X114560000Y-97635000D01*
X114560000Y-93775000D02*
X114960000Y-93775000D01*
X114560000Y-94895000D02*
X114560000Y-93775000D01*
X114960000Y-93775000D02*
X114960000Y-94895000D01*
X114960000Y-94895000D02*
X114560000Y-94895000D01*
X114560000Y-97635000D02*
G75*
G02*
X111440000Y-97635000I-1560000J0D01*
G01*
%TO.C,D12*%
X172440000Y-93805000D02*
X172440000Y-97665000D01*
X172440000Y-93805000D02*
X175560000Y-93805000D01*
X172730000Y-93675000D02*
X172730000Y-93675000D01*
X172730000Y-93675000D02*
X172730000Y-93805000D01*
X172730000Y-93805000D02*
X172730000Y-93675000D01*
X172730000Y-93805000D02*
X172730000Y-93805000D01*
X175270000Y-93675000D02*
X175270000Y-93675000D01*
X175270000Y-93675000D02*
X175270000Y-93805000D01*
X175270000Y-93805000D02*
X175270000Y-93675000D01*
X175270000Y-93805000D02*
X175270000Y-93805000D01*
X175560000Y-93805000D02*
X175560000Y-97665000D01*
X175560000Y-93805000D02*
X175960000Y-93805000D01*
X175560000Y-94925000D02*
X175560000Y-93805000D01*
X175960000Y-93805000D02*
X175960000Y-94925000D01*
X175960000Y-94925000D02*
X175560000Y-94925000D01*
X175560000Y-97665000D02*
G75*
G02*
X172440000Y-97665000I-1560000J0D01*
G01*
%TO.C,R13*%
X117765000Y-77227064D02*
X117765000Y-76772936D01*
X119235000Y-77227064D02*
X119235000Y-76772936D01*
D15*
%TO.C,IC1*%
X126550000Y-66350000D02*
X126550000Y-64350000D01*
X132050000Y-62350000D02*
X127050000Y-62350000D01*
X132050000Y-68350000D02*
X127050000Y-68350000D01*
X132550000Y-66350000D02*
X132550000Y-64350000D01*
D14*
X135649999Y-67550000D02*
X135649999Y-67550000D01*
X135650000Y-67650000D02*
X135650000Y-67650000D01*
X135649999Y-67550000D02*
G75*
G02*
X135650000Y-67650000I1J-50000D01*
G01*
X135650000Y-67650000D02*
G75*
G02*
X135649999Y-67550000I0J50000D01*
G01*
D13*
%TO.C,R1*%
X66872936Y-64165000D02*
X67327064Y-64165000D01*
X66872936Y-65635000D02*
X67327064Y-65635000D01*
%TO.C,C5*%
X96195225Y-62525000D02*
X96695225Y-62525000D01*
X96445225Y-62275000D02*
X96445225Y-62775000D01*
X99000000Y-61420000D02*
X99000000Y-62960000D01*
X99000000Y-65040000D02*
X99000000Y-66580000D01*
X99040000Y-61420000D02*
X99040000Y-62960000D01*
X99040000Y-65040000D02*
X99040000Y-66580000D01*
X99080000Y-61421000D02*
X99080000Y-62960000D01*
X99080000Y-65040000D02*
X99080000Y-66579000D01*
X99120000Y-61423000D02*
X99120000Y-62960000D01*
X99120000Y-65040000D02*
X99120000Y-66577000D01*
X99160000Y-61425000D02*
X99160000Y-62960000D01*
X99160000Y-65040000D02*
X99160000Y-66575000D01*
X99200000Y-61428000D02*
X99200000Y-62960000D01*
X99200000Y-65040000D02*
X99200000Y-66572000D01*
X99240000Y-61431000D02*
X99240000Y-62960000D01*
X99240000Y-65040000D02*
X99240000Y-66569000D01*
X99280000Y-61435000D02*
X99280000Y-62960000D01*
X99280000Y-65040000D02*
X99280000Y-66565000D01*
X99320000Y-61440000D02*
X99320000Y-62960000D01*
X99320000Y-65040000D02*
X99320000Y-66560000D01*
X99360000Y-61445000D02*
X99360000Y-62960000D01*
X99360000Y-65040000D02*
X99360000Y-66555000D01*
X99400000Y-61451000D02*
X99400000Y-62960000D01*
X99400000Y-65040000D02*
X99400000Y-66549000D01*
X99440000Y-61457000D02*
X99440000Y-62960000D01*
X99440000Y-65040000D02*
X99440000Y-66543000D01*
X99480000Y-61464000D02*
X99480000Y-62960000D01*
X99480000Y-65040000D02*
X99480000Y-66536000D01*
X99520000Y-61472000D02*
X99520000Y-62960000D01*
X99520000Y-65040000D02*
X99520000Y-66528000D01*
X99560000Y-61481000D02*
X99560000Y-62960000D01*
X99560000Y-65040000D02*
X99560000Y-66519000D01*
X99600000Y-61490000D02*
X99600000Y-62960000D01*
X99600000Y-65040000D02*
X99600000Y-66510000D01*
X99640000Y-61499000D02*
X99640000Y-62960000D01*
X99640000Y-65040000D02*
X99640000Y-66501000D01*
X99680000Y-61510000D02*
X99680000Y-62960000D01*
X99680000Y-65040000D02*
X99680000Y-66490000D01*
X99720000Y-61521000D02*
X99720000Y-62960000D01*
X99720000Y-65040000D02*
X99720000Y-66479000D01*
X99760000Y-61533000D02*
X99760000Y-62960000D01*
X99760000Y-65040000D02*
X99760000Y-66467000D01*
X99800000Y-61545000D02*
X99800000Y-62960000D01*
X99800000Y-65040000D02*
X99800000Y-66455000D01*
X99840000Y-61558000D02*
X99840000Y-62960000D01*
X99840000Y-65040000D02*
X99840000Y-66442000D01*
X99880000Y-61572000D02*
X99880000Y-62960000D01*
X99880000Y-65040000D02*
X99880000Y-66428000D01*
X99920000Y-61587000D02*
X99920000Y-62960000D01*
X99920000Y-65040000D02*
X99920000Y-66413000D01*
X99960000Y-61602000D02*
X99960000Y-62960000D01*
X99960000Y-65040000D02*
X99960000Y-66398000D01*
X100000000Y-61618000D02*
X100000000Y-62960000D01*
X100000000Y-65040000D02*
X100000000Y-66382000D01*
X100040000Y-61635000D02*
X100040000Y-62960000D01*
X100040000Y-65040000D02*
X100040000Y-66365000D01*
X100080000Y-61653000D02*
X100080000Y-62960000D01*
X100080000Y-65040000D02*
X100080000Y-66347000D01*
X100120000Y-61671000D02*
X100120000Y-62960000D01*
X100120000Y-65040000D02*
X100120000Y-66329000D01*
X100160000Y-61691000D02*
X100160000Y-62960000D01*
X100160000Y-65040000D02*
X100160000Y-66309000D01*
X100200000Y-61711000D02*
X100200000Y-62960000D01*
X100200000Y-65040000D02*
X100200000Y-66289000D01*
X100240000Y-61732000D02*
X100240000Y-62960000D01*
X100240000Y-65040000D02*
X100240000Y-66268000D01*
X100280000Y-61754000D02*
X100280000Y-62960000D01*
X100280000Y-65040000D02*
X100280000Y-66246000D01*
X100320000Y-61777000D02*
X100320000Y-62960000D01*
X100320000Y-65040000D02*
X100320000Y-66223000D01*
X100360000Y-61801000D02*
X100360000Y-62960000D01*
X100360000Y-65040000D02*
X100360000Y-66199000D01*
X100400000Y-61825000D02*
X100400000Y-62960000D01*
X100400000Y-65040000D02*
X100400000Y-66175000D01*
X100440000Y-61851000D02*
X100440000Y-62960000D01*
X100440000Y-65040000D02*
X100440000Y-66149000D01*
X100480000Y-61878000D02*
X100480000Y-62960000D01*
X100480000Y-65040000D02*
X100480000Y-66122000D01*
X100520000Y-61906000D02*
X100520000Y-62960000D01*
X100520000Y-65040000D02*
X100520000Y-66094000D01*
X100560000Y-61935000D02*
X100560000Y-62960000D01*
X100560000Y-65040000D02*
X100560000Y-66065000D01*
X100600000Y-61965000D02*
X100600000Y-62960000D01*
X100600000Y-65040000D02*
X100600000Y-66035000D01*
X100640000Y-61997000D02*
X100640000Y-62960000D01*
X100640000Y-65040000D02*
X100640000Y-66003000D01*
X100680000Y-62030000D02*
X100680000Y-62960000D01*
X100680000Y-65040000D02*
X100680000Y-65970000D01*
X100720000Y-62064000D02*
X100720000Y-62960000D01*
X100720000Y-65040000D02*
X100720000Y-65936000D01*
X100760000Y-62099000D02*
X100760000Y-62960000D01*
X100760000Y-65040000D02*
X100760000Y-65901000D01*
X100800000Y-62136000D02*
X100800000Y-62960000D01*
X100800000Y-65040000D02*
X100800000Y-65864000D01*
X100840000Y-62175000D02*
X100840000Y-62960000D01*
X100840000Y-65040000D02*
X100840000Y-65825000D01*
X100880000Y-62215000D02*
X100880000Y-62960000D01*
X100880000Y-65040000D02*
X100880000Y-65785000D01*
X100920000Y-62257000D02*
X100920000Y-62960000D01*
X100920000Y-65040000D02*
X100920000Y-65743000D01*
X100960000Y-62301000D02*
X100960000Y-62960000D01*
X100960000Y-65040000D02*
X100960000Y-65699000D01*
X101000000Y-62348000D02*
X101000000Y-62960000D01*
X101000000Y-65040000D02*
X101000000Y-65652000D01*
X101040000Y-62396000D02*
X101040000Y-65604000D01*
X101080000Y-62447000D02*
X101080000Y-65553000D01*
X101120000Y-62501000D02*
X101120000Y-65499000D01*
X101160000Y-62557000D02*
X101160000Y-65443000D01*
X101200000Y-62617000D02*
X101200000Y-65383000D01*
X101240000Y-62681000D02*
X101240000Y-65319000D01*
X101280000Y-62749000D02*
X101280000Y-65251000D01*
X101320000Y-62823000D02*
X101320000Y-65177000D01*
X101360000Y-62902000D02*
X101360000Y-65098000D01*
X101400000Y-62989000D02*
X101400000Y-65011000D01*
X101440000Y-63086000D02*
X101440000Y-64914000D01*
X101480000Y-63195000D02*
X101480000Y-64805000D01*
X101520000Y-63323000D02*
X101520000Y-64677000D01*
X101560000Y-63483000D02*
X101560000Y-64517000D01*
X101600000Y-63717000D02*
X101600000Y-64283000D01*
X101620000Y-64000000D02*
G75*
G02*
X96380000Y-64000000I-2620000J0D01*
G01*
X96380000Y-64000000D02*
G75*
G02*
X101620000Y-64000000I2620000J0D01*
G01*
D14*
%TO.C,Q5*%
X125260000Y-88430000D02*
X125260000Y-88430000D01*
X125360000Y-88430000D02*
X125360000Y-88430000D01*
D15*
X127400000Y-89700000D02*
X130600000Y-89700000D01*
D14*
X125260000Y-88430000D02*
G75*
G02*
X125360000Y-88430000I50000J0D01*
G01*
X125360000Y-88430000D02*
G75*
G02*
X125260000Y-88430000I-50000J0D01*
G01*
D15*
%TO.C,J2*%
X78135000Y-92390000D02*
X78135000Y-92390000D01*
X78135000Y-92390000D02*
X78135000Y-92390000D01*
X78135000Y-92590000D02*
X78135000Y-92590000D01*
D14*
X78830000Y-91490000D02*
X78830000Y-91490000D01*
X78830000Y-91490000D02*
X78830000Y-104240000D01*
X78830000Y-104240000D02*
X78830000Y-91490000D01*
X78830000Y-104240000D02*
X78830000Y-104240000D01*
X78830000Y-104340000D02*
X78830000Y-104340000D01*
X78830000Y-104340000D02*
X85885000Y-104340000D01*
X78880000Y-88490000D02*
X78880000Y-88490000D01*
X78880000Y-88490000D02*
X85885000Y-88490000D01*
X85885000Y-88490000D02*
X78880000Y-88490000D01*
X85885000Y-88490000D02*
X85885000Y-88490000D01*
X85885000Y-104340000D02*
X78830000Y-104340000D01*
X85885000Y-104340000D02*
X85885000Y-104340000D01*
X85940000Y-91490000D02*
X85940000Y-91490000D01*
X85940000Y-91490000D02*
X85940000Y-104240000D01*
X85940000Y-104240000D02*
X85940000Y-91490000D01*
X85940000Y-104240000D02*
X85940000Y-104240000D01*
D15*
X78135000Y-92390000D02*
G75*
G02*
X78135000Y-92590000I0J-100000D01*
G01*
X78135000Y-92590000D02*
G75*
G02*
X78135000Y-92390000I0J100000D01*
G01*
X78135000Y-92590000D02*
G75*
G02*
X78135000Y-92390000I0J100000D01*
G01*
D13*
%TO.C,R3*%
X168265000Y-71727064D02*
X168265000Y-71272936D01*
X169735000Y-71727064D02*
X169735000Y-71272936D01*
%TO.C,TP1*%
X87950000Y-64000000D02*
G75*
G02*
X85050000Y-64000000I-1450000J0D01*
G01*
X85050000Y-64000000D02*
G75*
G02*
X87950000Y-64000000I1450000J0D01*
G01*
D14*
%TO.C,Q6*%
X134260000Y-88430000D02*
X134260000Y-88430000D01*
X134360000Y-88430000D02*
X134360000Y-88430000D01*
D15*
X136400000Y-89700000D02*
X139600000Y-89700000D01*
D14*
X134260000Y-88430000D02*
G75*
G02*
X134360000Y-88430000I50000J0D01*
G01*
X134360000Y-88430000D02*
G75*
G02*
X134260000Y-88430000I-50000J0D01*
G01*
D12*
%TO.C,F1*%
X56360000Y-60935000D02*
X56360000Y-67665000D01*
X56360000Y-67665000D02*
X76170000Y-67665000D01*
X76170000Y-60935000D02*
X56360000Y-60935000D01*
X76170000Y-67665000D02*
X76170000Y-60935000D01*
D13*
%TO.C,R7*%
X140165000Y-65272936D02*
X140165000Y-65727064D01*
X141635000Y-65272936D02*
X141635000Y-65727064D01*
%TO.C,D7*%
X127440000Y-93805000D02*
X127440000Y-97665000D01*
X127440000Y-93805000D02*
X130560000Y-93805000D01*
X127730000Y-93675000D02*
X127730000Y-93675000D01*
X127730000Y-93675000D02*
X127730000Y-93805000D01*
X127730000Y-93805000D02*
X127730000Y-93675000D01*
X127730000Y-93805000D02*
X127730000Y-93805000D01*
X130270000Y-93675000D02*
X130270000Y-93675000D01*
X130270000Y-93675000D02*
X130270000Y-93805000D01*
X130270000Y-93805000D02*
X130270000Y-93675000D01*
X130270000Y-93805000D02*
X130270000Y-93805000D01*
X130560000Y-93805000D02*
X130560000Y-97665000D01*
X130560000Y-93805000D02*
X130960000Y-93805000D01*
X130560000Y-94925000D02*
X130560000Y-93805000D01*
X130960000Y-93805000D02*
X130960000Y-94925000D01*
X130960000Y-94925000D02*
X130560000Y-94925000D01*
X130560000Y-97665000D02*
G75*
G02*
X127440000Y-97665000I-1560000J0D01*
G01*
D15*
%TO.C,D1*%
X78470000Y-73775000D02*
X83070000Y-73775000D01*
X83070000Y-63375000D02*
X80000000Y-63375000D01*
X83070000Y-73775000D02*
X83070000Y-63375000D01*
D13*
%TO.C,R11*%
X120565000Y-77227064D02*
X120565000Y-76772936D01*
X122035000Y-77227064D02*
X122035000Y-76772936D01*
%TO.C,TP9*%
X120550000Y-70600000D02*
G75*
G02*
X117650000Y-70600000I-1450000J0D01*
G01*
X117650000Y-70600000D02*
G75*
G02*
X120550000Y-70600000I1450000J0D01*
G01*
%TO.C,C9*%
X105420000Y-63960000D02*
X106960000Y-63960000D01*
X105420000Y-64000000D02*
X106960000Y-64000000D01*
X105421000Y-63920000D02*
X106960000Y-63920000D01*
X105423000Y-63880000D02*
X106960000Y-63880000D01*
X105425000Y-63840000D02*
X106960000Y-63840000D01*
X105428000Y-63800000D02*
X106960000Y-63800000D01*
X105431000Y-63760000D02*
X106960000Y-63760000D01*
X105435000Y-63720000D02*
X106960000Y-63720000D01*
X105440000Y-63680000D02*
X106960000Y-63680000D01*
X105445000Y-63640000D02*
X106960000Y-63640000D01*
X105451000Y-63600000D02*
X106960000Y-63600000D01*
X105457000Y-63560000D02*
X106960000Y-63560000D01*
X105464000Y-63520000D02*
X106960000Y-63520000D01*
X105472000Y-63480000D02*
X106960000Y-63480000D01*
X105481000Y-63440000D02*
X106960000Y-63440000D01*
X105490000Y-63400000D02*
X106960000Y-63400000D01*
X105499000Y-63360000D02*
X106960000Y-63360000D01*
X105510000Y-63320000D02*
X106960000Y-63320000D01*
X105521000Y-63280000D02*
X106960000Y-63280000D01*
X105533000Y-63240000D02*
X106960000Y-63240000D01*
X105545000Y-63200000D02*
X106960000Y-63200000D01*
X105558000Y-63160000D02*
X106960000Y-63160000D01*
X105572000Y-63120000D02*
X106960000Y-63120000D01*
X105587000Y-63080000D02*
X106960000Y-63080000D01*
X105602000Y-63040000D02*
X106960000Y-63040000D01*
X105618000Y-63000000D02*
X106960000Y-63000000D01*
X105635000Y-62960000D02*
X106960000Y-62960000D01*
X105653000Y-62920000D02*
X106960000Y-62920000D01*
X105671000Y-62880000D02*
X106960000Y-62880000D01*
X105691000Y-62840000D02*
X106960000Y-62840000D01*
X105711000Y-62800000D02*
X106960000Y-62800000D01*
X105732000Y-62760000D02*
X106960000Y-62760000D01*
X105754000Y-62720000D02*
X106960000Y-62720000D01*
X105777000Y-62680000D02*
X106960000Y-62680000D01*
X105801000Y-62640000D02*
X106960000Y-62640000D01*
X105825000Y-62600000D02*
X106960000Y-62600000D01*
X105851000Y-62560000D02*
X106960000Y-62560000D01*
X105878000Y-62520000D02*
X106960000Y-62520000D01*
X105906000Y-62480000D02*
X106960000Y-62480000D01*
X105935000Y-62440000D02*
X106960000Y-62440000D01*
X105965000Y-62400000D02*
X106960000Y-62400000D01*
X105997000Y-62360000D02*
X106960000Y-62360000D01*
X106030000Y-62320000D02*
X106960000Y-62320000D01*
X106064000Y-62280000D02*
X106960000Y-62280000D01*
X106099000Y-62240000D02*
X106960000Y-62240000D01*
X106136000Y-62200000D02*
X106960000Y-62200000D01*
X106175000Y-62160000D02*
X106960000Y-62160000D01*
X106215000Y-62120000D02*
X106960000Y-62120000D01*
X106257000Y-62080000D02*
X106960000Y-62080000D01*
X106275000Y-66554775D02*
X106775000Y-66554775D01*
X106301000Y-62040000D02*
X106960000Y-62040000D01*
X106348000Y-62000000D02*
X106960000Y-62000000D01*
X106396000Y-61960000D02*
X109604000Y-61960000D01*
X106447000Y-61920000D02*
X109553000Y-61920000D01*
X106501000Y-61880000D02*
X109499000Y-61880000D01*
X106525000Y-66804775D02*
X106525000Y-66304775D01*
X106557000Y-61840000D02*
X109443000Y-61840000D01*
X106617000Y-61800000D02*
X109383000Y-61800000D01*
X106681000Y-61760000D02*
X109319000Y-61760000D01*
X106749000Y-61720000D02*
X109251000Y-61720000D01*
X106823000Y-61680000D02*
X109177000Y-61680000D01*
X106902000Y-61640000D02*
X109098000Y-61640000D01*
X106989000Y-61600000D02*
X109011000Y-61600000D01*
X107086000Y-61560000D02*
X108914000Y-61560000D01*
X107195000Y-61520000D02*
X108805000Y-61520000D01*
X107323000Y-61480000D02*
X108677000Y-61480000D01*
X107483000Y-61440000D02*
X108517000Y-61440000D01*
X107717000Y-61400000D02*
X108283000Y-61400000D01*
X109040000Y-62000000D02*
X109652000Y-62000000D01*
X109040000Y-62040000D02*
X109699000Y-62040000D01*
X109040000Y-62080000D02*
X109743000Y-62080000D01*
X109040000Y-62120000D02*
X109785000Y-62120000D01*
X109040000Y-62160000D02*
X109825000Y-62160000D01*
X109040000Y-62200000D02*
X109864000Y-62200000D01*
X109040000Y-62240000D02*
X109901000Y-62240000D01*
X109040000Y-62280000D02*
X109936000Y-62280000D01*
X109040000Y-62320000D02*
X109970000Y-62320000D01*
X109040000Y-62360000D02*
X110003000Y-62360000D01*
X109040000Y-62400000D02*
X110035000Y-62400000D01*
X109040000Y-62440000D02*
X110065000Y-62440000D01*
X109040000Y-62480000D02*
X110094000Y-62480000D01*
X109040000Y-62520000D02*
X110122000Y-62520000D01*
X109040000Y-62560000D02*
X110149000Y-62560000D01*
X109040000Y-62600000D02*
X110175000Y-62600000D01*
X109040000Y-62640000D02*
X110199000Y-62640000D01*
X109040000Y-62680000D02*
X110223000Y-62680000D01*
X109040000Y-62720000D02*
X110246000Y-62720000D01*
X109040000Y-62760000D02*
X110268000Y-62760000D01*
X109040000Y-62800000D02*
X110289000Y-62800000D01*
X109040000Y-62840000D02*
X110309000Y-62840000D01*
X109040000Y-62880000D02*
X110329000Y-62880000D01*
X109040000Y-62920000D02*
X110347000Y-62920000D01*
X109040000Y-62960000D02*
X110365000Y-62960000D01*
X109040000Y-63000000D02*
X110382000Y-63000000D01*
X109040000Y-63040000D02*
X110398000Y-63040000D01*
X109040000Y-63080000D02*
X110413000Y-63080000D01*
X109040000Y-63120000D02*
X110428000Y-63120000D01*
X109040000Y-63160000D02*
X110442000Y-63160000D01*
X109040000Y-63200000D02*
X110455000Y-63200000D01*
X109040000Y-63240000D02*
X110467000Y-63240000D01*
X109040000Y-63280000D02*
X110479000Y-63280000D01*
X109040000Y-63320000D02*
X110490000Y-63320000D01*
X109040000Y-63360000D02*
X110501000Y-63360000D01*
X109040000Y-63400000D02*
X110510000Y-63400000D01*
X109040000Y-63440000D02*
X110519000Y-63440000D01*
X109040000Y-63480000D02*
X110528000Y-63480000D01*
X109040000Y-63520000D02*
X110536000Y-63520000D01*
X109040000Y-63560000D02*
X110543000Y-63560000D01*
X109040000Y-63600000D02*
X110549000Y-63600000D01*
X109040000Y-63640000D02*
X110555000Y-63640000D01*
X109040000Y-63680000D02*
X110560000Y-63680000D01*
X109040000Y-63720000D02*
X110565000Y-63720000D01*
X109040000Y-63760000D02*
X110569000Y-63760000D01*
X109040000Y-63800000D02*
X110572000Y-63800000D01*
X109040000Y-63840000D02*
X110575000Y-63840000D01*
X109040000Y-63880000D02*
X110577000Y-63880000D01*
X109040000Y-63920000D02*
X110579000Y-63920000D01*
X109040000Y-63960000D02*
X110580000Y-63960000D01*
X109040000Y-64000000D02*
X110580000Y-64000000D01*
X110620000Y-64000000D02*
G75*
G02*
X105380000Y-64000000I-2620000J0D01*
G01*
X105380000Y-64000000D02*
G75*
G02*
X110620000Y-64000000I2620000J0D01*
G01*
%TO.C,R4*%
X168265000Y-66972936D02*
X168265000Y-67427064D01*
X169735000Y-66972936D02*
X169735000Y-67427064D01*
%TO.C,U2*%
X171905000Y-66490000D02*
X172170000Y-66490000D01*
X171905000Y-70350000D02*
X171905000Y-66490000D01*
X171905000Y-70350000D02*
X171905000Y-74210000D01*
X171905000Y-74210000D02*
X172170000Y-74210000D01*
X187525000Y-66490000D02*
X187260000Y-66490000D01*
X187525000Y-70350000D02*
X187525000Y-66490000D01*
X187525000Y-70350000D02*
X187525000Y-74210000D01*
X187525000Y-74210000D02*
X187260000Y-74210000D01*
X172170000Y-75062500D02*
X171700000Y-75402500D01*
X171700000Y-74722500D01*
X172170000Y-75062500D01*
G36*
X172170000Y-75062500D02*
G01*
X171700000Y-75402500D01*
X171700000Y-74722500D01*
X172170000Y-75062500D01*
G37*
D14*
%TO.C,Q2*%
X91260000Y-88400000D02*
X91260000Y-88400000D01*
X91360000Y-88400000D02*
X91360000Y-88400000D01*
D15*
X93400000Y-89670000D02*
X96600000Y-89670000D01*
D14*
X91260000Y-88400000D02*
G75*
G02*
X91360000Y-88400000I50000J0D01*
G01*
X91360000Y-88400000D02*
G75*
G02*
X91260000Y-88400000I-50000J0D01*
G01*
D15*
%TO.C,PS1*%
X89790000Y-68715000D02*
X89790000Y-77715000D01*
X89790000Y-77715000D02*
X101290000Y-77715000D01*
X91800000Y-68715000D02*
X89790000Y-68715000D01*
D14*
X93000000Y-67735000D02*
X93000000Y-67735000D01*
X93000000Y-67835000D02*
X93000000Y-67835000D01*
D15*
X101290000Y-68715000D02*
X99200000Y-68715000D01*
X101290000Y-77715000D02*
X101290000Y-68715000D01*
D14*
X93000000Y-67735000D02*
G75*
G02*
X93000000Y-67835000I0J-50000D01*
G01*
X93000000Y-67835000D02*
G75*
G02*
X93000000Y-67735000I0J50000D01*
G01*
D13*
%TO.C,D5*%
X102440000Y-93775000D02*
X102440000Y-97635000D01*
X102440000Y-93775000D02*
X105560000Y-93775000D01*
X102730000Y-93645000D02*
X102730000Y-93645000D01*
X102730000Y-93645000D02*
X102730000Y-93775000D01*
X102730000Y-93775000D02*
X102730000Y-93645000D01*
X102730000Y-93775000D02*
X102730000Y-93775000D01*
X105270000Y-93645000D02*
X105270000Y-93645000D01*
X105270000Y-93645000D02*
X105270000Y-93775000D01*
X105270000Y-93775000D02*
X105270000Y-93645000D01*
X105270000Y-93775000D02*
X105270000Y-93775000D01*
X105560000Y-93775000D02*
X105560000Y-97635000D01*
X105560000Y-93775000D02*
X105960000Y-93775000D01*
X105560000Y-94895000D02*
X105560000Y-93775000D01*
X105960000Y-93775000D02*
X105960000Y-94895000D01*
X105960000Y-94895000D02*
X105560000Y-94895000D01*
X105560000Y-97635000D02*
G75*
G02*
X102440000Y-97635000I-1560000J0D01*
G01*
D14*
%TO.C,Q14*%
X206260000Y-88430000D02*
X206260000Y-88430000D01*
X206360000Y-88430000D02*
X206360000Y-88430000D01*
D15*
X208400000Y-89700000D02*
X211600000Y-89700000D01*
D14*
X206260000Y-88430000D02*
G75*
G02*
X206360000Y-88430000I50000J0D01*
G01*
X206360000Y-88430000D02*
G75*
G02*
X206260000Y-88430000I-50000J0D01*
G01*
%TO.C,S1*%
X66400000Y-79300000D02*
X66400000Y-79300000D01*
X66500000Y-79300000D02*
X66500000Y-79300000D01*
D15*
X67470000Y-82300000D02*
X74330000Y-82300000D01*
X67470000Y-89110000D02*
X67470000Y-82300000D01*
X67790000Y-93827000D02*
X67790000Y-98944000D01*
X67790000Y-98944000D02*
X67790000Y-98944000D01*
X68101000Y-99310000D02*
X71522000Y-99310000D01*
X69565000Y-99310000D02*
X69565000Y-104410000D01*
X69565000Y-104410000D02*
X69565000Y-104410000D01*
X72235000Y-104410000D02*
X72235000Y-99310000D01*
X73699000Y-99310000D02*
X71522000Y-99310000D01*
X74010000Y-93827000D02*
X74010000Y-98944000D01*
X74010000Y-98944000D02*
X74010000Y-98944000D01*
X74330000Y-82300000D02*
X74330000Y-89110000D01*
D14*
X66400000Y-79300000D02*
G75*
G02*
X66500000Y-79300000I50000J0D01*
G01*
X66500000Y-79300000D02*
G75*
G02*
X66400000Y-79300000I-50000J0D01*
G01*
D15*
X68100770Y-99310154D02*
G75*
G02*
X67790000Y-98944000I59731J365655D01*
G01*
X72235000Y-104410000D02*
G75*
G02*
X69565000Y-104410000I-1335000J0D01*
G01*
X74010000Y-98944000D02*
G75*
G02*
X73699230Y-99310154I-370500J-500D01*
G01*
D14*
%TO.C,Q11*%
X179260000Y-88430000D02*
X179260000Y-88430000D01*
X179360000Y-88430000D02*
X179360000Y-88430000D01*
D15*
X181400000Y-89700000D02*
X184600000Y-89700000D01*
D14*
X179260000Y-88430000D02*
G75*
G02*
X179360000Y-88430000I50000J0D01*
G01*
X179360000Y-88430000D02*
G75*
G02*
X179260000Y-88430000I-50000J0D01*
G01*
D13*
%TO.C,TP11*%
X167650000Y-71200000D02*
G75*
G02*
X164750000Y-71200000I-1450000J0D01*
G01*
X164750000Y-71200000D02*
G75*
G02*
X167650000Y-71200000I1450000J0D01*
G01*
D14*
%TO.C,Q7*%
X143260000Y-88430000D02*
X143260000Y-88430000D01*
X143360000Y-88430000D02*
X143360000Y-88430000D01*
D15*
X145400000Y-89700000D02*
X148600000Y-89700000D01*
D14*
X143260000Y-88430000D02*
G75*
G02*
X143360000Y-88430000I50000J0D01*
G01*
X143360000Y-88430000D02*
G75*
G02*
X143260000Y-88430000I-50000J0D01*
G01*
%TO.C,Q8*%
X152260000Y-88430000D02*
X152260000Y-88430000D01*
X152360000Y-88430000D02*
X152360000Y-88430000D01*
D15*
X154400000Y-89700000D02*
X157600000Y-89700000D01*
D14*
X152260000Y-88430000D02*
G75*
G02*
X152360000Y-88430000I50000J0D01*
G01*
X152360000Y-88430000D02*
G75*
G02*
X152260000Y-88430000I-50000J0D01*
G01*
D15*
%TO.C,D3*%
X208100000Y-74925000D02*
X210100000Y-74925000D01*
X208100000Y-75075000D02*
X208100000Y-74925000D01*
X210100000Y-74925000D02*
X210100000Y-75075000D01*
X210100000Y-75075000D02*
X208100000Y-75075000D01*
X210275000Y-73425000D02*
X210275000Y-74575000D01*
D13*
%TO.C,D8*%
X136440000Y-93805000D02*
X136440000Y-97665000D01*
X136440000Y-93805000D02*
X139560000Y-93805000D01*
X136730000Y-93675000D02*
X136730000Y-93675000D01*
X136730000Y-93675000D02*
X136730000Y-93805000D01*
X136730000Y-93805000D02*
X136730000Y-93675000D01*
X136730000Y-93805000D02*
X136730000Y-93805000D01*
X139270000Y-93675000D02*
X139270000Y-93675000D01*
X139270000Y-93675000D02*
X139270000Y-93805000D01*
X139270000Y-93805000D02*
X139270000Y-93675000D01*
X139270000Y-93805000D02*
X139270000Y-93805000D01*
X139560000Y-93805000D02*
X139560000Y-97665000D01*
X139560000Y-93805000D02*
X139960000Y-93805000D01*
X139560000Y-94925000D02*
X139560000Y-93805000D01*
X139960000Y-93805000D02*
X139960000Y-94925000D01*
X139960000Y-94925000D02*
X139560000Y-94925000D01*
X139560000Y-97665000D02*
G75*
G02*
X136440000Y-97665000I-1560000J0D01*
G01*
%TO.C,D2*%
X57340000Y-93775000D02*
X57340000Y-97635000D01*
X57340000Y-93775000D02*
X60460000Y-93775000D01*
X57630000Y-93645000D02*
X57630000Y-93645000D01*
X57630000Y-93645000D02*
X57630000Y-93775000D01*
X57630000Y-93775000D02*
X57630000Y-93645000D01*
X57630000Y-93775000D02*
X57630000Y-93775000D01*
X60170000Y-93645000D02*
X60170000Y-93645000D01*
X60170000Y-93645000D02*
X60170000Y-93775000D01*
X60170000Y-93775000D02*
X60170000Y-93645000D01*
X60170000Y-93775000D02*
X60170000Y-93775000D01*
X60460000Y-93775000D02*
X60460000Y-97635000D01*
X60460000Y-93775000D02*
X60860000Y-93775000D01*
X60460000Y-94895000D02*
X60460000Y-93775000D01*
X60860000Y-93775000D02*
X60860000Y-94895000D01*
X60860000Y-94895000D02*
X60460000Y-94895000D01*
X60460000Y-97635000D02*
G75*
G02*
X57340000Y-97635000I-1560000J0D01*
G01*
%TO.C,D14*%
X190440000Y-93805000D02*
X190440000Y-97665000D01*
X190440000Y-93805000D02*
X193560000Y-93805000D01*
X190730000Y-93675000D02*
X190730000Y-93675000D01*
X190730000Y-93675000D02*
X190730000Y-93805000D01*
X190730000Y-93805000D02*
X190730000Y-93675000D01*
X190730000Y-93805000D02*
X190730000Y-93805000D01*
X193270000Y-93675000D02*
X193270000Y-93675000D01*
X193270000Y-93675000D02*
X193270000Y-93805000D01*
X193270000Y-93805000D02*
X193270000Y-93675000D01*
X193270000Y-93805000D02*
X193270000Y-93805000D01*
X193560000Y-93805000D02*
X193560000Y-97665000D01*
X193560000Y-93805000D02*
X193960000Y-93805000D01*
X193560000Y-94925000D02*
X193560000Y-93805000D01*
X193960000Y-93805000D02*
X193960000Y-94925000D01*
X193960000Y-94925000D02*
X193560000Y-94925000D01*
X193560000Y-97665000D02*
G75*
G02*
X190440000Y-97665000I-1560000J0D01*
G01*
%TO.C,TP5*%
X204450000Y-64000000D02*
G75*
G02*
X201550000Y-64000000I-1450000J0D01*
G01*
X201550000Y-64000000D02*
G75*
G02*
X204450000Y-64000000I1450000J0D01*
G01*
%TO.C,TP8*%
X159650000Y-74800000D02*
G75*
G02*
X156750000Y-74800000I-1450000J0D01*
G01*
X156750000Y-74800000D02*
G75*
G02*
X159650000Y-74800000I1450000J0D01*
G01*
%TO.C,D9*%
X145440000Y-93805000D02*
X145440000Y-97665000D01*
X145440000Y-93805000D02*
X148560000Y-93805000D01*
X145730000Y-93675000D02*
X145730000Y-93675000D01*
X145730000Y-93675000D02*
X145730000Y-93805000D01*
X145730000Y-93805000D02*
X145730000Y-93675000D01*
X145730000Y-93805000D02*
X145730000Y-93805000D01*
X148270000Y-93675000D02*
X148270000Y-93675000D01*
X148270000Y-93675000D02*
X148270000Y-93805000D01*
X148270000Y-93805000D02*
X148270000Y-93675000D01*
X148270000Y-93805000D02*
X148270000Y-93805000D01*
X148560000Y-93805000D02*
X148560000Y-97665000D01*
X148560000Y-93805000D02*
X148960000Y-93805000D01*
X148560000Y-94925000D02*
X148560000Y-93805000D01*
X148960000Y-93805000D02*
X148960000Y-94925000D01*
X148960000Y-94925000D02*
X148560000Y-94925000D01*
X148560000Y-97665000D02*
G75*
G02*
X145440000Y-97665000I-1560000J0D01*
G01*
%TO.C,C1*%
X136765000Y-65723753D02*
X136765000Y-65201247D01*
X138235000Y-65723753D02*
X138235000Y-65201247D01*
%TO.C,R12*%
X209772936Y-67265000D02*
X210227064Y-67265000D01*
X209772936Y-68735000D02*
X210227064Y-68735000D01*
%TD*%
M02*
